<svg width="44" height="44" viewBox="0 0 44 44" fill="none" xmlns="http://www.w3.org/2000/svg">
<circle cx="22" cy="22" r="22" fill="#19e2c6"/>
<g clip-path="url(#clip0_1040_19868)">
<path d="M34.9774 15.2738H33.3966V14.0843C33.3966 13.8626 33.2643 13.6623 33.0604 13.5752C29.7217 12.15 25.614 12.754 22.2478 15.1415C18.8818 12.754 14.7739 12.1502 11.4354 13.5752C11.2314 13.6623 11.0992 13.8626 11.0992 14.0843V15.2738H9.51829C9.21268 15.2738 8.96484 15.5216 8.96484 15.8273V31.1251C8.96484 31.4308 9.21268 31.6786 9.51829 31.6786H22.2479H34.9774C35.2831 31.6786 35.5309 31.4307 35.5309 31.1251V15.8274C35.5309 15.5217 35.2831 15.2738 34.9774 15.2738ZM10.0717 30.5717V16.3808H11.0992V29.3821C11.0992 29.568 11.1925 29.7414 11.3476 29.8439C11.5028 29.9463 11.6989 29.964 11.8699 29.8911C14.4623 28.7844 17.593 29.0612 20.3717 30.5717H10.0717ZM21.6944 30.0669C19.6745 28.7797 17.4274 28.1113 15.2584 28.1113C14.2113 28.1113 13.1824 28.2671 12.2061 28.5842V15.8338C12.2061 15.8316 12.2065 15.8295 12.2065 15.8274C12.2065 15.8252 12.2062 15.8231 12.2061 15.8209V14.4586C15.1581 13.3522 18.7376 13.9709 21.6944 16.1064V30.0669ZM22.8013 16.1064C25.7581 13.9709 29.3378 13.3522 32.2897 14.4586V15.8209C32.2897 15.823 32.2893 15.8252 32.2893 15.8273C32.2893 15.8294 32.2896 15.8316 32.2897 15.8337V28.5841C29.2909 27.61 25.7965 28.1582 22.8013 30.0668V16.1064ZM34.424 30.5717H24.1239C26.9027 29.0612 30.0334 28.7844 32.6259 29.8911C32.7968 29.9641 32.9931 29.9464 33.1481 29.8439C33.3033 29.7414 33.3966 29.568 33.3966 29.3821V16.3808H34.424V30.5717Z" fill="white"/>
</g>
<defs>
<clipPath id="clip0_1040_19868">
<rect width="26.566" height="26.566" fill="white" transform="translate(8.96484 8.96289)"/>
</clipPath>
</defs>
</svg>
