<svg width="218" height="135" viewBox="0 0 218 135" fill="none" xmlns="http://www.w3.org/2000/svg">
<mask id="mask0_1421_2803" style="mask-type:alpha" maskUnits="userSpaceOnUse" x="0" y="0" width="332" height="187">
<path d="M195.77 33.6651L195.81 33.4847L164.97 27.2618L195.563 3.89058L226.709 9.5315L195.673 33.5187L195.77 33.6651L195.867 33.8113L227.565 9.31147L195.493 3.50358L164.124 27.467L195.804 33.8602L195.867 33.8113L195.77 33.6651Z" fill="#D85A42" fill-opacity="0.35"/>
<path d="M228.403 40.2484L228.443 40.0687L196.191 33.5602L227.173 9.61372L259.735 15.5105L228.306 40.1026L228.403 40.2484L228.501 40.3941L260.585 15.2901L227.102 9.22636L195.351 33.7671L228.438 40.4436L228.501 40.3941L228.403 40.2484Z" fill="#D85A42" fill-opacity="0.35"/>
<path d="M163.806 58.3694L163.85 58.1906L133.404 51.376L164.581 27.5594L195.35 33.7685L163.71 58.2231L163.806 58.3694L163.903 58.5157L196.19 33.5616L164.514 27.1694L132.575 51.5684L163.838 58.5663L163.903 58.5157L163.806 58.3694Z" fill="#D85A42" fill-opacity="0.35"/>
<path d="M196.027 65.5818L196.071 65.403L164.218 58.2728L195.804 33.8603L227.985 40.3541L195.93 65.4361L196.027 65.5818L196.125 65.7285L228.819 40.1463L195.736 33.4701L163.395 58.4668L196.06 65.7789L196.125 65.7285L196.027 65.5818Z" fill="#D85A42" fill-opacity="0.35"/>
<path d="M229.752 73.1317L229.795 72.9522L196.436 65.4851L228.437 40.4457L262.128 47.2446L229.654 72.9858L229.752 73.1317L229.851 73.2764L262.956 47.035L228.368 40.0552L195.619 65.6807L229.785 73.3275L229.851 73.2764L229.752 73.1317Z" fill="#D85A42" fill-opacity="0.35"/>
<path d="M131.228 83.5492L131.275 83.3706L101.245 75.9432L133.022 51.668L163.395 58.4668L131.132 83.4029L131.228 83.5492L131.325 83.6964L164.218 58.2728L132.958 51.2758L100.433 76.1226L131.259 83.7473L131.325 83.6964L131.228 83.5492Z" fill="#D85A42" fill-opacity="0.35"/>
<path d="M163.017 91.4113L163.063 91.2326L131.632 83.4583L163.839 58.5659L195.62 65.6796L162.92 91.2655L163.017 91.4113L163.115 91.5579L196.437 65.484L163.775 58.1736L130.825 83.6392L163.048 91.6094L163.115 91.5579L163.017 91.4113Z" fill="#D85A42" fill-opacity="0.35"/>
<path d="M196.303 99.6437L196.35 99.4651L163.418 91.3195L196.061 65.7778L229.347 73.2275L196.205 99.4985L196.303 99.6437L196.401 99.789L230.158 73.031L195.995 65.3844L162.616 91.5017L196.334 99.8421L196.401 99.789L196.303 99.6437Z" fill="#D85A42" fill-opacity="0.35"/>
<path d="M231.195 108.274L231.241 108.095L196.7 99.552L229.786 73.3261L264.685 81.1379L231.095 108.13L231.195 108.274L231.294 108.419L265.49 80.9398L229.719 72.9331L195.905 99.7361L231.227 108.473L231.294 108.419L231.195 108.274Z" fill="#D85A42" fill-opacity="0.35"/>
<path d="M98.0183 109.217L98.0682 109.039L68.4749 100.976L100.868 76.2295L130.825 83.6392L97.9212 109.071L98.0183 109.217L98.1148 109.363L131.631 83.4584L100.809 75.8347L67.6809 101.142L98.0468 109.416L98.1148 109.363L98.0183 109.217Z" fill="#D85A42" fill-opacity="0.35"/>
<path d="M129.35 117.754L129.399 117.576L98.4123 109.133L131.259 83.7469L162.615 91.5024L129.252 117.609L129.35 117.754L129.447 117.9L163.417 91.3202L131.197 83.3515L97.6229 109.3L129.379 117.954L129.447 117.9L129.35 117.754Z" fill="#D85A42" fill-opacity="0.35"/>
<path d="M162.174 126.697L162.223 126.519L129.742 117.669L163.048 91.6086L195.905 99.7357L162.075 126.552L162.174 126.697L162.272 126.842L196.7 99.5516L162.986 91.2131L128.958 117.838L162.203 126.896L162.272 126.842L162.174 126.697Z" fill="#D85A42" fill-opacity="0.35"/>
<path d="M196.598 136.077L196.648 135.9L162.563 126.612L196.335 99.8423L230.801 108.367L196.498 135.932L196.598 136.077L196.697 136.221L231.59 108.182L196.272 99.4464L161.785 126.782L196.628 136.277L196.697 136.221L196.598 136.077Z" fill="#D85A42" fill-opacity="0.35"/>
<path d="M232.74 145.925L232.791 145.747L196.983 135.991L231.228 108.472L267.421 117.424L232.64 145.781L232.74 145.925L232.841 146.068L268.203 117.237L231.163 108.076L196.211 136.162L232.771 146.125L232.841 146.068L232.74 145.925Z" fill="#D85A42" fill-opacity="0.35"/>
<path d="M64.1572 135.388L64.2109 135.212L35.0786 126.489L68.106 101.258L97.6236 109.301L64.0608 135.241L64.1572 135.388L64.2542 135.535L98.4129 109.134L68.0504 100.86L34.3017 126.642L64.1838 135.588L64.2542 135.535L64.1572 135.388Z" fill="#D85A42" fill-opacity="0.35"/>
<path d="M95.0089 144.624L95.0627 144.447L64.5436 135.31L98.0475 109.415L128.959 117.838L94.9115 144.478L95.0089 144.624L95.1062 144.77L129.742 117.669L97.9898 109.017L63.7721 135.464L95.0361 144.825L95.1062 144.77L95.0089 144.624Z" fill="#D85A42" fill-opacity="0.35"/>
<path d="M127.342 154.306L127.396 154.13L95.3908 144.547L129.378 117.954L161.783 126.784L127.243 154.161L127.342 154.306L127.44 154.452L162.562 126.613L129.32 117.555L94.6239 144.703L127.37 154.508L127.44 154.452L127.342 154.306Z" fill="#D85A42" fill-opacity="0.35"/>
<path d="M161.27 164.466L161.324 164.289L127.724 154.229L162.203 126.898L196.21 136.165L161.171 164.322L161.27 164.466L161.369 164.611L196.982 135.993L162.143 126.499L126.962 154.386L161.299 164.667L161.369 164.611L161.27 164.466Z" fill="#D85A42" fill-opacity="0.35"/>
<path d="M196.911 175.137L196.965 174.96L161.648 164.386L196.627 136.278L232.357 146.014L196.811 174.994L196.911 175.137L197.012 175.281L233.123 145.839L196.566 135.878L160.892 164.545L196.94 175.339L197.012 175.281L196.911 175.137Z" fill="#D85A42" fill-opacity="0.35"/>
<path d="M29.6273 162.076L29.6851 161.901L1.03635 152.494L34.7163 126.765L63.7721 135.465L29.5302 161.93L29.6273 162.076L29.7238 162.223L64.5437 135.31L34.6644 126.364L0.276825 152.633L29.6513 162.279L29.7238 162.223L29.6273 162.076Z" fill="#D85A42" fill-opacity="0.35"/>
<path d="M59.9704 172.04L60.028 171.865L30.003 162.006L64.1827 135.588L94.6238 144.703L59.8729 171.895L59.9704 172.04L60.0676 172.187L95.3908 144.548L64.13 135.188L29.2486 162.147L59.9949 172.243L60.0676 172.187L59.9704 172.04Z" fill="#D85A42" fill-opacity="0.35"/>
<path d="M191.979 6.40779L191.965 3.05108L199.07 0.990936L199.11 4.34522L191.979 6.40779Z" fill="#D85A42" fill-opacity="0.35"/>
<path d="M160.931 30.1252L161.027 26.653L168.154 24.6072L168.084 28.0771L160.931 30.1252Z" fill="#D85A42" fill-opacity="0.35"/>
<path d="M192.109 36.4942L192.094 32.9223L199.424 30.8402L199.466 34.4097L192.109 36.4942Z" fill="#D85A42" fill-opacity="0.35"/>
<path d="M129.307 54.2857L129.517 50.6943L136.665 48.6649L136.48 52.253L129.307 54.2857Z" fill="#D85A42" fill-opacity="0.35"/>
<path d="M160.076 61.2525L160.178 57.5563L167.53 55.4919L167.455 59.1847L160.076 61.2525Z" fill="#D85A42" fill-opacity="0.35"/>
<path d="M192.247 68.5409L192.231 64.7331L199.798 62.6321L199.844 66.4371L192.247 68.5409Z" fill="#D85A42" fill-opacity="0.35"/>
<path d="M97.0871 78.898L97.4153 75.1842L104.584 73.1712L104.281 76.8833L97.0871 78.898Z" fill="#D85A42" fill-opacity="0.35"/>
<path d="M127.425 86.4892L127.648 82.6644L135.022 80.6166L134.826 84.4395L127.425 86.4892Z" fill="#D85A42" fill-opacity="0.35"/>
<path d="M159.161 94.4277L159.27 90.4847L166.862 88.4018L166.783 92.3429L159.161 94.4277Z" fill="#D85A42" fill-opacity="0.35"/>
<path d="M192.396 102.742L192.379 98.674L200.201 96.5556L200.249 100.621L192.396 102.742Z" fill="#D85A42" fill-opacity="0.35"/>
<path d="M64.254 103.98L64.7051 100.14L71.8941 98.1437L71.4683 101.983L64.254 103.98Z" fill="#D85A42" fill-opacity="0.35"/>
<path d="M94.1413 112.213L94.4913 108.255L101.887 106.227L101.565 110.183L94.1413 112.213Z" fill="#D85A42" fill-opacity="0.35"/>
<path d="M125.417 120.831L125.656 116.747L133.271 114.685L133.062 118.766L125.417 120.831Z" fill="#D85A42" fill-opacity="0.35"/>
<path d="M158.187 129.858L158.303 125.643L166.15 123.545L166.065 127.759L158.187 129.858Z" fill="#D85A42" fill-opacity="0.35"/>
<path d="M192.554 139.326L192.535 134.971L200.63 132.837L200.681 137.191L192.554 139.326Z" fill="#D85A42" fill-opacity="0.35"/>
<path d="M30.7927 129.543L31.3713 125.572L38.5791 123.594L38.0259 127.564L30.7927 129.543Z" fill="#D85A42" fill-opacity="0.35"/>
<path d="M60.2041 138.443L60.6851 134.347L68.1026 132.337L67.649 136.432L60.2041 138.443Z" fill="#D85A42" fill-opacity="0.35"/>
<mask id="mask1_1421_2803" style="mask-type:luminance" maskUnits="userSpaceOnUse" x="167" y="3" width="49" height="31">
<path d="M167.688 26.2063L192.404 5.92545L192.397 6.14845L192.862 5.985L168.137 26.2726L168.15 26.0447L167.688 26.2063ZM199.128 3.77819L199.526 3.63767L199.531 3.44651L211.1 4.93755L215.181 5.84659L199.128 3.77819Z" fill="white"/>
</mask>
<g mask="url(#mask1_1421_2803)">
<rect width="40.3297" height="34.8829" transform="matrix(0.980847 0.206044 -0.294427 0.951 176.286 -2.95166)" fill="#D85A42" fill-opacity="0.35"/>
</g>
<mask id="mask2_1421_2803" style="mask-type:luminance" maskUnits="userSpaceOnUse" x="198" y="11" width="59" height="29">
<path d="M198.958 32.6884L224.069 11.8179L224.069 12.0388L224.527 11.879L207.908 25.6909L199.407 32.7556L199.412 32.5304L198.958 32.6884Z" fill="white"/>
</mask>
<g mask="url(#mask2_1421_2803)">
<rect width="51.121" height="32.4822" transform="matrix(0.979647 0.209364 -0.291421 0.951708 206.872 5.50635)" fill="#D85A42" fill-opacity="0.35"/>
</g>
<mask id="mask3_1421_2803" style="mask-type:luminance" maskUnits="userSpaceOnUse" x="135" y="27" width="58" height="32">
<path d="M135.968 54.1769L135.969 54.1771L159.639 58.3112L135.968 54.1769ZM136.198 50.5278L161.434 29.8021L161.419 30.033L161.882 29.871L136.638 50.6035L136.658 50.3691L136.198 50.5278ZM168.203 27.6661L168.59 27.5311L168.601 27.3388L192.614 30.9796L192.226 31.1143L192.22 31.3069L168.203 27.6661Z" fill="white"/>
</mask>
<g mask="url(#mask3_1421_2803)">
<rect width="49.6678" height="36.4817" transform="matrix(0.980275 0.207619 -0.293091 0.951308 145.11 19.9587)" fill="#D85A42" fill-opacity="0.35"/>
</g>
<mask id="mask4_1421_2803" style="mask-type:luminance" maskUnits="userSpaceOnUse" x="167" y="33" width="59" height="33">
<path d="M170.015 61.7139L191.684 65.5016L191.683 65.5023L170.015 61.7139ZM167.318 60.8538L167.318 60.853L192.068 65.1798L167.318 60.8538ZM167.067 57.4183L175.977 50.0221L192.62 36.2056L192.613 36.4312L193.066 36.2741L167.506 57.4929L167.519 57.2638L167.067 57.4183ZM198.836 62.8785L224.703 41.1636L224.703 41.1644L198.836 62.8778L198.836 62.8785ZM199.601 34.0152L199.99 33.88L199.995 33.6877L225.094 37.4973L224.703 37.6312L224.703 37.8245L199.601 34.0152Z" fill="white"/>
</mask>
<g mask="url(#mask4_1421_2803)">
<rect width="51.6015" height="37.2698" transform="matrix(0.980208 0.207804 -0.29292 0.951348 176.354 26.2341)" fill="#D85A42" fill-opacity="0.35"/>
</g>
<mask id="mask5_1421_2803" style="mask-type:luminance" maskUnits="userSpaceOnUse" x="199" y="40" width="61" height="31">
<path d="M199.242 64.668L225.138 42.9092L225.138 43.1299L225.582 42.9775L199.679 64.7433L199.684 64.5182L199.242 64.668ZM232.555 70.4238L258.77 48.1355L258.77 48.1362L232.556 70.423L232.555 70.4238ZM232.35 40.6608L232.742 40.5268L232.74 40.3325L259.041 44.3473L258.646 44.4808L258.653 44.6762L232.35 40.6608Z" fill="white"/>
</mask>
<g mask="url(#mask5_1421_2803)">
<rect width="53.0757" height="34.4088" transform="matrix(0.979741 0.209103 -0.291678 0.951646 208.443 32.7385)" fill="#D85A42" fill-opacity="0.35"/>
</g>
<mask id="mask6_1421_2803" style="mask-type:luminance" maskUnits="userSpaceOnUse" x="103" y="51" width="58" height="30">
<path d="M104.125 75.0436L129.833 53.9278L129.811 54.1651L130.271 54.0055L104.555 75.1281L104.582 74.8867L104.125 75.0436ZM134.058 80.9165L160.093 59.3045L134.058 80.9158L134.058 80.9165ZM134.486 80.9998L160.528 59.3823L160.529 59.3824L134.486 80.9998ZM136.63 51.807L137.003 51.6777L137.02 51.4859L149.144 53.6044L160.692 55.622L160.317 55.7509L160.305 55.9437L136.63 51.807Z" fill="white"/>
</mask>
<g mask="url(#mask6_1421_2803)">
<rect width="50.3448" height="36.4924" transform="matrix(0.980223 0.207765 -0.292957 0.951339 112.926 44.686)" fill="#D85A42" fill-opacity="0.35"/>
</g>
<mask id="mask7_1421_2803" style="mask-type:luminance" maskUnits="userSpaceOnUse" x="134" y="58" width="59" height="34">
<path d="M134.701 86.0794L159.071 90.9344L159.07 90.9343L134.701 86.0794ZM134.573 82.505L160.604 60.8991L160.589 61.1308L161.039 60.9768L135.001 82.589L135.021 82.353L134.573 82.505ZM167.61 58.7255L167.986 58.596L167.996 58.4044L192.734 62.7235L192.356 62.8518L192.35 63.0452L170.691 59.2635L167.61 58.7255Z" fill="white"/>
</mask>
<g mask="url(#mask7_1421_2803)">
<rect width="50.6538" height="37.2548" transform="matrix(0.98028 0.207604 -0.293104 0.951305 143.73 51.5024)" fill="#D85A42" fill-opacity="0.35"/>
</g>
<mask id="mask8_1421_2803" style="mask-type:luminance" maskUnits="userSpaceOnUse" x="166" y="65" width="61" height="35">
<path d="M166.423 90.3705L192.796 68.2312L192.789 68.4576L193.23 68.3079L180.532 78.9675L166.849 90.4541L166.862 90.2226L166.423 90.3705ZM199.64 96.8923L199.641 96.8916L226.357 74.1989L199.64 96.8923ZM200.026 66.0017L200.405 65.8729L200.41 65.6792L226.308 70.2075L225.927 70.3352L225.927 70.5302L200.026 66.0017Z" fill="white"/>
</mask>
<g mask="url(#mask8_1421_2803)">
<rect width="53.5357" height="38.0578" transform="matrix(0.980143 0.207984 -0.292753 0.951388 175.755 58.7695)" fill="#D85A42" fill-opacity="0.35"/>
</g>
<mask id="mask9_1421_2803" style="mask-type:luminance" maskUnits="userSpaceOnUse" x="199" y="73" width="63" height="35">
<path d="M200.089 102.407L226.847 107.748L226.846 107.748L200.089 102.407ZM199.757 98.5857L226.474 75.8889L226.473 76.1107L226.904 75.9665L200.181 98.6683L200.187 98.4429L199.757 98.5857ZM234.144 105.343L261.202 82.0689L234.144 105.343L234.144 105.343ZM233.941 73.6022L234.322 73.4745L234.32 73.2799L261.455 78.029L261.072 78.1562L261.079 78.352L259.985 78.1608L233.941 73.6022Z" fill="white"/>
</mask>
<g mask="url(#mask9_1421_2803)">
<rect width="55.1343" height="38.7646" transform="matrix(0.980097 0.208111 -0.292634 0.951416 209.463 66.0918)" fill="#D85A42" fill-opacity="0.35"/>
</g>
<mask id="mask10_1421_2803" style="mask-type:luminance" maskUnits="userSpaceOnUse" x="71" y="76" width="58" height="33">
<path d="M71.4339 100.006L97.626 78.4933L97.5964 78.736L98.0532 78.5796L71.8528 100.099L71.8887 99.8519L71.4339 100.006ZM104.448 76.3891L104.809 76.2657L104.831 76.0736L128.143 80.7208L127.779 80.8444L127.761 81.0368L113.992 78.2915L104.448 76.3891Z" fill="white"/>
</mask>
<g mask="url(#mask10_1421_2803)">
<rect width="49.7472" height="36.1799" transform="matrix(0.980236 0.207727 -0.292991 0.951331 80.3887 69.6023)" fill="#D85A42" fill-opacity="0.35"/>
</g>
<mask id="mask11_1421_2803" style="mask-type:luminance" maskUnits="userSpaceOnUse" x="101" y="83" width="59" height="35">
<path d="M125.071 117.588L101.075 112.17L125.071 117.587L125.071 117.588ZM101.448 108.137L114.354 97.423L127.986 86.1065L127.964 86.3446L128.411 86.1923L115.271 97.1008L101.865 108.23L101.892 107.987L101.448 108.137ZM135.02 83.9503L135.384 83.8266L135.401 83.634L159.78 88.4949L159.415 88.6182L159.403 88.8119L135.02 83.9503Z" fill="white"/>
</mask>
<g mask="url(#mask11_1421_2803)">
<rect width="51.9282" height="37.578" transform="matrix(0.980216 0.207783 -0.29294 0.951344 110.659 77.1433)" fill="#D85A42" fill-opacity="0.35"/>
</g>
<mask id="mask12_1421_2803" style="mask-type:luminance" maskUnits="userSpaceOnUse" x="132" y="91" width="61" height="36">
<path d="M132.831 116.646L149.471 102.677L159.723 94.0705L159.708 94.3031L160.147 94.156L133.246 116.739L133.266 116.501L132.831 116.646ZM166.983 91.8595L167.35 91.7365L167.36 91.5424L192.886 96.6348L192.518 96.7568L192.512 96.9519L166.983 91.8595Z" fill="white"/>
</mask>
<g mask="url(#mask12_1421_2803)">
<rect width="53.2" height="37.9768" transform="matrix(0.98016 0.207936 -0.292797 0.951377 142.232 84.9551)" fill="#D85A42" fill-opacity="0.35"/>
</g>
<mask id="mask13_1421_2803" style="mask-type:luminance" maskUnits="userSpaceOnUse" x="165" y="99" width="63" height="35">
<path d="M165.607 125.645L168.92 122.828L192.891 102.44L192.885 102.668L193.314 102.526L166.022 125.737L166.034 125.504L165.607 125.645ZM217.96 117.857L227.64 109.521L227.64 109.521L217.96 117.857ZM200.402 100.172L200.771 100.05L200.775 99.8539L227.587 105.233L227.216 105.355L227.217 105.552L200.402 100.172Z" fill="white"/>
</mask>
<g mask="url(#mask13_1421_2803)">
<rect width="55.6393" height="34.8238" transform="matrix(0.979575 0.209565 -0.291223 0.951756 175.185 93.157)" fill="#D85A42" fill-opacity="0.35"/>
</g>
<mask id="mask14_1421_2803" style="mask-type:luminance" maskUnits="userSpaceOnUse" x="200" y="108" width="65" height="38">
<path d="M227.832 145.583L200.165 139.332L227.832 145.582L227.832 145.583ZM200.217 134.899L227.831 111.148L227.831 111.371L228.249 111.234L218.58 119.549L200.628 134.99L200.633 134.763L200.217 134.899ZM235.578 108.824L235.95 108.702L235.948 108.506L243.492 110.011L264.015 114.107L263.642 114.228L263.649 114.425L235.578 108.824Z" fill="white"/>
</mask>
<g mask="url(#mask14_1421_2803)">
<rect width="56.7178" height="39.8502" transform="matrix(0.980094 0.208119 -0.292626 0.951418 210.011 101.919)" fill="#D85A42" fill-opacity="0.35"/>
</g>
<mask id="mask15_1421_2803" style="mask-type:luminance" maskUnits="userSpaceOnUse" x="37" y="101" width="58" height="32">
<path d="M67.1113 132.713L71.1894 129.328L67.1115 132.713L67.1113 132.713ZM38.5421 125.559L38.5853 125.306L38.134 125.458L64.823 103.536L64.7858 103.786L65.2397 103.632L38.5421 125.559ZM94.6039 106.626L71.6685 101.45L72.0176 101.332L72.0446 101.14L94.9773 106.316L94.627 106.434L94.6039 106.626Z" fill="white"/>
</mask>
<g mask="url(#mask15_1421_2803)">
<rect width="50.33" height="36.8709" transform="matrix(0.980265 0.207647 -0.293065 0.951314 47.0918 95.092)" fill="#D85A42" fill-opacity="0.35"/>
</g>
<mask id="mask16_1421_2803" style="mask-type:luminance" maskUnits="userSpaceOnUse" x="67" y="109" width="60" height="36">
<path d="M68.094 134.339L68.1297 134.09L67.6883 134.237L71.7656 130.853L94.7357 111.788L94.7057 112.032L95.1497 111.883L68.094 134.339ZM125.782 115.062L101.794 109.65L102.145 109.532L102.167 109.34L126.153 114.751L125.8 114.869L125.782 115.062Z" fill="white"/>
</mask>
<g mask="url(#mask16_1421_2803)">
<rect width="51.9105" height="38.0322" transform="matrix(0.980265 0.207646 -0.293066 0.951314 76.7471 103.534)" fill="#D85A42" fill-opacity="0.35"/>
</g>
<mask id="mask17_1421_2803" style="mask-type:luminance" maskUnits="userSpaceOnUse" x="98" y="117" width="61" height="38">
<path d="M99.0125 143.543L99.0403 143.299L98.6086 143.441L126.029 120.426L126.007 120.665L126.441 120.52L124.619 122.05L99.0125 143.543ZM140.662 143.127L158.606 127.888L158.607 127.888L140.662 143.127ZM158.44 123.906L133.314 118.235L133.667 118.118L133.684 117.925L158.807 123.594L158.452 123.711L158.44 123.906Z" fill="white"/>
</mask>
<g mask="url(#mask17_1421_2803)">
<rect width="53.8473" height="38.7447" transform="matrix(0.980193 0.207847 -0.292881 0.951358 107.733 111.96)" fill="#D85A42" fill-opacity="0.35"/>
</g>
<mask id="mask18_1421_2803" style="mask-type:luminance" maskUnits="userSpaceOnUse" x="130" y="126" width="64" height="36">
<path d="M164.764 161.564L192.96 137.313L192.961 137.313L164.764 161.564ZM131.395 153.201L131.415 152.962L130.992 153.1L158.798 129.481L158.784 129.714L159.208 129.574L141.259 144.822L131.395 153.201ZM192.681 133.189L166.325 127.235L166.68 127.118L166.692 126.923L193.045 132.876L192.687 132.993L192.681 133.189Z" fill="white"/>
</mask>
<g mask="url(#mask18_1421_2803)">
<rect width="55.7289" height="39.1527" transform="matrix(0.980094 0.20812 -0.292625 0.951418 140.359 120.825)" fill="#D85A42" fill-opacity="0.35"/>
</g>
<mask id="mask19_1421_2803" style="mask-type:luminance" maskUnits="userSpaceOnUse" x="164" y="136" width="65" height="39">
<path d="M165.406 163.277L165.419 163.044L165.006 163.177L193.185 138.947L193.178 139.175L193.593 139.04L165.406 163.277ZM228.61 142.884L200.961 136.645L201.32 136.529L201.324 136.333L228.764 142.525L228.97 142.571L228.61 142.687L228.61 142.884Z" fill="white"/>
</mask>
<g mask="url(#mask19_1421_2803)">
</g>
<mask id="mask20_1421_2803" style="mask-type:luminance" maskUnits="userSpaceOnUse" x="3" y="126" width="59" height="35">
<path d="M20.0336 160.273L3.50321 155.577L3.50347 155.577L20.0336 160.273ZM32.6486 159.353L60.2146 136.479L32.6493 159.353L32.6486 159.353ZM4.61046 151.497L4.66167 151.236L4.21443 151.385L31.3981 129.064L31.3535 129.32L31.8036 129.168L4.61046 151.497ZM60.7783 132.71L38.2608 126.999L38.5978 126.885L38.6303 126.694L48.8491 129.287L61.1459 132.405L60.8071 132.518L60.7783 132.71Z" fill="white"/>
</mask>
<g mask="url(#mask20_1421_2803)">
<rect width="50.2722" height="38.384" transform="matrix(0.980424 0.207208 -0.293462 0.951221 13.332 120.831)" fill="#D85A42" fill-opacity="0.35"/>
</g>
<mask id="mask21_1421_2803" style="mask-type:luminance" maskUnits="userSpaceOnUse" x="32" y="135" width="60" height="37">
<path d="M56.1279 171.444L32.9906 164.873L32.9908 164.872L56.1279 171.444ZM63.4324 169.3L63.4326 169.299L70.9579 162.985L63.4324 169.3ZM33.658 160.959L33.702 160.703L33.2644 160.848L60.8264 137.978L60.789 138.228L61.2295 138.08L43.9801 152.394L33.658 160.959ZM91.4673 141.835L69.8069 136.344L67.9038 135.861L68.2434 135.748L68.2707 135.556L75.1002 137.288L91.8314 141.531L91.4907 141.643L91.4673 141.835Z" fill="white"/>
</mask>
<g mask="url(#mask21_1421_2803)">
</g>
<mask id="mask22_1421_2803" style="mask-type:luminance" maskUnits="userSpaceOnUse" x="191" y="2" width="9" height="5">
<path d="M191.944 6.63176L191.951 6.40815L192.054 3.20751L195.428 2.01956L199.122 2.84563L199.095 3.92895L199.09 4.12064L198.691 4.26118L192.41 6.46829L191.944 6.63176Z" fill="white"/>
</mask>
<g mask="url(#mask22_1421_2803)">
<rect width="7.965" height="6.35064" transform="matrix(0.980581 0.206775 -0.293833 0.951136 192.114 0.918457)" fill="#D85A42" fill-opacity="0.35"/>
</g>
<mask id="mask23_1421_2803" style="mask-type:luminance" maskUnits="userSpaceOnUse" x="160" y="24" width="9" height="7">
<path d="M160.886 30.3704L160.902 30.1421L161.114 26.8532L167.747 24.5301L168.207 24.369L168.193 24.5955L168.015 27.6922L168.004 27.8825L167.62 28.0167L161.346 30.2094L160.886 30.3704Z" fill="white"/>
</mask>
<g mask="url(#mask23_1421_2803)">
<rect width="7.83184" height="8.5323" transform="matrix(0.981406 0.204529 -0.295271 0.950841 162.011 22.5139)" fill="#D85A42" fill-opacity="0.35"/>
</g>
<mask id="mask24_1421_2803" style="mask-type:luminance" maskUnits="userSpaceOnUse" x="192" y="30" width="8" height="7">
<path d="M192.058 36.742L192.065 36.5188L192.173 33.3192L192.18 33.1285L192.565 32.9945L199.026 30.7522L199.476 30.5952L199.471 30.8172L199.386 34.0143L199.381 34.2046L198.995 34.339L192.508 36.5858L192.058 36.742Z" fill="white"/>
</mask>
<g mask="url(#mask24_1421_2803)">
<rect width="8.22383" height="8.91686" transform="matrix(0.981397 0.204552 -0.295265 0.950841 192.91 28.6733)" fill="#D85A42" fill-opacity="0.35"/>
</g>
<mask id="mask25_1421_2803" style="mask-type:luminance" maskUnits="userSpaceOnUse" x="129" y="48" width="8" height="7">
<path d="M129.262 54.5339L129.284 54.2993L129.606 50.8916L136.258 48.5813L136.714 48.4236L136.694 48.6554L136.412 51.8716L136.395 52.0612L136.025 52.1898L136.024 52.1896L129.718 54.3752L129.262 54.5339Z" fill="white"/>
</mask>
<g mask="url(#mask25_1421_2803)">
<rect width="7.89875" height="8.53383" transform="matrix(0.981391 0.204569 -0.295261 0.950841 130.354 46.6094)" fill="#D85A42" fill-opacity="0.35"/>
</g>
<mask id="mask26_1421_2803" style="mask-type:luminance" maskUnits="userSpaceOnUse" x="160" y="55" width="8" height="7">
<path d="M160.027 61.5053L160.041 61.2761L160.256 57.9521L160.269 57.7614L160.641 57.6332L167.135 55.399L167.583 55.2454L167.57 55.4719L167.379 58.7941L167.378 58.7948L167.368 58.9844L166.995 59.1132L160.474 61.3524L160.473 61.3522L160.027 61.5053Z" fill="white"/>
</mask>
<g mask="url(#mask26_1421_2803)">
<rect width="8.21463" height="9.29208" transform="matrix(0.98147 0.204358 -0.295296 0.950845 161.232 53.1418)" fill="#D85A42" fill-opacity="0.35"/>
</g>
<mask id="mask27_1421_2803" style="mask-type:luminance" maskUnits="userSpaceOnUse" x="192" y="62" width="8" height="7">
<path d="M192.195 68.7955L192.202 68.5716L192.318 65.1357L192.318 65.135L192.325 64.9436L192.7 64.816L199.418 62.527L199.418 62.5263L199.856 62.3774L199.85 62.5994L199.76 66.0331L199.754 66.2248L199.378 66.3528L192.632 68.6467L192.195 68.7955Z" fill="white"/>
</mask>
<g mask="url(#mask27_1421_2803)">
<rect width="8.5508" height="9.2248" transform="matrix(0.981389 0.204575 -0.295263 0.95084 193.241 60.3689)" fill="#D85A42" fill-opacity="0.35"/>
</g>
<mask id="mask28_1421_2803" style="mask-type:luminance" maskUnits="userSpaceOnUse" x="97" y="72" width="8" height="8">
<path d="M97.0425 79.1482L97.0721 78.9084L97.5078 75.3774L104.179 73.0816L104.632 72.9256L104.604 73.1642L104.214 76.5035L104.192 76.6933L103.834 76.8159L97.4952 78.9928L97.0425 79.1482Z" fill="white"/>
</mask>
<g mask="url(#mask28_1421_2803)">
<rect width="7.88952" height="8.90906" transform="matrix(0.981467 0.204365 -0.295295 0.950844 98.3477 70.9863)" fill="#D85A42" fill-opacity="0.35"/>
</g>
<mask id="mask29_1421_2803" style="mask-type:luminance" maskUnits="userSpaceOnUse" x="127" y="80" width="9" height="7">
<path d="M127.377 86.7454L127.399 86.5101L127.726 83.0569L127.743 82.8667L128.104 82.7439L134.63 80.5191L134.631 80.5183L135.075 80.3672L135.055 80.6006L134.752 84.052L134.735 84.2424L134.374 84.3654L127.82 86.5941L127.377 86.7454Z" fill="white"/>
</mask>
<g mask="url(#mask29_1421_2803)">
<rect width="8.22383" height="8.91686" transform="matrix(0.981397 0.204552 -0.295265 0.950841 128.594 78.4248)" fill="#D85A42" fill-opacity="0.35"/>
</g>
<mask id="mask30_1421_2803" style="mask-type:luminance" maskUnits="userSpaceOnUse" x="159" y="88" width="8" height="7">
<path d="M159.109 94.6904L159.124 94.4604L159.356 90.8884L159.368 90.6968L159.73 90.5743L159.731 90.5744L166.484 88.2954L166.918 88.1484L166.905 88.3772L166.7 91.9464L166.689 92.1383L166.325 92.2606L159.544 94.5441L159.109 94.6904Z" fill="white"/>
</mask>
<g mask="url(#mask30_1421_2803)">
<rect width="8.5508" height="9.2248" transform="matrix(0.981389 0.204575 -0.295263 0.95084 160.084 86.2749)" fill="#D85A42" fill-opacity="0.35"/>
</g>
<mask id="mask31_1421_2803" style="mask-type:luminance" maskUnits="userSpaceOnUse" x="192" y="96" width="9" height="8">
<path d="M192.34 103.008L192.347 102.783L192.473 99.0857L192.479 98.8928L192.844 98.7714L199.834 96.4352L200.26 96.2931L200.254 96.5159L200.254 96.5166L200.156 100.211L200.151 100.405L199.786 100.526L192.765 102.866L192.34 103.008Z" fill="white"/>
</mask>
<g mask="url(#mask31_1421_2803)">
<rect width="8.87433" height="9.68257" transform="matrix(0.981409 0.204521 -0.295272 0.950841 193.278 94.125)" fill="#D85A42" fill-opacity="0.35"/>
</g>
<mask id="mask32_1421_2803" style="mask-type:luminance" maskUnits="userSpaceOnUse" x="64" y="97" width="8" height="8">
<path d="M64.2104 104.236L64.2476 103.99L64.801 100.333L71.4898 98.051L71.9403 97.8975L71.9044 98.142L71.4016 101.609L71.3745 101.798L71.0288 101.915L64.66 104.083L64.2104 104.236Z" fill="white"/>
</mask>
<g mask="url(#mask32_1421_2803)">
<rect width="7.5476" height="9.27572" transform="matrix(0.981586 0.204053 -0.295244 0.950881 65.8252 95.9146)" fill="#D85A42" fill-opacity="0.35"/>
</g>
<mask id="mask33_1421_2803" style="mask-type:luminance" maskUnits="userSpaceOnUse" x="94" y="105" width="8" height="8">
<path d="M94.0925 112.472L94.1226 112.231L94.5654 108.644L94.5887 108.454L94.9359 108.337L101.496 106.122L101.936 105.973L101.909 106.212L101.49 109.798L101.467 109.988L101.119 110.105L94.5327 112.324L94.0925 112.472Z" fill="white"/>
</mask>
<g mask="url(#mask33_1421_2803)">
<rect width="7.88084" height="9.28403" transform="matrix(0.981531 0.204196 -0.295289 0.950858 95.5449 103.971)" fill="#D85A42" fill-opacity="0.35"/>
</g>
<mask id="mask34_1421_2803" style="mask-type:luminance" maskUnits="userSpaceOnUse" x="125" y="114" width="9" height="8">
<path d="M125.366 121.096L125.389 120.859L125.739 117.147L125.739 117.146L125.758 116.955L126.108 116.839L132.895 114.571L133.326 114.427L133.305 114.661L132.98 118.372L132.963 118.563L132.612 118.68L125.797 120.952L125.366 121.096Z" fill="white"/>
</mask>
<g mask="url(#mask34_1421_2803)">
<rect width="8.48201" height="9.29834" transform="matrix(0.981417 0.204499 -0.295277 0.950841 126.584 112.39)" fill="#D85A42" fill-opacity="0.35"/>
</g>
<mask id="mask35_1421_2803" style="mask-type:luminance" maskUnits="userSpaceOnUse" x="158" y="123" width="9" height="8">
<path d="M158.132 130.127L158.146 129.896L158.396 126.051L158.408 125.858L158.76 125.741L165.787 123.418L166.209 123.278L166.196 123.508L165.974 127.352L165.962 127.544L165.61 127.66L158.554 129.988L158.553 129.988L158.132 130.127Z" fill="white"/>
</mask>
<g mask="url(#mask35_1421_2803)">
<rect width="8.47328" height="9.67317" transform="matrix(0.981485 0.204319 -0.295297 0.950847 159.477 121.299)" fill="#D85A42" fill-opacity="0.35"/>
</g>
<mask id="mask36_1421_2803" style="mask-type:luminance" maskUnits="userSpaceOnUse" x="192" y="132" width="9" height="8">
<path d="M192.494 139.6L192.502 139.374L192.637 135.388L192.643 135.195L192.999 135.078L200.279 132.698L200.692 132.563L200.686 132.787L200.58 136.771L200.575 136.966L200.219 137.081L192.907 139.466L192.906 139.466L192.494 139.6Z" fill="white"/>
</mask>
<g mask="url(#mask36_1421_2803)">
<rect width="9.14205" height="9.68866" transform="matrix(0.981354 0.204667 -0.295233 0.950844 193.612 130.561)" fill="#D85A42" fill-opacity="0.35"/>
</g>
<mask id="mask37_1421_2803" style="mask-type:luminance" maskUnits="userSpaceOnUse" x="30" y="123" width="9" height="7">
<path d="M30.7511 129.799L30.7957 129.546L31.4716 125.758L38.1775 123.493L38.6242 123.342L38.581 123.592L37.961 127.191L37.9286 127.379L37.5947 127.492L31.1971 129.648L30.7511 129.799Z" fill="white"/>
</mask>
<g mask="url(#mask37_1421_2803)">
<rect width="7.54918" height="9.2008" transform="matrix(0.981576 0.204079 -0.295256 0.950876 32.418 121.443)" fill="#D85A42" fill-opacity="0.35"/>
</g>
<mask id="mask38_1421_2803" style="mask-type:luminance" maskUnits="userSpaceOnUse" x="60" y="132" width="9" height="7">
<path d="M60.1573 138.706L60.1947 138.459L60.7584 134.733L60.7871 134.543L61.123 134.431L67.7129 132.229L67.7131 132.228L68.1505 132.082L68.1148 132.328L67.5749 136.052L67.5476 136.241L67.2109 136.354L60.5939 138.56L60.1573 138.706Z" fill="white"/>
</mask>
<g mask="url(#mask38_1421_2803)">
<rect width="7.8727" height="9.65874" transform="matrix(0.981584 0.204058 -0.295247 0.95088 61.7061 130.07)" fill="#D85A42" fill-opacity="0.35"/>
</g>
</mask>
<g mask="url(#mask0_1421_2803)">
<path d="M-40 129C-44.4183 129 -48 125.418 -48 121L-48 -42C-48 -46.4183 -44.4183 -50 -40 -50L206 -50C210.418 -50 214 -46.4183 214 -42L214 121C214 125.418 210.418 129 206 129L-40 129Z" fill="url(#paint0_linear_1421_2803)" fill-opacity="0.2"/>
</g>
<defs>
<linearGradient id="paint0_linear_1421_2803" x1="214.003" y1="141.593" x2="47.0607" y2="3.14758" gradientUnits="userSpaceOnUse">
<stop offset="0.046875" stop-color="#E8D9CB"/>
<stop offset="1" stop-color="#F8EFE6"/>
</linearGradient>
</defs>
</svg>
