<svg width="254" height="108" viewBox="0 0 254 108" fill="none" xmlns="http://www.w3.org/2000/svg">
<mask id="mask0_1359_1167" style="mask-type:alpha" maskUnits="userSpaceOnUse" x="0" y="4" width="334" height="193">
<path d="M196.806 37.8329L196.846 37.6461L165.844 31.2047L196.597 7.01299L227.907 12.852L196.708 37.6813L196.806 37.8329L196.903 37.9843L228.768 12.6242L196.527 6.6124L164.994 31.4172L196.84 38.0349L196.903 37.9843L196.806 37.8329Z" fill="#D85A42" fill-opacity="0.35"/>
<path d="M229.61 44.6475L229.65 44.4615L197.228 37.7246L228.373 12.9373L261.106 19.0411L229.512 44.4967L229.61 44.6475L229.708 44.7984L261.96 18.813L228.302 12.5363L196.384 37.9387L229.644 44.8497L229.708 44.7984L229.61 44.6475Z" fill="#D85A42" fill-opacity="0.35"/>
<path d="M263.927 51.78L263.968 51.5932L230.028 44.5412L261.569 19.1285L295.822 25.5164L263.829 51.6297L263.927 51.78L264.026 51.9296L296.67 25.2866L261.496 18.7273L229.19 44.7563L263.963 51.9823L264.026 51.9296L263.927 51.78Z" fill="#D85A42" fill-opacity="0.35"/>
<path d="M164.674 63.4046L164.718 63.2195L134.113 56.1657L165.453 31.5128L196.383 37.94L164.577 63.2532L164.674 63.4046L164.771 63.556L197.228 37.7258L165.385 31.1091L133.279 56.3647L164.706 63.6084L164.771 63.556L164.674 63.4046Z" fill="#D85A42" fill-opacity="0.35"/>
<path d="M197.064 70.8707L197.107 70.6856L165.087 63.3051L196.839 38.0354L229.189 44.7572L196.966 70.7199L197.064 70.8707L197.162 71.0225L230.028 44.5421L196.771 37.6315L164.26 63.5059L197.096 71.0747L197.162 71.0225L197.064 70.8707Z" fill="#D85A42" fill-opacity="0.35"/>
<path d="M230.965 78.6853L231.008 78.4995L197.475 70.7702L229.643 44.8517L263.511 51.8893L230.866 78.5343L230.965 78.6853L231.064 78.835L264.343 51.6723L229.574 44.4474L196.653 70.9727L230.999 78.888L231.064 78.835L230.965 78.6853Z" fill="#D85A42" fill-opacity="0.35"/>
<path d="M266.486 86.8708L266.53 86.6857L231.373 78.582L263.963 51.9826L299.456 59.3574L266.386 86.7216L266.486 86.8708L266.586 87.0205L300.281 59.1393L263.892 51.578L230.558 78.7854L266.521 87.0744L266.586 87.0205L266.486 86.8708Z" fill="#D85A42" fill-opacity="0.35"/>
<path d="M131.925 89.4686L131.972 89.2837L101.784 81.5956L133.728 56.468L164.26 63.5056L131.828 89.3173L131.925 89.4686L132.023 89.621L165.088 63.3048L133.664 56.0621L100.968 81.7812L131.956 89.6737L132.023 89.621L131.925 89.4686Z" fill="#D85A42" fill-opacity="0.35"/>
<path d="M163.88 97.6067L163.927 97.4218L132.331 89.3746L164.707 63.6081L196.654 70.9716L163.783 97.4559L163.88 97.6067L163.979 97.7585L197.476 70.7692L164.642 63.202L131.52 89.5618L163.912 97.8118L163.979 97.7585L163.88 97.6067Z" fill="#D85A42" fill-opacity="0.35"/>
<path d="M197.34 106.128L197.387 105.943L164.283 97.5118L197.097 71.0733L230.558 78.7846L197.242 105.978L197.34 106.128L197.439 106.279L231.373 78.5813L197.031 70.6661L163.477 97.7004L197.372 106.334L197.439 106.279L197.34 106.128Z" fill="#D85A42" fill-opacity="0.35"/>
<path d="M232.416 115.062L232.463 114.877L197.74 106.033L230.999 78.8866L266.082 86.9727L232.316 114.913L232.416 115.062L232.516 115.212L266.891 86.7677L230.932 78.4798L196.941 106.224L232.449 115.267L232.516 115.212L232.416 115.062Z" fill="#D85A42" fill-opacity="0.35"/>
<path d="M269.226 124.437L269.273 124.253L232.813 114.966L266.521 87.0737L303.344 95.5607L269.124 124.289L269.226 124.437L269.326 124.586L304.146 95.3545L266.453 86.6665L232.02 115.158L269.259 124.642L269.326 124.586L269.226 124.437Z" fill="#D85A42" fill-opacity="0.35"/>
<path d="M98.5417 116.038L98.5919 115.854L68.8434 107.507L101.407 81.8921L131.52 89.562L98.444 115.886L98.5417 116.038L98.6387 116.189L132.331 89.3748L101.347 81.4835L68.0452 107.679L98.5703 116.244L98.6387 116.189L98.5417 116.038Z" fill="#D85A42" fill-opacity="0.35"/>
<path d="M130.037 124.874L130.087 124.69L98.9375 115.951L131.956 89.6735L163.477 97.7014L129.939 124.724L130.037 124.874L130.135 125.026L164.283 97.5127L131.894 89.2643L98.144 116.124L130.066 125.081L130.135 125.026L130.037 124.874Z" fill="#D85A42" fill-opacity="0.35"/>
<path d="M163.033 134.131L163.083 133.947L130.431 124.786L163.911 97.8111L196.941 106.223L162.933 133.981L163.033 134.131L163.132 134.282L197.74 106.033L163.849 97.4017L129.643 124.961L163.063 134.338L163.132 134.282L163.033 134.131Z" fill="#D85A42" fill-opacity="0.35"/>
<path d="M197.637 143.841L197.687 143.657L163.424 134.044L197.373 106.334L232.02 115.158L197.536 143.691L197.637 143.841L197.736 143.99L232.813 114.966L197.309 105.924L162.642 134.22L197.667 144.048L197.736 143.99L197.637 143.841Z" fill="#D85A42" fill-opacity="0.35"/>
<path d="M233.969 154.034L234.02 153.851L198.024 143.751L232.449 115.267L268.832 124.533L233.868 153.886L233.969 154.034L234.07 154.183L269.618 124.34L232.383 114.856L197.248 143.929L234 154.241L234.07 154.183L233.969 154.034Z" fill="#D85A42" fill-opacity="0.35"/>
<path d="M64.5024 143.127L64.5564 142.945L35.2713 133.916L68.4719 107.799L98.1442 116.124L64.4054 142.976L64.5024 143.127L64.5999 143.279L98.9377 115.951L68.416 107.387L34.4904 134.074L64.5291 143.335L64.5999 143.279L64.5024 143.127Z" fill="#D85A42" fill-opacity="0.35"/>
<path d="M192.995 9.6189L192.98 6.14402L200.123 4.0112L200.163 7.48356L192.995 9.6189Z" fill="#D85A42" fill-opacity="0.35"/>
<path d="M224.725 15.6135L224.596 12.0409L231.941 9.86952L232.096 13.4392L224.725 15.6135Z" fill="#D85A42" fill-opacity="0.35"/>
<path d="M161.784 34.1691L161.881 30.5747L169.045 28.4567L168.974 32.0487L161.784 34.1691Z" fill="#D85A42" fill-opacity="0.35"/>
<path d="M193.125 40.7615L193.11 37.0639L200.478 34.9084L200.521 38.6034L193.125 40.7615Z" fill="#D85A42" fill-opacity="0.35"/>
<path d="M225.882 47.6515L225.745 43.8453L233.329 41.6517L233.494 45.4555L225.882 47.6515Z" fill="#D85A42" fill-opacity="0.35"/>
<path d="M129.994 59.1778L130.205 55.46L137.39 53.3589L137.205 57.0734L129.994 59.1778Z" fill="#D85A42" fill-opacity="0.35"/>
<path d="M160.924 66.3892L161.027 62.5629L168.418 60.4256L168.342 64.2485L160.924 66.3892Z" fill="#D85A42" fill-opacity="0.35"/>
<path d="M193.264 73.9336L193.248 69.9917L200.855 67.8166L200.901 71.7555L193.264 73.9336Z" fill="#D85A42" fill-opacity="0.35"/>
<path d="M227.116 81.8267L226.969 77.7628L234.807 75.5489L234.984 79.6102L227.116 81.8267Z" fill="#D85A42" fill-opacity="0.35"/>
<path d="M97.6047 84.6541L97.9348 80.8096L105.141 78.7255L104.837 82.5683L97.6047 84.6541Z" fill="#D85A42" fill-opacity="0.35"/>
<path d="M128.102 92.5118L128.326 88.5524L135.739 86.4324L135.542 90.3899L128.102 92.5118Z" fill="#D85A42" fill-opacity="0.35"/>
<path d="M160.005 100.729L160.115 96.6474L167.747 94.491L167.667 98.5709L160.005 100.729Z" fill="#D85A42" fill-opacity="0.35"/>
<path d="M193.413 109.335L193.396 105.124L201.259 102.931L201.307 107.14L193.413 109.335Z" fill="#D85A42" fill-opacity="0.35"/>
<path d="M64.5994 110.617L65.0529 106.642L72.2797 104.575L71.8516 108.549L64.5994 110.617Z" fill="#D85A42" fill-opacity="0.35"/>
<mask id="mask1_1359_1167" style="mask-type:luminance" maskUnits="userSpaceOnUse" x="168" y="8" width="49" height="29">
<path d="M168.357 27.5173L192.565 9.98361L192.576 10.1999L193.047 10.0821L168.83 27.6215L168.826 27.401L168.357 27.5173ZM199.412 8.49138L199.816 8.39003L199.807 8.20457L211.991 10.6808L216.318 11.9268L199.412 8.49138Z" fill="white"/>
</mask>
<g mask="url(#mask1_1359_1167)">
<rect width="44.0355" height="31.9025" transform="matrix(0.960389 0.272843 -0.244423 0.969361 174.693 -0.0690918)" fill="#D85A42" fill-opacity="0.35"/>
</g>
<mask id="mask2_1359_1167" style="mask-type:luminance" maskUnits="userSpaceOnUse" x="199" y="16" width="59" height="27">
<path d="M199.806 33.8548L224.095 16.154L224.112 16.3642L224.571 16.2514L208.496 27.9656L200.274 33.9573L200.262 33.7435L199.806 33.8548Z" fill="white"/>
</mask>
<g mask="url(#mask2_1359_1167)">
<rect width="54.8798" height="29.063" transform="matrix(0.960728 0.271755 -0.24547 0.96906 205.584 8.68555)" fill="#D85A42" fill-opacity="0.35"/>
</g>
<mask id="mask3_1359_1167" style="mask-type:luminance" maskUnits="userSpaceOnUse" x="232" y="23" width="58" height="28">
<path d="M232.655 40.6813L256.609 23.0154L257.043 23.1398L254.603 24.9399L233.12 40.7829L233.102 40.5743L232.655 40.6813ZM268.214 48.4797L289.62 32.4716L289.621 32.4718L268.214 48.4797ZM276.272 42.007L289.188 32.3478L289.189 32.348L276.272 42.007Z" fill="white"/>
</mask>
<g mask="url(#mask3_1359_1167)">
<rect width="54.5223" height="27.324" transform="matrix(0.960805 0.271504 -0.245704 0.968992 237.71 17.6116)" fill="#D85A42" fill-opacity="0.35"/>
</g>
<mask id="mask4_1359_1167" style="mask-type:luminance" maskUnits="userSpaceOnUse" x="136" y="32" width="58" height="30">
<path d="M136.729 55.7467L136.73 55.7469L161.552 61.7832L136.729 55.7467ZM136.689 52.2594L161.235 34.539L161.238 34.7595L161.705 34.6442L137.15 52.3705L137.153 52.147L136.689 52.2594ZM168.081 33.076L168.471 32.9799L168.468 32.796L193.608 38.3881L193.216 38.4837L193.225 38.6684L168.081 33.076Z" fill="white"/>
</mask>
<g mask="url(#mask4_1359_1167)">
<rect width="53.7354" height="32.978" transform="matrix(0.960544 0.272351 -0.244909 0.969221 143.208 23.647)" fill="#D85A42" fill-opacity="0.35"/>
</g>
<mask id="mask5_1359_1167" style="mask-type:luminance" maskUnits="userSpaceOnUse" x="167" y="39" width="60" height="31">
<path d="M171.098 63.6576L193.802 69.1764L193.802 69.1771L171.098 63.6576ZM168.244 62.5978L168.244 62.597L194.175 68.901L168.244 62.5978ZM167.723 59.2791L176.376 52.956L192.541 41.1441L192.551 41.36L193.008 41.2487L168.182 59.3888L168.178 59.1701L167.723 59.2791ZM201.001 67.281L226.106 48.6915L226.106 48.6922L201.001 67.2803L201.001 67.281ZM199.596 39.6491L199.988 39.5533L199.978 39.3691L226.232 45.2071L225.837 45.3017L225.852 45.4872L199.596 39.6491Z" fill="white"/>
</mask>
<g mask="url(#mask5_1359_1167)">
<rect width="55.7762" height="33.6501" transform="matrix(0.960563 0.272288 -0.244969 0.969204 174.555 30.1416)" fill="#D85A42" fill-opacity="0.35"/>
</g>
<mask id="mask6_1359_1167" style="mask-type:luminance" maskUnits="userSpaceOnUse" x="200" y="46" width="61" height="29">
<path d="M200.295 66.4871L225.338 47.9875L225.355 48.1977L225.801 48.0908L200.75 66.5963L200.739 66.3823L200.295 66.4871ZM235.047 74.8306L260.379 55.8541L260.379 55.8548L235.047 74.8299L235.047 74.8306ZM232.599 46.4655L232.993 46.3716L232.976 46.1864L260.373 52.2693L259.977 52.3626L259.998 52.5493L232.599 46.4655Z" fill="white"/>
</mask>
<g mask="url(#mask6_1359_1167)">
<rect width="57.0383" height="30.8303" transform="matrix(0.9607 0.271844 -0.245386 0.969084 207.027 36.8735)" fill="#D85A42" fill-opacity="0.35"/>
</g>
<mask id="mask7_1359_1167" style="mask-type:luminance" maskUnits="userSpaceOnUse" x="104" y="57" width="58" height="29">
<path d="M104.436 77.6259L129.433 59.5829L129.429 59.809L129.893 59.6957L104.888 77.7445L104.898 77.515L104.436 77.6259ZM135.863 85.8726L161.161 67.3816L135.863 85.8719L135.863 85.8726ZM136.312 85.9899L161.617 67.4942L161.618 67.4944L136.312 85.9899ZM136.306 58.1378L136.683 58.0461L136.685 57.8633L149.395 60.9536L161.5 63.8968L161.122 63.988L161.124 64.1721L136.306 58.1378Z" fill="white"/>
</mask>
<g mask="url(#mask7_1359_1167)">
<rect width="54.4283" height="32.9566" transform="matrix(0.960559 0.272302 -0.244956 0.969208 110.853 49.2412)" fill="#D85A42" fill-opacity="0.35"/>
</g>
<mask id="mask8_1359_1167" style="mask-type:luminance" maskUnits="userSpaceOnUse" x="135" y="65" width="59" height="31">
<path d="M135.444 88.7538L161.049 95.5455L161.049 95.5453L135.444 88.7538ZM135.039 85.3065L160.345 66.8058L160.347 67.0273L160.801 66.9185L135.489 85.4245L135.491 85.1994L135.039 85.3065ZM167.433 65.3271L167.813 65.2354L167.809 65.0521L193.753 71.3608L193.372 71.4512L193.381 71.6365L170.665 66.113L167.433 65.3271Z" fill="white"/>
</mask>
<g mask="url(#mask8_1359_1167)">
<rect width="54.8061" height="33.68" transform="matrix(0.960542 0.272356 -0.244905 0.969222 141.764 56.2966)" fill="#D85A42" fill-opacity="0.35"/>
</g>
<mask id="mask9_1359_1167" style="mask-type:luminance" maskUnits="userSpaceOnUse" x="167" y="72" width="61" height="33">
<path d="M167.05 93.3138L192.641 74.3679L192.651 74.5844L193.095 74.4791L180.774 83.6011L167.496 93.4309L167.492 93.21L167.05 93.3138ZM201.899 102.456L201.899 102.456L227.804 83.0086L201.899 102.456ZM199.949 72.8574L200.331 72.7668L200.322 72.5814L227.449 79.1756L227.065 79.2649L227.08 79.4519L199.949 72.8574Z" fill="white"/>
</mask>
<g mask="url(#mask9_1359_1167)">
<rect width="57.8167" height="34.3228" transform="matrix(0.960582 0.272227 -0.245026 0.969187 173.896 63.8186)" fill="#D85A42" fill-opacity="0.35"/>
</g>
<mask id="mask10_1359_1167" style="mask-type:luminance" maskUnits="userSpaceOnUse" x="200" y="80" width="64" height="33">
<path d="M201.21 105.387L229.267 112.824L229.266 112.824L201.21 105.387ZM200.577 101.699L226.463 82.2734L226.48 82.4858L226.914 82.385L201.022 101.815L201.01 101.599L200.577 101.699ZM236.625 111.153L262.82 91.2042L236.625 111.153L236.625 111.153ZM234.007 80.7304L234.391 80.6411L234.374 80.4546L262.775 87.3563L262.389 87.4449L262.411 87.633L261.266 87.3551L234.007 80.7304Z" fill="white"/>
</mask>
<g mask="url(#mask10_1359_1167)">
<rect width="59.5076" height="34.9329" transform="matrix(0.960595 0.272184 -0.245067 0.969175 207.728 71.3987)" fill="#D85A42" fill-opacity="0.35"/>
</g>
<mask id="mask11_1359_1167" style="mask-type:luminance" maskUnits="userSpaceOnUse" x="71" y="83" width="58" height="31">
<path d="M71.5876 103.472L97.0537 85.0914L97.0417 85.3218L97.5024 85.2115L72.0282 103.597L72.0464 103.363L71.5876 103.472ZM103.953 83.6644L104.317 83.5774L104.326 83.3948L128.805 89.8869L128.438 89.9739L128.434 90.1572L113.975 86.3221L103.953 83.6644Z" fill="white"/>
</mask>
<g mask="url(#mask11_1359_1167)">
<rect width="53.7922" height="32.6822" transform="matrix(0.960555 0.272314 -0.244944 0.969211 78.1689 75.032)" fill="#D85A42" fill-opacity="0.35"/>
</g>
<mask id="mask12_1359_1167" style="mask-type:luminance" maskUnits="userSpaceOnUse" x="101" y="91" width="60" height="32">
<path d="M126.887 122.933L101.648 115.645L126.887 122.932L126.887 122.933ZM101.727 111.806L114.264 102.644L127.506 92.9673L127.501 93.1939L127.952 93.0867L115.188 102.415L102.166 111.931L102.176 111.701L101.727 111.806ZM134.62 91.5095L134.986 91.4224L134.989 91.2389L160.582 98.0255L160.213 98.112L160.216 98.297L134.62 91.5095Z" fill="white"/>
</mask>
<g mask="url(#mask12_1359_1167)">
<rect width="56.1352" height="33.933" transform="matrix(0.960561 0.272296 -0.244962 0.969206 108.495 82.8369)" fill="#D85A42" fill-opacity="0.35"/>
</g>
<mask id="mask13_1359_1167" style="mask-type:luminance" maskUnits="userSpaceOnUse" x="133" y="99" width="61" height="33">
<path d="M133.293 120.519L149.438 108.566L159.385 101.202L159.388 101.424L159.83 101.321L133.728 120.644L133.731 120.418L133.293 120.519ZM166.725 99.712L167.094 99.6259L167.091 99.4407L193.874 106.542L193.503 106.627L193.512 106.814L166.725 99.712Z" fill="white"/>
</mask>
<g mask="url(#mask13_1359_1167)">
<rect width="57.4672" height="34.2599" transform="matrix(0.960577 0.272244 -0.245011 0.969191 140.204 90.9241)" fill="#D85A42" fill-opacity="0.35"/>
</g>
<mask id="mask14_1359_1167" style="mask-type:luminance" maskUnits="userSpaceOnUse" x="166" y="107" width="64" height="33">
<path d="M166.484 129.482L169.683 127.088L192.825 109.764L192.835 109.98L193.266 109.881L166.918 129.605L166.913 129.385L166.484 129.482ZM219.775 126.561L229.113 119.468L229.113 119.467L219.775 126.561ZM200.384 108.251L200.755 108.166L200.745 107.98L228.738 115.387L228.365 115.472L228.381 115.659L200.384 108.251Z" fill="white"/>
</mask>
<g mask="url(#mask14_1359_1167)">
<rect width="59.6836" height="31.1253" transform="matrix(0.960749 0.271686 -0.245534 0.969041 173.56 99.4141)" fill="#D85A42" fill-opacity="0.35"/>
</g>
<mask id="mask15_1359_1167" style="mask-type:luminance" maskUnits="userSpaceOnUse" x="38" y="109" width="58" height="31">
<path d="M68.6247 139.313L72.587 136.417L68.6249 139.312L68.6247 139.313ZM38.5147 129.956L38.5402 129.716L38.0848 129.823L64.0335 111.094L64.014 111.331L64.472 111.223L38.5147 129.956ZM95.0878 116.654L70.9586 109.687L71.3108 109.604L71.3242 109.422L95.4506 116.389L95.097 116.472L95.0878 116.654Z" fill="white"/>
</mask>
<g mask="url(#mask15_1359_1167)">
</g>
<mask id="mask16_1359_1167" style="mask-type:luminance" maskUnits="userSpaceOnUse" x="192" y="5" width="9" height="5">
<path d="M193.002 9.42145L192.992 9.20629L192.855 6.12744L196.263 5.27639L200.158 6.3964L200.213 7.43924L200.222 7.62372L199.819 7.7244L193.473 9.30445L193.002 9.42145Z" fill="white"/>
</mask>
<g mask="url(#mask16_1359_1167)">
<rect width="8.65696" height="5.77549" transform="matrix(0.960457 0.272627 -0.244642 0.969298 192.668 3.93677)" fill="#D85A42" fill-opacity="0.35"/>
</g>
<mask id="mask17_1359_1167" style="mask-type:luminance" maskUnits="userSpaceOnUse" x="224" y="13" width="6" height="3">
<path d="M224.734 15.5072L224.717 15.2982L224.538 13.0815L229.206 14.4169L225.191 15.3952L224.734 15.5072Z" fill="white"/>
</mask>
<g mask="url(#mask17_1359_1167)">
<rect width="6.18078" height="3.06134" transform="matrix(0.960817 0.271464 -0.245745 0.96898 223.976 12.5881)" fill="#D85A42" fill-opacity="0.35"/>
</g>
<mask id="mask18_1359_1167" style="mask-type:luminance" maskUnits="userSpaceOnUse" x="161" y="28" width="9" height="6">
<path d="M161.792 33.9476L161.79 33.7234L161.755 30.4945L168.568 28.7985L169.041 28.6809L169.045 28.9034L169.1 31.9456L169.103 32.1326L168.709 32.2305L162.264 33.83L161.792 33.9476Z" fill="white"/>
</mask>
<g mask="url(#mask18_1359_1167)">
<rect width="8.66702" height="7.93156" transform="matrix(0.960296 0.27309 -0.244064 0.969464 162.272 26.2903)" fill="#D85A42" fill-opacity="0.35"/>
</g>
<mask id="mask19_1359_1167" style="mask-type:luminance" maskUnits="userSpaceOnUse" x="192" y="35" width="9" height="6">
<path d="M193.134 40.5314L193.124 40.312L192.987 37.1661L192.979 36.9786L193.374 36.8811L200.005 35.2515L200.467 35.1373L200.479 35.3557L200.641 38.5014L200.651 38.6886L200.254 38.7863L193.596 40.4179L193.134 40.5314Z" fill="white"/>
</mask>
<g mask="url(#mask19_1359_1167)">
<rect width="9.09824" height="8.28633" transform="matrix(0.960296 0.273091 -0.244067 0.969463 193.305 32.6663)" fill="#D85A42" fill-opacity="0.35"/>
</g>
<mask id="mask20_1359_1167" style="mask-type:luminance" maskUnits="userSpaceOnUse" x="225" y="41" width="9" height="7">
<path d="M225.895 47.4145L225.879 47.2001L225.879 47.1994L225.625 43.9451L225.61 43.7567L226.009 43.6604L232.861 41.9976L233.314 41.8876L233.332 42.101L233.611 45.3551L233.628 45.5441L233.229 45.6402L226.347 47.305L225.895 47.4145Z" fill="white"/>
</mask>
<g mask="url(#mask20_1359_1167)">
<rect width="9.45972" height="8.64423" transform="matrix(0.960296 0.27309 -0.244065 0.969464 226.098 39.1367)" fill="#D85A42" fill-opacity="0.35"/>
</g>
<mask id="mask21_1359_1167" style="mask-type:luminance" maskUnits="userSpaceOnUse" x="129" y="53" width="9" height="6">
<path d="M129.998 58.9551L130.002 58.725L130.074 55.3835L136.918 53.6995L137.388 53.5847L137.384 53.8121L137.34 56.9679L137.337 57.1539L136.956 57.2476L136.955 57.2475L130.467 58.8394L129.998 58.9551Z" fill="white"/>
</mask>
<g mask="url(#mask21_1359_1167)">
<rect width="8.73677" height="7.92843" transform="matrix(0.960296 0.273092 -0.24407 0.969462 130.448 51.2322)" fill="#D85A42" fill-opacity="0.35"/>
</g>
<mask id="mask22_1359_1167" style="mask-type:luminance" maskUnits="userSpaceOnUse" x="160" y="60" width="9" height="7">
<path d="M160.931 66.1595L160.928 65.9344L160.894 62.6704L160.892 62.4831L161.274 62.3901L167.95 60.7691L168.41 60.6578L168.414 60.8803L168.474 64.1447L168.473 64.1455L168.477 64.3317L168.093 64.4253L161.39 66.0488L161.389 66.0486L160.931 66.1595Z" fill="white"/>
</mask>
<g mask="url(#mask22_1359_1167)">
<rect width="9.11084" height="8.66017" transform="matrix(0.960297 0.273072 -0.244047 0.969468 161.441 57.9937)" fill="#D85A42" fill-opacity="0.35"/>
</g>
<mask id="mask23_1359_1167" style="mask-type:luminance" maskUnits="userSpaceOnUse" x="193" y="68" width="9" height="6">
<path d="M193.275 73.6931L193.266 73.4729L193.118 70.094L193.118 70.0933L193.11 69.9051L193.495 69.813L200.394 68.1603L200.394 68.1596L200.844 68.0522L200.855 68.2707L201.03 71.6497L201.039 71.8383L200.653 71.9307L193.725 73.5857L193.275 73.6931Z" fill="white"/>
</mask>
<g mask="url(#mask23_1359_1167)">
<rect width="9.45717" height="8.56952" transform="matrix(0.960297 0.273092 -0.244071 0.969462 193.616 65.4739)" fill="#D85A42" fill-opacity="0.35"/>
</g>
<mask id="mask24_1359_1167" style="mask-type:luminance" maskUnits="userSpaceOnUse" x="226" y="75" width="10" height="7">
<path d="M227.13 81.5817L227.113 81.3657L226.841 77.866L226.826 77.676L227.214 77.585L234.35 75.8994L234.35 75.8987L234.789 75.7953L234.808 76.0096L235.109 79.5098L235.125 79.6996L234.737 79.7906L234.736 79.7911L227.568 81.4789L227.13 81.5817Z" fill="white"/>
</mask>
<g mask="url(#mask24_1359_1167)">
<rect width="9.73864" height="8.63183" transform="matrix(0.960299 0.273092 -0.244088 0.969458 227.397 73.3218)" fill="#D85A42" fill-opacity="0.35"/>
</g>
<mask id="mask25_1359_1167" style="mask-type:luminance" maskUnits="userSpaceOnUse" x="97" y="78" width="9" height="7">
<path d="M97.6056 84.429L97.6181 84.1941L97.8005 80.7355L104.675 79.0649L105.142 78.9514L105.131 79.1852L104.982 82.458L104.973 82.6441L104.604 82.7332L98.0722 84.316L97.6056 84.429Z" fill="white"/>
</mask>
<g mask="url(#mask25_1359_1167)">
<rect width="8.74938" height="8.30224" transform="matrix(0.960297 0.273073 -0.244048 0.969468 98.2539 76.4646)" fill="#D85A42" fill-opacity="0.35"/>
</g>
<mask id="mask26_1359_1167" style="mask-type:luminance" maskUnits="userSpaceOnUse" x="128" y="86" width="8" height="7">
<path d="M128.106 92.2812L128.11 92.0504L128.183 88.6634L128.187 88.4768L128.559 88.3879L135.278 86.7766L135.278 86.7759L135.735 86.6665L135.732 86.8956L135.684 90.283L135.681 90.4698L135.31 90.5589L128.562 92.1715L128.106 92.2812Z" fill="white"/>
</mask>
<g mask="url(#mask26_1359_1167)">
<rect width="9.09824" height="8.28633" transform="matrix(0.960296 0.273091 -0.244067 0.969463 128.652 84.1648)" fill="#D85A42" fill-opacity="0.35"/>
</g>
<mask id="mask27_1359_1167" style="mask-type:luminance" maskUnits="userSpaceOnUse" x="159" y="94" width="9" height="7">
<path d="M160.013 100.492L160.011 100.266L159.974 96.7575L159.972 96.5693L160.345 96.4809L160.345 96.4811L167.291 94.8388L167.738 94.7328L167.742 94.9577L167.806 98.4656L167.81 98.6542L167.436 98.7422L160.46 100.386L160.013 100.492Z" fill="white"/>
</mask>
<g mask="url(#mask27_1359_1167)">
<rect width="9.45717" height="8.56952" transform="matrix(0.960297 0.273092 -0.244071 0.969462 160.286 92.2898)" fill="#D85A42" fill-opacity="0.35"/>
</g>
<mask id="mask28_1359_1167" style="mask-type:luminance" maskUnits="userSpaceOnUse" x="193" y="103" width="9" height="7">
<path d="M193.427 109.088L193.417 108.867L193.258 105.231L193.249 105.041L193.624 104.955L200.81 103.281L201.247 103.179L201.259 103.398L201.259 103.399L201.446 107.035L201.456 107.225L201.08 107.312L193.864 108.987L193.427 109.088Z" fill="white"/>
</mask>
<g mask="url(#mask28_1359_1167)">
<rect width="9.82054" height="9.00281" transform="matrix(0.960296 0.27309 -0.244063 0.969464 193.624 100.416)" fill="#D85A42" fill-opacity="0.35"/>
</g>
<mask id="mask29_1359_1167" style="mask-type:luminance" maskUnits="userSpaceOnUse" x="64" y="104" width="9" height="7">
<path d="M64.5966 110.393L64.6165 110.152L64.914 106.573L71.818 104.916L72.2831 104.805L72.2643 105.044L72.0054 108.439L71.9917 108.624L71.6347 108.709L65.0607 110.282L64.5966 110.393Z" fill="white"/>
</mask>
<g mask="url(#mask29_1359_1167)">
<rect width="8.41258" height="8.69411" transform="matrix(0.960316 0.272971 -0.244054 0.969465 65.5474 102.268)" fill="#D85A42" fill-opacity="0.35"/>
</g>
</mask>
<g mask="url(#mask0_1359_1167)">
<path d="M-39.9945 100C-44.4158 100 -48 96.4208 -48 92.0055L-48 -91.0055C-48 -95.4208 -44.4158 -99 -39.9945 -99L238.995 -99C243.416 -99 247 -95.4208 247 -91.0055L247 92.0055C247 96.4207 243.416 100 238.995 100L-39.9945 100Z" fill="url(#paint0_linear_1359_1167)"/>
</g>
<defs>
<linearGradient id="paint0_linear_1359_1167" x1="270.853" y1="139.148" x2="121.937" y2="-21.3395" gradientUnits="userSpaceOnUse">
<stop stop-color="#D85A42" stop-opacity="0.63"/>
<stop offset="1" stop-color="#D85A42" stop-opacity="0"/>
</linearGradient>
</defs>
</svg>
