<svg width="18" height="18" viewBox="0 0 18 18" fill="none" xmlns="http://www.w3.org/2000/svg">
<path d="M9.1 1C4.63383 1 1 4.63383 1 9.1C1 13.5662 4.63383 17.2 9.1 17.2C13.5662 17.2 17.2 13.5662 17.2 9.1C17.2 4.63383 13.5662 1 9.1 1ZM13.6271 6.96842L8.45038 12.1045C8.14587 12.409 7.65865 12.4293 7.33384 12.1248L4.59323 9.62782C4.26842 9.32331 4.24812 8.81579 4.53233 8.49098C4.83684 8.16617 5.34436 8.14587 5.66917 8.45038L7.84135 10.4398L12.4699 5.81128C12.7947 5.48647 13.3023 5.48647 13.6271 5.81128C13.9519 6.13609 13.9519 6.64361 13.6271 6.96842Z" fill="#D85A42"/>
</svg>
