<svg width="44" height="44" viewBox="0 0 44 44" fill="none" xmlns="http://www.w3.org/2000/svg">
<circle cx="22" cy="22" r="22" fill="#19e2c6"/>
<g clip-path="url(#clip0_1040_20230)">
<path d="M34.2223 14.3897C34.2223 13.7081 33.774 13.133 33.1662 12.9618C33.2313 12.7929 33.2674 12.609 33.2674 12.4163C33.2674 11.7347 32.8191 11.1596 32.2113 10.9884C32.2764 10.8195 32.3126 10.6356 32.3126 10.4429C32.3126 9.62683 31.67 8.96289 30.8803 8.96289H25.7336C24.6644 8.96289 23.5841 9.22624 22.6077 9.7254L22.1738 9.94958H16.9393C16.7529 9.94958 16.5749 9.98698 16.4114 10.0542C16.2457 9.42614 15.6891 8.96289 15.0296 8.96289C14.37 8.96289 13.8134 9.42614 13.6477 10.0542C13.4843 9.98698 13.3062 9.94958 13.1198 9.94958C12.4603 9.94958 11.9037 10.4128 11.738 11.0409C11.5745 10.9737 11.3965 10.9363 11.2101 10.9363C10.4204 10.9363 9.77783 11.6002 9.77783 12.4163V17.7346C9.77783 19.8141 10.6437 21.1731 10.7327 21.413V26.822C10.7327 27.0146 10.7689 27.1985 10.834 27.3675C10.2261 27.5387 9.77783 28.1138 9.77783 28.7954C9.77783 29.4769 10.2261 30.0521 10.834 30.2232C10.7689 30.3922 10.7327 30.5761 10.7327 30.7687C10.7327 31.4503 11.181 32.0254 11.7888 32.1966C11.7237 32.3655 11.6876 32.5495 11.6876 32.7421C11.6876 33.5582 12.3301 34.2222 13.1198 34.2222H14.2704C14.5341 34.2222 14.7478 34.0013 14.7478 33.7288C14.7478 33.4563 14.5341 33.2355 14.2704 33.2355H13.1198C12.8566 33.2355 12.6424 33.0141 12.6424 32.7421C12.6424 32.4701 12.8566 32.2488 13.1198 32.2488H14.0747C14.3384 32.2488 14.5521 32.0279 14.5521 31.7554C14.5521 31.483 14.3384 31.2621 14.0747 31.2621C13.4068 31.2621 12.8329 31.2621 12.165 31.2621C11.9017 31.2621 11.6876 31.0408 11.6876 30.7687C11.6876 30.4967 11.9017 30.2754 12.165 30.2754H14.0747C14.3384 30.2754 14.5521 30.0545 14.5521 29.782C14.5521 29.5096 14.3384 29.2887 14.0747 29.2887C13.6402 29.2887 11.9631 29.2887 11.2101 29.2887C10.9469 29.2887 10.7327 29.0674 10.7327 28.7954C10.7327 28.5233 10.9469 28.302 11.2101 28.302H14.0747C14.3384 28.302 14.5521 28.0811 14.5521 27.8087C14.5521 27.5362 14.3384 27.3153 14.0747 27.3153H12.165C11.9017 27.3153 11.6876 27.094 11.6876 26.822C11.6876 26.5499 11.9017 26.3286 12.165 26.3286H16.9393C17.203 26.3286 17.4167 26.1078 17.4167 25.8353V25.3419H18.6198C19.7613 25.3419 20.7828 25.9931 21.2859 27.0412C21.3665 27.2091 21.5322 27.3153 21.7136 27.3153H25.6285V31.7554C25.6285 31.9284 25.6576 32.0944 25.7106 32.2488H22.6685C22.5943 32.2488 22.5212 32.2666 22.455 32.3009L21.922 32.5762C21.0784 33.0075 20.1445 33.2355 19.2214 33.2355H18.5579C18.2942 33.2355 18.0804 33.4563 18.0804 33.7288C18.0804 34.0013 18.2942 34.2222 18.5579 34.2222H19.2214C20.2906 34.2222 21.3708 33.9588 22.3472 33.4596L22.7812 33.2355H27.0608C27.2472 33.2355 27.4252 33.1981 27.5887 33.1308C27.7544 33.7589 28.311 34.2222 28.9705 34.2222C29.6301 34.2222 30.1867 33.7589 30.3524 33.1308C30.5159 33.1981 30.6939 33.2355 30.8803 33.2355C31.5398 33.2355 32.0964 32.7722 32.2621 32.1441C32.4256 32.2114 32.6036 32.2488 32.79 32.2488C33.5798 32.2488 34.2223 31.5848 34.2223 30.7687V24.8486C34.2223 24.7736 34.2056 24.7029 34.1767 24.6392C34.0837 23.8059 33.8493 22.9825 33.4844 22.2205L33.2674 21.7721V16.3631C33.2674 16.1705 33.2312 15.9865 33.1662 15.8176C33.774 15.6464 34.2223 15.0713 34.2223 14.3897ZM16.4619 25.3419H12.165C11.9976 25.3419 11.837 25.372 11.6876 25.4268V21.2965C11.6876 21.2199 11.6703 21.1444 11.6371 21.0759C11.5286 20.7895 10.7327 19.5801 10.7327 17.7346V12.4163C10.7327 12.1443 10.9469 11.923 11.2101 11.923C11.4734 11.923 11.6876 12.1443 11.6876 12.4163V13.403C11.6876 13.6755 11.9013 13.8963 12.165 13.8963C12.4287 13.8963 12.6424 13.6755 12.6424 13.403V11.4296C12.6424 11.1576 12.8566 10.9363 13.1198 10.9363C13.3831 10.9363 13.5973 11.1576 13.5973 11.4296V13.403C13.5973 13.6755 13.811 13.8963 14.0747 13.8963C14.3384 13.8963 14.5521 13.6755 14.5521 13.403C14.5521 12.9541 14.5521 11.221 14.5521 10.4429C14.5521 10.1709 14.7663 9.94958 15.0296 9.94958C15.2928 9.94958 15.507 10.1709 15.507 10.4429V13.403C15.507 13.6755 15.7207 13.8963 15.9844 13.8963C16.2481 13.8963 16.4619 13.6755 16.4619 13.403V11.4296C16.4619 11.1576 16.676 10.9363 16.9393 10.9363C17.2025 10.9363 17.4167 11.1576 17.4167 11.4296V16.3631C17.4167 16.6355 17.6305 16.8564 17.8942 16.8564H18.3716V18.0996C18.3716 19.2612 17.7261 20.3426 16.7272 20.8545C16.5647 20.9379 16.4619 21.1091 16.4619 21.2965V25.3419ZM18.6198 24.3553H17.4167V21.5894C18.602 20.8615 19.3264 19.5512 19.3264 18.0996V16.8564H22.0032C22.7075 18.0812 23.9755 18.8298 25.3803 18.8298H26.5834V21.5957C25.3981 22.3236 24.6737 23.6338 24.6737 25.0854V26.3286H21.997C21.2926 25.1039 20.0246 24.3553 18.6198 24.3553ZM33.2674 30.7687C33.2674 31.0408 33.0532 31.2621 32.79 31.2621C32.5267 31.2621 32.3126 31.0408 32.3126 30.7687V29.782C32.3126 29.5096 32.0988 29.2887 31.8351 29.2887C31.5715 29.2887 31.3577 29.5096 31.3577 29.782V31.7554C31.3577 32.0275 31.1435 32.2488 30.8803 32.2488C30.617 32.2488 30.4028 32.0275 30.4028 31.7554V29.782C30.4028 29.5096 30.189 29.2887 29.9254 29.2887C29.6618 29.2887 29.448 29.5096 29.448 29.782V32.7421C29.448 33.0141 29.2338 33.2355 28.9705 33.2355C28.7073 33.2355 28.4931 33.0141 28.4931 32.7421V29.782C28.4931 29.5096 28.2793 29.2887 28.0157 29.2887C27.752 29.2887 27.5382 29.5096 27.5382 29.782V31.7554C27.5382 32.0275 27.3241 32.2488 27.0608 32.2488C26.7976 32.2488 26.5834 32.0275 26.5834 31.7554V26.822C26.5834 26.5495 26.3696 26.3286 26.106 26.3286H25.6285V25.0854C25.6285 23.9059 26.2586 22.8503 27.2729 22.3305C27.4355 22.2472 27.5382 22.076 27.5382 21.8885V17.8431H31.8351C32.0025 17.8431 32.1631 17.813 32.3126 17.7582V21.8885C32.3126 21.9651 32.3298 22.0406 32.363 22.1092L32.6294 22.6599C33.0468 23.5316 33.2674 24.4966 33.2674 25.4505V30.7687ZM32.79 14.883H29.9254C29.6618 14.883 29.448 15.1039 29.448 15.3764C29.448 15.6488 29.6618 15.8697 29.9254 15.8697H31.8351C32.0984 15.8697 32.3126 16.091 32.3126 16.3631C32.3126 16.6351 32.0984 16.8564 31.8351 16.8564H27.0608C26.7972 16.8564 26.5834 17.0773 26.5834 17.3498V17.8431H25.3803C24.2561 17.8431 23.2096 17.1761 22.7142 16.1439C22.6337 15.976 22.4679 15.8697 22.2865 15.8697H18.3716V11.4296C18.3716 11.2566 18.3425 11.0907 18.2895 10.9363H22.2865C22.3607 10.9363 22.4338 10.9185 22.5001 10.8842C22.7769 10.7722 23.9475 9.94958 25.7336 9.94958H30.8803C31.1435 9.94958 31.3577 10.1709 31.3577 10.4429C31.3577 10.715 31.1435 10.9363 30.8803 10.9363H29.9254C29.6618 10.9363 29.448 11.1571 29.448 11.4296C29.448 11.7021 29.6618 11.923 29.9254 11.923H31.8351C32.0984 11.923 32.3126 12.1443 32.3126 12.4163C32.3126 12.6883 32.0984 12.9097 31.8351 12.9097H29.9254C29.6618 12.9097 29.448 13.1305 29.448 13.403C29.448 13.6755 29.6618 13.8963 29.9254 13.8963H32.79C33.0532 13.8963 33.2674 14.1177 33.2674 14.3897C33.2674 14.6617 33.0532 14.883 32.79 14.883Z" fill="white"/>
<path d="M16.4618 34.0741C16.7255 34.0741 16.9392 33.8532 16.9392 33.5807C16.9392 33.3083 16.7255 33.0874 16.4618 33.0874C16.1981 33.0874 15.9844 33.3083 15.9844 33.5807C15.9844 33.8532 16.1981 34.0741 16.4618 34.0741Z" fill="white"/>
</g>
<defs>
<clipPath id="clip0_1040_20230">
<rect width="24.4444" height="25.2593" fill="white" transform="translate(9.77783 8.96289)"/>
</clipPath>
</defs>
</svg>
