<svg width="835" height="457" viewBox="0 0 835 457" fill="none" xmlns="http://www.w3.org/2000/svg">
<mask id="mask0_1040_20734" style="mask-type:alpha" maskUnits="userSpaceOnUse" x="-80" y="1" width="898" height="1157">
<path d="M504.745 109.029L504.715 108.612L433.956 115.111L485.023 44.737L556.067 36.7806L504.44 108.775L504.745 109.029L505.049 109.283L557.779 35.7499L484.621 43.9449L432.258 116.103L504.945 109.429L505.049 109.283L504.745 109.029Z" fill="#D85A42" fill-opacity="0.35"/>
<path d="M579.618 102.149L579.588 101.734L505.587 108.529L557.126 36.6579L631.399 28.3387L579.313 101.896L579.618 102.149L579.923 102.401L633.095 27.3117L556.721 35.8659L503.903 109.521L579.819 102.549L579.923 102.401L579.618 102.149Z" fill="#D85A42" fill-opacity="0.35"/>
<path d="M657.947 94.9588L657.917 94.5424L580.452 101.657L632.45 28.2233L710.174 19.5187L657.641 94.7082L657.947 94.9588L658.254 95.2077L711.856 18.4921L632.043 27.4314L578.782 102.646L658.15 95.359L658.254 95.2077L657.947 94.9588Z" fill="#D85A42" fill-opacity="0.35"/>
<path d="M739.981 87.4274L739.951 87.0127L658.774 94.4659L711.221 19.4038L792.639 10.2843L739.672 87.1785L739.981 87.4274L740.289 87.6747L794.303 9.25979L710.811 18.612L657.12 95.455L740.185 87.8275L740.289 87.6747L739.981 87.4274Z" fill="#D85A42" fill-opacity="0.35"/>
<path d="M451.575 183.175L451.552 182.76L381.264 187.724L433.306 116.007L503.903 109.524L451.271 182.921L451.575 183.175L451.878 183.429L505.587 108.533L432.908 115.207L379.594 188.676L451.771 183.58L451.878 183.429L451.575 183.175Z" fill="#D85A42" fill-opacity="0.35"/>
<path d="M525.962 177.924L525.94 177.509L452.401 182.701L504.944 109.43L578.781 102.649L525.657 177.671L525.962 177.924L526.269 178.178L580.451 101.659L504.545 108.629L450.746 183.653L526.16 178.329L526.269 178.178L525.962 177.924Z" fill="#D85A42" fill-opacity="0.35"/>
<path d="M603.821 172.428L603.799 172.012L526.784 177.449L579.818 102.554L657.119 95.4555L603.515 172.176L603.821 172.428L604.129 172.677L658.774 94.4663L579.416 101.754L525.143 178.402L604.021 172.83L604.129 172.677L603.821 172.428Z" fill="#D85A42" fill-opacity="0.35"/>
<path d="M685.401 166.664L685.379 166.249L604.637 171.949L658.15 95.3594L739.162 87.9189L685.092 166.417L685.401 166.664L685.709 166.913L740.802 86.9318L657.745 94.5591L603.009 172.899L685.602 167.068L685.709 166.913L685.401 166.664Z" fill="#D85A42" fill-opacity="0.35"/>
<path d="M397.383 258.748L397.368 258.331L327.581 261.7L380.625 188.603L450.748 183.652L397.079 258.494L397.383 258.748L397.688 259.004L452.403 182.699L380.234 187.795L325.94 262.614L397.578 259.157L397.688 259.004L397.383 258.748Z" fill="#D85A42" fill-opacity="0.35"/>
<path d="M471.256 255.182L471.241 254.765L398.197 258.29L451.772 183.579L525.144 178.399L470.951 254.929L471.256 255.182L471.562 255.436L526.786 177.446L451.379 182.772L396.568 259.204L471.451 255.591L471.562 255.436L471.256 255.182Z" fill="#D85A42" fill-opacity="0.35"/>
<path d="M548.608 251.448L548.593 251.031L472.062 254.724L526.161 178.326L603.008 172.898L548.301 251.197L548.608 251.448L548.914 251.698L604.636 171.948L525.765 177.517L470.446 255.637L548.804 251.857L548.914 251.698L548.608 251.448Z" fill="#D85A42" fill-opacity="0.35"/>
<path d="M629.694 247.535L629.679 247.118L549.409 250.992L604.022 172.827L684.593 167.138L629.386 247.288L629.694 247.535L630.003 247.784L686.207 166.189L603.623 172.02L547.808 251.905L629.893 247.944L630.003 247.784L629.694 247.535Z" fill="#D85A42" fill-opacity="0.35"/>
<path d="M714.791 243.428L714.776 243.013L630.489 247.08L685.603 167.066L770.171 161.095L714.48 243.184L714.791 243.428L715.1 243.675L771.769 160.147L685.201 166.259L628.902 247.991L714.991 243.836L715.1 243.675L714.791 243.428Z" fill="#D85A42" fill-opacity="0.35"/>
<path d="M342.14 335.786L342.133 335.369L272.879 337.079L326.953 262.563L396.568 259.204L341.835 335.532L342.14 335.786L342.443 336.04L398.197 258.291L326.569 261.747L271.269 337.952L342.33 336.198L342.443 336.04L342.14 335.786Z" fill="#D85A42" fill-opacity="0.35"/>
<path d="M415.459 333.976L415.452 333.559L342.937 335.35L397.576 259.156L470.446 255.639L415.155 333.725L415.459 333.976L415.764 334.23L472.062 254.726L397.187 258.341L341.338 336.223L415.652 334.39L415.764 334.23L415.459 333.976Z" fill="#D85A42" fill-opacity="0.35"/>
<path d="M492.273 332.078L492.266 331.661L416.253 333.537L471.45 255.589L547.808 251.904L491.965 331.828L492.273 332.078L492.58 332.329L549.409 250.991L471.06 254.773L414.668 334.411L492.467 332.49L492.58 332.329L492.273 332.078Z" fill="#D85A42" fill-opacity="0.35"/>
<path d="M572.83 330.092L572.823 329.675L493.06 331.643L548.806 251.857L628.902 247.991L572.521 329.843L572.83 330.092L573.138 330.339L630.489 247.08L548.413 251.041L491.487 332.515L573.025 330.504L573.138 330.339L572.83 330.092Z" fill="#D85A42" fill-opacity="0.35"/>
<path d="M657.41 328.003L657.405 327.586L573.608 329.655L629.893 247.942L714.003 243.883L657.101 327.757L657.41 328.003L657.721 328.248L715.574 242.972L629.495 247.126L572.048 330.526L657.607 328.415L657.721 328.248L657.41 328.003Z" fill="#D85A42" fill-opacity="0.35"/>
<path d="M746.327 325.81L746.321 325.393L658.183 327.568L714.989 243.838L803.42 239.571L746.016 325.568L746.327 325.81L746.639 326.054L804.976 238.661L714.588 243.023L656.638 328.441L746.527 326.224L746.639 326.054L746.327 325.81Z" fill="#D85A42" fill-opacity="0.35"/>
<path d="M285.812 414.334L285.814 413.918L217.132 413.903L272.263 337.928L341.339 336.223L285.509 414.08L285.812 414.334L286.117 414.589L342.939 335.35L271.885 337.103L215.55 414.736L286 414.751L286.117 414.589L285.812 414.334Z" fill="#D85A42" fill-opacity="0.35"/>
<path d="M358.547 414.348L358.549 413.931L286.597 413.915L342.329 336.197L414.667 334.412L358.242 414.096L358.547 414.348L358.852 414.6L416.253 333.538L341.947 335.372L285.027 414.749L358.736 414.765L358.852 414.6L358.547 414.348Z" fill="#D85A42" fill-opacity="0.35"/>
<path d="M434.779 414.367L434.781 413.95L359.325 413.934L415.651 334.389L491.485 332.518L434.471 414.117L434.779 414.367L435.085 414.618L493.059 331.645L415.267 333.564L357.766 414.767L434.969 414.784L435.085 414.618L434.779 414.367Z" fill="#D85A42" fill-opacity="0.35"/>
<path d="M514.768 414.387L514.77 413.97L435.553 413.952L492.467 332.495L572.05 330.531L514.46 414.14L514.768 414.387L515.076 414.636L573.609 329.66L492.078 331.671L434.007 414.787L514.96 414.804L515.076 414.636L514.768 414.387Z" fill="#D85A42" fill-opacity="0.35"/>
<path d="M598.794 414.406L598.796 413.988L515.532 413.969L573.024 330.507L656.639 328.443L598.485 414.16L598.794 414.406L599.105 414.651L658.183 327.57L572.634 329.681L513.999 414.804L598.988 414.823L599.105 414.651L598.794 414.406Z" fill="#D85A42" fill-opacity="0.35"/>
<path d="M687.178 414.421L687.18 414.004L599.555 413.985L657.608 328.415L745.563 326.245L686.865 414.179L687.178 414.421L687.489 414.665L747.093 325.372L657.214 327.591L598.036 414.819L687.373 414.84L687.489 414.665L687.178 414.421Z" fill="#D85A42" fill-opacity="0.35"/>
<path d="M228.374 494.435L228.385 494.018L160.306 492.209L216.527 414.735L285.029 414.75L228.069 494.181L228.374 494.435L228.677 494.689L286.599 413.917L216.155 413.9L158.753 493.002L228.557 494.857L228.677 494.689L228.374 494.435Z" fill="#D85A42" fill-opacity="0.35"/>
<path d="M300.48 496.352L300.491 495.936L229.141 494.039L285.998 414.751L357.766 414.768L300.175 496.101L300.48 496.352L300.785 496.606L359.325 413.935L285.624 413.918L227.601 494.834L300.664 496.776L300.785 496.606L300.48 496.352Z" fill="#D85A42" fill-opacity="0.35"/>
<path d="M376.094 498.361L376.106 497.943L301.246 495.955L358.737 414.766L434.007 414.784L375.786 498.11L376.094 498.361L376.401 498.611L435.553 413.949L358.358 413.932L299.716 496.749L376.28 498.781L376.401 498.611L376.094 498.361Z" fill="#D85A42" fill-opacity="0.35"/>
<path d="M455.471 500.472L455.483 500.054L376.854 497.966L434.971 414.785L514.001 414.803L455.163 500.223L455.471 500.472L455.779 500.719L515.533 413.969L434.59 413.951L375.335 498.759L455.66 500.894L455.779 500.719L455.471 500.472Z" fill="#D85A42" fill-opacity="0.35"/>
<path d="M538.9 502.685L538.914 502.269L456.224 500.071L514.959 414.801L598.036 414.82L538.591 502.441L538.9 502.685L539.211 502.93L599.554 413.986L514.575 413.967L454.717 500.866L539.091 503.109L539.211 502.93L538.9 502.685Z" fill="#D85A42" fill-opacity="0.35"/>
<path d="M626.703 505.019L626.715 504.604L539.648 502.29L598.989 414.821L686.424 414.841L626.391 504.777L626.703 505.019L627.014 505.263L687.929 414.006L598.601 413.987L538.154 503.084L626.896 505.442L627.014 505.263L626.703 505.019Z" fill="#D85A42" fill-opacity="0.35"/>
<path d="M719.228 507.477L719.241 507.06L627.442 504.62L687.372 414.84L779.516 414.86L718.914 507.237L719.228 507.477L719.542 507.717L781.005 414.027L686.982 414.005L625.963 505.416L719.424 507.899L719.542 507.717L719.228 507.477Z" fill="#D85A42" fill-opacity="0.35"/>
<path d="M478.898 52.504L476.693 45.2501L490.735 36.1927L492.991 43.4252L478.898 52.504Z" fill="#D85A42" fill-opacity="0.35"/>
<path d="M550.945 44.6021L548.433 37.2178L562.886 27.9495L565.453 35.3107L550.945 44.6021Z" fill="#D85A42" fill-opacity="0.35"/>
<path d="M626.285 35.6549L623.773 28.2706L638.226 19.0022L640.793 26.3634L626.285 35.6549Z" fill="#D85A42" fill-opacity="0.35"/>
<path d="M704.786 27.3499L702.274 19.9656L716.727 10.6973L719.294 18.0585L704.786 27.3499Z" fill="#D85A42" fill-opacity="0.35"/>
<path d="M787.894 17.6721L785.382 10.2878L799.835 1.01944L802.402 8.38063L787.894 17.6721Z" fill="#D85A42" fill-opacity="0.35"/>
<path d="M427.07 123.922L425.03 116.347L439.127 107.306L441.221 114.86L427.07 123.922Z" fill="#D85A42" fill-opacity="0.35"/>
<path d="M498.655 117.52L496.31 109.801L510.822 100.551L513.225 108.247L498.655 117.52Z" fill="#D85A42" fill-opacity="0.35"/>
<path d="M573.473 110.829L570.797 102.961L585.749 93.493L588.485 101.337L573.473 110.829Z" fill="#D85A42" fill-opacity="0.35"/>
<path d="M651.75 103.828L648.715 95.8065L664.13 86.1093L667.228 94.1073L651.75 103.828Z" fill="#D85A42" fill-opacity="0.35"/>
<path d="M733.733 96.4988L730.307 88.3157L746.214 78.3788L749.707 86.535L733.733 96.4988Z" fill="#D85A42" fill-opacity="0.35"/>
<path d="M374.282 196.672L372.41 188.765L386.563 179.747L388.487 187.63L374.282 196.672Z" fill="#D85A42" fill-opacity="0.35"/>
<path d="M445.369 191.829L443.197 183.765L457.769 174.539L459.998 182.578L445.369 191.829Z" fill="#D85A42" fill-opacity="0.35"/>
<path d="M519.699 186.774L517.199 178.545L532.213 169.1L534.774 177.304L519.699 186.774Z" fill="#D85A42" fill-opacity="0.35"/>
<path d="M597.501 181.473L594.644 173.073L610.129 163.399L613.051 171.774L597.501 181.473Z" fill="#D85A42" fill-opacity="0.35"/>
<path d="M679.026 175.921L675.779 167.344L691.762 157.43L695.075 165.982L679.026 175.921Z" fill="#D85A42" fill-opacity="0.35"/>
<path d="M764.541 170.099L760.872 161.335L777.382 151.169L781.123 159.906L764.541 170.099Z" fill="#D85A42" fill-opacity="0.35"/>
<path d="M320.497 270.786L318.803 262.537L333.012 253.541L334.76 261.769L320.497 270.786Z" fill="#D85A42" fill-opacity="0.35"/>
<path d="M391.055 267.572L389.062 259.152L403.693 249.947L405.743 258.346L391.055 267.572Z" fill="#D85A42" fill-opacity="0.35"/>
<path d="M464.866 264.205L462.549 255.602L477.629 246.181L480.008 254.76L464.866 264.205Z" fill="#D85A42" fill-opacity="0.35"/>
<path d="M542.16 260.68L539.488 251.89L555.043 242.242L557.779 251.009L542.16 260.68Z" fill="#D85A42" fill-opacity="0.35"/>
<path d="M623.184 256.985L620.127 247.998L636.185 238.111L639.311 247.073L623.184 256.985Z" fill="#D85A42" fill-opacity="0.35"/>
<path d="M708.223 253.106L704.746 243.914L721.338 233.775L724.889 242.941L708.223 253.106Z" fill="#D85A42" fill-opacity="0.35"/>
<path d="M797.578 249.032L793.641 239.625L810.802 229.221L814.819 238.602L797.578 249.032Z" fill="#D85A42" fill-opacity="0.35"/>
<path d="M265.689 346.313L264.179 337.711L278.442 328.738L280.006 337.32L265.689 346.313Z" fill="#D85A42" fill-opacity="0.35"/>
<path d="M335.689 344.78L333.884 335.989L348.574 326.811L350.437 335.581L335.689 344.78Z" fill="#D85A42" fill-opacity="0.35"/>
<path d="M408.943 343.179L406.815 334.189L421.958 324.796L424.147 333.762L408.943 343.179Z" fill="#D85A42" fill-opacity="0.35"/>
<path d="M485.692 341.499L483.214 332.304L498.837 322.685L501.38 331.857L485.692 341.499Z" fill="#D85A42" fill-opacity="0.35"/>
<path d="M566.185 339.739L563.324 330.328L579.458 320.47L582.388 329.857L566.185 339.739Z" fill="#D85A42" fill-opacity="0.35"/>
<path d="M650.704 337.891L647.426 328.253L664.1 318.146L667.452 327.757L650.704 337.891Z" fill="#D85A42" fill-opacity="0.35"/>
<path d="M739.561 335.947L735.825 326.07L753.076 315.701L756.891 325.549L739.561 335.947Z" fill="#D85A42" fill-opacity="0.35"/>
<path d="M209.834 423.285L208.515 414.318L222.831 405.374L224.204 414.321L209.834 423.285Z" fill="#D85A42" fill-opacity="0.35"/>
<path d="M279.236 423.504L277.625 414.329L292.375 405.18L294.044 414.333L279.236 423.504Z" fill="#D85A42" fill-opacity="0.35"/>
<path d="M351.898 423.736L349.971 414.346L365.177 404.983L367.168 414.35L351.898 423.736Z" fill="#D85A42" fill-opacity="0.35"/>
<path d="M428.063 423.984L425.788 414.369L441.48 404.78L443.821 414.373L428.063 423.984Z" fill="#D85A42" fill-opacity="0.35"/>
<path d="M507.982 424.235L505.327 414.381L521.536 404.558L524.26 414.387L507.982 424.235Z" fill="#D85A42" fill-opacity="0.35"/>
<path d="M591.944 424.503L588.874 414.402L605.631 404.329L608.776 414.405L591.944 424.503Z" fill="#D85A42" fill-opacity="0.35"/>
<path d="M680.26 424.783L676.736 414.42L694.076 404.087L697.682 414.424L680.26 424.783Z" fill="#D85A42" fill-opacity="0.35"/>
<path d="M773.282 425.081L769.256 414.443L787.22 403.835L791.33 414.448L773.282 425.081Z" fill="#D85A42" fill-opacity="0.35"/>
<mask id="mask1_1040_20734" style="mask-type:luminance" maskUnits="userSpaceOnUse" x="437" y="39" width="93" height="70">
<path d="M437.96 108.009L478.82 52.5294L478.964 52.9929L479.887 52.399L439.012 107.898L438.878 107.421L437.96 108.009ZM492.344 44.3833L493.136 43.8733L493.011 43.4763L519.992 40.1481L529.782 39.7642L492.344 44.3833Z" fill="white"/>
</mask>
<g mask="url(#mask1_1040_20734)">
<rect width="95.2761" height="73.4392" transform="matrix(0.999282 -0.046523 0.0141156 0.999929 435.871 43.3123)" fill="#D85A42" fill-opacity="0.35"/>
</g>
<mask id="mask2_1040_20734" style="mask-type:luminance" maskUnits="userSpaceOnUse" x="509" y="44" width="43" height="58">
<path d="M509.68 101.27L550.83 44.9929L550.987 45.4422L551.891 44.8655L524.657 82.1093L510.727 101.159L510.58 100.698L509.68 101.27Z" fill="white"/>
</mask>
<g mask="url(#mask2_1040_20734)">
<rect width="119.64" height="67.447" transform="matrix(0.999311 -0.0450587 0.0143603 0.999922 507.686 41.7659)" fill="#D85A42" fill-opacity="0.35"/>
</g>
<mask id="mask3_1040_20734" style="mask-type:luminance" maskUnits="userSpaceOnUse" x="584" y="35" width="117" height="60">
<path d="M584.644 94.2268L625.136 38.2096L626.125 38.1716L622 43.8794L585.685 94.1168L585.527 93.6712L584.644 94.2268ZM664.3 85.8646L700.358 35.3194L700.359 35.3193L664.3 85.8646ZM677.618 65.8553L699.373 35.3572L699.375 35.3571L677.618 65.8553Z" fill="white"/>
</mask>
<g mask="url(#mask3_1040_20734)">
<rect width="119.005" height="63.4935" transform="matrix(0.999317 -0.0447584 0.0144031 0.99992 582.29 39.7756)" fill="#D85A42" fill-opacity="0.35"/>
</g>
<mask id="mask4_1040_20734" style="mask-type:luminance" maskUnits="userSpaceOnUse" x="385" y="109" width="113" height="80">
<path d="M387.459 188.064L387.46 188.064L443.195 183.472L387.459 188.064ZM385.383 180.468L426.975 124.126L427.106 124.607L428.024 124.02L386.418 180.38L386.297 179.889L385.383 180.468ZM440.561 116.021L441.328 115.531L441.215 115.132L497.365 109.341L496.595 109.831L496.718 110.228L440.561 116.021Z" fill="white"/>
</mask>
<g mask="url(#mask4_1040_20734)">
<rect width="116.745" height="76.2515" transform="matrix(0.999296 -0.0458009 0.0142454 0.999925 383.061 113.125)" fill="#D85A42" fill-opacity="0.35"/>
</g>
<mask id="mask5_1040_20734" style="mask-type:luminance" maskUnits="userSpaceOnUse" x="456" y="102" width="118" height="81">
<path d="M466.214 182.41L517.211 178.21L517.212 178.212L466.214 182.41ZM459.593 182.137L459.593 182.136L517.84 177.34L459.593 182.137ZM456.599 175.25L471.223 155.212L498.54 117.782L498.685 118.247L499.585 117.676L457.629 175.161L457.496 174.685L456.599 175.25ZM531.299 168.903L573.588 110.234L573.588 110.236L531.299 168.901L531.299 168.903ZM512.554 109.454L513.327 108.962L513.2 108.567L571.861 102.521L571.084 103.011L571.221 103.406L512.554 109.454Z" fill="white"/>
</mask>
<g mask="url(#mask5_1040_20734)">
<rect width="121.228" height="77.84" transform="matrix(0.999298 -0.0457195 0.0142588 0.999925 454.652 106.497)" fill="#D85A42" fill-opacity="0.35"/>
</g>
<mask id="mask6_1040_20734" style="mask-type:luminance" maskUnits="userSpaceOnUse" x="531" y="95" width="121" height="75">
<path d="M531.061 169.639L573.337 111.087L573.491 111.536L574.373 110.982L532.085 169.552L531.938 169.091L531.061 169.639ZM609.222 163.023L651.834 103.217L651.834 103.219L609.222 163.021L609.222 163.023ZM587.795 102.54L588.573 102.052L588.432 101.657L649.767 95.3558L648.983 95.8447L649.136 96.2388L587.795 102.54Z" fill="white"/>
</mask>
<g mask="url(#mask6_1040_20734)">
<rect width="124.288" height="71.5131" transform="matrix(0.999309 -0.045167 0.0143444 0.999922 528.556 99.7204)" fill="#D85A42" fill-opacity="0.35"/>
</g>
<mask id="mask7_1040_20734" style="mask-type:luminance" maskUnits="userSpaceOnUse" x="608" y="87" width="124" height="86">
<path d="M611.986 172.195L611.987 172.193L673.251 167.151L611.986 172.195ZM608.984 164.087L651.608 104.175L651.775 104.61L652.639 104.071L620.745 148.901L610.002 164.002L609.843 163.553L608.984 164.087ZM666.546 95.3673L667.329 94.8758L667.174 94.4813L731.401 87.8639L730.611 88.354L730.779 88.7464L723.348 89.5124L666.546 95.3673Z" fill="white"/>
</mask>
<g mask="url(#mask7_1040_20734)">
<rect width="127.882" height="81.5479" transform="matrix(0.999298 -0.0456863 0.0142642 0.999924 606.914 92.3061)" fill="#D85A42" fill-opacity="0.35"/>
</g>
<mask id="mask8_1040_20734" style="mask-type:luminance" maskUnits="userSpaceOnUse" x="331" y="183" width="116" height="72">
<path d="M331.837 254.266L374.2 196.885L374.32 197.383L375.232 196.803L332.855 254.202L332.746 253.693L331.837 254.266ZM402.759 249.778L445.5 191.201L402.759 249.776L402.759 249.778ZM403.772 249.712L446.526 191.121L446.527 191.121L403.772 249.712ZM387.856 188.798L388.596 188.328L388.498 187.926L417.04 185.575L444.225 183.336L443.48 183.807L443.589 184.208L387.856 188.798Z" fill="white"/>
</mask>
<g mask="url(#mask8_1040_20734)">
<rect width="118.288" height="76.2286" transform="matrix(0.999297 -0.0457369 0.014256 0.999925 329.422 187.462)" fill="#D85A42" fill-opacity="0.35"/>
</g>
<mask id="mask9_1040_20734" style="mask-type:luminance" maskUnits="userSpaceOnUse" x="402" y="178" width="117" height="80">
<path d="M405.351 257.9L463.162 254.398L463.161 254.398L405.351 257.9ZM402.53 250.653L445.273 192.065L445.405 192.547L446.299 191.984L403.544 250.589L403.421 250.094L402.53 250.653ZM459.36 183.752L460.107 183.279L459.995 182.881L518.245 178.08L517.494 178.551L517.617 178.95L466.616 183.154L459.36 183.752Z" fill="white"/>
</mask>
<g mask="url(#mask9_1040_20734)">
<rect width="119.067" height="77.8721" transform="matrix(0.999296 -0.0458072 0.0142444 0.999925 400.423 182.29)" fill="#D85A42" fill-opacity="0.35"/>
</g>
<mask id="mask10_1040_20734" style="mask-type:luminance" maskUnits="userSpaceOnUse" x="476" y="172" width="123" height="75">
<path d="M476.48 246.885L519.591 187.082L519.735 187.549L520.612 187L499.855 215.794L477.487 246.822L477.352 246.341L476.48 246.885ZM555.152 241.909L555.152 241.908L598.638 180.783L555.152 241.909ZM534.13 178.538L534.884 178.066L534.758 177.667L595.7 172.65L594.941 173.121L595.08 173.519L534.13 178.538Z" fill="white"/>
</mask>
<g mask="url(#mask10_1040_20734)">
<rect width="125.711" height="79.4288" transform="matrix(0.999299 -0.0456416 0.0142714 0.999924 474.348 177.304)" fill="#D85A42" fill-opacity="0.35"/>
</g>
<mask id="mask11_1040_20734" style="mask-type:luminance" maskUnits="userSpaceOnUse" x="553" y="166" width="127" height="85">
<path d="M557.346 250.549L620.752 246.717L620.751 246.717L557.346 250.549ZM553.903 242.926L597.375 181.837L597.532 182.29L598.389 181.759L554.906 242.861L554.758 242.398L553.903 242.926ZM635.31 237.782L679.136 175.325L635.311 237.781L635.31 237.782ZM612.398 173.051L613.157 172.58L613.015 172.183L676.842 166.932L676.078 167.403L676.232 167.8L673.658 168.012L612.398 173.051Z" fill="white"/>
</mask>
<g mask="url(#mask11_1040_20734)">
<rect width="129.422" height="80.8636" transform="matrix(0.999301 -0.0455868 0.0142801 0.999924 551.962 171.348)" fill="#D85A42" fill-opacity="0.35"/>
</g>
<mask id="mask12_1040_20734" style="mask-type:luminance" maskUnits="userSpaceOnUse" x="277" y="258" width="114" height="72">
<path d="M277.278 329.446L320.439 270.989L320.545 271.502L321.453 270.93L278.279 329.405L278.183 328.879L277.278 329.446ZM334.161 262.922L334.878 262.471L334.792 262.065L390.076 258.72L389.352 259.173L389.449 259.577L356.794 261.552L334.161 262.922Z" fill="white"/>
</mask>
<g mask="url(#mask12_1040_20734)">
<rect width="116.896" height="75.5872" transform="matrix(0.999297 -0.0457532 0.0142533 0.999925 275.176 262.43)" fill="#D85A42" fill-opacity="0.35"/>
</g>
<mask id="mask13_1040_20734" style="mask-type:luminance" maskUnits="userSpaceOnUse" x="347" y="255" width="117" height="81">
<path d="M406.791 333.826L349.444 335.974L406.791 333.825L406.791 333.826ZM347.418 327.519L368.603 298.489L390.979 267.827L391.099 268.326L391.988 267.768L370.419 297.325L348.413 327.479L348.303 326.968L347.418 327.519ZM405.137 259.539L405.859 259.085L405.761 258.682L463.567 255.184L462.84 255.637L462.951 256.04L405.137 259.539Z" fill="white"/>
</mask>
<g mask="url(#mask13_1040_20734)">
<rect width="122.003" height="78.4905" transform="matrix(0.999297 -0.0457289 0.0142573 0.999925 345.431 259.187)" fill="#D85A42" fill-opacity="0.35"/>
</g>
<mask id="mask14_1040_20734" style="mask-type:luminance" maskUnits="userSpaceOnUse" x="420" y="251" width="121" height="75">
<path d="M420.819 325.49L448.018 287.76L464.776 264.513L464.909 264.997L465.781 264.454L421.808 325.451L421.685 324.954L420.819 325.49ZM479.395 255.991L480.125 255.537L480.011 255.135L540.52 251.476L539.787 251.928L539.912 252.33L479.395 255.991Z" fill="white"/>
</mask>
<g mask="url(#mask14_1040_20734)">
<rect width="124.939" height="79.2746" transform="matrix(0.999299 -0.0456621 0.0142681 0.999924 418.772 255.663)" fill="#D85A42" fill-opacity="0.35"/>
</g>
<mask id="mask15_1040_20734" style="mask-type:luminance" maskUnits="userSpaceOnUse" x="497" y="247" width="128" height="77">
<path d="M497.708 323.192L503.091 315.642L542.043 261L542.188 261.467L543.042 260.942L498.694 323.152L498.558 322.672L497.708 323.192ZM608.615 278.556L624.273 256.282L624.273 256.281L608.615 278.556ZM557.145 252.256L557.879 251.805L557.751 251.404L621.14 247.591L620.401 248.044L620.541 248.443L557.145 252.256Z" fill="white"/>
</mask>
<g mask="url(#mask15_1040_20734)">
<rect width="130.156" height="72.2593" transform="matrix(0.999313 -0.0449763 0.0143722 0.999921 495.657 251.997)" fill="#D85A42" fill-opacity="0.35"/>
</g>
<mask id="mask16_1040_20734" style="mask-type:luminance" maskUnits="userSpaceOnUse" x="578" y="243" width="128" height="88">
<path d="M647.443 327.773L581.355 330.246L647.443 327.772L647.443 327.773ZM578.331 321.158L623.064 257.403L623.22 257.858L624.056 257.347L608.393 279.67L579.311 321.118L579.164 320.651L578.331 321.158ZM638.685 248.383L639.426 247.929L639.284 247.529L657.162 246.448L705.803 243.507L705.058 243.961L705.212 244.36L638.685 248.383Z" fill="white"/>
</mask>
<g mask="url(#mask16_1040_20734)">
<rect width="133.137" height="83.1255" transform="matrix(0.999301 -0.0455833 0.0142807 0.999924 576.244 248.544)" fill="#D85A42" fill-opacity="0.35"/>
</g>
<mask id="mask17_1040_20734" style="mask-type:luminance" maskUnits="userSpaceOnUse" x="662" y="239" width="133" height="80">
<path d="M662.988 318.826L676.277 299.605L708.088 253.588L708.258 254.027L709.076 253.53L697.934 269.648L663.964 318.787L663.803 318.336L662.988 318.826ZM724.257 244.3L725.004 243.846L724.847 243.446L789.424 239.545L794.714 239.225L793.962 239.679L794.132 240.076L776.108 241.166L724.257 244.3Z" fill="white"/>
</mask>
<g mask="url(#mask17_1040_20734)">
<rect width="138.395" height="85.5306" transform="matrix(0.999302 -0.0455328 0.0142886 0.999924 660.507 243.937)" fill="#D85A42" fill-opacity="0.35"/>
</g>
<mask id="mask18_1040_20734" style="mask-type:luminance" maskUnits="userSpaceOnUse" x="221" y="335" width="114" height="72">
<path d="M291.435 404.959L298.13 395.783L291.435 404.957L291.435 404.959ZM222.651 406.074L222.567 405.531L221.669 406.091L265.647 346.526L265.741 347.057L266.645 346.492L222.651 406.074ZM334.253 336.428L279.435 338.483L280.129 338.049L280.054 337.643L334.867 335.588L334.169 336.022L334.253 336.428Z" fill="white"/>
</mask>
<g mask="url(#mask18_1040_20734)">
<rect width="118.292" height="77.056" transform="matrix(0.999296 -0.0457883 0.0142475 0.999925 219.57 339.157)" fill="#D85A42" fill-opacity="0.35"/>
</g>
<mask id="mask19_1040_20734" style="mask-type:luminance" maskUnits="userSpaceOnUse" x="291" y="333" width="117" height="73">
<path d="M292.199 405.91L292.102 405.381L291.222 405.925L297.917 396.75L335.633 345.056L335.739 345.572L336.624 345.022L292.199 405.91ZM407.211 334.636L349.861 336.788L350.561 336.353L350.474 335.948L407.818 333.796L407.114 334.231L407.211 334.636Z" fill="white"/>
</mask>
<g mask="url(#mask19_1040_20734)">
<rect width="122.007" height="79.4834" transform="matrix(0.999296 -0.0457887 0.0142475 0.999925 289.101 338.256)" fill="#D85A42" fill-opacity="0.35"/>
</g>
<mask id="mask20_1040_20734" style="mask-type:luminance" maskUnits="userSpaceOnUse" x="364" y="331" width="123" height="75">
<path d="M365.014 405.703L364.903 405.189L364.041 405.718L408.877 343.505L408.997 344.006L409.863 343.47L406.883 347.605L365.014 405.703ZM457.61 381.887L486.824 340.81L486.825 340.81L457.61 381.887ZM483.631 332.754L423.571 335.005L424.276 334.57L424.176 334.165L484.229 331.913L483.52 332.348L483.631 332.754Z" fill="white"/>
</mask>
<g mask="url(#mask20_1040_20734)">
<rect width="126.49" height="80.9065" transform="matrix(0.999298 -0.045701 0.0142618 0.999925 361.537 336.449)" fill="#D85A42" fill-opacity="0.35"/>
</g>
<mask id="mask21_1040_20734" style="mask-type:luminance" maskUnits="userSpaceOnUse" x="440" y="329" width="128" height="77">
<path d="M521.622 404.164L567.3 339.055L567.301 339.055L521.622 404.164ZM441.322 405.463L441.197 404.964L440.352 405.479L485.606 341.876L485.739 342.361L486.587 341.841L457.376 382.899L441.322 405.463ZM563.756 330.779L500.793 333.136L501.503 332.702L501.391 332.297L564.347 329.939L563.631 330.375L563.756 330.779Z" fill="white"/>
</mask>
<g mask="url(#mask21_1040_20734)">
<rect width="130.815" height="81.6705" transform="matrix(0.999301 -0.0455829 0.0142807 0.999924 437.834 334.522)" fill="#D85A42" fill-opacity="0.35"/>
</g>
<mask id="mask22_1040_20734" style="mask-type:luminance" maskUnits="userSpaceOnUse" x="520" y="327" width="129" height="79">
<path d="M521.382 405.252L521.245 404.768L520.418 405.268L566.088 340.144L566.234 340.615L567.063 340.11L521.382 405.252ZM647.892 328.665L581.799 331.144L582.517 330.709L582.387 330.305L647.981 327.845L648.475 327.826L647.754 328.263L647.892 328.665Z" fill="white"/>
</mask>
<g mask="url(#mask22_1040_20734)">
<rect width="131.6" height="84.8026" transform="matrix(0.999297 -0.0457367 0.014256 0.999925 518.447 332.452)" fill="#D85A42" fill-opacity="0.35"/>
</g>
<mask id="mask23_1040_20734" style="mask-type:luminance" maskUnits="userSpaceOnUse" x="604" y="325" width="133" height="89">
<path d="M677.31 413.081L608.32 413.985L677.311 413.081L677.31 413.081ZM605.476 405.03L605.327 404.56L604.517 405.046L622.044 379.685L650.587 338.386L650.745 338.843L651.558 338.352L644.486 348.584L605.476 405.03ZM736.307 326.522L701.339 327.832L666.852 329.124L667.574 328.687L667.431 328.284L736.878 325.683L736.151 326.12L736.307 326.522Z" fill="white"/>
</mask>
<g mask="url(#mask23_1040_20734)">
<rect width="139.177" height="87.835" transform="matrix(0.999299 -0.0456359 0.0142723 0.999924 601.979 330.41)" fill="#D85A42" fill-opacity="0.35"/>
</g>
<mask id="mask24_1040_20734" style="mask-type:luminance" maskUnits="userSpaceOnUse" x="164" y="413" width="116" height="81">
<path d="M206.619 493.729L166.378 493.225L166.379 493.225L206.619 493.729ZM234.129 484.883L279.415 422.783L234.13 484.883L234.129 484.883ZM165.951 484.251L165.88 483.689L164.988 484.241L209.814 423.486L209.896 424.035L210.793 423.476L165.951 484.251ZM277.995 414.746L223.667 415.465L224.338 415.046L224.275 414.638L248.931 414.312L278.599 413.919L277.923 414.337L277.995 414.746Z" fill="white"/>
</mask>
<g mask="url(#mask24_1040_20734)">
<rect width="118.306" height="80.3671" transform="matrix(0.999292 -0.0459834 0.0142147 0.999926 163.057 416.742)" fill="#D85A42" fill-opacity="0.35"/>
</g>
<mask id="mask25_1040_20734" style="mask-type:luminance" maskUnits="userSpaceOnUse" x="233" y="413" width="118" height="82">
<path d="M292.503 494.973L236.166 494.268L236.166 494.266L292.503 494.973ZM307.289 486.545L307.289 486.544L319.605 469.443L307.289 486.545ZM234.875 485.874L234.791 485.326L233.917 485.864L279.203 423.755L279.297 424.288L280.176 423.743L251.835 462.615L234.875 485.874ZM350.365 414.754L298.094 415.447L293.502 415.508L294.18 415.089L294.104 414.681L310.586 414.463L350.962 413.929L350.281 414.347L350.365 414.754Z" fill="white"/>
</mask>
<g mask="url(#mask25_1040_20734)">
<rect width="121.249" height="82.6406" transform="matrix(0.999292 -0.0459985 0.0142121 0.999926 231.98 416.678)" fill="#D85A42" fill-opacity="0.35"/>
</g>
<mask id="mask26_1040_20734" style="mask-type:luminance" maskUnits="userSpaceOnUse" x="306" y="413" width="121" height="75">
<path d="M307.064 487.39L306.966 486.859L306.109 487.381L351.835 424.007L351.941 424.526L352.803 423.998L319.374 470.329L307.064 487.39ZM426.161 414.776L384.615 415.316L366.602 415.55L367.282 415.133L367.195 414.726L426.75 413.951L426.064 414.369L426.161 414.776Z" fill="white"/>
</mask>
<g mask="url(#mask26_1040_20734)">
<rect width="126.469" height="76.1102" transform="matrix(0.999304 -0.0453992 0.0143094 0.999923 303.676 416.501)" fill="#D85A42" fill-opacity="0.35"/>
</g>
<mask id="mask27_1040_20734" style="mask-type:luminance" maskUnits="userSpaceOnUse" x="381" y="413" width="126" height="77">
<path d="M382.754 489.327L382.643 488.809L381.802 489.316L427.994 424.347L428.116 424.851L428.959 424.337L398.014 467.862L382.754 489.327ZM505.755 414.805L443.264 415.63L443.951 415.212L443.851 414.804L485.303 414.258L506.335 413.979L505.643 414.397L505.755 414.805Z" fill="white"/>
</mask>
<g mask="url(#mask27_1040_20734)">
<rect width="130.99" height="86.4668" transform="matrix(0.999295 -0.0458508 0.0142372 0.999925 379.239 417.015)" fill="#D85A42" fill-opacity="0.35"/>
</g>
<mask id="mask28_1040_20734" style="mask-type:luminance" maskUnits="userSpaceOnUse" x="461" y="413" width="129" height="89">
<path d="M529.589 501.15L464.472 500.332L464.471 500.332L529.589 501.15ZM462.213 491.189L462.088 490.685L461.266 491.179L506.504 426.648L507.903 424.655L508.037 425.144L508.862 424.645L506.719 427.702L462.213 491.189ZM589.33 414.818L580.359 414.937L523.703 415.684L524.395 415.266L524.281 414.858L589.9 413.993L589.203 414.411L589.33 414.818Z" fill="white"/>
</mask>
<g mask="url(#mask28_1040_20734)">
<rect width="133.932" height="88.7403" transform="matrix(0.999295 -0.0458683 0.0142342 0.999925 459.122 417.325)" fill="#D85A42" fill-opacity="0.35"/>
</g>
<mask id="mask29_1040_20734" style="mask-type:luminance" maskUnits="userSpaceOnUse" x="544" y="413" width="134" height="81">
<path d="M545.717 493.132L545.58 492.645L544.776 493.124L590.863 426.383L591.85 424.955L591.996 425.429L592.804 424.944L548.332 489.346L545.717 493.132ZM677.219 414.804L608.211 415.716L608.911 415.296L608.782 414.889L677.781 413.978L677.079 414.397L677.219 414.804Z" fill="white"/>
</mask>
<g mask="url(#mask29_1040_20734)">
<rect width="136.103" height="91.0254" transform="matrix(0.999294 -0.0459117 0.0142269 0.999926 542.843 416.853)" fill="#D85A42" fill-opacity="0.35"/>
</g>
<mask id="mask30_1040_20734" style="mask-type:luminance" maskUnits="userSpaceOnUse" x="632" y="414" width="139" height="93">
<path d="M708.298 506.623L636.123 505.712L708.298 506.621L708.298 506.623ZM633.595 495.199L633.444 494.725L632.657 495.189L680.149 425.341L680.308 425.799L681.098 425.33L633.595 495.199ZM769.758 414.873L712.761 415.623L697.11 415.829L697.814 415.41L697.669 415.004L705.742 414.898L770.31 414.048L769.601 414.467L769.758 414.873Z" fill="white"/>
</mask>
<g mask="url(#mask30_1040_20734)">
<rect width="145.07" height="94.2017" transform="matrix(0.999297 -0.0457733 0.01425 0.999925 630.117 417.075)" fill="#D85A42" fill-opacity="0.35"/>
</g>
<mask id="mask31_1040_20734" style="mask-type:luminance" maskUnits="userSpaceOnUse" x="476" y="40" width="18" height="13">
<path d="M478.859 52.4745L478.715 52.0119L476.672 45.3858L483.358 41.0847L492.191 40.7403L492.901 42.9784L493.026 43.3747L492.235 43.8836L479.783 51.8819L478.859 52.4745Z" fill="white"/>
</mask>
<g mask="url(#mask31_1040_20734)">
<rect width="18.7655" height="13.3265" transform="matrix(0.999288 -0.0461813 0.0141799 0.999927 475.084 40.7037)" fill="#D85A42" fill-opacity="0.35"/>
</g>
<mask id="mask32_1040_20734" style="mask-type:luminance" maskUnits="userSpaceOnUse" x="549" y="38" width="11" height="7">
<path d="M550.931 44.5847L550.775 44.1364L549.121 39.3807L559.766 38.9737L551.835 44.0095L550.931 44.5847Z" fill="white"/>
</mask>
<g mask="url(#mask32_1040_20734)">
<rect width="13.4906" height="7.11739" transform="matrix(0.999318 -0.0446958 0.0144119 0.99992 547.681 38.6887)" fill="#D85A42" fill-opacity="0.35"/>
</g>
<mask id="mask33_1040_20734" style="mask-type:luminance" maskUnits="userSpaceOnUse" x="424" y="107" width="18" height="17">
<path d="M427.021 123.895L426.891 123.411L424.998 116.451L438.265 107.927L439.185 107.337L439.318 107.815L441.15 114.356L441.262 114.758L440.494 115.251L427.941 123.304L427.021 123.895Z" fill="white"/>
</mask>
<g mask="url(#mask33_1040_20734)">
<rect width="18.6311" height="18.1427" transform="matrix(0.999265 -0.04732 0.0139308 0.999935 423.774 106.964)" fill="#D85A42" fill-opacity="0.35"/>
</g>
<mask id="mask34_1040_20734" style="mask-type:luminance" maskUnits="userSpaceOnUse" x="496" y="100" width="18" height="18">
<path d="M498.599 117.486L498.454 117.018L496.393 110.307L496.27 109.907L497.041 109.414L509.971 101.159L510.872 100.583L511.02 101.047L513.133 107.74L513.26 108.138L512.486 108.632L499.5 116.911L498.599 117.486Z" fill="white"/>
</mask>
<g mask="url(#mask34_1040_20734)">
<rect width="19.5607" height="18.9568" transform="matrix(0.999266 -0.0473064 0.0139347 0.999935 494.588 100.299)" fill="#D85A42" fill-opacity="0.35"/>
</g>
<mask id="mask35_1040_20734" style="mask-type:luminance" maskUnits="userSpaceOnUse" x="570" y="93" width="19" height="18">
<path d="M573.418 110.79L573.263 110.338L573.263 110.336L570.895 103.469L570.757 103.072L571.536 102.579L584.917 94.0905L585.802 93.5293L585.96 93.9787L588.38 100.827L588.522 101.224L587.742 101.717L574.301 110.231L573.418 110.79Z" fill="white"/>
</mask>
<g mask="url(#mask35_1040_20734)">
<rect width="20.336" height="19.7737" transform="matrix(0.999265 -0.0473159 0.013932 0.999935 569.247 92.701)" fill="#D85A42" fill-opacity="0.35"/>
</g>
<mask id="mask36_1040_20734" style="mask-type:luminance" maskUnits="userSpaceOnUse" x="648" y="86" width="20" height="18">
<path d="M651.697 103.787L651.53 103.35L651.53 103.348L648.83 96.3212L648.677 95.9243L649.462 95.4314L663.32 86.6984L664.186 86.1529L664.356 86.5884L667.113 93.5954L667.269 93.992L666.485 94.4867L652.561 103.245L651.697 103.787Z" fill="white"/>
</mask>
<g mask="url(#mask36_1040_20734)">
<rect width="20.95" height="18.9317" transform="matrix(0.99927 -0.0470947 0.0139901 0.999933 647.625 85.8184)" fill="#D85A42" fill-opacity="0.35"/>
</g>
<mask id="mask37_1040_20734" style="mask-type:luminance" maskUnits="userSpaceOnUse" x="730" y="78" width="20" height="19">
<path d="M733.68 96.4466L733.499 96.0215L730.436 88.8266L730.268 88.4322L731.058 87.9392L745.423 78.951L746.269 78.4213L746.453 78.8414L749.576 86.014L749.749 86.4083L748.957 86.903L734.526 95.9169L733.68 96.4466Z" fill="white"/>
</mask>
<g mask="url(#mask37_1040_20734)">
<rect width="21.7253" height="19.7486" transform="matrix(0.99927 -0.0471135 0.0139854 0.999934 728.915 78.2137)" fill="#D85A42" fill-opacity="0.35"/>
</g>
<mask id="mask38_1040_20734" style="mask-type:luminance" maskUnits="userSpaceOnUse" x="372" y="179" width="17" height="18">
<path d="M374.229 196.648L374.109 196.147L372.376 188.873L385.705 180.358L386.62 179.775L386.742 180.269L388.427 187.123L388.526 187.527L387.784 188.001L387.783 188.001L375.143 196.064L374.229 196.648Z" fill="white"/>
</mask>
<g mask="url(#mask38_1040_20734)">
<rect width="18.7855" height="18.1399" transform="matrix(0.999266 -0.0472961 0.0139375 0.999935 370.874 179.595)" fill="#D85A42" fill-opacity="0.35"/>
</g>
<mask id="mask39_1040_20734" style="mask-type:luminance" maskUnits="userSpaceOnUse" x="443" y="174" width="18" height="18">
<path d="M445.314 191.8L445.182 191.315L443.269 184.28L443.16 183.876L443.906 183.402L456.926 175.14L457.825 174.571L457.958 175.049L459.923 182.068L459.923 182.069L460.035 182.47L459.288 182.945L446.211 191.233L446.209 191.233L445.314 191.8Z" fill="white"/>
</mask>
<g mask="url(#mask39_1040_20734)">
<rect width="19.5642" height="19.788" transform="matrix(0.999263 -0.0474236 0.0139007 0.999936 441.864 173.757)" fill="#D85A42" fill-opacity="0.35"/>
</g>
<mask id="mask40_1040_20734" style="mask-type:luminance" maskUnits="userSpaceOnUse" x="517" y="169" width="18" height="18">
<path d="M519.643 186.732L519.498 186.263L517.283 179.055L517.283 179.054L517.16 178.652L517.912 178.178L531.39 169.683L531.39 169.681L532.268 169.128L532.415 169.593L534.686 176.782L534.812 177.183L534.057 177.659L520.521 186.179L519.643 186.732Z" fill="white"/>
</mask>
<g mask="url(#mask40_1040_20734)">
<rect width="20.3353" height="19.6075" transform="matrix(0.999266 -0.0472919 0.0139387 0.999935 515.795 168.675)" fill="#D85A42" fill-opacity="0.35"/>
</g>
<mask id="mask41_1040_20734" style="mask-type:luminance" maskUnits="userSpaceOnUse" x="594" y="163" width="20" height="19">
<path d="M597.443 181.436L597.286 180.98L594.74 173.595L594.602 173.195L595.362 172.72L609.322 163.98L609.322 163.979L610.182 163.441L610.342 163.892L612.946 171.258L613.088 171.657L612.328 172.131L612.326 172.133L598.301 180.9L597.443 181.436Z" fill="white"/>
</mask>
<g mask="url(#mask41_1040_20734)">
<rect width="20.9535" height="19.7624" transform="matrix(0.999267 -0.0472271 0.0139562 0.999935 593.424 163.324)" fill="#D85A42" fill-opacity="0.35"/>
</g>
<mask id="mask42_1040_20734" style="mask-type:luminance" maskUnits="userSpaceOnUse" x="675" y="157" width="21" height="19">
<path d="M678.971 175.876L678.8 175.436L675.894 167.867L675.74 167.469L676.505 166.995L690.978 157.999L691.819 157.476L691.991 157.913L694.96 165.459L695.117 165.858L694.351 166.333L679.81 175.355L678.971 175.876Z" fill="white"/>
</mask>
<g mask="url(#mask42_1040_20734)">
<rect width="21.7253" height="19.7486" transform="matrix(0.99927 -0.0471135 0.0139854 0.999934 674.741 157.21)" fill="#D85A42" fill-opacity="0.35"/>
</g>
<mask id="mask43_1040_20734" style="mask-type:luminance" maskUnits="userSpaceOnUse" x="760" y="151" width="22" height="20">
<path d="M764.485 170.048L764.303 169.621L761.001 161.862L760.831 161.464L761.603 160.989L776.615 151.728L777.439 151.219L777.623 151.641L780.993 159.377L781.165 159.775L780.393 160.251L765.308 169.541L764.485 170.048Z" fill="white"/>
</mask>
<g mask="url(#mask43_1040_20734)">
<rect width="22.5006" height="20.5654" transform="matrix(0.999269 -0.0471308 0.0139811 0.999934 759.75 151.007)" fill="#D85A42" fill-opacity="0.35"/>
</g>
<mask id="mask44_1040_20734" style="mask-type:luminance" maskUnits="userSpaceOnUse" x="318" y="253" width="17" height="18">
<path d="M320.441 270.761L320.335 270.245L318.768 262.644L332.159 254.142L333.069 253.564L333.179 254.077L334.711 261.253L334.797 261.662L334.078 262.116L321.35 270.185L320.441 270.761Z" fill="white"/>
</mask>
<g mask="url(#mask44_1040_20734)">
<rect width="18.7889" height="18.9711" transform="matrix(0.999263 -0.047419 0.0139021 0.999936 317.377 253.068)" fill="#D85A42" fill-opacity="0.35"/>
</g>
<mask id="mask45_1040_20734" style="mask-type:luminance" maskUnits="userSpaceOnUse" x="389" y="249" width="17" height="19">
<path d="M390.999 267.546L390.879 267.044L389.123 259.671L389.026 259.265L389.751 258.808L402.859 250.541L402.859 250.539L403.752 249.977L403.875 250.475L405.683 257.83L405.782 258.237L405.058 258.693L391.89 266.984L390.999 267.546Z" fill="white"/>
</mask>
<g mask="url(#mask45_1040_20734)">
<rect width="19.5607" height="18.9568" transform="matrix(0.999266 -0.0473064 0.0139347 0.999935 387.627 249.587)" fill="#D85A42" fill-opacity="0.35"/>
</g>
<mask id="mask46_1040_20734" style="mask-type:luminance" maskUnits="userSpaceOnUse" x="462" y="246" width="19" height="19">
<path d="M464.811 264.176L464.679 263.69L462.624 256.128L462.513 255.723L463.241 255.266L463.243 255.266L476.814 246.766L477.688 246.217L477.823 246.701L479.935 254.242L480.049 254.647L479.318 255.104L465.685 263.63L464.811 264.176Z" fill="white"/>
</mask>
<g mask="url(#mask46_1040_20734)">
<rect width="20.3353" height="19.6075" transform="matrix(0.999266 -0.0472919 0.0139387 0.999935 460.823 246.194)" fill="#D85A42" fill-opacity="0.35"/>
</g>
<mask id="mask47_1040_20734" style="mask-type:luminance" maskUnits="userSpaceOnUse" x="539" y="242" width="19" height="19">
<path d="M542.104 260.643L541.958 260.172L539.576 252.416L539.451 252.012L540.185 251.557L554.246 242.812L555.103 242.28L555.25 242.746L555.25 242.748L557.693 250.483L557.821 250.887L557.085 251.343L542.959 260.112L542.104 260.643Z" fill="white"/>
</mask>
<g mask="url(#mask47_1040_20734)">
<rect width="21.1113" height="20.5906" transform="matrix(0.999265 -0.0473245 0.0139296 0.999935 537.695 241.703)" fill="#D85A42" fill-opacity="0.35"/>
</g>
<mask id="mask48_1040_20734" style="mask-type:luminance" maskUnits="userSpaceOnUse" x="620" y="238" width="20" height="19">
<path d="M623.128 256.945L622.971 256.487L620.229 248.53L620.088 248.128L620.828 247.671L620.83 247.671L635.406 238.672L635.408 238.672L636.245 238.156L636.406 238.608L639.212 246.545L639.354 246.947L638.612 247.404L623.965 256.429L623.965 256.43L623.128 256.945Z" fill="white"/>
</mask>
<g mask="url(#mask48_1040_20734)">
<rect width="21.1106" height="20.4244" transform="matrix(0.999266 -0.0473016 0.013936 0.999935 619.049 238.074)" fill="#D85A42" fill-opacity="0.35"/>
</g>
<mask id="mask49_1040_20734" style="mask-type:luminance" maskUnits="userSpaceOnUse" x="704" y="233" width="21" height="21">
<path d="M708.162 253.058L707.992 252.615L704.856 244.448L704.702 244.046L705.448 243.589L720.574 234.325L721.394 233.823L721.566 234.261L724.771 242.405L724.928 242.807L724.18 243.264L708.981 252.557L708.162 253.058Z" fill="white"/>
</mask>
<g mask="url(#mask49_1040_20734)">
<rect width="22.3496" height="21.3991" transform="matrix(0.999266 -0.0472716 0.0139443 0.999935 703.472 233.394)" fill="#D85A42" fill-opacity="0.35"/>
</g>
<mask id="mask50_1040_20734" style="mask-type:luminance" maskUnits="userSpaceOnUse" x="793" y="229" width="22" height="20">
<path d="M797.519 248.977L797.339 248.548L793.769 240.162L793.768 240.162L793.598 239.762L794.351 239.305L810.06 229.762L810.06 229.761L810.861 229.274L811.045 229.699L814.688 238.059L814.862 238.46L814.108 238.917L798.321 248.491L797.519 248.977Z" fill="white"/>
</mask>
<g mask="url(#mask50_1040_20734)">
<rect width="23.896" height="22.0358" transform="matrix(0.999269 -0.0471585 0.0139741 0.999934 792.212 228.777)" fill="#D85A42" fill-opacity="0.35"/>
</g>
<mask id="mask51_1040_20734" style="mask-type:luminance" maskUnits="userSpaceOnUse" x="264" y="328" width="17" height="19">
<path d="M265.633 346.296L265.539 345.762L264.145 337.825L277.597 329.336L278.503 328.765L278.599 329.295L279.97 336.807L280.045 337.216L279.349 337.654L266.538 345.727L265.633 346.296Z" fill="white"/>
</mask>
<g mask="url(#mask51_1040_20734)">
<rect width="18.0205" height="19.8174" transform="matrix(0.999259 -0.0476254 0.0138341 0.999939 263.13 328.064)" fill="#D85A42" fill-opacity="0.35"/>
</g>
<mask id="mask52_1040_20734" style="mask-type:luminance" maskUnits="userSpaceOnUse" x="333" y="326" width="18" height="19">
<path d="M335.628 344.755L335.522 344.236L333.93 336.512L333.845 336.103L334.544 335.666L347.745 327.393L348.631 326.838L348.742 327.352L350.387 335.06L350.473 335.468L349.773 335.906L336.514 344.202L335.628 344.755Z" fill="white"/>
</mask>
<g mask="url(#mask52_1040_20734)">
<rect width="18.7923" height="19.8026" transform="matrix(0.999261 -0.047527 0.0138681 0.999938 332.642 326.259)" fill="#D85A42" fill-opacity="0.35"/>
</g>
<mask id="mask53_1040_20734" style="mask-type:luminance" maskUnits="userSpaceOnUse" x="406" y="324" width="19" height="20">
<path d="M408.883 343.151L408.763 342.647L406.873 334.719L406.873 334.718L406.776 334.31L407.481 333.872L421.149 325.368L422.017 324.828L422.14 325.329L424.084 333.238L424.185 333.646L423.478 334.083L409.75 342.611L408.883 343.151Z" fill="white"/>
</mask>
<g mask="url(#mask53_1040_20734)">
<rect width="20.1816" height="19.7766" transform="matrix(0.999265 -0.0473377 0.0139259 0.999936 405.237 324.39)" fill="#D85A42" fill-opacity="0.35"/>
</g>
<mask id="mask54_1040_20734" style="mask-type:luminance" maskUnits="userSpaceOnUse" x="483" y="322" width="19" height="20">
<path d="M485.634 341.463L485.5 340.975L483.288 332.835L483.177 332.427L483.886 331.989L498.048 323.244L498.899 322.718L499.035 323.203L501.308 331.324L501.421 331.731L500.71 332.169L486.485 340.939L486.483 340.939L485.634 341.463Z" fill="white"/>
</mask>
<g mask="url(#mask54_1040_20734)">
<rect width="20.1851" height="20.6078" transform="matrix(0.999263 -0.0474479 0.0138933 0.999937 482.157 322.38)" fill="#D85A42" fill-opacity="0.35"/>
</g>
<mask id="mask55_1040_20734" style="mask-type:luminance" maskUnits="userSpaceOnUse" x="563" y="320" width="20" height="20">
<path d="M566.126 339.695L565.98 339.222L563.409 330.86L563.284 330.454L564.002 330.014L578.685 321.016L579.519 320.506L579.666 320.976L582.3 329.317L582.429 329.723L581.711 330.162L566.958 339.187L566.956 339.187L566.126 339.695Z" fill="white"/>
</mask>
<g mask="url(#mask55_1040_20734)">
<rect width="21.7287" height="20.5793" transform="matrix(0.999267 -0.0472396 0.0139529 0.999935 561.998 320.327)" fill="#D85A42" fill-opacity="0.35"/>
</g>
<mask id="mask56_1040_20734" style="mask-type:luminance" maskUnits="userSpaceOnUse" x="647" y="318" width="21" height="20">
<path d="M650.643 337.848L650.485 337.389L647.523 328.797L647.523 328.795L647.384 328.391L648.106 327.952L663.345 318.688L664.16 318.194L664.321 318.648L667.35 327.218L667.493 327.623L666.77 328.063L651.457 337.354L650.643 337.848Z" fill="white"/>
</mask>
<g mask="url(#mask56_1040_20734)">
<rect width="22.5067" height="22.0611" transform="matrix(0.999265 -0.0473385 0.0139256 0.999936 646.295 317.488)" fill="#D85A42" fill-opacity="0.35"/>
</g>
<mask id="mask57_1040_20734" style="mask-type:luminance" maskUnits="userSpaceOnUse" x="735" y="315" width="22" height="21">
<path d="M739.5 335.9L739.328 335.455L735.937 326.623L735.781 326.218L736.509 325.778L752.339 316.236L753.136 315.758L753.309 316.198L756.774 325.006L756.933 325.411L756.204 325.851L740.294 335.422L739.5 335.9Z" fill="white"/>
</mask>
<g mask="url(#mask57_1040_20734)">
<rect width="23.896" height="22.0358" transform="matrix(0.999269 -0.0471585 0.0139741 0.999934 734.459 315.214)" fill="#D85A42" fill-opacity="0.35"/>
</g>
<mask id="mask58_1040_20734" style="mask-type:luminance" maskUnits="userSpaceOnUse" x="208" y="405" width="17" height="19">
<path d="M209.774 423.265L209.692 422.713L208.48 414.427L221.992 405.956L222.893 405.391L222.976 405.938L224.178 413.798L224.241 414.209L223.568 414.631L210.673 422.702L209.774 423.265Z" fill="white"/>
</mask>
<g mask="url(#mask58_1040_20734)">
<rect width="18.0198" height="19.651" transform="matrix(0.999259 -0.0476068 0.0138408 0.999938 207.374 404.927)" fill="#D85A42" fill-opacity="0.35"/>
</g>
<mask id="mask59_1040_20734" style="mask-type:luminance" maskUnits="userSpaceOnUse" x="277" y="405" width="18" height="19">
<path d="M279.176 423.484L279.081 422.948L277.661 414.86L277.589 414.448L278.266 414.027L291.554 405.757L291.554 405.755L292.436 405.206L292.533 405.739L294.006 413.81L294.081 414.221L293.402 414.643L280.056 422.935L279.176 423.484Z" fill="white"/>
</mask>
<g mask="url(#mask59_1040_20734)">
<rect width="18.7958" height="20.6343" transform="matrix(0.999259 -0.0476216 0.0138354 0.999939 276.298 404.645)" fill="#D85A42" fill-opacity="0.35"/>
</g>
<mask id="mask60_1040_20734" style="mask-type:luminance" maskUnits="userSpaceOnUse" x="349" y="405" width="19" height="19">
<path d="M351.837 423.707L351.73 423.184L350.017 414.875L349.932 414.465L350.614 414.044L364.375 405.542L365.238 405.009L365.349 405.526L367.118 413.817L367.206 414.227L366.524 414.648L352.7 423.174L351.837 423.707Z" fill="white"/>
</mask>
<g mask="url(#mask60_1040_20734)">
<rect width="19.5669" height="20.4532" transform="matrix(0.999261 -0.0475073 0.0138745 0.999937 348.766 404.43)" fill="#D85A42" fill-opacity="0.35"/>
</g>
<mask id="mask61_1040_20734" style="mask-type:luminance" maskUnits="userSpaceOnUse" x="425" y="404" width="19" height="20">
<path d="M428.001 423.954L427.88 423.447L425.846 414.907L425.749 414.498L426.435 414.076L440.695 405.333L441.541 404.814L441.666 405.316L443.76 413.837L443.86 414.248L443.172 414.669L428.846 423.437L428.001 423.954Z" fill="white"/>
</mask>
<g mask="url(#mask61_1040_20734)">
<rect width="20.9603" height="21.4248" transform="matrix(0.999263 -0.047451 0.0138923 0.999937 424.321 404.001)" fill="#D85A42" fill-opacity="0.35"/>
</g>
<mask id="mask62_1040_20734" style="mask-type:luminance" maskUnits="userSpaceOnUse" x="505" y="404" width="20" height="21">
<path d="M507.919 424.197L507.785 423.706L505.397 414.924L505.285 414.513L505.978 414.093L520.768 405.099L521.596 404.595L521.733 405.082L524.185 413.843L524.299 414.253L523.606 414.674L508.745 423.695L507.919 424.197Z" fill="white"/>
</mask>
<g mask="url(#mask62_1040_20734)">
<rect width="20.9596" height="21.2585" transform="matrix(0.999263 -0.0474309 0.0138985 0.999937 504.203 404.421)" fill="#D85A42" fill-opacity="0.35"/>
</g>
<mask id="mask63_1040_20734" style="mask-type:luminance" maskUnits="userSpaceOnUse" x="588" y="404" width="21" height="21">
<path d="M591.881 424.464L591.735 423.988L588.958 414.954L588.832 414.545L589.529 414.124L604.881 404.865L605.692 404.376L605.842 404.849L608.687 413.86L608.817 414.269L608.116 414.692L592.69 423.976L591.881 424.464Z" fill="white"/>
</mask>
<g mask="url(#mask63_1040_20734)">
<rect width="22.5074" height="22.2273" transform="matrix(0.999264 -0.0473592 0.0139197 0.999936 587.157 403.789)" fill="#D85A42" fill-opacity="0.35"/>
</g>
<mask id="mask64_1040_20734" style="mask-type:luminance" maskUnits="userSpaceOnUse" x="676" y="404" width="22" height="21">
<path d="M680.196 424.732L680.036 424.271L676.832 414.973L676.691 414.564L677.395 414.143L677.396 414.143L693.344 404.607L694.137 404.134L694.299 404.591L697.578 413.867L697.723 414.276L697.018 414.697L680.987 424.26L680.196 424.732Z" fill="white"/>
</mask>
<g mask="url(#mask64_1040_20734)">
<rect width="23.2786" height="22.047" transform="matrix(0.999267 -0.0472395 0.0139529 0.999935 675.204 404.003)" fill="#D85A42" fill-opacity="0.35"/>
</g>
<mask id="mask65_1040_20734" style="mask-type:luminance" maskUnits="userSpaceOnUse" x="769" y="403" width="23" height="23">
<path d="M773.222 425.028L773.05 424.583L769.373 415.007L769.215 414.599L769.925 414.178L769.926 414.178L786.513 404.353L787.287 403.893L787.46 404.337L791.217 413.887L791.378 414.296L790.667 414.717L773.994 424.572L773.222 425.028Z" fill="white"/>
</mask>
<g mask="url(#mask65_1040_20734)">
<rect width="24.6747" height="23.6836" transform="matrix(0.999266 -0.0472787 0.0139423 0.999935 767.712 403.127)" fill="#D85A42" fill-opacity="0.35"/>
</g>
</mask>
<g mask="url(#mask0_1040_20734)">
<path d="M-77.0317 574.093L-89.7925 -24.6217L803.656 -43.6643L816.417 555.05L-77.0317 574.093Z" fill="#EAD8C7" fill-opacity="0.63"/>
</g>
</svg>
