<svg width="44" height="44" viewBox="0 0 44 44" fill="none" xmlns="http://www.w3.org/2000/svg">
<circle cx="22" cy="22" r="22" fill="#19e2c6"/>
<path d="M31.931 13.6482H15.1254C14.6798 13.6488 14.2483 13.8051 13.9056 14.09C13.5628 14.3749 13.3304 14.7705 13.2483 15.2086C12.8695 15.2798 12.5209 15.4638 12.2483 15.7364C11.9757 16.009 11.7918 16.3575 11.7205 16.7364C11.2825 16.8184 10.8868 17.0509 10.6019 17.3936C10.317 17.7363 10.1608 18.1678 10.1602 18.6135V30.0718C10.1607 30.5781 10.3621 31.0635 10.7201 31.4216C11.0781 31.7796 11.5636 31.981 12.0699 31.9815H28.8754C29.3211 31.9809 29.7526 31.8246 30.0953 31.5397C30.438 31.2548 30.6705 30.8592 30.7525 30.4211C31.1314 30.3499 31.48 30.166 31.7526 29.8934C32.0251 29.6208 32.2091 29.2722 32.2803 28.8934C32.7184 28.8113 33.114 28.5788 33.3989 28.2361C33.6838 27.8934 33.8401 27.4619 33.8407 27.0162V15.5579C33.8401 15.0516 33.6388 14.5662 33.2807 14.2082C32.9227 13.8501 32.4373 13.6488 31.931 13.6482ZM10.924 18.6135C10.9244 18.3097 11.0452 18.0184 11.26 17.8036C11.4748 17.5888 11.7661 17.468 12.0699 17.4676H28.8754C29.1792 17.468 29.4705 17.5888 29.6853 17.8036C29.9001 18.0184 30.0209 18.3097 30.0213 18.6135V18.9954H10.924V18.6135ZM30.0213 30.0718C30.0209 30.3756 29.9001 30.6668 29.6853 30.8817C29.4705 31.0965 29.1792 31.2173 28.8754 31.2176H12.0699C11.7661 31.2173 11.4748 31.0965 11.26 30.8817C11.0452 30.6668 10.9244 30.3756 10.924 30.0718V19.7593H30.0213V30.0718ZM31.549 28.544C31.5487 28.7809 31.4752 29.0119 31.3384 29.2052C31.2016 29.3986 31.0084 29.545 30.7852 29.6242V18.6135C30.7846 18.1072 30.5832 17.6217 30.2252 17.2637C29.8672 16.9057 29.3818 16.7043 28.8754 16.7037H12.5175C12.5967 16.4805 12.7431 16.2873 12.9364 16.1505C13.1298 16.0137 13.3608 15.9402 13.5977 15.9399H30.4032C30.707 15.9402 30.9983 16.061 31.2131 16.2758C31.4279 16.4907 31.5487 16.7819 31.549 17.0857V28.544ZM33.0768 27.0162C33.0765 27.2531 33.0029 27.4841 32.8662 27.6775C32.7294 27.8709 32.5362 28.0172 32.3129 28.0964V17.0857C32.3124 16.5794 32.111 16.094 31.753 15.7359C31.3949 15.3779 30.9095 15.1765 30.4032 15.176H14.0453C14.1245 14.9527 14.2708 14.7595 14.4642 14.6227C14.6576 14.486 14.8886 14.4124 15.1254 14.4121H31.931C32.2348 14.4124 32.526 14.5333 32.7408 14.7481C32.9557 14.9629 33.0765 15.2541 33.0768 15.5579V27.0162Z" fill="white"/>
<path d="M12.0699 18.6135C12.2809 18.6135 12.4519 18.4425 12.4519 18.2316C12.4519 18.0206 12.2809 17.8496 12.0699 17.8496C11.859 17.8496 11.688 18.0206 11.688 18.2316C11.688 18.4425 11.859 18.6135 12.0699 18.6135Z" fill="white"/>
<path d="M13.5978 18.6135C13.8087 18.6135 13.9797 18.4425 13.9797 18.2316C13.9797 18.0206 13.8087 17.8496 13.5978 17.8496C13.3868 17.8496 13.2158 18.0206 13.2158 18.2316C13.2158 18.4425 13.3868 18.6135 13.5978 18.6135Z" fill="white"/>
<path d="M15.1256 18.6135C15.3365 18.6135 15.5075 18.4425 15.5075 18.2316C15.5075 18.0206 15.3365 17.8496 15.1256 17.8496C14.9147 17.8496 14.7437 18.0206 14.7437 18.2316C14.7437 18.4425 14.9147 18.6135 15.1256 18.6135Z" fill="white"/>
<path d="M18.9842 27.639C19.0578 27.6832 19.1411 27.7055 19.2254 27.7036C19.3097 27.7017 19.392 27.6757 19.4639 27.6282L21.7749 26.1004C21.8438 26.0548 21.9008 25.991 21.9403 25.9151C21.9797 25.8392 22.0005 25.7537 22.0005 25.6667C22.0005 25.5798 21.9797 25.4942 21.9403 25.4183C21.9008 25.3424 21.8438 25.2786 21.7749 25.233L19.4639 23.7053C19.392 23.6577 19.3097 23.6317 19.2253 23.6298C19.141 23.6278 19.0577 23.6501 18.9841 23.6943C18.9104 23.7385 18.8491 23.803 18.8064 23.8812C18.7637 23.9594 18.7412 24.0483 18.7412 24.139V27.1945C18.7412 27.2851 18.7638 27.3741 18.8065 27.4522C18.8492 27.5303 18.9105 27.5948 18.9842 27.639ZM19.6893 25.0503L20.6218 25.6667L19.6893 26.2832V25.0503Z" fill="white"/>
</svg>
