<svg width="20" height="20" viewBox="0 0 20 20" fill="none" xmlns="http://www.w3.org/2000/svg">
<g id="star 1" clip-path="url(#clip0_1040_21982)">
<g id="Group">
<path id="Vector" d="M9.99996 19.8461C15.4378 19.8461 19.8461 15.4379 19.8461 9.99999C19.8461 4.56211 15.4378 0.153839 9.99996 0.153839C4.56208 0.153839 0.153809 4.56211 0.153809 9.99999C0.153809 15.4379 4.56208 19.8461 9.99996 19.8461Z" fill="#D85A42"/>
<path id="Vector_2" d="M15.1846 9.40001C15.5692 9.01539 15.3538 8.35385 14.8153 8.27693L12.2307 7.9077C12.0153 7.87693 11.8307 7.73847 11.7384 7.55385L10.5846 5.21539C10.3384 4.72308 9.64611 4.72308 9.41534 5.21539L8.26149 7.55385C8.16919 7.75385 7.98457 7.87693 7.76919 7.9077L5.18457 8.27693C4.64611 8.35385 4.43072 9.01539 4.81534 9.40001L6.67688 11.2308C6.83072 11.3846 6.90765 11.6 6.86149 11.8154L6.41534 14.3846C6.33842 14.9231 6.90765 15.3231 7.38457 15.0769L9.69226 13.8615C9.87688 13.7539 10.1076 13.7539 10.3076 13.8615L12.6153 15.0769C13.0923 15.3231 13.6615 14.9231 13.5692 14.3846L13.123 11.8154C13.0923 11.6 13.1538 11.3846 13.3076 11.2308L15.1846 9.40001Z" fill="#EDBF6F"/>
</g>
</g>
<defs>
<clipPath id="clip0_1040_21982">
<rect width="20" height="20" fill="white"/>
</clipPath>
</defs>
</svg>
