<svg width="533" height="476" viewBox="0 0 533 476" fill="none" xmlns="http://www.w3.org/2000/svg">
<mask id="mask0_1420_1430" style="mask-type:alpha" maskUnits="userSpaceOnUse" x="-77" y="3" width="777" height="1106">
<path d="M228.489 126.938L228.544 126.55L290.845 138.034L250.238 68.192L187.78 55.3207L228.777 126.724L228.489 126.938L228.203 127.153L186.332 54.2244L250.646 67.4804L292.284 139.093L228.286 127.298L228.203 127.153L228.489 126.938Z" fill="#D85A42" fill-opacity="0.35"/>
<path d="M162.568 114.784L162.622 114.398L227.777 126.406L186.851 55.125L121.555 41.6675L162.855 114.571L162.568 114.784L162.281 114.997L120.12 40.5758L187.263 54.4137L229.204 127.464L162.363 115.144L162.281 114.997L162.568 114.784Z" fill="#D85A42" fill-opacity="0.35"/>
<path d="M93.6003 102.075L93.6546 101.688L161.859 114.259L120.63 41.4792L52.3004 27.3975L93.8886 101.864L93.6003 102.075L93.3121 102.285L50.8773 26.3072L121.043 40.768L163.274 115.314L93.3941 102.435L93.3121 102.285L93.6003 102.075Z" fill="#D85A42" fill-opacity="0.35"/>
<path d="M21.3719 88.7646L21.4261 88.3784L92.8992 101.55L51.38 27.21L-20.197 12.4579L21.6629 88.555L21.3719 88.7646L21.0825 88.9729L-21.6038 11.371L51.7957 26.4991L94.3008 102.604L21.1644 89.1241L21.0825 88.9729L21.3719 88.7646Z" fill="#D85A42" fill-opacity="0.35"/>
<path d="M270.711 200.476L270.759 200.089L332.744 210.098L291.362 138.923L229.203 127.467L270.997 200.261L270.711 200.476L270.426 200.691L227.776 126.409L291.767 138.204L334.161 211.118L270.51 200.841L270.426 200.691L270.711 200.476Z" fill="#D85A42" fill-opacity="0.35"/>
<path d="M205.111 189.885L205.158 189.497L270.01 199.968L228.286 127.299L163.275 115.316L205.398 189.671L205.111 189.885L204.822 190.099L161.86 114.261L228.693 126.579L271.414 200.987L204.908 190.249L204.822 190.099L205.111 189.885Z" fill="#D85A42" fill-opacity="0.35"/>
<path d="M136.449 178.8L136.496 178.411L204.413 189.377L162.362 115.148L94.3015 102.604L136.737 178.587L136.449 178.8L136.159 179.01L92.8999 101.551L162.772 114.429L205.806 190.395L136.245 179.161L136.159 179.01L136.449 178.8Z" fill="#D85A42" fill-opacity="0.35"/>
<path d="M64.507 167.18L64.5544 166.793L135.759 178.289L93.3942 102.435L22.0663 89.2876L64.7978 166.972L64.507 167.18L64.2175 167.39L20.6783 88.2376L93.8066 101.716L137.139 179.303L64.302 167.543L64.2175 167.39L64.507 167.18Z" fill="#D85A42" fill-opacity="0.35"/>
<path d="M313.744 275.428L313.785 275.038L375.431 283.514L333.252 210.97L271.413 200.985L314.03 275.213L313.744 275.428L313.457 275.644L270.008 199.967L333.652 210.243L376.825 284.496L313.544 275.796L313.457 275.644L313.744 275.428Z" fill="#D85A42" fill-opacity="0.35"/>
<path d="M248.489 266.455L248.53 266.066L313.053 274.937L270.51 200.839L205.805 190.392L248.776 266.242L248.489 266.455L248.201 266.67L204.413 189.374L270.912 200.113L314.437 275.917L248.289 266.823L248.201 266.67L248.489 266.455Z" fill="#D85A42" fill-opacity="0.35"/>
<path d="M180.158 257.06L180.199 256.67L247.803 265.965L204.907 190.246L137.138 179.302L180.447 256.848L180.158 257.06L179.87 257.271L135.758 178.287L205.312 189.518L249.175 266.943L179.957 257.428L179.87 257.271L180.158 257.06Z" fill="#D85A42" fill-opacity="0.35"/>
<path d="M108.531 247.213L108.571 246.823L179.478 256.572L136.244 179.158L65.1907 167.686L108.82 247.004L108.531 247.213L108.24 247.422L63.823 166.673L136.652 178.432L180.837 257.549L108.327 247.58L108.24 247.422L108.531 247.213Z" fill="#D85A42" fill-opacity="0.35"/>
<path d="M33.3618 236.877L33.4024 236.489L107.858 246.725L64.3021 167.541L-10.2759 155.499L33.6538 236.672L33.3618 236.877L33.0711 237.085L-11.6302 154.489L64.7122 166.816L109.204 247.7L33.1577 237.245L33.0711 237.085L33.3618 236.877Z" fill="#D85A42" fill-opacity="0.35"/>
<path d="M357.612 351.833L357.646 351.443L418.929 358.324L375.931 284.372L314.436 275.918L357.899 351.619L357.612 351.833L357.326 352.048L313.053 274.937L376.326 283.636L420.299 359.265L357.416 352.205L357.326 352.048L357.612 351.833Z" fill="#D85A42" fill-opacity="0.35"/>
<path d="M292.729 344.548L292.763 344.158L356.932 351.364L313.545 275.796L249.175 266.945L293.016 344.336L292.729 344.548L292.442 344.763L247.803 265.966L313.943 275.061L358.293 352.304L292.531 344.921L292.442 344.763L292.729 344.548Z" fill="#D85A42" fill-opacity="0.35"/>
<path d="M224.757 336.915L224.791 336.525L292.055 344.076L248.289 266.821L180.838 257.548L225.046 336.703L224.757 336.915L224.468 337.126L179.48 256.57L248.689 266.087L293.403 345.016L224.558 337.286L224.468 337.126L224.757 336.915Z" fill="#D85A42" fill-opacity="0.35"/>
<path d="M153.47 328.913L153.504 328.523L224.087 336.447L179.957 257.428L109.204 247.7L153.761 328.703L153.47 328.913L153.18 329.121L107.857 246.726L180.359 256.694L225.424 337.385L153.27 329.284L153.18 329.121L153.47 328.913Z" fill="#D85A42" fill-opacity="0.35"/>
<path d="M78.6244 320.509L78.6569 320.118L152.81 328.444L108.329 247.579L34.03 237.364L78.915 320.302L78.6244 320.509L78.3324 320.715L32.6972 236.391L108.735 246.845L154.135 329.38L78.4227 320.88L78.3324 320.715L78.6244 320.509Z" fill="#D85A42" fill-opacity="0.35"/>
<path d="M-0.0592154 311.676L-0.0267178 311.286L77.9687 320.043L33.1594 237.247L-44.9571 226.508L0.23249 311.473L-0.0592154 311.676L-0.352459 311.881L-46.2762 225.537L33.5689 236.513L79.2798 320.979L-0.26373 312.049L-0.352459 311.881L-0.0592154 311.676Z" fill="#D85A42" fill-opacity="0.35"/>
<path d="M402.341 429.736L402.366 429.346L463.258 434.567L419.419 359.167L358.293 352.304L402.627 429.521L402.341 429.736L402.053 429.952L356.932 351.364L419.809 358.423L464.606 435.469L402.147 430.112L402.053 429.952L402.341 429.736Z" fill="#D85A42" fill-opacity="0.35"/>
<path d="M337.857 424.205L337.883 423.814L401.673 429.284L357.417 352.204L293.404 345.017L338.144 423.992L337.857 424.205L337.57 424.419L292.056 344.077L357.81 351.46L403.009 430.185L337.662 424.582L337.57 424.419L337.857 424.205Z" fill="#D85A42" fill-opacity="0.35"/>
<path d="M270.271 418.413L270.296 418.021L337.193 423.758L292.531 344.921L225.425 337.387L270.56 418.201L270.271 418.413L269.982 418.624L224.088 336.449L292.927 344.176L338.519 424.658L270.074 418.789L269.982 418.624L270.271 418.413Z" fill="#D85A42" fill-opacity="0.35"/>
<path d="M199.356 412.334L199.381 411.943L269.612 417.964L224.557 337.291L154.133 329.384L199.645 412.126L199.356 412.334L199.066 412.544L152.808 328.448L224.956 336.548L270.928 418.864L199.158 412.71L199.066 412.544L199.356 412.334Z" fill="#D85A42" fill-opacity="0.35"/>
<path d="M124.86 405.947L124.886 405.556L198.705 411.885L153.27 329.287L79.2781 320.979L125.151 405.74L124.86 405.947L124.568 406.153L77.967 320.044L153.671 328.543L200.009 412.783L124.661 406.323L124.568 406.153L124.86 405.947Z" fill="#D85A42" fill-opacity="0.35"/>
<path d="M46.5039 399.225L46.5296 398.834L124.215 405.495L78.4223 320.88L0.589204 312.142L46.797 399.022L46.5039 399.225L46.212 399.429L-0.709707 311.208L78.8256 320.138L125.506 406.392L46.3031 399.602L46.212 399.429L46.5039 399.225Z" fill="#D85A42" fill-opacity="0.35"/>
<path d="M447.952 509.18L447.969 508.788L508.445 512.282L463.74 435.393L403.008 430.186L448.239 508.965L447.952 509.18L447.666 509.395L401.671 429.285L464.125 434.639L509.769 513.144L447.761 509.561L447.666 509.395L447.952 509.18Z" fill="#D85A42" fill-opacity="0.35"/>
<path d="M383.898 505.479L383.916 505.089L447.297 508.75L402.149 430.113L338.521 424.658L384.185 505.268L383.898 505.479L383.611 505.694L337.194 423.759L402.535 429.361L448.611 509.612L383.707 505.863L383.611 505.694L383.898 505.479Z" fill="#D85A42" fill-opacity="0.35"/>
<path d="M316.73 501.599L316.747 501.207L383.246 505.049L337.662 424.583L270.929 418.862L317.019 501.387L316.73 501.599L316.441 501.81L269.614 417.962L338.052 423.83L384.55 505.91L316.537 501.979L316.441 501.81L316.73 501.599Z" fill="#D85A42" fill-opacity="0.35"/>
<path d="M246.217 497.527L246.235 497.135L316.082 501.171L270.074 418.79L200.008 412.783L246.507 497.317L246.217 497.527L245.928 497.735L198.705 411.884L270.467 418.037L317.376 502.03L246.021 497.908L245.928 497.735L246.217 497.527Z" fill="#D85A42" fill-opacity="0.35"/>
<path d="M172.105 493.241L172.121 492.851L245.575 497.094L199.157 412.707L125.504 406.393L172.395 493.036L172.105 493.241L171.813 493.448L124.213 405.496L199.553 411.955L246.858 497.954L171.908 493.624L171.813 493.448L172.105 493.241Z" fill="#D85A42" fill-opacity="0.35"/>
<path d="M94.1093 488.736L94.1267 488.346L171.47 492.814L124.661 406.321L47.1433 399.676L94.4024 488.533L94.1093 488.736L93.8174 488.941L45.8646 398.778L125.06 405.569L172.741 493.672L93.9109 489.117L93.8174 488.941L94.1093 488.736Z" fill="#D85A42" fill-opacity="0.35"/>
<path d="M11.9166 483.987L11.9327 483.595L93.4791 488.306L46.3016 399.603L-35.3897 392.598L12.2109 483.786L11.9166 483.987L11.6222 484.188L-36.6549 391.703L46.7032 398.849L94.7377 489.165L11.7155 484.368L11.6222 484.188L11.9166 483.987Z" fill="#D85A42" fill-opacity="0.35"/>
<path d="M-25.4317 575.519L-25.4225 575.127L60.3566 577.552L11.7157 484.37L-74.2051 479.407L-25.135 575.321L-25.4317 575.519L-25.7271 575.717L-75.4377 478.55L12.1166 483.609L61.5829 578.371L-25.6307 575.906L-25.7271 575.717L-25.4317 575.519Z" fill="#D85A42" fill-opacity="0.35"/>
<path d="M255.153 75.937L257.588 69.3073L245.74 59.749L243.26 66.3548L255.153 75.937Z" fill="#D85A42" fill-opacity="0.35"/>
<path d="M191.802 63.0406L194.518 56.312L182.32 46.5247L179.556 53.2274L191.802 63.0406Z" fill="#D85A42" fill-opacity="0.35"/>
<path d="M125.604 48.9131L128.32 42.1846L116.122 32.3973L113.358 39.1L125.604 48.9131Z" fill="#D85A42" fill-opacity="0.35"/>
<path d="M56.5577 35.147L59.2743 28.4184L47.0759 18.6312L44.312 25.3339L56.5577 35.147Z" fill="#D85A42" fill-opacity="0.35"/>
<path d="M296.364 146.815L298.676 139.872L286.777 130.325L284.42 137.245L296.364 146.815Z" fill="#D85A42" fill-opacity="0.35"/>
<path d="M233.326 135.36L235.916 128.305L223.665 118.53L221.024 125.559L233.326 135.36Z" fill="#D85A42" fill-opacity="0.35"/>
<path d="M167.44 123.386L170.334 116.218L157.707 106.205L154.761 113.347L167.44 123.386Z" fill="#D85A42" fill-opacity="0.35"/>
<path d="M98.5063 110.859L101.729 103.573L88.7051 93.3108L85.4287 100.57L98.5063 110.859Z" fill="#D85A42" fill-opacity="0.35"/>
<path d="M26.3101 97.742L29.89 90.3345L16.4472 79.8099L12.8093 87.187L26.3101 97.742Z" fill="#D85A42" fill-opacity="0.35"/>
<path d="M338.342 219.015L340.525 211.748L328.576 202.218L326.348 209.459L338.342 219.015Z" fill="#D85A42" fill-opacity="0.35"/>
<path d="M275.639 209.058L278.099 201.667L265.792 191.91L263.284 199.274L275.639 209.058Z" fill="#D85A42" fill-opacity="0.35"/>
<path d="M210.077 198.656L212.839 191.135L200.155 181.139L197.34 188.632L210.077 198.656Z" fill="#D85A42" fill-opacity="0.35"/>
<path d="M141.453 187.758L144.543 180.104L131.456 169.858L128.311 177.483L141.453 187.758Z" fill="#D85A42" fill-opacity="0.35"/>
<path d="M69.5454 176.341L72.9919 168.551L59.4802 158.042L55.9756 165.803L69.5454 176.341Z" fill="#D85A42" fill-opacity="0.35"/>
<path d="M381.11 292.569L383.158 284.969L371.158 275.455L369.063 283.032L381.11 292.569Z" fill="#D85A42" fill-opacity="0.35"/>
<path d="M318.768 284.18L321.093 276.44L308.732 266.699L306.358 274.414L318.768 284.18Z" fill="#D85A42" fill-opacity="0.35"/>
<path d="M253.555 275.398L256.18 267.513L243.436 257.534L240.757 265.392L253.555 275.398Z" fill="#D85A42" fill-opacity="0.35"/>
<path d="M185.264 266.203L188.215 258.169L175.065 247.942L172.058 255.949L185.264 266.203Z" fill="#D85A42" fill-opacity="0.35"/>
<path d="M113.676 256.565L116.982 248.376L103.401 237.886L100.035 246.046L113.676 256.565Z" fill="#D85A42" fill-opacity="0.35"/>
<path d="M38.5408 246.448L42.2329 238.098L28.1954 227.332L24.4398 235.651L38.5408 246.448Z" fill="#D85A42" fill-opacity="0.35"/>
<path d="M424.69 367.525L426.6 359.579L414.549 350.083L412.594 358.006L424.69 367.525Z" fill="#D85A42" fill-opacity="0.35"/>
<path d="M362.734 360.753L364.917 352.653L352.502 342.932L350.269 351.008L362.734 360.753Z" fill="#D85A42" fill-opacity="0.35"/>
<path d="M297.895 353.669L300.378 345.407L287.575 335.45L285.041 343.686L297.895 353.669Z" fill="#D85A42" fill-opacity="0.35"/>
<path d="M229.967 346.245L232.773 337.817L219.56 327.611L216.698 336.013L229.967 346.245Z" fill="#D85A42" fill-opacity="0.35"/>
<path d="M158.723 338.46L161.883 329.859L148.233 319.391L145.013 327.965L158.723 338.46Z" fill="#D85A42" fill-opacity="0.35"/>
<path d="M83.913 330.287L87.4582 321.504L73.3456 310.761L69.737 319.513L83.913 330.287Z" fill="#D85A42" fill-opacity="0.35"/>
<path d="M5.26461 321.692L9.2324 312.721L-5.37427 301.688L-9.40941 310.627L5.26461 321.692Z" fill="#D85A42" fill-opacity="0.35"/>
<path d="M469.105 443.916L470.869 435.613L458.77 426.14L456.96 434.42L469.105 443.916Z" fill="#D85A42" fill-opacity="0.35"/>
<path d="M407.563 438.831L409.6 430.356L397.13 420.658L395.044 429.108L407.563 438.831Z" fill="#D85A42" fill-opacity="0.35"/>
<path d="M343.128 433.51L345.46 424.857L332.599 414.924L330.213 423.55L343.128 433.51Z" fill="#D85A42" fill-opacity="0.35"/>
<path d="M275.588 427.936L278.242 419.1L264.967 408.917L262.255 417.728L275.588 427.936Z" fill="#D85A42" fill-opacity="0.35"/>
<path d="M204.719 422.08L207.726 413.049L194.008 402.608L190.941 411.61L204.719 422.08Z" fill="#D85A42" fill-opacity="0.35"/>
<path d="M130.265 415.932L133.656 406.7L119.469 395.983L116.012 405.186L130.265 415.932Z" fill="#D85A42" fill-opacity="0.35"/>
<path d="M51.9489 409.462L55.7607 400.02L41.0732 389.015L37.191 398.427L51.9489 409.462Z" fill="#D85A42" fill-opacity="0.35"/>
<path d="M17.5252 494.732L21.6368 484.55L6.32421 473.273L2.13823 483.424L17.5252 494.732Z" fill="#D85A42" fill-opacity="0.35"/>
<mask id="mask1_1420_1430" style="mask-type:luminance" maskUnits="userSpaceOnUse" x="211" y="60" width="77" height="78">
<path d="M287.53 131.36L255.317 77.134L255.157 77.5341L254.382 76.9007L286.608 131.145L286.76 130.732L287.53 131.36ZM243.933 68.3526L243.269 67.8089L243.407 67.4663L219.783 61.5423L211.153 60.1319L243.933 68.3526Z" fill="white"/>
</mask>
<g mask="url(#mask1_1420_1430)">
<rect width="84.6867" height="64.8221" transform="matrix(-0.986309 -0.18521 -0.100381 0.994076 293.972 74.8901)" fill="#D85A42" fill-opacity="0.35"/>
</g>
<mask id="mask2_1420_1430" style="mask-type:luminance" maskUnits="userSpaceOnUse" x="125" y="50" width="100" height="76">
<path d="M224.44 119.609L191.967 65.2685L191.797 65.6511L191.037 65.0433L212.528 101.005L223.521 119.4L223.684 119.006L224.44 119.609Z" fill="white"/>
</mask>
<g mask="url(#mask2_1420_1430)">
<rect width="106.501" height="58.9447" transform="matrix(-0.987394 -0.175356 -0.101161 0.994021 230.42 68.2026)" fill="#D85A42" fill-opacity="0.35"/>
</g>
<mask id="mask3_1420_1430" style="mask-type:luminance" maskUnits="userSpaceOnUse" x="60" y="42" width="99" height="72">
<path d="M158.473 107.355L126.555 53.4226L125.682 53.285L128.933 58.7803L157.56 107.148L157.731 106.769L158.473 107.355ZM88.5288 91.5774L60.1523 42.9638L60.1509 42.9636L88.5288 91.5774ZM78.1423 72.4332L61.0213 43.1007L61.0199 43.1004L78.1423 72.4332Z" fill="white"/>
</mask>
<g mask="url(#mask3_1420_1430)">
<rect width="105.958" height="55.4064" transform="matrix(-0.987594 -0.173509 -0.101204 0.994027 164.409 60.4688)" fill="#D85A42" fill-opacity="0.35"/>
</g>
<mask id="mask4_1420_1430" style="mask-type:luminance" maskUnits="userSpaceOnUse" x="233" y="127" width="97" height="83">
<path d="M326.973 209.874L326.971 209.874L277.977 199.802L326.973 209.874ZM329.345 203.318L296.514 148.582L296.364 148.997L295.593 148.375L328.435 203.129L328.577 202.704L329.345 203.318ZM285.063 139.893L284.42 139.374L284.547 139.029L235.27 127.844L235.917 128.363L235.78 128.705L285.063 139.893Z" fill="white"/>
</mask>
<g mask="url(#mask4_1420_1430)">
<rect width="103.859" height="66.9343" transform="matrix(-0.986868 -0.180155 -0.100907 0.994027 336.175 144.873)" fill="#D85A42" fill-opacity="0.35"/>
</g>
<mask id="mask5_1420_1430" style="mask-type:luminance" maskUnits="userSpaceOnUse" x="166" y="115" width="101" height="84">
<path d="M257.537 198.355L212.703 189.155L212.702 189.157L257.537 198.355ZM263.415 198.82L263.415 198.818L212.208 188.312L263.415 198.82ZM266.55 192.998L255.021 173.565L233.485 137.264L233.324 137.664L232.568 137.058L265.644 192.808L265.796 192.398L266.55 192.998ZM200.892 179.349L167.604 122.507L167.604 122.509L200.892 179.347L200.892 179.349ZM221.67 128.339L221.021 127.818L221.161 127.479L169.675 115.813L170.329 116.333L170.18 116.671L221.67 128.339Z" fill="white"/>
</mask>
<g mask="url(#mask5_1420_1430)">
<rect width="107.856" height="68.2918" transform="matrix(-0.986928 -0.179611 -0.100947 0.994024 273.149 133.342)" fill="#D85A42" fill-opacity="0.35"/>
</g>
<mask id="mask6_1420_1430" style="mask-type:luminance" maskUnits="userSpaceOnUse" x="98" y="103" width="103" height="79">
<path d="M200.912 181.72L167.606 125.205L167.438 125.588L166.696 125.001L200.012 181.535L200.174 181.14L200.912 181.72ZM132.185 167.571L98.6697 109.906L98.6696 109.907L132.185 167.57L132.185 167.571ZM155.409 116.079L154.754 115.562L154.907 115.226L101.053 103.137L101.712 103.654L101.549 103.988L155.409 116.079Z" fill="white"/>
</mask>
<g mask="url(#mask6_1420_1430)">
<rect width="110.63" height="62.5345" transform="matrix(-0.98732 -0.176034 -0.101137 0.99402 208.078 121.16)" fill="#D85A42" fill-opacity="0.35"/>
</g>
<mask id="mask7_1420_1430" style="mask-type:luminance" maskUnits="userSpaceOnUse" x="26" y="89" width="107" height="89">
<path d="M128.957 177.865L128.955 177.863L75.0948 166.819L128.957 177.865ZM132.184 170.956L98.686 112.983L98.5075 113.353L97.7815 112.78L122.847 156.16L131.289 170.771L131.462 170.389L132.184 170.956ZM86.0874 103.533L85.4287 103.011L85.5942 102.676L29.2224 89.9104L29.8867 90.4318L29.7105 90.7637L36.2326 92.241L86.0874 103.533Z" fill="white"/>
</mask>
<g mask="url(#mask7_1420_1430)">
<rect width="113.779" height="71.5295" transform="matrix(-0.986952 -0.17939 -0.100962 0.994023 139.107 108.691)" fill="#D85A42" fill-opacity="0.35"/>
</g>
<mask id="mask8_1420_1430" style="mask-type:luminance" maskUnits="userSpaceOnUse" x="274" y="201" width="98" height="83">
<path d="M371.923 276.575L338.481 220.849L338.339 221.28L337.573 220.665L371.027 276.408L371.159 275.966L371.923 276.575ZM309.481 264.976L275.788 208.143L309.481 264.974L309.481 264.976ZM308.588 264.809L274.886 207.961L274.884 207.961L308.588 264.809ZM326.967 212.172L326.345 211.673L326.46 211.325L301.369 206.172L277.471 201.263L278.097 201.763L277.972 202.109L326.967 212.172Z" fill="white"/>
</mask>
<g mask="url(#mask8_1420_1430)">
<rect width="105.239" height="66.8857" transform="matrix(-0.986916 -0.179727 -0.100938 0.994025 378.795 218.652)" fill="#D85A42" fill-opacity="0.35"/>
</g>
<mask id="mask9_1420_1430" style="mask-type:luminance" maskUnits="userSpaceOnUse" x="212" y="190" width="98" height="85">
<path d="M306.475 273.971L255.567 264.648L255.569 264.648L306.475 273.971ZM309.482 267.806L275.792 210.937L275.641 211.353L274.889 210.754L308.59 267.64L308.733 267.212L309.482 267.806ZM263.912 202.007L263.285 201.505L263.412 201.162L212.207 190.632L212.839 191.133L212.702 191.476L257.534 200.695L263.912 202.007Z" fill="white"/>
</mask>
<g mask="url(#mask9_1420_1430)">
<rect width="105.924" height="68.3597" transform="matrix(-0.986864 -0.180197 -0.100904 0.994027 316.198 208.465)" fill="#D85A42" fill-opacity="0.35"/>
</g>
<mask id="mask10_1420_1430" style="mask-type:luminance" maskUnits="userSpaceOnUse" x="140" y="179" width="105" height="87">
<path d="M244.172 258.654L210.235 200.725L210.074 201.126L209.337 200.542L225.677 228.434L243.285 258.49L243.438 258.076L244.172 258.654ZM174.901 245.808L174.901 245.807L140.726 186.659L174.901 245.808ZM197.97 191.553L197.336 191.051L197.476 190.709L143.898 179.721L144.537 180.222L144.386 180.563L197.97 191.553Z" fill="white"/>
</mask>
<g mask="url(#mask10_1420_1430)">
<rect width="111.853" height="69.6507" transform="matrix(-0.986985 -0.179094 -0.100982 0.994022 250.992 198.334)" fill="#D85A42" fill-opacity="0.35"/>
</g>
<mask id="mask11_1420_1430" style="mask-type:luminance" maskUnits="userSpaceOnUse" x="68" y="168" width="108" height="88">
<path d="M172.208 255.443L116.363 245.264L116.364 245.264L172.208 255.443ZM175.793 249.018L141.623 189.947L141.452 190.334L140.731 189.768L174.91 248.853L175.073 248.456L175.793 249.018ZM104.108 235.749L69.7215 175.422L104.107 235.749L104.108 235.749ZM128.947 180.515L128.308 180.014L128.461 179.676L72.3433 168.188L72.986 168.689L72.8217 169.026L75.0846 169.49L128.947 180.515Z" fill="white"/>
</mask>
<g mask="url(#mask11_1420_1430)">
<rect width="115.16" height="70.8844" transform="matrix(-0.987025 -0.178733 -0.101004 0.994021 182.582 186.951)" fill="#D85A42" fill-opacity="0.35"/>
</g>
<mask id="mask12_1420_1430" style="mask-type:luminance" maskUnits="userSpaceOnUse" x="318" y="276" width="98" height="82">
<path d="M415.311 351.168L381.239 294.401L381.109 294.847L380.346 294.239L414.429 351.025L414.551 350.566L415.311 351.168ZM369.665 285.736L369.062 285.256L369.166 284.904L320.482 276L321.09 276.482L320.976 276.832L349.733 282.09L369.665 285.736Z" fill="white"/>
</mask>
<g mask="url(#mask12_1420_1430)">
<rect width="103.999" height="66.3301" transform="matrix(-0.986904 -0.179835 -0.100931 0.994025 421.922 292.994)" fill="#D85A42" fill-opacity="0.35"/>
</g>
<mask id="mask13_1420_1430" style="mask-type:luminance" maskUnits="userSpaceOnUse" x="252" y="267" width="102" height="85">
<path d="M300.264 343.337L350.861 351.388L300.264 343.335L300.264 343.337ZM353.25 344.065L336.549 315.907L318.908 286.166L318.767 286.598L318.02 286.006L335.023 314.674L352.372 343.922L352.506 343.478L353.25 344.065ZM306.964 277.259L306.357 276.777L306.472 276.428L255.564 267.123L256.176 267.605L256.049 267.953L306.964 277.259Z" fill="white"/>
</mask>
<g mask="url(#mask13_1420_1430)">
<rect width="108.544" height="68.8667" transform="matrix(-0.986921 -0.179673 -0.100942 0.994025 359.857 284.794)" fill="#D85A42" fill-opacity="0.35"/>
</g>
<mask id="mask14_1420_1430" style="mask-type:luminance" maskUnits="userSpaceOnUse" x="185" y="257" width="104" height="87">
<path d="M288.308 336.543L266.897 299.998L253.705 277.481L253.554 277.898L252.82 277.322L287.436 336.403L287.579 335.973L288.308 336.543ZM241.368 268.321L240.754 267.839L240.884 267.492L187.593 257.763L188.21 258.245L188.071 258.59L241.368 268.321Z" fill="white"/>
</mask>
<g mask="url(#mask14_1420_1430)">
<rect width="111.163" height="69.5246" transform="matrix(-0.986971 -0.17923 -0.100973 0.994023 295.065 275.982)" fill="#D85A42" fill-opacity="0.35"/>
</g>
<mask id="mask15_1420_1430" style="mask-type:luminance" maskUnits="userSpaceOnUse" x="112" y="248" width="109" height="81">
<path d="M220.298 328.159L216.063 320.886L185.419 268.256L185.257 268.656L184.538 268.099L219.428 328.02L219.583 327.607L220.298 328.159ZM125.245 276.826L112.949 255.396L112.949 255.394L125.245 276.826ZM172.664 258.899L172.045 258.421L172.187 258.078L116.334 248.009L116.956 248.489L116.804 248.828L172.664 258.899Z" fill="white"/>
</mask>
<g mask="url(#mask15_1420_1430)">
<rect width="115.87" height="63.1234" transform="matrix(-0.987449 -0.174844 -0.101176 0.994022 227.147 266.483)" fill="#D85A42" fill-opacity="0.35"/>
</g>
<mask id="mask16_1420_1430" style="mask-type:luminance" maskUnits="userSpaceOnUse" x="38" y="237" width="111" height="92">
<path d="M87.3116 319.055L145.625 328.315L87.3117 319.054L87.3116 319.055ZM148.941 320.538L113.845 258.939L113.675 259.328L112.971 258.783L125.26 280.351L148.077 320.398L148.24 319.998L148.941 320.538ZM100.656 249.231L100.033 248.748L100.186 248.407L84.4408 245.534L41.6002 237.719L42.2279 238.203L42.0634 238.543L100.656 249.231Z" fill="white"/>
</mask>
<g mask="url(#mask16_1420_1430)">
<rect width="118.466" height="72.8656" transform="matrix(-0.987027 -0.178711 -0.101006 0.994021 155.945 257.592)" fill="#D85A42" fill-opacity="0.35"/>
</g>
<mask id="mask17_1420_1430" style="mask-type:luminance" maskUnits="userSpaceOnUse" x="-41" y="226" width="116" height="94">
<path d="M74.0398 311.915L63.6333 293.371L38.7212 248.978L38.5396 249.352L37.8512 248.821L46.5767 264.371L73.1793 311.775L73.3536 311.39L74.0398 311.915ZM25.0655 238.978L24.4365 238.494L24.6038 238.155L-32.2739 227.792L-36.9332 226.943L-36.3 227.428L-36.4781 227.763L-20.6029 230.656L25.0655 238.978Z" fill="white"/>
</mask>
<g mask="url(#mask17_1420_1430)">
<rect width="123.15" height="74.9504" transform="matrix(-0.987064 -0.17838 -0.101026 0.994021 81.543 247.028)" fill="#D85A42" fill-opacity="0.35"/>
</g>
<mask id="mask18_1420_1430" style="mask-type:luminance" maskUnits="userSpaceOnUse" x="361" y="352" width="99" height="82">
<path d="M397.87 418.796L392.593 409.894L397.871 418.794L397.87 418.796ZM458.66 427.155L458.772 426.68L459.528 427.276L424.81 369.432L424.689 369.896L423.93 369.295L458.66 427.155ZM364.811 353.079L413.176 360.782L412.592 360.32L412.687 359.966L364.328 352.265L364.915 352.727L364.811 353.079Z" fill="white"/>
</mask>
<g mask="url(#mask18_1420_1430)">
<rect width="105.236" height="67.6347" transform="matrix(-0.986878 -0.18007 -0.100913 0.994026 466.133 369.214)" fill="#D85A42" fill-opacity="0.35"/>
</g>
<mask id="mask19_1420_1430" style="mask-type:luminance" maskUnits="userSpaceOnUse" x="297" y="345" width="101" height="85">
<path d="M397.002 421.78L397.126 421.318L397.866 421.899L392.589 412.993L362.86 362.82L362.73 363.269L361.986 362.683L397.002 421.78ZM300.257 345.849L350.853 353.916L350.264 353.453L350.369 353.101L299.779 345.034L300.371 345.498L300.257 345.849Z" fill="white"/>
</mask>
<g mask="url(#mask19_1420_1430)">
<rect width="108.541" height="69.7655" transform="matrix(-0.986877 -0.180073 -0.100913 0.994026 404.552 363.222)" fill="#D85A42" fill-opacity="0.35"/>
</g>
<mask id="mask20_1420_1430" style="mask-type:luminance" maskUnits="userSpaceOnUse" x="229" y="337" width="105" height="85">
<path d="M332.466 416.053L332.6 415.606L333.326 416.17L298.036 355.867L297.895 356.301L297.166 355.73L299.511 359.737L332.466 416.053ZM252.206 384.889L229.251 345.114L229.249 345.114L252.206 384.889ZM232.644 338.269L285.633 346.709L285.039 346.246L285.156 345.895L232.175 337.455L232.771 337.919L232.644 338.269Z" fill="white"/>
</mask>
<g mask="url(#mask20_1420_1430)">
<rect width="112.539" height="70.9736" transform="matrix(-0.986942 -0.179488 -0.100955 0.994024 340.455 356.138)" fill="#D85A42" fill-opacity="0.35"/>
</g>
<mask id="mask21_1420_1430" style="mask-type:luminance" maskUnits="userSpaceOnUse" x="158" y="329" width="108" height="89">
<path d="M193.853 400.236L158.017 337.318L158.016 337.318L193.853 400.236ZM264.826 409.971L264.971 409.54L265.683 410.089L230.116 348.559L229.964 348.977L229.25 348.423L252.208 388.143L264.826 409.971ZM161.736 330.32L217.291 339.146L216.694 338.683L216.822 338.334L161.272 329.507L161.875 329.973L161.736 330.32Z" fill="white"/>
</mask>
<g mask="url(#mask21_1420_1430)">
<rect width="116.4" height="71.59" transform="matrix(-0.987027 -0.178708 -0.101006 0.994021 272.945 348.619)" fill="#D85A42" fill-opacity="0.35"/>
</g>
<mask id="mask22_1420_1430" style="mask-type:luminance" maskUnits="userSpaceOnUse" x="86" y="321" width="109" height="92">
<path d="M193.854 403.729L194.009 403.312L194.706 403.847L158.884 340.85L158.722 341.254L158.023 340.714L193.854 403.729ZM87.3054 321.844L145.616 331.137L145.012 330.672L145.155 330.325L87.2844 321.103L86.8493 321.034L87.4564 321.501L87.3054 321.844Z" fill="white"/>
</mask>
<g mask="url(#mask22_1420_1430)">
<rect width="117.082" height="74.4087" transform="matrix(-0.986916 -0.179725 -0.100938 0.994025 201.614 340.666)" fill="#D85A42" fill-opacity="0.35"/>
</g>
<mask id="mask23_1420_1430" style="mask-type:luminance" maskUnits="userSpaceOnUse" x="5" y="312" width="116" height="94">
<path d="M55.1723 396.647L116.163 404.825L55.171 396.647L55.1723 396.647ZM119.31 397.145L119.475 396.742L120.158 397.262L106.435 372.779L84.0852 332.911L83.9132 333.301L83.2284 332.776L88.766 342.654L119.31 397.145ZM9.06187 313.174L39.9145 318.078L70.3444 322.915L69.7358 322.448L69.8911 322.104L8.61542 312.364L9.22807 312.831L9.06187 313.174Z" fill="white"/>
</mask>
<g mask="url(#mask23_1420_1430)">
<rect width="123.834" height="77.0194" transform="matrix(-0.986989 -0.179057 -0.100984 0.994022 127.696 332.626)" fill="#D85A42" fill-opacity="0.35"/>
</g>
<mask id="mask24_1420_1430" style="mask-type:luminance" maskUnits="userSpaceOnUse" x="406" y="429" width="99" height="84">
<path d="M467.094 508.935L502.734 512.812L502.733 512.812L467.094 508.935ZM443.379 498.074L407.691 437.729L443.377 498.074L443.379 498.074ZM503.745 504.841L503.847 504.347L504.598 504.936L469.223 445.842L469.111 446.323L468.357 445.727L503.745 504.841ZM409.514 430.702L457.532 437.186L456.967 436.74L457.052 436.382L435.26 433.44L409.038 429.898L409.607 430.344L409.514 430.702Z" fill="white"/>
</mask>
<g mask="url(#mask24_1420_1430)">
<rect width="105.228" height="70.6361" transform="matrix(-0.986732 -0.181392 -0.100805 0.994035 511.089 446.342)" fill="#D85A42" fill-opacity="0.35"/>
</g>
<mask id="mask25_1420_1430" style="mask-type:luminance" maskUnits="userSpaceOnUse" x="343" y="424" width="101" height="86">
<path d="M390.893 503.08L440.785 508.514L440.785 508.512L390.893 503.08ZM378.405 493.958L378.405 493.957L368.716 477.35L378.405 493.958ZM442.52 501.153L442.633 500.672L443.368 501.247L407.683 440.873L407.563 441.339L406.823 440.757L429.156 478.543L442.52 501.153ZM345.359 425.17L391.556 431.416L395.615 431.965L395.044 431.517L395.14 431.161L380.574 429.192L344.889 424.369L345.462 424.815L345.359 425.17Z" fill="white"/>
</mask>
<g mask="url(#mask25_1420_1430)">
<rect width="107.843" height="72.6422" transform="matrix(-0.98672 -0.181496 -0.100796 0.994035 449.996 441.162)" fill="#D85A42" fill-opacity="0.35"/>
</g>
<mask id="mask26_1420_1430" style="mask-type:luminance" maskUnits="userSpaceOnUse" x="274" y="418" width="106" height="79">
<path d="M378.423 496.711L378.547 496.249L379.269 496.805L343.257 435.547L343.126 435.997L342.401 435.436L368.728 480.22L378.423 496.711ZM278.117 419.434L314.854 424.33L330.781 426.451L330.208 426.008L330.314 425.655L277.655 418.638L278.232 419.083L278.117 419.434Z" fill="white"/>
</mask>
<g mask="url(#mask26_1420_1430)">
<rect width="112.551" height="66.6419" transform="matrix(-0.987158 -0.177514 -0.101073 0.994019 386.437 435.384)" fill="#D85A42" fill-opacity="0.35"/>
</g>
<mask id="mask27_1420_1430" style="mask-type:luminance" maskUnits="userSpaceOnUse" x="204" y="412" width="109" height="90">
<path d="M311.18 493.152L311.315 492.702L312.023 493.245L275.733 430.281L275.59 430.718L274.88 430.168L299.191 472.35L311.18 493.152ZM207.601 413.413L262.836 420.859L262.258 420.412L262.375 420.058L225.736 415.12L207.147 412.614L207.729 413.061L207.601 413.413Z" fill="white"/>
</mask>
<g mask="url(#mask27_1420_1430)">
<rect width="116.525" height="75.927" transform="matrix(-0.986831 -0.180491 -0.100881 0.994029 319.424 430.569)" fill="#D85A42" fill-opacity="0.35"/>
</g>
<mask id="mask28_1420_1430" style="mask-type:luminance" maskUnits="userSpaceOnUse" x="130" y="406" width="112" height="91">
<path d="M180.288 490.527L237.962 496.787L237.964 496.787L180.288 490.527ZM240.607 488.867L240.752 488.43L241.445 488.959L205.968 426.488L204.871 424.558L204.718 424.98L204.023 424.447L205.704 427.406L240.607 488.867ZM133.516 407.033L141.446 408.102L191.523 414.852L190.94 414.404L191.07 414.052L133.07 406.235L133.657 406.683L133.516 407.033Z" fill="white"/>
</mask>
<g mask="url(#mask28_1420_1430)">
<rect width="119.141" height="77.9326" transform="matrix(-0.986818 -0.180609 -0.100871 0.994029 248.584 424.903)" fill="#D85A42" fill-opacity="0.35"/>
</g>
<mask id="mask29_1420_1430" style="mask-type:luminance" maskUnits="userSpaceOnUse" x="55" y="399" width="113" height="93">
<path d="M166.439 484.343L166.595 483.922L167.272 484.437L131.202 419.88L130.43 418.499L130.267 418.906L129.586 418.386L164.392 480.681L166.439 484.343ZM55.6115 400.26L116.604 408.49L116.015 408.04L116.158 407.69L55.1721 399.462L55.7643 399.911L55.6115 400.26Z" fill="white"/>
</mask>
<g mask="url(#mask29_1420_1430)">
<rect width="121.066" height="79.9635" transform="matrix(-0.986786 -0.180903 -0.100847 0.994031 174.391 418.201)" fill="#D85A42" fill-opacity="0.35"/>
</g>
<mask id="mask30_1420_1430" style="mask-type:luminance" maskUnits="userSpaceOnUse" x="-32" y="392" width="122" height="97">
<path d="M21.4825 481.809L85.4146 488.725L21.4826 481.807L21.4825 481.809ZM88.393 479.616L88.5595 479.21L89.2233 479.709L52.1218 412.312L51.9482 412.704L51.2822 412.201L88.393 479.616ZM-26.4362 393.378L23.9477 400.15L37.7833 402.01L37.1897 401.561L37.3466 401.214L30.2101 400.255L-26.8661 392.583L-26.2684 393.033L-26.4362 393.378Z" fill="white"/>
</mask>
<g mask="url(#mask30_1420_1430)">
<rect width="129.061" height="82.6759" transform="matrix(-0.986889 -0.17997 -0.100921 0.994026 97.0117 412.03)" fill="#D85A42" fill-opacity="0.35"/>
</g>
<mask id="mask31_1420_1430" style="mask-type:luminance" maskUnits="userSpaceOnUse" x="-66" y="478" width="122" height="98">
<path d="M55.0775 568.428L55.2456 568.019L55.8905 568.498L52.2803 561.799L17.7048 497.659L17.5295 498.056L16.8823 497.572L55.0775 568.428ZM-64.7193 479.68L2.72383 487.021L2.1438 486.59L2.30252 486.238L-65.1337 478.896L-64.5496 479.33L-64.7193 479.68Z" fill="white"/>
</mask>
<g mask="url(#mask31_1420_1430)">
</g>
<mask id="mask32_1420_1430" style="mask-type:luminance" maskUnits="userSpaceOnUse" x="243" y="63" width="15" height="13">
<path d="M255.153 75.8483L255.313 75.4503L257.589 69.7471L251.976 65.1813L244.186 63.9216L243.399 65.8457L243.261 66.1865L243.925 66.7267L254.378 75.219L255.153 75.8483Z" fill="white"/>
</mask>
<g mask="url(#mask32_1420_1430)">
<rect width="16.6885" height="11.7325" transform="matrix(-0.986578 -0.182788 -0.100658 0.994048 259.326 65.9805)" fill="#D85A42" fill-opacity="0.35"/>
</g>
<mask id="mask33_1420_1430" style="mask-type:luminance" maskUnits="userSpaceOnUse" x="184" y="57" width="10" height="6">
<path d="M191.804 62.9794L191.974 62.5988L193.771 58.5608L184.372 57.0894L191.043 62.3758L191.804 62.9794Z" fill="white"/>
</mask>
<g mask="url(#mask33_1420_1430)">
<rect width="12.0134" height="6.21124" transform="matrix(-0.987631 -0.173176 -0.101183 0.994032 195.096 58.2368)" fill="#D85A42" fill-opacity="0.35"/>
</g>
<mask id="mask34_1420_1430" style="mask-type:luminance" maskUnits="userSpaceOnUse" x="284" y="130" width="15" height="17">
<path d="M296.357 146.727L296.507 146.305L298.671 140.226L287.552 131.053L286.781 130.417L286.629 130.835L284.549 136.543L284.422 136.893L285.065 137.424L295.587 146.092L296.357 146.727Z" fill="white"/>
</mask>
<g mask="url(#mask34_1420_1430)">
<rect width="16.5375" height="16.1472" transform="matrix(-0.98561 -0.191484 -0.0991797 0.994226 300.426 132.1)" fill="#D85A42" fill-opacity="0.35"/>
</g>
<mask id="mask35_1420_1430" style="mask-type:luminance" maskUnits="userSpaceOnUse" x="221" y="118" width="15" height="18">
<path d="M233.322 135.256L233.482 134.849L235.777 129.017L235.914 128.669L235.268 128.139L224.427 119.254L223.671 118.634L223.508 119.037L221.168 124.847L221.029 125.192L221.677 125.724L232.566 134.637L233.322 135.256Z" fill="white"/>
</mask>
<g mask="url(#mask35_1420_1430)">
<rect width="17.363" height="16.8691" transform="matrix(-0.985624 -0.191355 -0.099218 0.994222 238.085 120.5)" fill="#D85A42" fill-opacity="0.35"/>
</g>
<mask id="mask36_1420_1430" style="mask-type:luminance" maskUnits="userSpaceOnUse" x="154" y="106" width="17" height="18">
<path d="M167.434 123.268L167.602 122.876L167.603 122.875L170.18 116.939L170.33 116.596L169.677 116.065L158.452 106.926L157.71 106.322L157.539 106.71L154.916 112.622L154.763 112.965L155.417 113.496L166.693 122.665L167.434 123.268Z" fill="white"/>
</mask>
<g mask="url(#mask36_1420_1430)">
<rect width="18.0507" height="17.5982" transform="matrix(-0.985615 -0.191434 -0.0991979 0.994224 172.395 107.729)" fill="#D85A42" fill-opacity="0.35"/>
</g>
<mask id="mask37_1420_1430" style="mask-type:luminance" maskUnits="userSpaceOnUse" x="85" y="93" width="17" height="18">
<path d="M98.5005 110.727L98.679 110.351L98.6792 110.35L101.562 104.311L101.725 103.97L101.066 103.439L89.4361 94.0343L88.7096 93.4468L88.5284 93.8208L85.597 99.8353L85.4314 100.176L86.0897 100.708L97.775 110.143L98.5005 110.727Z" fill="white"/>
</mask>
<g mask="url(#mask37_1420_1430)">
<rect width="18.6046" height="16.8038" transform="matrix(-0.985818 -0.18963 -0.0996068 0.994169 103.375 95.3071)" fill="#D85A42" fill-opacity="0.35"/>
</g>
<mask id="mask38_1420_1430" style="mask-type:luminance" maskUnits="userSpaceOnUse" x="12" y="79" width="18" height="19">
<path d="M26.3034 97.5867L26.4932 97.2236L29.7086 91.0774L29.8849 90.7405L29.2211 90.2091L17.1605 80.5272L16.4505 79.9567L16.2583 80.315L12.9914 86.4345L12.811 86.7707L13.4761 87.3039L25.5932 97.0162L26.3034 97.5867Z" fill="white"/>
</mask>
<g mask="url(#mask38_1420_1430)">
<rect width="19.2921" height="17.5329" transform="matrix(-0.985801 -0.189768 -0.0995842 0.994173 31.8096 82.0244)" fill="#D85A42" fill-opacity="0.35"/>
</g>
<mask id="mask39_1420_1430" style="mask-type:luminance" maskUnits="userSpaceOnUse" x="326" y="202" width="15" height="17">
<path d="M338.335 218.936L338.476 218.496L340.521 212.11L329.347 202.931L328.58 202.303L328.438 202.736L326.465 208.747L326.35 209.101L326.971 209.612L326.973 209.612L337.569 218.306L338.335 218.936Z" fill="white"/>
</mask>
<g mask="url(#mask39_1420_1430)">
<rect width="16.6754" height="16.1398" transform="matrix(-0.985633 -0.191282 -0.0992301 0.994219 342.51 204.202)" fill="#D85A42" fill-opacity="0.35"/>
</g>
<mask id="mask40_1420_1430" style="mask-type:luminance" maskUnits="userSpaceOnUse" x="263" y="192" width="16" height="17">
<path d="M275.636 208.965L275.787 208.541L277.973 202.396L278.098 202.043L277.473 201.532L266.554 192.622L265.8 192.008L265.649 192.426L263.417 198.55L263.417 198.552L263.29 198.901L263.916 199.414L274.884 208.353L274.885 208.354L275.636 208.965Z" fill="white"/>
</mask>
<g mask="url(#mask40_1420_1430)">
<rect width="17.3612" height="17.6363" transform="matrix(-0.985512 -0.192355 -0.098954 0.994258 279.956 193.373)" fill="#D85A42" fill-opacity="0.35"/>
</g>
<mask id="mask41_1420_1430" style="mask-type:luminance" maskUnits="userSpaceOnUse" x="197" y="181" width="16" height="18">
<path d="M210.072 198.54L210.233 198.132L212.699 191.867L212.699 191.866L212.836 191.517L212.205 191.006L200.898 181.841L200.898 181.84L200.161 181.243L199.998 181.647L197.484 187.888L197.344 188.236L197.978 188.75L209.335 197.943L210.072 198.54Z" fill="white"/>
</mask>
<g mask="url(#mask41_1420_1430)">
<rect width="18.0511" height="17.4449" transform="matrix(-0.985637 -0.191233 -0.0992483 0.994217 214.752 182.997)" fill="#D85A42" fill-opacity="0.35"/>
</g>
<mask id="mask42_1420_1430" style="mask-type:luminance" maskUnits="userSpaceOnUse" x="128" y="169" width="17" height="19">
<path d="M141.447 187.634L141.617 187.24L144.389 180.857L144.539 180.51L143.901 179.998L132.183 170.567L132.183 170.566L131.462 169.986L131.289 170.375L128.467 176.735L128.314 177.08L128.952 177.592L128.953 177.593L140.726 187.056L141.447 187.634Z" fill="white"/>
</mask>
<g mask="url(#mask42_1420_1430)">
<rect width="18.6024" height="17.5687" transform="matrix(-0.985698 -0.190694 -0.0993776 0.9942 146.282 172.085)" fill="#D85A42" fill-opacity="0.35"/>
</g>
<mask id="mask43_1420_1430" style="mask-type:luminance" maskUnits="userSpaceOnUse" x="55" y="158" width="18" height="19">
<path d="M69.5377 176.198L69.7192 175.82L72.8217 169.315L72.9861 168.973L72.3439 168.461L60.1898 158.751L59.4833 158.186L59.3006 158.561L56.1439 165.039L55.9768 165.381L56.6202 165.895L68.8324 175.635L69.5377 176.198Z" fill="white"/>
</mask>
<g mask="url(#mask43_1420_1430)">
<rect width="19.2921" height="17.5329" transform="matrix(-0.985801 -0.189768 -0.0995842 0.994173 74.5996 160.184)" fill="#D85A42" fill-opacity="0.35"/>
</g>
<mask id="mask44_1420_1430" style="mask-type:luminance" maskUnits="userSpaceOnUse" x="369" y="275" width="15" height="18">
<path d="M381.104 292.495L381.235 292.04L383.155 285.335L371.928 276.153L371.164 275.528L371.031 275.98L369.172 282.304L369.067 282.664L369.67 283.156L380.342 291.873L381.104 292.495Z" fill="white"/>
</mask>
<g mask="url(#mask44_1420_1430)">
<rect width="16.6734" height="16.9071" transform="matrix(-0.985517 -0.192316 -0.098965 0.994256 385.062 277.146)" fill="#D85A42" fill-opacity="0.35"/>
</g>
<mask id="mask45_1420_1430" style="mask-type:luminance" maskUnits="userSpaceOnUse" x="306" y="266" width="16" height="19">
<path d="M318.761 284.094L318.902 283.653L320.974 277.18L321.088 276.824L320.48 276.33L309.485 267.398L309.485 267.397L308.737 266.789L308.593 267.225L306.476 273.677L306.36 274.033L306.967 274.527L318.014 283.487L318.761 284.094Z" fill="white"/>
</mask>
<g mask="url(#mask45_1420_1430)">
<rect width="17.363" height="16.8691" transform="matrix(-0.985624 -0.191355 -0.099218 0.994222 323.012 268.555)" fill="#D85A42" fill-opacity="0.35"/>
</g>
<mask id="mask46_1420_1430" style="mask-type:luminance" maskUnits="userSpaceOnUse" x="240" y="257" width="17" height="19">
<path d="M253.549 275.3L253.7 274.875L256.049 268.268L256.176 267.914L255.565 267.421L255.564 267.421L244.175 258.233L243.441 257.641L243.288 258.063L240.89 264.644L240.761 264.998L241.374 265.492L252.816 274.709L253.549 275.3Z" fill="white"/>
</mask>
<g mask="url(#mask46_1420_1430)">
<rect width="18.0511" height="17.4449" transform="matrix(-0.985637 -0.191233 -0.0992483 0.994217 258.353 259.833)" fill="#D85A42" fill-opacity="0.35"/>
</g>
<mask id="mask47_1420_1430" style="mask-type:luminance" maskUnits="userSpaceOnUse" x="172" y="248" width="17" height="19">
<path d="M185.258 266.086L185.42 265.677L188.073 258.936L188.212 258.584L187.595 258.092L175.79 248.638L175.071 248.062L174.907 248.467L174.907 248.468L172.203 255.184L172.062 255.535L172.679 256.028L184.54 265.512L185.258 266.086Z" fill="white"/>
</mask>
<g mask="url(#mask47_1420_1430)">
<rect width="18.7385" height="18.3273" transform="matrix(-0.985607 -0.191508 -0.0991795 0.994227 190.498 249.808)" fill="#D85A42" fill-opacity="0.35"/>
</g>
<mask id="mask48_1420_1430" style="mask-type:luminance" maskUnits="userSpaceOnUse" x="100" y="238" width="17" height="19">
<path d="M113.669 256.433L113.84 256.037L116.825 249.158L116.977 248.81L116.356 248.316L116.354 248.316L104.11 238.583L104.109 238.583L103.406 238.024L103.232 238.415L100.192 245.268L100.038 245.616L100.661 246.11L112.966 255.874L112.966 255.875L113.669 256.433Z" fill="white"/>
</mask>
<g mask="url(#mask48_1420_1430)">
<rect width="18.7389" height="18.174" transform="matrix(-0.985628 -0.191315 -0.099228 0.99422 118.61 240.203)" fill="#D85A42" fill-opacity="0.35"/>
</g>
<mask id="mask49_1420_1430" style="mask-type:luminance" maskUnits="userSpaceOnUse" x="24" y="227" width="19" height="20">
<path d="M38.5371 246.295L38.7188 245.915L42.0667 238.894L42.2313 238.549L41.6041 238.054L28.8923 228.03L28.2032 227.486L28.0204 227.863L24.613 234.855L24.4456 235.199L25.0741 235.694L37.8493 245.753L38.5371 246.295Z" fill="white"/>
</mask>
<g mask="url(#mask49_1420_1430)">
<rect width="19.84" height="19.034" transform="matrix(-0.985657 -0.191054 -0.0992951 0.994211 44.0771 229.438)" fill="#D85A42" fill-opacity="0.35"/>
</g>
<mask id="mask50_1420_1430" style="mask-type:luminance" maskUnits="userSpaceOnUse" x="412" y="350" width="15" height="18">
<path d="M424.683 367.465L424.804 366.991L426.595 359.958L415.314 350.772L414.554 350.154L414.432 350.623L412.692 357.275L412.596 357.637L413.18 358.111L423.924 366.849L424.683 367.465Z" fill="white"/>
</mask>
<g mask="url(#mask50_1420_1430)">
<rect width="15.9826" height="17.7164" transform="matrix(-0.98531 -0.194166 -0.0983935 0.994337 428.184 351.548)" fill="#D85A42" fill-opacity="0.35"/>
</g>
<mask id="mask51_1420_1430" style="mask-type:luminance" maskUnits="userSpaceOnUse" x="350" y="343" width="15" height="18">
<path d="M362.729 360.676L362.86 360.218L364.811 353.404L364.915 353.043L364.328 352.57L353.253 343.614L352.509 343.013L352.375 343.466L350.379 350.259L350.274 350.619L350.861 351.093L361.986 360.077L362.729 360.676Z" fill="white"/>
</mask>
<g mask="url(#mask51_1420_1430)">
<rect width="16.6718" height="17.6756" transform="matrix(-0.98541 -0.193267 -0.0986865 0.994295 366.676 344.586)" fill="#D85A42" fill-opacity="0.35"/>
</g>
<mask id="mask52_1420_1430" style="mask-type:luminance" maskUnits="userSpaceOnUse" x="285" y="335" width="16" height="19">
<path d="M297.891 353.578L298.033 353.136L300.262 346.175L300.262 346.173L300.376 345.815L299.784 345.341L288.312 336.131L287.584 335.547L287.44 335.986L285.164 342.924L285.046 343.281L285.64 343.756L297.163 352.994L297.891 353.578Z" fill="white"/>
</mask>
<g mask="url(#mask52_1420_1430)">
<rect width="17.9128" height="17.6057" transform="matrix(-0.985594 -0.191619 -0.099151 0.99423 302.447 337.348)" fill="#D85A42" fill-opacity="0.35"/>
</g>
<mask id="mask53_1420_1430" style="mask-type:luminance" maskUnits="userSpaceOnUse" x="216" y="327" width="17" height="20">
<path d="M229.96 346.136L230.112 345.709L232.642 338.597L232.769 338.24L232.173 337.765L220.28 328.29L219.565 327.721L219.41 328.144L216.829 335.232L216.701 335.588L217.298 336.062L229.245 345.568L229.246 345.568L229.96 346.136Z" fill="white"/>
</mask>
<g mask="url(#mask53_1420_1430)">
<rect width="17.9111" height="18.3732" transform="matrix(-0.985488 -0.192567 -0.0988942 0.994266 234.383 329.616)" fill="#D85A42" fill-opacity="0.35"/>
</g>
<mask id="mask54_1420_1430" style="mask-type:luminance" maskUnits="userSpaceOnUse" x="145" y="319" width="17" height="20">
<path d="M158.716 338.331L158.878 337.92L161.74 330.651L161.879 330.298L161.276 329.821L148.939 320.068L148.239 319.515L148.075 319.923L145.159 327.166L145.016 327.518L145.62 327.994L158.017 337.78L158.018 337.78L158.716 338.331Z" fill="white"/>
</mask>
<g mask="url(#mask54_1420_1430)">
<rect width="19.2902" height="18.2977" transform="matrix(-0.985686 -0.190797 -0.0993535 0.994203 163.738 321.657)" fill="#D85A42" fill-opacity="0.35"/>
</g>
<mask id="mask55_1420_1430" style="mask-type:luminance" maskUnits="userSpaceOnUse" x="69" y="310" width="19" height="21">
<path d="M83.9073 330.145L84.0795 329.748L87.3036 322.32L87.3037 322.319L87.4549 321.969L86.8482 321.493L74.0378 311.447L73.3522 310.91L73.1778 311.302L69.8967 318.703L69.7413 319.053L70.3494 319.53L83.2231 329.609L83.9073 330.145Z" fill="white"/>
</mask>
<g mask="url(#mask55_1420_1430)">
<rect width="19.9765" height="19.6397" transform="matrix(-0.985594 -0.191616 -0.0991545 0.99423 89.1904 312.622)" fill="#D85A42" fill-opacity="0.35"/>
</g>
<mask id="mask56_1420_1430" style="mask-type:luminance" maskUnits="userSpaceOnUse" x="-10" y="301" width="20" height="21">
<path d="M5.25809 321.532L5.44138 321.149L9.06183 313.557L9.22814 313.209L8.61596 312.732L-4.69823 302.379L-5.36873 301.859L-5.55301 302.237L-9.23712 309.8L-9.4061 310.147L-8.79259 310.624L4.59026 321.013L5.25809 321.532Z" fill="white"/>
</mask>
<g mask="url(#mask56_1420_1430)">
<rect width="21.2178" height="19.5739" transform="matrix(-0.985761 -0.190126 -0.099509 0.994182 11.1787 303.812)" fill="#D85A42" fill-opacity="0.35"/>
</g>
<mask id="mask57_1420_1430" style="mask-type:luminance" maskUnits="userSpaceOnUse" x="456" y="426" width="15" height="18">
<path d="M469.099 443.858L469.21 443.367L470.866 435.992L459.531 426.807L458.776 426.195L458.664 426.681L457.048 433.671L456.963 434.037L457.527 434.495L468.345 443.248L469.099 443.858Z" fill="white"/>
</mask>
<g mask="url(#mask57_1420_1430)">
<rect width="15.9829" height="17.5623" transform="matrix(-0.985329 -0.193993 -0.0984523 0.994329 472.518 427.827)" fill="#D85A42" fill-opacity="0.35"/>
</g>
<mask id="mask58_1420_1430" style="mask-type:luminance" maskUnits="userSpaceOnUse" x="395" y="420" width="15" height="19">
<path d="M407.556 438.765L407.677 438.289L409.502 431.121L409.595 430.756L409.027 430.299L397.875 421.328L397.875 421.326L397.135 420.731L397.012 421.203L395.142 428.35L395.046 428.713L395.616 429.172L406.817 438.17L407.556 438.765Z" fill="white"/>
</mask>
<g mask="url(#mask58_1420_1430)">
<rect width="16.6704" height="18.4456" transform="matrix(-0.985314 -0.19413 -0.0984057 0.994336 411.43 422.352)" fill="#D85A42" fill-opacity="0.35"/>
</g>
<mask id="mask59_1420_1430" style="mask-type:luminance" maskUnits="userSpaceOnUse" x="330" y="415" width="16" height="19">
<path d="M343.121 433.425L343.252 432.963L345.351 425.632L345.455 425.27L344.882 424.813L333.329 415.586L332.604 415.007L332.47 415.463L330.322 422.772L330.216 423.133L330.789 423.59L342.396 432.846L343.121 433.425Z" fill="white"/>
</mask>
<g mask="url(#mask59_1420_1430)">
<rect width="17.3599" height="18.251" transform="matrix(-0.98543 -0.193091 -0.0987403 0.994288 347.2 416.651)" fill="#D85A42" fill-opacity="0.35"/>
</g>
<mask id="mask60_1420_1430" style="mask-type:luminance" maskUnits="userSpaceOnUse" x="262" y="409" width="17" height="19">
<path d="M275.581 427.839L275.724 427.394L278.123 419.894L278.238 419.535L277.661 419.077L265.683 409.584L264.972 409.02L264.827 409.461L262.375 416.937L262.258 417.297L262.836 417.754L274.871 427.277L275.581 427.839Z" fill="white"/>
</mask>
<g mask="url(#mask60_1420_1430)">
<rect width="18.5989" height="19.1024" transform="matrix(-0.985485 -0.192594 -0.0988866 0.994267 280.245 410.553)" fill="#D85A42" fill-opacity="0.35"/>
</g>
<mask id="mask61_1420_1430" style="mask-type:luminance" maskUnits="userSpaceOnUse" x="190" y="402" width="18" height="20">
<path d="M204.715 421.963L204.868 421.533L207.597 413.859L207.725 413.501L207.143 413.044L194.712 403.272L194.016 402.725L193.861 403.15L191.076 410.798L190.947 411.157L191.529 411.614L204.02 421.418L204.715 421.963Z" fill="white"/>
</mask>
<g mask="url(#mask61_1420_1430)">
<rect width="18.5992" height="18.9488" transform="matrix(-0.985505 -0.192418 -0.0989363 0.99426 209.397 404.854)" fill="#D85A42" fill-opacity="0.35"/>
</g>
<mask id="mask62_1420_1430" style="mask-type:luminance" maskUnits="userSpaceOnUse" x="116" y="396" width="18" height="20">
<path d="M130.257 415.8L130.42 415.386L133.511 407.533L133.651 407.177L133.065 406.719L120.156 396.656L119.474 396.124L119.309 396.534L116.158 404.36L116.015 404.715L116.604 405.174L129.577 415.27L130.257 415.8Z" fill="white"/>
</mask>
<g mask="url(#mask62_1420_1430)">
<rect width="19.9761" height="19.7931" transform="matrix(-0.985574 -0.191792 -0.0991087 0.994236 135.899 398.007)" fill="#D85A42" fill-opacity="0.35"/>
</g>
<mask id="mask63_1420_1430" style="mask-type:luminance" maskUnits="userSpaceOnUse" x="37" y="389" width="19" height="21">
<path d="M51.9443 409.305L52.1179 408.907L55.6057 400.867L55.7587 400.514L55.1669 400.056L55.1655 400.056L41.7483 389.685L41.0815 389.17L40.9054 389.565L37.3537 397.575L37.1967 397.928L37.7899 398.386L51.2787 408.792L51.9443 409.305Z" fill="white"/>
</mask>
<g mask="url(#mask63_1420_1430)">
<rect width="20.6661" height="19.6026" transform="matrix(-0.985687 -0.190788 -0.0993588 0.994202 57.8252 391.518)" fill="#D85A42" fill-opacity="0.35"/>
</g>
<mask id="mask64_1420_1430" style="mask-type:luminance" maskUnits="userSpaceOnUse" x="2" y="473" width="20" height="22">
<path d="M17.5188 494.564L17.6942 494.161L21.4771 485.44L21.4772 485.439L21.6331 485.082L21.0549 484.642L6.97924 473.934L6.33115 473.442L6.15489 473.838L2.30131 482.531L2.1425 482.888L2.72218 483.327L16.872 494.071L17.5188 494.564Z" fill="white"/>
</mask>
<g mask="url(#mask64_1420_1430)">
<rect width="21.2144" height="20.9522" transform="matrix(-0.985582 -0.191722 -0.0991264 0.994234 23.4014 475.462)" fill="#D85A42" fill-opacity="0.35"/>
</g>
</mask>
<g mask="url(#mask0_1420_1430)">
<path opacity="0.6" d="M532.986 462.002L532.986 -50.998L8.98631 -50.998L8.98633 462.002L532.986 462.002Z" fill="white" fill-opacity="0.2"/>
</g>
</svg>
