<svg width="105" height="16" viewBox="0 0 105 16" fill="none" xmlns="http://www.w3.org/2000/svg">
<path d="M3.44894 9.74216V15H0.678463V1.69363H8.30233V4.0091H3.44894V7.4368H7.95854V9.74216H3.44894ZM13.4609 4.82811V15H10.6904V4.82811H13.4609ZM12.0857 3.56421C11.0746 3.56421 10.5691 3.11257 10.5691 2.2093C10.5691 1.29929 11.0712 0.844287 12.0756 0.844287C13.0868 0.844287 13.5923 1.29592 13.5923 2.19919C13.5923 2.63734 13.4642 2.97438 13.2081 3.21031C12.9519 3.44624 12.5778 3.56421 12.0857 3.56421ZM25.7673 8.36704V15H22.9867V9.0546C22.9867 8.31311 22.8553 7.76373 22.5924 7.40647C22.3295 7.04247 21.9149 6.86046 21.3487 6.86046C20.5803 6.86046 20.0208 7.11999 19.6702 7.63903C19.3197 8.15133 19.1445 9.01079 19.1445 10.2174V15H16.374V4.82811H18.4973L18.8715 6.13246H19.0231C19.3265 5.64712 19.7478 5.27637 20.287 5.02022C20.833 4.76407 21.4532 4.636 22.1475 4.636C23.3339 4.636 24.2338 4.95618 24.8472 5.59656C25.4606 6.2302 25.7673 7.15369 25.7673 8.36704ZM34.2419 4.82811V6.91102H31.8456V15H29.065V6.91102H27.5382V5.57634L29.065 4.82811V4.07988C29.065 2.92046 29.3515 2.07449 29.9244 1.54196C30.4974 1.00944 31.4108 0.743175 32.6646 0.743175C33.6218 0.743175 34.4711 0.884732 35.2126 1.16785L34.5048 3.21031C33.9386 3.03505 33.4431 2.94742 33.0185 2.94742C32.6005 2.94742 32.3006 3.05864 32.1186 3.28109C31.9366 3.50354 31.8456 3.80688 31.8456 4.1911V4.82811H34.2419ZM38.6171 0.844287V15H35.8466V0.844287H38.6171ZM50.8629 15H48.7395L48.3654 13.6957H48.2138C47.9172 14.1743 47.4959 14.5416 46.9499 14.7978C46.4038 15.0539 45.7837 15.182 45.0894 15.182C43.903 15.182 43.0031 14.8652 42.3897 14.2315C41.783 13.5912 41.4797 12.6677 41.4797 11.4611V4.82811H44.2502V10.7735C44.2502 11.5083 44.3816 12.0576 44.6445 12.4216C44.9074 12.7856 45.3219 12.9676 45.8882 12.9676C46.6634 12.9676 47.2229 12.7115 47.5666 12.1992C47.9172 11.6801 48.0924 10.8173 48.0924 9.61072V4.82811H50.8629V15ZM59.924 8.76137C59.9172 8.08055 59.742 7.5514 59.3982 7.17391C59.0544 6.79643 58.5859 6.60768 57.9927 6.60768C57.4063 6.60768 56.9445 6.79643 56.6075 7.17391C56.2704 7.54466 56.0783 8.07381 56.0311 8.76137H59.924ZM61.9563 14.4641C60.9991 14.9427 59.806 15.182 58.3769 15.182C56.7389 15.182 55.4582 14.7337 54.5347 13.8372C53.6179 12.9339 53.1595 11.6397 53.1595 9.9545C53.1595 8.2693 53.5842 6.96158 54.4336 6.03134C55.2964 5.10111 56.4592 4.636 57.9219 4.636C59.3914 4.636 60.5273 5.04719 61.3294 5.86957C62.1316 6.69194 62.5326 7.82103 62.5326 9.25682V10.6016H55.9705C55.9974 11.397 56.23 12.0172 56.6681 12.4621C57.113 12.9002 57.7264 13.1193 58.5084 13.1193C59.6745 13.1193 60.8239 12.8531 61.9563 12.3205V14.4641ZM74.1853 8.36704V15H71.4047V9.0546C71.4047 8.31311 71.2732 7.76373 71.0104 7.40647C70.7475 7.04247 70.3329 6.86046 69.7667 6.86046C68.9982 6.86046 68.4387 7.11999 68.0882 7.63903C67.7377 8.15133 67.5624 9.01079 67.5624 10.2174V15H64.792V4.82811H66.9153L67.2894 6.13246H67.4411C67.7444 5.64712 68.1657 5.27637 68.705 5.02022C69.251 4.76407 69.8712 4.636 70.5655 4.636C71.7518 4.636 72.6517 4.95618 73.2652 5.59656C73.8786 6.2302 74.1853 7.15369 74.1853 8.36704ZM81.1735 15.182C78.0054 15.182 76.4213 13.4429 76.4213 9.96461C76.4213 8.23896 76.8493 6.92113 77.7054 6.01112C78.5682 5.09437 79.8052 4.636 81.4162 4.636C82.5756 4.636 83.6306 4.86518 84.581 5.32356L83.762 7.47725C82.7576 7.0728 81.9757 6.87058 81.4162 6.87058C79.9737 6.87058 79.2524 7.8817 79.2524 9.90394C79.2524 11.9262 79.9737 12.9373 81.4162 12.9373C82.4206 12.9373 83.371 12.6407 84.2676 12.0475V14.4237C83.8294 14.7068 83.3812 14.9023 82.9228 15.0101C82.4711 15.1247 81.8881 15.182 81.1735 15.182ZM92.7755 8.76137C92.7688 8.08055 92.5935 7.5514 92.2497 7.17391C91.9059 6.79643 91.4375 6.60768 90.8443 6.60768C90.2578 6.60768 89.7961 6.79643 89.459 7.17391C89.122 7.54466 88.9299 8.07381 88.8827 8.76137H92.7755ZM94.8079 14.4641C93.8507 14.9427 92.6576 15.182 91.2285 15.182C89.5905 15.182 88.3097 14.7337 87.3862 13.8372C86.4695 12.9339 86.0111 11.6397 86.0111 9.9545C86.0111 8.2693 86.4358 6.96158 87.2851 6.03134C88.1479 5.10111 89.3107 4.636 90.7735 4.636C92.243 4.636 93.3788 5.04719 94.181 5.86957C94.9831 6.69194 95.3842 7.82103 95.3842 9.25682V10.6016H88.822C88.849 11.397 89.0815 12.0172 89.5197 12.4621C89.9646 12.9002 90.578 13.1193 91.3599 13.1193C92.5261 13.1193 93.6754 12.8531 94.8079 12.3205V14.4641ZM103.326 4.636C103.677 4.636 103.987 4.66296 104.256 4.71689L104.054 7.31547C103.825 7.2548 103.552 7.22447 103.235 7.22447C102.345 7.22447 101.651 7.45366 101.152 7.91203C100.66 8.36367 100.414 9.00067 100.414 9.82305V15H97.6435V4.82811H99.7467L100.151 6.53691H100.293C100.616 5.9572 101.048 5.49545 101.587 5.15167C102.126 4.80789 102.706 4.636 103.326 4.636Z" fill="#F3F3F3"/>
</svg>
