<svg width="33" height="32" viewBox="0 0 33 32" fill="none" xmlns="http://www.w3.org/2000/svg">
<g id="ri:instagram-fill">
<path id="Vector" d="M17.7043 2.6679C18.6773 2.66417 19.6502 2.67395 20.6229 2.69723L20.8816 2.70657C21.1803 2.71723 21.4749 2.73057 21.8309 2.74657C23.2496 2.81323 24.2176 3.03723 25.0669 3.36657C25.9469 3.70523 26.6883 4.1639 27.4296 4.90523C28.1074 5.57138 28.632 6.37716 28.9669 7.26657C29.2963 8.1159 29.5203 9.08523 29.587 10.5039C29.603 10.8586 29.6163 11.1546 29.6269 11.4532L29.6349 11.7119C29.6586 12.6842 29.6689 13.6567 29.6656 14.6292L29.667 15.6239V17.3706C29.6702 18.3436 29.66 19.3165 29.6363 20.2892L29.6283 20.5479C29.6176 20.8466 29.6043 21.1412 29.5883 21.4972C29.5216 22.9159 29.295 23.8839 28.9669 24.7332C28.6331 25.6236 28.1084 26.43 27.4296 27.0959C26.7629 27.7737 25.9567 28.2982 25.0669 28.6332C24.2176 28.9626 23.2496 29.1866 21.8309 29.2532C21.4749 29.2692 21.1803 29.2826 20.8816 29.2932L20.6229 29.3012C19.6502 29.3249 18.6773 29.3352 17.7043 29.3319L16.7096 29.3332H14.9643C13.9913 29.3365 13.0183 29.3263 12.0456 29.3026L11.7869 29.2946C11.4704 29.2831 11.154 29.2698 10.8376 29.2546C9.41895 29.1879 8.45095 28.9612 7.60028 28.6332C6.71053 28.299 5.9046 27.7743 5.23895 27.0959C4.56034 26.4296 4.03525 25.6233 3.70028 24.7332C3.37095 23.8839 3.14695 22.9159 3.08028 21.4972C3.06543 21.1809 3.0521 20.8644 3.04028 20.5479L3.03361 20.2892C3.00903 19.3165 2.99792 18.3436 3.00028 17.3706V14.6292C2.99656 13.6567 3.00634 12.6842 3.02961 11.7119L3.03895 11.4532C3.04961 11.1546 3.06295 10.8586 3.07895 10.5039C3.14561 9.0839 3.36961 8.11723 3.69895 7.26657C4.03411 6.37673 4.56023 5.57116 5.24028 4.90657C5.90547 4.22757 6.7109 3.702 7.60028 3.36657C8.45095 3.03723 9.41761 2.81323 10.8376 2.74657L11.7869 2.70657L12.0456 2.6999C13.0179 2.67533 13.9904 2.66422 14.9629 2.66657L17.7043 2.6679ZM16.3336 9.33457C15.4503 9.32207 14.5733 9.48527 13.7536 9.81466C12.9339 10.144 12.1878 10.6331 11.5587 11.2533C10.9297 11.8735 10.4301 12.6126 10.0892 13.4276C9.74825 14.2425 9.57267 15.1172 9.57267 16.0006C9.57267 16.884 9.74825 17.7586 10.0892 18.5736C10.4301 19.3885 10.9297 20.1276 11.5587 20.7478C12.1878 21.3681 12.9339 21.8571 13.7536 22.1865C14.5733 22.5159 15.4503 22.6791 16.3336 22.6666C18.1017 22.6666 19.7974 21.9642 21.0477 20.7139C22.2979 19.4637 23.0003 17.768 23.0003 15.9999C23.0003 14.2318 22.2979 12.5361 21.0477 11.2859C19.7974 10.0356 18.1017 9.33457 16.3336 9.33457ZM16.3336 12.0012C16.865 11.9914 17.3929 12.0876 17.8867 12.2842C18.3804 12.4807 18.8301 12.7737 19.2093 13.146C19.5886 13.5182 19.8898 13.9623 20.0955 14.4524C20.3012 14.9424 20.4072 15.4685 20.4073 15.9999C20.4074 16.5313 20.3016 17.0574 20.0961 17.5475C19.8905 18.0376 19.5894 18.4818 19.2103 18.8542C18.8311 19.2266 18.3816 19.5197 17.8879 19.7164C17.3942 19.9131 16.8663 20.0095 16.3349 19.9999C15.2741 19.9999 14.2567 19.5785 13.5065 18.8283C12.7564 18.0782 12.3349 17.0608 12.3349 15.9999C12.3349 14.939 12.7564 13.9216 13.5065 13.1715C14.2567 12.4213 15.2741 11.9999 16.3349 11.9999L16.3336 12.0012ZM23.3336 7.33457C22.9035 7.35178 22.4967 7.53477 22.1984 7.8452C21.9002 8.15562 21.7336 8.56941 21.7336 8.9999C21.7336 9.43039 21.9002 9.84418 22.1984 10.1546C22.4967 10.465 22.9035 10.648 23.3336 10.6652C23.7756 10.6652 24.1996 10.4896 24.5121 10.1771C24.8247 9.86452 25.0003 9.44059 25.0003 8.99857C25.0003 8.55654 24.8247 8.13262 24.5121 7.82006C24.1996 7.50749 23.7756 7.3319 23.3336 7.3319V7.33457Z" fill="#ffffff"/>
</g>
</svg>
