<svg width="490" height="577" viewBox="0 0 490 577" fill="none" xmlns="http://www.w3.org/2000/svg">
<mask id="mask0_1422_5293" style="mask-type:alpha" maskUnits="userSpaceOnUse" x="-461" y="-30" width="951" height="642">
<path d="M385.991 364.873L386.326 364.832L377.241 313.488L436.886 347.544L447.164 399.03L386.18 364.639L385.991 364.873L385.802 365.106L448.09 400.231L437.504 347.214L376.348 312.294L385.679 365.037L385.802 365.106L385.991 364.873Z" fill="#D85A42" fill-opacity="0.35"/>
<path d="M395.606 419.201L395.939 419.16L386.44 365.464L447.32 399.796L458.066 453.621L395.793 418.967L395.606 419.201L395.419 419.435L458.988 454.812L447.938 399.464L385.547 364.281L395.293 419.366L395.419 419.435L395.606 419.201Z" fill="#D85A42" fill-opacity="0.35"/>
<path d="M405.66 476.038L405.995 475.997L396.049 419.788L458.217 454.383L469.462 510.71L405.846 475.803L405.66 476.038L405.475 476.273L470.383 511.89L458.835 454.05L395.159 418.614L405.347 476.205L405.475 476.273L405.66 476.038Z" fill="#D85A42" fill-opacity="0.35"/>
<path d="M416.191 535.564L416.524 535.523L406.104 476.62L469.612 511.468L481.392 570.471L416.375 535.326L416.191 535.564L416.007 535.8L482.31 571.638L470.23 511.133L405.215 475.457L415.878 535.731L416.007 535.8L416.191 535.564Z" fill="#D85A42" fill-opacity="0.35"/>
<path d="M323.182 329.454L323.517 329.419L315.698 278.348L376.48 313.054L385.544 364.281L323.371 329.221L323.182 329.454L322.994 329.687L386.436 365.465L377.106 312.728L314.838 277.173L322.866 329.616L322.994 329.687L323.182 329.454Z" fill="#D85A42" fill-opacity="0.35"/>
<path d="M331.458 383.504L331.792 383.468L323.613 330.037L385.679 365.037L395.159 418.614L331.645 383.27L331.458 383.504L331.269 383.739L396.049 419.788L386.305 364.709L322.754 328.872L331.141 383.667L331.269 383.739L331.458 383.504Z" fill="#D85A42" fill-opacity="0.35"/>
<path d="M340.116 440.075L340.451 440.039L331.886 384.082L395.291 419.366L405.215 475.457L340.303 439.839L340.116 440.075L339.931 440.311L406.104 476.62L395.916 419.036L331.027 382.927L339.802 440.239L339.931 440.311L340.116 440.075Z" fill="#D85A42" fill-opacity="0.35"/>
<path d="M349.192 499.348L349.526 499.313L340.546 440.647L405.347 476.204L415.748 534.988L349.375 499.111L349.192 499.348L349.007 499.584L416.635 536.139L405.972 475.872L339.69 439.502L348.877 499.513L349.007 499.584L349.192 499.348Z" fill="#D85A42" fill-opacity="0.35"/>
<path d="M259.168 293.355L259.504 293.325L253.002 242.548L314.955 277.922L322.753 328.872L259.357 293.122L259.168 293.355L258.978 293.589L323.613 330.037L315.586 277.6L252.175 241.392L258.848 293.516L258.978 293.589L259.168 293.355Z" fill="#D85A42" fill-opacity="0.35"/>
<path d="M266.052 347.105L266.388 347.075L259.583 293.928L322.869 329.616L331.03 382.927L266.24 346.871L266.052 347.105L265.864 347.34L331.888 384.081L323.5 329.292L258.757 292.781L265.733 347.266L265.864 347.34L266.052 347.105Z" fill="#D85A42" fill-opacity="0.35"/>
<path d="M273.259 403.388L273.595 403.358L266.465 347.674L331.143 383.667L339.692 439.502L273.445 403.153L273.259 403.388L273.073 403.623L340.548 440.647L331.775 383.341L265.64 346.536L272.939 403.55L273.073 403.623L273.259 403.388Z" fill="#D85A42" fill-opacity="0.35"/>
<path d="M280.811 462.386L281.147 462.356L273.669 403.951L339.803 440.239L348.764 498.78L280.994 462.15L280.811 462.386L280.627 462.623L349.619 499.915L340.433 439.911L272.845 402.824L280.492 462.55L280.627 462.623L280.811 462.386Z" fill="#D85A42" fill-opacity="0.35"/>
<path d="M288.742 524.302L289.076 524.272L281.224 462.944L348.879 499.513L358.285 560.959L288.922 524.064L288.742 524.302L288.558 524.539L359.138 562.082L349.509 499.183L280.402 461.828L288.422 524.466L288.558 524.539L288.742 524.302Z" fill="#D85A42" fill-opacity="0.35"/>
<path d="M193.912 256.556L194.249 256.532L189.117 206.068L252.271 242.129L258.756 292.781L194.101 256.322L193.912 256.556L193.723 256.789L259.583 293.928L252.91 241.811L188.324 204.932L193.59 256.714L193.723 256.789L193.912 256.556Z" fill="#D85A42" fill-opacity="0.35"/>
<path d="M199.345 309.984L199.681 309.959L194.306 257.119L258.848 293.516L265.637 346.536L199.531 309.75L199.345 309.984L199.156 310.218L266.463 347.674L259.486 293.195L193.514 255.992L199.021 310.143L199.156 310.218L199.345 309.984Z" fill="#D85A42" fill-opacity="0.35"/>
<path d="M205.038 365.955L205.375 365.931L199.742 310.542L265.732 347.266L272.846 402.824L205.224 365.719L205.038 365.955L204.852 366.19L273.67 403.951L266.37 346.944L198.95 309.425L204.716 366.115L204.852 366.19L205.038 365.955Z" fill="#D85A42" fill-opacity="0.35"/>
<path d="M211.007 424.655L211.343 424.631L205.433 366.51L272.938 403.55L280.4 461.828L211.191 424.418L211.007 424.655L210.824 424.891L281.222 462.944L273.576 403.225L204.643 365.401L210.684 424.816L210.824 424.891L211.007 424.655Z" fill="#D85A42" fill-opacity="0.35"/>
<path d="M217.275 486.288L217.612 486.265L211.402 425.204L280.493 462.55L288.329 523.749L217.457 486.051L217.275 486.288L217.093 486.526L289.149 524.854L281.13 462.222L210.613 424.106L216.953 486.45L217.093 486.526L217.275 486.288Z" fill="#D85A42" fill-opacity="0.35"/>
<path d="M223.865 551.08L224.201 551.057L217.67 486.832L288.42 524.466L296.658 588.809L224.043 550.842L223.865 551.08L223.684 551.319L297.477 589.903L289.057 524.136L216.881 485.745L223.541 551.245L223.684 551.319L223.865 551.08Z" fill="#D85A42" fill-opacity="0.35"/>
<path d="M127.375 219.034L127.711 219.017L124.004 168.891L188.395 205.657L193.514 255.992L127.564 218.801L127.375 219.034L127.185 219.269L194.306 257.119L189.041 205.344L123.245 167.775L127.048 219.19L127.185 219.269L127.375 219.034Z" fill="#D85A42" fill-opacity="0.35"/>
<path d="M131.303 272.118L131.64 272.1L127.756 219.588L193.589 256.714L198.949 309.425L131.49 271.884L131.303 272.118L131.115 272.352L199.742 310.542L194.235 256.397L126.997 218.481L130.976 272.275L131.115 272.352L131.303 272.118Z" fill="#D85A42" fill-opacity="0.35"/>
<path d="M135.416 327.754L135.753 327.736L131.68 272.668L199.021 310.143L204.64 365.401L135.602 327.518L135.416 327.754L135.23 327.989L205.431 366.51L199.668 309.825L130.922 271.568L135.089 327.912L135.23 327.989L135.416 327.754Z" fill="#D85A42" fill-opacity="0.35"/>
<path d="M139.732 386.13L140.069 386.113L135.794 328.299L204.712 366.115L210.61 424.106L139.915 385.894L139.732 386.13L139.548 386.366L211.399 425.204L205.357 365.794L135.035 327.208L139.405 386.289L139.548 386.366L139.732 386.13Z" fill="#D85A42" fill-opacity="0.35"/>
<path d="M144.268 447.455L144.605 447.438L140.111 386.67L210.682 424.817L216.879 485.745L144.45 447.218L144.268 447.455L144.086 447.693L217.668 486.832L211.329 424.494L139.354 385.589L143.941 447.615L144.086 447.693L144.268 447.455Z" fill="#D85A42" fill-opacity="0.35"/>
<path d="M149.042 511.958L149.38 511.94L144.649 447.99L216.954 486.45L223.471 550.542L149.221 511.719L149.042 511.958L148.862 512.196L224.259 551.619L217.598 486.126L143.893 446.92L148.715 512.12L148.862 512.196L149.042 511.958Z" fill="#D85A42" fill-opacity="0.35"/>
<path d="M59.5249 180.772L59.8629 180.762L57.6375 130.994L123.3 168.487L126.998 218.481L59.7137 180.538L59.5249 180.772L59.336 181.005L127.756 219.589L123.954 168.177L56.9124 129.897L59.1935 180.925L59.336 181.005L59.5249 180.772Z" fill="#D85A42" fill-opacity="0.35"/>
<path d="M61.8806 233.485L62.2172 233.475L59.886 181.316L127.049 219.19L130.922 271.568L62.0667 233.251L61.8806 233.485L61.6918 233.72L131.68 272.668L127.702 218.88L59.1605 180.228L61.5479 233.639L61.6918 233.72L61.8806 233.485Z" fill="#D85A42" fill-opacity="0.35"/>
<path d="M64.3519 288.76L64.6898 288.749L62.2429 234.025L130.976 272.275L135.038 327.209L64.5377 288.524L64.3519 288.76L64.1659 288.995L135.796 328.299L131.63 271.961L61.5182 232.945L64.022 288.915L64.1659 288.995L64.3519 288.76Z" fill="#D85A42" fill-opacity="0.35"/>
<path d="M66.9453 346.786L67.2833 346.775L64.7132 289.296L135.09 327.912L139.356 385.589L67.1298 346.55L66.9453 346.786L66.7621 347.022L140.113 386.67L135.744 327.596L63.9893 288.223L66.6143 346.943L66.7621 347.022L66.9453 346.786Z" fill="#D85A42" fill-opacity="0.35"/>
<path d="M69.6746 407.774L70.0114 407.765L67.3098 347.318L139.409 386.289L143.893 446.92L69.855 407.538L69.6746 407.774L69.493 408.013L144.649 447.99L140.063 385.971L66.5855 346.254L69.3424 407.933L69.493 408.013L69.6746 407.774Z" fill="#D85A42" fill-opacity="0.35"/>
<path d="M72.5415 471.961L72.8782 471.95L70.0332 408.302L143.942 447.615L148.661 511.427L72.7203 471.721L72.5415 471.961L72.3613 472.199L149.417 512.488L144.595 447.295L69.31 407.249L72.2107 472.12L72.3613 472.199L72.5415 471.961Z" fill="#D85A42" fill-opacity="0.35"/>
<path d="M75.5669 539.599L75.905 539.589L72.9051 472.482L148.714 512.12L153.688 579.367L75.7442 539.358L75.5669 539.599L75.3896 539.839L154.442 580.416L149.368 511.797L72.1815 471.439L75.2364 539.76L75.3896 539.839L75.5669 539.599Z" fill="#D85A42" fill-opacity="0.35"/>
<path d="M-9.68406 141.745L-9.34663 141.742L-10.0282 92.358L56.9431 130.598L59.1612 180.228L-9.49518 141.511L-9.68406 141.745L-9.87289 141.978L59.8867 181.317L57.6048 130.294L-10.7186 91.2811L-10.0198 141.896L-9.87289 141.978L-9.68406 141.745Z" fill="#D85A42" fill-opacity="0.35"/>
<path d="M-8.96041 194.063L-8.62307 194.059L-9.33764 142.28L59.1933 180.925L61.5184 232.945L-8.77298 193.828L-8.96041 194.063L-9.14785 194.297L62.2431 234.025L59.8561 180.618L-10.0287 141.21L-9.29601 194.214L-9.14785 194.297L-8.96041 194.063Z" fill="#D85A42" fill-opacity="0.35"/>
<path d="M-8.20219 248.948L-7.86485 248.945L-8.61582 194.593L61.5489 233.639L63.9896 288.223L-8.01768 248.712L-8.20219 248.948L-8.38816 249.184L64.7135 289.296L62.2115 233.33L-9.30597 193.532L-8.5377 249.102L-8.38816 249.184L-8.20219 248.948Z" fill="#D85A42" fill-opacity="0.35"/>
<path d="M-7.40751 306.596L-7.0687 306.593L-7.85854 249.475L64.0207 288.915L66.5832 346.254L-7.223 306.36L-7.40751 306.596L-7.59056 306.833L67.3074 347.318L64.6817 288.604L-8.54919 248.421L-7.74291 306.75L-7.59056 306.833L-7.40751 306.596Z" fill="#D85A42" fill-opacity="0.35"/>
<path d="M-6.57138 367.22L-6.23257 367.217L-7.06298 307.119L66.6126 346.943L69.309 407.249L-6.38834 366.983L-6.57138 367.22L-6.75296 367.458L70.0322 408.302L67.2746 346.629L-7.7527 306.074L-6.90666 367.376L-6.75296 367.458L-6.57138 367.22Z" fill="#D85A42" fill-opacity="0.35"/>
<path d="M-5.68627 431.057L-5.3488 431.054L-6.2238 367.738L69.3414 407.933L72.1812 471.439L-5.5075 430.818L-5.68627 431.057L-5.86638 431.296L72.9047 472.482L70.0047 407.617L-6.91263 366.703L-6.02263 431.214L-5.86638 431.296L-5.68627 431.057Z" fill="#D85A42" fill-opacity="0.35"/>
<path d="M-4.75685 498.369L-4.41951 498.365L-5.34188 431.569L72.2119 472.12L75.2052 539.083L-4.57955 498.129L-4.75685 498.369L-4.93416 498.609L75.9275 540.115L72.8735 471.801L-6.03102 430.544L-5.09313 498.528L-4.93416 498.609L-4.75685 498.369Z" fill="#D85A42" fill-opacity="0.35"/>
<path d="M-3.77524 569.447L-3.4379 569.443L-4.41323 498.877L75.2354 539.76L78.3955 610.467L-3.60086 569.205L-3.77524 569.447L-3.94974 569.688L79.1181 611.489L75.8965 539.438L-5.10279 497.861L-4.11137 569.607L-3.94974 569.688L-3.77524 569.447Z" fill="#D85A42" fill-opacity="0.35"/>
<path d="M-85.7052 389.218L-85.367 389.222L-84.1793 326.271L-6.90328 367.376L-6.02988 430.544L-85.525 388.979L-85.7052 389.218L-85.8854 389.456L-5.34075 431.569L-6.23137 367.065L-84.8365 325.252L-86.046 389.373L-85.8854 389.456L-85.7052 389.218Z" fill="#D85A42" fill-opacity="0.35"/>
<path d="M-86.9691 456.168L-86.6308 456.174L-85.3773 389.722L-6.02253 431.214L-5.10202 497.861L-86.7918 455.928L-86.9691 456.168L-87.1451 456.409L-4.41246 498.877L-5.351 430.9L-86.0348 388.713L-87.3096 456.325L-87.1451 456.409L-86.9691 456.168Z" fill="#D85A42" fill-opacity="0.35"/>
<path d="M-88.3022 526.911L-87.964 526.916L-86.6398 456.669L-5.0919 498.528L-4.11851 568.943L-88.1276 526.671L-88.3022 526.911L-88.4766 527.153L-3.42865 569.949L-4.41936 498.21L-87.2964 455.669L-88.6427 527.069L-88.4766 527.153L-88.3022 526.911Z" fill="#D85A42" fill-opacity="0.35"/>
<path d="M430.277 343.429L436.02 341.489L444.101 351.323L438.378 353.3L430.277 343.429Z" fill="#D85A42" fill-opacity="0.35"/>
<path d="M440.566 395.649L446.398 393.479L454.672 403.603L448.862 405.813L440.566 395.649Z" fill="#D85A42" fill-opacity="0.35"/>
<path d="M451.878 450.222L457.71 448.052L465.984 458.176L460.173 460.386L451.878 450.222Z" fill="#D85A42" fill-opacity="0.35"/>
<path d="M462.841 507.136L468.673 504.965L476.947 515.09L471.136 517.299L462.841 507.136Z" fill="#D85A42" fill-opacity="0.35"/>
<path d="M475.163 567.345L480.995 565.175L489.269 575.3L483.458 577.509L475.163 567.345Z" fill="#D85A42" fill-opacity="0.35"/>
<path d="M369.747 308.867L375.759 307.032L383.83 316.907L377.838 318.78L369.747 308.867Z" fill="#D85A42" fill-opacity="0.35"/>
<path d="M378.797 360.816L384.909 358.752L393.171 368.92L387.081 371.025L378.797 360.816Z" fill="#D85A42" fill-opacity="0.35"/>
<path d="M388.259 415.113L394.472 412.801L402.935 423.281L396.743 425.635L388.259 415.113Z" fill="#D85A42" fill-opacity="0.35"/>
<path d="M398.157 471.921L404.476 469.34L413.149 480.147L406.852 482.773L398.157 471.921Z" fill="#D85A42" fill-opacity="0.35"/>
<path d="M408.522 531.418L414.95 528.544L423.843 539.699L417.44 542.621L408.522 531.418Z" fill="#D85A42" fill-opacity="0.35"/>
<path d="M308.091 273.661L314.38 271.934L322.435 281.852L316.168 283.615L308.091 273.661Z" fill="#D85A42" fill-opacity="0.35"/>
<path d="M315.853 325.32L322.253 323.366L330.5 333.58L324.123 335.573L315.853 325.32Z" fill="#D85A42" fill-opacity="0.35"/>
<path d="M323.967 379.337L330.482 377.136L338.929 387.662L332.437 389.906L323.967 379.337Z" fill="#D85A42" fill-opacity="0.35"/>
<path d="M332.463 435.875L339.097 433.406L347.755 444.265L341.144 446.78L332.463 435.875Z" fill="#D85A42" fill-opacity="0.35"/>
<path d="M341.365 495.118L348.121 492.357L356.999 503.568L350.267 506.377L341.365 495.118Z" fill="#D85A42" fill-opacity="0.35"/>
<path d="M350.701 557.262L357.586 554.184L366.697 565.769L359.838 568.898L350.701 557.262Z" fill="#D85A42" fill-opacity="0.35"/>
<path d="M245.275 237.792L251.85 236.18L259.891 246.139L253.335 247.79L245.275 237.792Z" fill="#D85A42" fill-opacity="0.35"/>
<path d="M251.695 289.141L258.393 287.302L266.625 297.56L259.947 299.439L251.695 289.141Z" fill="#D85A42" fill-opacity="0.35"/>
<path d="M258.412 342.854L265.24 340.771L273.671 351.345L266.866 353.474L258.412 342.854Z" fill="#D85A42" fill-opacity="0.35"/>
<path d="M265.447 399.103L272.406 396.752L281.046 407.664L274.109 410.06L265.447 399.103Z" fill="#D85A42" fill-opacity="0.35"/>
<path d="M272.822 458.067L279.92 455.426L288.781 466.694L281.707 469.384L272.822 458.067Z" fill="#D85A42" fill-opacity="0.35"/>
<path d="M280.562 519.952L287.804 516.995L296.897 528.641L289.681 531.65L280.562 519.952Z" fill="#D85A42" fill-opacity="0.35"/>
<path d="M181.264 201.243L188.134 199.749L196.159 209.748L189.307 211.281L181.264 201.243Z" fill="#D85A42" fill-opacity="0.35"/>
<path d="M186.293 252.259L193.301 250.54L201.514 260.842L194.527 262.602L186.293 252.259Z" fill="#D85A42" fill-opacity="0.35"/>
<path d="M191.554 305.649L198.704 303.686L207.116 314.308L199.988 316.315L191.554 305.649Z" fill="#D85A42" fill-opacity="0.35"/>
<path d="M197.07 361.583L204.368 359.354L212.989 370.317L205.713 372.591L197.07 361.583Z" fill="#D85A42" fill-opacity="0.35"/>
<path d="M202.85 420.246L210.301 417.729L219.142 429.054L211.714 431.62L202.85 420.246Z" fill="#D85A42" fill-opacity="0.35"/>
<path d="M208.922 481.845L216.534 479.013L225.606 490.721L218.019 493.605L208.922 481.845Z" fill="#D85A42" fill-opacity="0.35"/>
<path d="M215.305 546.606L223.085 543.428L232.4 555.545L224.647 558.779L215.305 546.606Z" fill="#D85A42" fill-opacity="0.35"/>
<path d="M116.027 163.994L123.203 162.622L131.208 172.662L124.051 174.072L116.027 163.994Z" fill="#D85A42" fill-opacity="0.35"/>
<path d="M119.608 214.654L126.937 213.059L135.13 223.406L127.823 225.042L119.608 214.654Z" fill="#D85A42" fill-opacity="0.35"/>
<path d="M123.355 267.695L130.84 265.859L139.231 276.53L131.768 278.41L123.355 267.695Z" fill="#D85A42" fill-opacity="0.35"/>
<path d="M127.282 323.291L134.93 321.192L143.53 332.206L135.903 334.352L127.282 323.291Z" fill="#D85A42" fill-opacity="0.35"/>
<path d="M131.406 381.628L139.226 379.24L148.043 390.621L140.247 393.058L131.406 381.628Z" fill="#D85A42" fill-opacity="0.35"/>
<path d="M135.736 442.916L143.733 440.214L152.782 451.983L144.809 454.739L135.736 442.916Z" fill="#D85A42" fill-opacity="0.35"/>
<path d="M140.292 507.383L148.477 504.338L157.767 516.521L149.608 519.624L140.292 507.383Z" fill="#D85A42" fill-opacity="0.35"/>
<path d="M145.089 575.285L153.469 571.862L163.016 584.488L154.661 587.972L145.089 575.285Z" fill="#D85A42" fill-opacity="0.35"/>
<path d="M49.5263 126.022L57.0196 124.779L65.0025 134.859L57.5283 136.142L49.5263 126.022Z" fill="#D85A42" fill-opacity="0.35"/>
<path d="M51.6004 176.303L59.2582 174.84L67.4291 185.23L59.7905 186.735L51.6004 176.303Z" fill="#D85A42" fill-opacity="0.35"/>
<path d="M53.7712 228.972L61.6022 227.269L69.9698 237.988L62.1597 239.736L53.7712 228.972Z" fill="#D85A42" fill-opacity="0.35"/>
<path d="M56.0485 284.203L64.0615 282.239L72.6359 293.305L64.6456 295.318L56.0485 284.203Z" fill="#D85A42" fill-opacity="0.35"/>
<path d="M58.4418 342.188L66.6421 339.937L75.4351 351.373L67.2563 353.674L58.4418 342.188Z" fill="#D85A42" fill-opacity="0.35"/>
<path d="M60.9529 403.137L69.3515 400.573L78.3738 412.403L69.9984 415.02L60.9529 403.137Z" fill="#D85A42" fill-opacity="0.35"/>
<path d="M63.595 467.282L72.2023 464.375L81.4646 476.626L72.8823 479.591L63.595 467.282Z" fill="#D85A42" fill-opacity="0.35"/>
<path d="M66.3811 534.886L75.2071 531.601L84.7234 544.3L75.9241 547.647L66.3811 534.886Z" fill="#D85A42" fill-opacity="0.35"/>
<path d="M-16.6835 244.296L-8.29386 242.472L0.253316 253.59L-8.11493 255.462L-16.6835 244.296Z" fill="#D85A42" fill-opacity="0.35"/>
<path d="M-16.1002 301.898L-7.50257 299.791L1.261 311.283L-7.31369 313.442L-16.1002 301.898Z" fill="#D85A42" fill-opacity="0.35"/>
<path d="M-15.4829 362.479L-6.66656 360.059L2.32402 371.95L-6.46901 374.424L-15.4829 362.479Z" fill="#D85A42" fill-opacity="0.35"/>
<path d="M-14.8382 426.273L-5.79272 423.511L3.43858 435.828L-5.58328 438.649L-14.8382 426.273Z" fill="#D85A42" fill-opacity="0.35"/>
<path d="M-14.156 493.544L-4.86846 490.407L4.61458 503.179L-4.64738 506.38L-14.156 493.544Z" fill="#D85A42" fill-opacity="0.35"/>
<path d="M-13.4357 564.586L-3.89257 561.034L5.85787 574.294L-3.65937 577.913L-13.4357 564.586Z" fill="#D85A42" fill-opacity="0.35"/>
<mask id="mask1_1422_5293" style="mask-type:luminance" maskUnits="userSpaceOnUse" x="377" y="316" width="67" height="64">
<path d="M383.202 316.096L430.239 343.358L429.872 343.484L430.402 344.131L383.35 316.859L383.728 316.74L383.202 316.096ZM437.555 352.853L438.01 353.407L438.324 353.298L442.481 372.838L443.325 379.966L437.555 352.853Z" fill="white"/>
</mask>
<g mask="url(#mask1_1422_5293)">
<rect width="69.5779" height="59.1973" transform="matrix(0.128919 0.99234 -0.997501 0.0746647 435.138 311.572)" fill="#D85A42" fill-opacity="0.35"/>
</g>
<mask id="mask2_1422_5293" style="mask-type:luminance" maskUnits="userSpaceOnUse" x="387" y="368" width="64" height="83">
<path d="M392.536 368.115L440.238 395.569L439.883 395.704L440.398 396.338L408.829 378.168L392.682 368.874L393.047 368.746L392.536 368.115Z" fill="white"/>
</mask>
<g mask="url(#mask2_1422_5293)">
<rect width="87.4705" height="54.3614" transform="matrix(0.126318 0.992605 -0.997485 0.0746244 440.287 363.907)" fill="#D85A42" fill-opacity="0.35"/>
</g>
<mask id="mask3_1422_5293" style="mask-type:luminance" maskUnits="userSpaceOnUse" x="396" y="422" width="61" height="83">
<path d="M402.293 422.496L449.752 449.487L449.837 450.207L445.001 447.458L402.438 423.251L402.79 423.115L402.293 422.496ZM413.361 480.272L456.158 504.276L456.159 504.277L413.361 480.272ZM430.251 489.076L456.075 503.558L456.075 503.56L430.251 489.076Z" fill="white"/>
</mask>
<g mask="url(#mask3_1422_5293)">
<rect width="87.0222" height="51.1825" transform="matrix(0.125745 0.992663 -0.99749 0.0745381 445.963 418.263)" fill="#D85A42" fill-opacity="0.35"/>
</g>
<mask id="mask4_1422_5293" style="mask-type:luminance" maskUnits="userSpaceOnUse" x="315" y="281" width="71" height="80">
<path d="M315.77 282.893L315.77 282.894L322.508 323.369L315.77 282.893ZM321.794 281.027L369.566 308.791L369.184 308.909L369.708 309.552L321.921 281.779L322.311 281.668L321.794 281.027ZM376.851 318.335L377.289 318.872L377.605 318.772L385.334 359.494L384.897 358.955L384.582 359.063L376.851 318.335Z" fill="white"/>
</mask>
<g mask="url(#mask4_1422_5293)">
<rect width="85.3079" height="61.4529" transform="matrix(0.12767 0.992468 -0.997482 0.0747542 375.828 276.212)" fill="#D85A42" fill-opacity="0.35"/>
</g>
<mask id="mask5_1422_5293" style="mask-type:luminance" maskUnits="userSpaceOnUse" x="324" y="332" width="71" height="84">
<path d="M324.61 340.111L330.773 377.146L330.771 377.147L324.61 340.111ZM324.47 335.265L324.472 335.265L331.509 377.565L324.47 335.265ZM329.872 332.761L346.852 342.513L378.573 360.73L378.205 360.856L378.716 361.487L330 333.51L330.376 333.39L329.872 332.761ZM339.057 387.002L388.747 415.168L388.746 415.168L339.058 387.002L339.057 387.002ZM386.062 370.576L386.501 371.117L386.814 371.007L394.884 413.552L394.446 413.007L394.134 413.125L386.062 370.576Z" fill="white"/>
</mask>
<g mask="url(#mask5_1422_5293)">
<rect width="88.5899" height="62.7324" transform="matrix(0.127528 0.992482 -0.997482 0.0747456 385.062 328.153)" fill="#D85A42" fill-opacity="0.35"/>
</g>
<mask id="mask6_1422_5293" style="mask-type:luminance" maskUnits="userSpaceOnUse" x="338" y="386" width="67" height="86">
<path d="M338.438 386.844L388.038 415.014L387.684 415.147L388.18 415.765L338.564 387.587L338.929 387.459L338.438 386.844ZM348.021 443.603L398.652 471.961L398.651 471.961L348.022 443.603L348.021 443.603ZM395.727 425.176L396.165 425.722L396.476 425.6L404.892 470.09L404.454 469.541L404.144 469.67L395.727 425.176Z" fill="white"/>
</mask>
<g mask="url(#mask6_1422_5293)">
<rect width="90.8623" height="57.637" transform="matrix(0.126518 0.992585 -0.997484 0.0746535 394.561 381.78)" fill="#D85A42" fill-opacity="0.35"/>
</g>
<mask id="mask7_1422_5293" style="mask-type:luminance" maskUnits="userSpaceOnUse" x="340" y="443" width="76" height="89">
<path d="M340.754 446.029L340.756 446.03L348.156 490.522L340.754 446.029ZM347.141 443.464L397.854 471.818L397.511 471.96L397.994 472.566L360.047 451.349L347.265 444.203L347.619 444.066L347.141 443.464ZM405.78 482.317L406.22 482.866L406.53 482.735L415.364 529.317L414.926 528.763L414.618 528.904L413.595 523.514L405.78 482.317Z" fill="white"/>
</mask>
<g mask="url(#mask7_1422_5293)">
<rect width="93.4543" height="65.7206" transform="matrix(0.127468 0.992488 -0.997482 0.074743 404.762 438.625)" fill="#D85A42" fill-opacity="0.35"/>
</g>
<mask id="mask8_1422_5293" style="mask-type:luminance" maskUnits="userSpaceOnUse" x="252" y="245" width="71" height="82">
<path d="M259.248 245.317L307.901 273.597L307.506 273.708L308.024 274.347L259.355 246.058L259.76 245.955L259.248 245.317ZM266.727 296.885L316.367 325.385L266.728 296.885L266.727 296.885ZM266.835 297.622L316.488 326.13L316.488 326.131L266.835 297.622ZM315.176 283.193L315.596 283.712L315.915 283.621L319.365 304.349L322.651 324.091L322.23 323.569L321.912 323.667L315.176 283.193Z" fill="white"/>
</mask>
<g mask="url(#mask8_1422_5293)">
<rect width="86.4401" height="61.4343" transform="matrix(0.127555 0.992479 -0.997482 0.0747508 312.844 240.458)" fill="#D85A42" fill-opacity="0.35"/>
</g>
<mask id="mask9_1422_5293" style="mask-type:luminance" maskUnits="userSpaceOnUse" x="259" y="296" width="72" height="82">
<path d="M260.291 299.142L266.261 341.183L266.26 341.181L260.291 299.142ZM265.991 296.748L315.64 325.248L315.258 325.367L315.761 325.993L266.098 297.485L266.49 297.373L265.991 296.748ZM323.121 335.149L323.543 335.672L323.859 335.571L330.903 377.873L330.481 377.346L330.166 377.455L323.999 340.418L323.121 335.149Z" fill="white"/>
</mask>
<g mask="url(#mask9_1422_5293)">
<rect width="87.0048" height="62.7586" transform="matrix(0.127685 0.992466 -0.997483 0.0747504 320.863 292.037)" fill="#D85A42" fill-opacity="0.35"/>
</g>
<mask id="mask10_1422_5293" style="mask-type:luminance" maskUnits="userSpaceOnUse" x="266" y="350" width="74" height="87">
<path d="M273.044 350.54L323.696 379.255L323.327 379.382L323.818 379.997L299.43 366.171L273.15 351.273L273.531 351.152L273.044 350.54ZM281.337 407.743L281.338 407.743L333.078 436.671L281.337 407.743ZM331.388 389.475L331.81 390.004L332.126 389.893L339.489 434.151L339.067 433.619L338.752 433.739L331.388 389.475Z" fill="white"/>
</mask>
<g mask="url(#mask10_1422_5293)">
<rect width="91.8716" height="64.0128" transform="matrix(0.127387 0.992496 -0.997482 0.0747389 328.884 345.761)" fill="#D85A42" fill-opacity="0.35"/>
</g>
<mask id="mask11_1422_5293" style="mask-type:luminance" maskUnits="userSpaceOnUse" x="274" y="406" width="75" height="90">
<path d="M274.472 409.728L281.011 455.84L281.01 455.839L274.472 409.728ZM280.443 406.863L332.154 435.784L331.796 435.919L332.272 436.52L280.55 407.592L280.916 407.463L280.443 406.863ZM289.019 466.056L341.854 495.172L289.019 466.057L289.019 466.056ZM340.067 446.345L340.489 446.878L340.802 446.756L348.509 493.11L348.087 492.574L347.775 492.705L347.464 490.836L340.067 446.345Z" fill="white"/>
</mask>
<g mask="url(#mask11_1422_5293)">
<rect width="94.5873" height="65.1693" transform="matrix(0.127288 0.992507 -0.997481 0.0747328 337.909 402.131)" fill="#D85A42" fill-opacity="0.35"/>
</g>
<mask id="mask12_1422_5293" style="mask-type:luminance" maskUnits="userSpaceOnUse" x="189" y="208" width="70" height="82">
<path d="M195.524 208.931L245.09 237.743L244.682 237.844L245.193 238.48L195.611 209.659L196.031 209.565L195.524 208.931ZM252.352 247.388L252.756 247.891L253.079 247.81L258.785 288.013L258.379 287.506L258.059 287.595L254.689 263.848L252.352 247.388Z" fill="white"/>
</mask>
<g mask="url(#mask12_1422_5293)">
<rect width="85.4222" height="60.917" transform="matrix(0.127588 0.992476 -0.997482 0.0747478 249.317 204.294)" fill="#D85A42" fill-opacity="0.35"/>
</g>
<mask id="mask13_1422_5293" style="mask-type:luminance" maskUnits="userSpaceOnUse" x="194" y="260" width="72" height="84">
<path d="M199.008 303.668L194.158 261.902L199.009 303.668L199.008 303.668ZM200.877 260.034L225.479 274.16L251.463 289.082L251.067 289.192L251.566 289.816L226.518 275.433L200.964 260.759L201.371 260.654L200.877 260.034ZM258.928 299.035L259.333 299.541L259.654 299.451L265.62 341.489L265.214 340.98L264.895 341.079L258.928 299.035Z" fill="white"/>
</mask>
<g mask="url(#mask13_1422_5293)">
<rect width="89.1553" height="63.2567" transform="matrix(0.127545 0.99248 -0.997482 0.0747462 255.735 255.418)" fill="#D85A42" fill-opacity="0.35"/>
</g>
<mask id="mask14_1422_5293" style="mask-type:luminance" maskUnits="userSpaceOnUse" x="200" y="313" width="73" height="87">
<path d="M206.501 313.507L238.457 331.624L258.147 342.786L257.763 342.905L258.249 343.517L206.586 314.228L206.981 314.115L206.501 313.507ZM265.825 353.065L266.231 353.577L266.55 353.475L272.792 397.48L272.387 396.966L272.069 397.075L265.825 353.065Z" fill="white"/>
</mask>
<g mask="url(#mask14_1422_5293)">
<rect width="91.3056" height="63.8886" transform="matrix(0.127424 0.992493 -0.997482 0.0747408 262.548 308.779)" fill="#D85A42" fill-opacity="0.35"/>
</g>
<mask id="mask15_1422_5293" style="mask-type:luminance" maskUnits="userSpaceOnUse" x="212" y="369" width="69" height="90">
<path d="M212.521 369.51L218.913 373.093L265.175 399.018L264.805 399.146L265.276 399.745L212.606 370.228L212.987 370.106L212.521 369.51ZM254.596 448.431L273.442 458.838L273.443 458.838L254.596 448.431ZM273.058 409.642L273.463 410.157L273.78 410.046L280.294 456.151L279.889 455.632L279.574 455.753L273.058 409.642Z" fill="white"/>
</mask>
<g mask="url(#mask15_1422_5293)">
<rect width="95.1648" height="58.2415" transform="matrix(0.126165 0.99262 -0.997487 0.0746002 269.705 364.723)" fill="#D85A42" fill-opacity="0.35"/>
</g>
<mask id="mask16_1422_5293" style="mask-type:luminance" maskUnits="userSpaceOnUse" x="211" y="428" width="78" height="93">
<path d="M216.942 479.023L211.356 430.891L216.944 479.023L216.942 479.023ZM218.533 428.265L272.465 457.982L272.106 458.117L272.565 458.704L253.681 448.298L218.619 428.978L218.988 428.849L218.533 428.265ZM280.601 468.97L281.007 469.49L281.323 469.368L283.167 482.369L288.185 517.744L287.778 517.221L287.463 517.352L280.601 468.97Z" fill="white"/>
</mask>
<g mask="url(#mask16_1422_5293)">
<rect width="97.3022" height="66.9922" transform="matrix(0.127281 0.992507 -0.997481 0.0747324 276.824 423.372)" fill="#D85A42" fill-opacity="0.35"/>
</g>
<mask id="mask17_1422_5293" style="mask-type:luminance" maskUnits="userSpaceOnUse" x="218" y="489" width="79" height="97">
<path d="M225 489.939L241.25 498.754L280.152 519.856L279.806 520.001L280.252 520.575L266.626 513.184L225.085 490.649L225.441 490.511L225 489.939ZM288.533 531.232L288.94 531.757L289.254 531.623L295.913 578.587L296.458 582.435L296.05 581.907L295.739 582.049L293.88 568.941L288.533 531.232Z" fill="white"/>
</mask>
<g mask="url(#mask17_1422_5293)">
<rect width="101.149" height="68.9307" transform="matrix(0.12719 0.992516 -0.997481 0.0747258 285.101 484.658)" fill="#D85A42" fill-opacity="0.35"/>
</g>
<mask id="mask18_1422_5293" style="mask-type:luminance" maskUnits="userSpaceOnUse" x="124" y="171" width="70" height="83">
<path d="M135.271 222.727L143.046 227.191L135.272 222.727L135.271 222.727ZM130.632 172.565L131.066 172.479L130.565 171.849L181.071 201.206L180.648 201.3L181.153 201.933L130.632 172.565ZM192.956 250.824L188.318 210.901L188.706 211.388L189.03 211.314L193.668 251.233L193.279 250.744L192.956 250.824Z" fill="white"/>
</mask>
<g mask="url(#mask18_1422_5293)">
<rect width="86.4395" height="62.1008" transform="matrix(0.127652 0.99247 -0.997482 0.0747497 184.279 167.215)" fill="#D85A42" fill-opacity="0.35"/>
</g>
<mask id="mask19_1422_5293" style="mask-type:luminance" maskUnits="userSpaceOnUse" x="127" y="222" width="73" height="85">
<path d="M134.535 223.315L134.957 223.22L134.469 222.602L142.245 227.066L186.052 252.215L185.641 252.316L186.133 252.937L134.535 223.315ZM198.359 303.987L193.504 262.22L193.893 262.711L194.216 262.629L199.07 304.391L198.681 303.898L198.359 303.987Z" fill="white"/>
</mask>
<g mask="url(#mask19_1422_5293)">
<rect width="89.1542" height="64.0571" transform="matrix(0.127652 0.992469 -0.997482 0.0747497 188.772 217.913)" fill="#D85A42" fill-opacity="0.35"/>
</g>
<mask id="mask20_1422_5293" style="mask-type:luminance" maskUnits="userSpaceOnUse" x="132" y="275" width="73" height="88">
<path d="M138.645 276.443L139.055 276.339L138.58 275.734L191.272 305.595L190.874 305.706L191.354 306.314L187.852 304.329L138.645 276.443ZM162.916 342.942L197.685 362.374L197.685 362.375L162.916 342.942ZM204.019 359.671L198.937 315.93L199.326 316.425L199.648 316.333L204.73 360.069L204.341 359.571L204.019 359.671Z" fill="white"/>
</mask>
<g mask="url(#mask20_1422_5293)">
<rect width="92.4357" height="65.2042" transform="matrix(0.12749 0.992486 -0.997481 0.0747482 194.156 270.698)" fill="#D85A42" fill-opacity="0.35"/>
</g>
<mask id="mask21_1422_5293" style="mask-type:luminance" maskUnits="userSpaceOnUse" x="136" y="331" width="75" height="91">
<path d="M148.383 390.683L203.46 421.027L203.46 421.028L148.383 390.683ZM142.972 332.121L143.368 332.007L142.906 331.414L196.745 361.518L196.36 361.638L196.826 362.233L162.072 342.801L142.972 332.121ZM209.953 418.059L204.629 372.202L205.019 372.701L205.34 372.6L210.664 418.452L210.272 417.949L209.953 418.059Z" fill="white"/>
</mask>
<g mask="url(#mask21_1422_5293)">
<rect width="95.6051" height="65.8201" transform="matrix(0.127276 0.992507 -0.997481 0.0747363 199.841 326.288)" fill="#D85A42" fill-opacity="0.35"/>
</g>
<mask id="mask22_1422_5293" style="mask-type:luminance" maskUnits="userSpaceOnUse" x="139" y="389" width="78" height="91">
<path d="M147.476 390.543L147.86 390.421L147.411 389.84L202.499 420.176L202.127 420.304L202.58 420.887L147.476 390.543ZM216.217 479.365L210.623 431.23L211.014 431.734L211.333 431.621L216.884 479.392L216.926 479.751L216.534 479.245L216.217 479.365Z" fill="white"/>
</mask>
<g mask="url(#mask22_1422_5293)">
<rect width="96.1681" height="68.3437" transform="matrix(0.127559 0.992479 -0.997482 0.0747468 205.869 385.025)" fill="#D85A42" fill-opacity="0.35"/>
</g>
<mask id="mask23_1422_5293" style="mask-type:luminance" maskUnits="userSpaceOnUse" x="144" y="451" width="80" height="96">
<path d="M149.608 504.718L145.131 454.395L149.608 504.719L149.608 504.718ZM152.211 451.906L152.582 451.776L152.146 451.207L173.585 462.832L208.497 481.766L208.137 481.902L208.577 482.473L199.928 477.782L152.211 451.906ZM222.737 543.796L219.779 518.33L216.863 493.212L217.255 493.719L217.573 493.596L223.446 544.175L223.053 543.664L222.737 543.796Z" fill="white"/>
</mask>
<g mask="url(#mask23_1422_5293)">
<rect width="101.713" height="70.7876" transform="matrix(0.127377 0.992497 -0.997482 0.0747383 212.028 445.894)" fill="#D85A42" fill-opacity="0.35"/>
</g>
<mask id="mask24_1422_5293" style="mask-type:luminance" maskUnits="userSpaceOnUse" x="57" y="134" width="71" height="82">
<path d="M58.9323 164.879L57.1518 135.48L57.1519 135.48L58.9323 164.879ZM67.5737 184.552L120.197 214.745L67.5738 184.553L67.5737 184.552ZM64.3774 134.754L64.8275 134.677L64.3331 134.05L115.845 163.969L115.407 164.055L115.907 164.684L64.3774 134.754ZM126.612 213.338L123.077 173.712L123.452 174.183L123.779 174.118L125.382 192.101L127.313 213.741L126.939 213.266L126.612 213.338Z" fill="white"/>
</mask>
<g mask="url(#mask24_1422_5293)">
<rect width="86.4364" height="64.7706" transform="matrix(0.127999 0.992434 -0.997485 0.074751 118.508 129.511)" fill="#D85A42" fill-opacity="0.35"/>
</g>
<mask id="mask25_1422_5293" style="mask-type:luminance" maskUnits="userSpaceOnUse" x="59" y="184" width="73" height="84">
<path d="M62.5826 227.617L60.0886 186.46L60.0899 186.46L62.5826 227.617ZM70.1939 238.023L70.1952 238.023L84.6776 246.223L70.1939 238.023ZM66.798 185.13L67.2364 185.044L66.7541 184.43L119.385 214.622L118.96 214.715L119.448 215.332L86.5082 196.437L66.798 185.13ZM130.525 266.154L127.123 228.029L126.824 224.679L127.199 225.155L127.525 225.081L128.597 237.102L131.224 266.551L130.85 266.074L130.525 266.154Z" fill="white"/>
</mask>
<g mask="url(#mask25_1422_5293)">
<rect width="88.5852" height="66.6031" transform="matrix(0.128026 0.992431 -0.997485 0.0747504 122.289 179.808)" fill="#D85A42" fill-opacity="0.35"/>
</g>
<mask id="mask26_1422_5293" style="mask-type:luminance" maskUnits="userSpaceOnUse" x="69" y="237" width="67" height="88">
<path d="M69.4839 237.882L69.9071 237.786L69.4392 237.184L123.119 267.648L122.706 267.749L123.18 268.354L83.9352 246.083L69.4839 237.882ZM134.61 321.485L131.919 291.179L130.754 278.039L131.127 278.517L131.451 278.434L135.309 321.877L134.933 321.396L134.61 321.485Z" fill="white"/>
</mask>
<g mask="url(#mask26_1422_5293)">
<rect width="92.4414" height="61.3399" transform="matrix(0.126941 0.992541 -0.997481 0.0747083 126.335 232.128)" fill="#D85A42" fill-opacity="0.35"/>
</g>
<mask id="mask27_1422_5293" style="mask-type:luminance" maskUnits="userSpaceOnUse" x="64" y="292" width="76" height="91">
<path d="M72.0181 293.212L72.4302 293.107L71.9748 292.517L126.966 323.24L126.565 323.352L127.026 323.944L90.186 303.362L72.0181 293.212ZM138.9 379.565L134.837 333.985L135.212 334.467L135.536 334.375L138.231 364.61L139.599 379.95L139.224 379.464L138.9 379.565Z" fill="white"/>
</mask>
<g mask="url(#mask27_1422_5293)">
<rect width="95.7132" height="69.686" transform="matrix(0.127759 0.992458 -0.997482 0.0747558 129.976 287.293)" fill="#D85A42" fill-opacity="0.35"/>
</g>
<mask id="mask28_1422_5293" style="mask-type:luminance" maskUnits="userSpaceOnUse" x="67" y="350" width="78" height="93">
<path d="M70.4281 400.929L67.5496 353.356L67.5495 353.355L70.4281 400.929ZM74.8117 351.285L75.212 351.171L74.7688 350.593L129.353 380.64L131.04 381.569L130.652 381.689L131.099 382.269L128.514 380.845L74.8117 351.285ZM143.412 440.557L142.828 434.014L139.145 392.689L139.521 393.175L139.844 393.073L144.11 440.935L143.734 440.446L143.412 440.557Z" fill="white"/>
</mask>
<g mask="url(#mask28_1422_5293)">
<rect width="97.8623" height="71.5178" transform="matrix(0.127795 0.992455 -0.997483 0.074752 134.048 345.603)" fill="#D85A42" fill-opacity="0.35"/>
</g>
<mask id="mask29_1422_5293" style="mask-type:luminance" maskUnits="userSpaceOnUse" x="70" y="411" width="79" height="95">
<path d="M77.7624 412.318L78.1485 412.196L77.7174 411.631L134.134 442.194L135.341 442.849L134.966 442.977L135.402 443.545L80.9625 414.053L77.7624 412.318ZM148.182 504.7L143.693 454.367L144.07 454.858L144.392 454.745L148.879 505.072L148.503 504.578L148.182 504.7Z" fill="white"/>
</mask>
<g mask="url(#mask29_1422_5293)">
<rect width="99.445" height="73.3598" transform="matrix(0.127872 0.992447 -0.997484 0.0747523 138.949 406.682)" fill="#D85A42" fill-opacity="0.35"/>
</g>
<mask id="mask30_1422_5293" style="mask-type:luminance" maskUnits="userSpaceOnUse" x="72" y="475" width="82" height="102">
<path d="M75.685 531.603L72.4994 478.872L75.6863 531.603L75.685 531.603ZM80.8547 476.542L81.2289 476.41L80.8113 475.857L139.815 507.305L139.453 507.443L139.875 507.998L80.8547 476.542ZM153.14 572.239L149.437 530.665L148.42 519.248L148.797 519.743L149.117 519.619L149.641 525.507L153.836 572.603L153.459 572.105L153.14 572.239Z" fill="white"/>
</mask>
<g mask="url(#mask30_1422_5293)">
<rect width="106.008" height="75.9188" transform="matrix(0.127625 0.992472 -0.997482 0.0747489 143.489 470.382)" fill="#D85A42" fill-opacity="0.35"/>
</g>
<mask id="mask31_1422_5293" style="mask-type:luminance" maskUnits="userSpaceOnUse" x="-10" y="95" width="70" height="83">
<path d="M-3.14294 96.2037L-2.67702 96.1352L-3.16582 95.5131L49.3613 126.011L48.9069 126.086L49.4001 126.712L-3.14294 96.2037ZM36.5294 168.073L52.2718 177.1L52.272 177.102L36.5294 168.073ZM58.9579 175.111L58.3575 165.2L56.5753 135.801L56.9353 136.256L57.2628 136.2L59.6462 175.506L59.2859 175.047L58.9579 175.111Z" fill="white"/>
</mask>
<g mask="url(#mask31_1422_5293)">
<rect width="87.0011" height="65.9629" transform="matrix(0.128092 0.992425 -0.997486 0.0747485 51.9619 90.8445)" fill="#D85A42" fill-opacity="0.35"/>
</g>
<mask id="mask32_1422_5293" style="mask-type:luminance" maskUnits="userSpaceOnUse" x="-10" y="145" width="73" height="83">
<path d="M-8.75727 187.839L-9.99938 147.008L-9.99932 147.008L-8.75727 187.839ZM-2.28836 146.184L-1.83533 146.106L-2.31103 145.495L51.3983 176.286L50.958 176.37L51.4393 176.984L35.6894 167.956L-2.28836 146.184ZM61.3177 227.559L58.8202 186.395L59.1806 186.854L59.5073 186.789L62.0058 227.949L61.6462 227.487L61.3177 227.559Z" fill="white"/>
</mask>
<g mask="url(#mask32_1422_5293)">
<rect width="88.0168" height="69.1522" transform="matrix(0.128366 0.992397 -0.99749 0.0747337 54.4697 140.668)" fill="#D85A42" fill-opacity="0.35"/>
</g>
<mask id="mask33_1422_5293" style="mask-type:luminance" maskUnits="userSpaceOnUse" x="-2" y="197" width="67" height="88">
<path d="M0.601728 252.918L56.6809 284.281L0.603048 252.918L0.601728 252.918ZM-1.2417 198.543L-0.80264 198.456L-1.26392 197.857L53.5431 228.937L53.1154 229.03L53.5824 229.632L44.1419 224.279L-1.2417 198.543ZM63.762 282.525L61.1591 239.383L61.5192 239.846L61.8456 239.772L64.448 282.91L64.0889 282.445L63.762 282.525Z" fill="white"/>
</mask>
<g mask="url(#mask33_1422_5293)">
<rect width="92.8903" height="63.9971" transform="matrix(0.127283 0.992507 -0.997481 0.0747368 56.5654 192.673)" fill="#D85A42" fill-opacity="0.35"/>
</g>
<mask id="mask34_1422_5293" style="mask-type:luminance" maskUnits="userSpaceOnUse" x="-9" y="252" width="77" height="91">
<path d="M-7.14798 299.75L-8.51137 254.789L-7.14666 299.75L-7.14798 299.75ZM1.56633 311.322L59.0889 342.967L59.0903 342.968L1.56633 311.322ZM-0.407525 253.487L0.0192293 253.392L-0.430834 252.804L55.7389 284.165L55.3223 284.268L55.7779 284.857L-0.407525 253.487ZM66.3366 340.253L66.1717 337.546L63.5919 294.971L63.9518 295.438L64.2788 295.354L67.023 340.632L66.6629 340.164L66.3366 340.253Z" fill="white"/>
</mask>
<g mask="url(#mask34_1422_5293)">
<rect width="95.7099" height="72.8903" transform="matrix(0.128127 0.992421 -0.997486 0.0747472 58.8574 247.823)" fill="#D85A42" fill-opacity="0.35"/>
</g>
<mask id="mask35_1422_5293" style="mask-type:luminance" maskUnits="userSpaceOnUse" x="-7" y="310" width="77" height="92">
<path d="M0.613695 311.185L1.02874 311.08L0.59081 310.506L58.1019 342.142L57.6997 342.254L58.1404 342.829L0.613695 311.185ZM69.0738 400.907L68.4778 391.069L66.1893 353.327L66.5496 353.797L66.8756 353.705L69.7596 401.281L69.3989 400.808L69.0738 400.907Z" fill="white"/>
</mask>
<g mask="url(#mask35_1422_5293)">
<rect width="97.2934" height="74.1984" transform="matrix(0.128138 0.99242 -0.997486 0.0747468 61.4863 305.219)" fill="#D85A42" fill-opacity="0.35"/>
</g>
<mask id="mask36_1422_5293" style="mask-type:luminance" maskUnits="userSpaceOnUse" x="-7" y="371" width="80" height="97">
<path d="M-5.35928 423.49L-6.86816 373.732L-6.86803 373.733L-5.35796 423.49L-5.35928 423.49ZM1.66718 371.855L2.06901 371.741L1.64468 371.179L3.72368 372.305L60.5473 403.08L60.1569 403.202L60.5868 403.766L3.70496 372.959L1.66718 371.855ZM71.9097 464.727L69.6422 427.286L68.8773 414.669L69.2381 415.144L69.564 415.04L72.5959 465.093L72.2347 464.615L71.9097 464.727Z" fill="white"/>
</mask>
<g mask="url(#mask36_1422_5293)">
<rect width="102.158" height="76.6513" transform="matrix(0.128009 0.992433 -0.997485 0.0747507 63.7188 365.92)" fill="#D85A42" fill-opacity="0.35"/>
</g>
<mask id="mask37_1422_5293" style="mask-type:luminance" maskUnits="userSpaceOnUse" x="-5" y="435" width="81" height="98">
<path d="M2.79013 435.738L3.17897 435.614L2.7667 435.065L63.1588 467.218L62.7813 467.348L63.198 467.9L2.79013 435.738ZM74.9454 531.974L71.7488 479.238L72.1089 479.717L72.4348 479.602L75.6307 532.333L75.269 531.85L74.9454 531.974Z" fill="white"/>
</mask>
<g mask="url(#mask37_1422_5293)">
<rect width="103.854" height="78.4918" transform="matrix(0.128067 0.992427 -0.997486 0.0747493 66.3213 429.765)" fill="#D85A42" fill-opacity="0.35"/>
</g>
<mask id="mask38_1422_5293" style="mask-type:luminance" maskUnits="userSpaceOnUse" x="-4" y="502" width="83" height="102">
<path d="M3.97504 503.091L4.3507 502.958L3.95057 502.421L9.80778 505.483L65.8897 534.811L65.5241 534.951L65.9284 535.49L3.97504 503.091ZM78.1172 602.924L74.7472 547.29L75.1077 547.773L75.4323 547.647L78.8029 603.276L78.4407 602.789L78.1172 602.924Z" fill="white"/>
</mask>
<g mask="url(#mask38_1422_5293)">
<rect width="107.701" height="80.2947" transform="matrix(0.127958 0.992438 -0.997485 0.0747516 69.2275 496.869)" fill="#D85A42" fill-opacity="0.35"/>
</g>
<mask id="mask39_1422_5293" style="mask-type:luminance" maskUnits="userSpaceOnUse" x="-86" y="393" width="82" height="101">
<path d="M-85.6748 448.565L-85.6169 413.176L-85.6746 448.566L-85.6748 448.565ZM-77.0602 393.997L-76.6571 393.881L-77.0624 393.335L-56.7767 404.134L-15.2859 426.22L-15.679 426.342L-15.2682 426.89L-77.0602 393.997ZM-5.13354 490.768L-5.35246 483.529L-6.72675 438.315L-6.38052 438.778L-6.05183 438.674L-4.76861 480.904L-4.4593 491.122L-4.8046 490.655L-5.13354 490.768Z" fill="white"/>
</mask>
<g mask="url(#mask39_1422_5293)">
</g>
<mask id="mask40_1422_5293" style="mask-type:luminance" maskUnits="userSpaceOnUse" x="-78" y="460" width="75" height="106">
<path d="M-77.7683 460.971L-77.3768 460.846L-77.7684 460.313L-14.5924 493.47L-14.97 493.599L-14.5741 494.136L-77.7683 460.971ZM-4.15104 561.382L-5.79922 506.029L-5.45389 506.496L-5.1276 506.381L-4.5459 525.92L-3.47876 561.728L-3.82449 561.258L-4.15104 561.382Z" fill="white"/>
</mask>
<g mask="url(#mask40_1422_5293)">
</g>
<mask id="mask41_1422_5293" style="mask-type:luminance" maskUnits="userSpaceOnUse" x="430" y="341" width="11" height="13">
<path d="M430.295 343.402L430.661 343.276L435.904 341.478L439.743 346.16L440.501 352.59L438.731 353.212L438.417 353.321L437.963 352.767L430.824 344.049L430.295 343.402Z" fill="white"/>
</mask>
<g mask="url(#mask41_1422_5293)">
<rect width="13.7065" height="10.743" transform="matrix(0.128286 0.992404 -0.997484 0.074776 439.564 340.098)" fill="#D85A42" fill-opacity="0.35"/>
</g>
<mask id="mask42_1422_5293" style="mask-type:luminance" maskUnits="userSpaceOnUse" x="440" y="394" width="6" height="8">
<path d="M440.584 395.635L440.938 395.501L444.696 394.074L445.599 401.827L441.098 396.269L440.584 395.635Z" fill="white"/>
</mask>
<g mask="url(#mask42_1422_5293)">
<rect width="9.86446" height="5.74077" transform="matrix(0.125561 0.992681 -0.997484 0.0745645 445.149 392.994)" fill="#D85A42" fill-opacity="0.35"/>
</g>
<mask id="mask43_1422_5293" style="mask-type:luminance" maskUnits="userSpaceOnUse" x="369" y="307" width="15" height="12">
<path d="M369.765 308.83L370.149 308.713L375.669 307.01L383.278 316.297L383.805 316.941L383.426 317.06L378.241 318.699L377.922 318.799L377.483 318.262L370.293 309.474L369.765 308.83Z" fill="white"/>
</mask>
<g mask="url(#mask43_1422_5293)">
<rect width="13.593" height="14.6361" transform="matrix(0.13003 0.992228 -0.997559 0.0741789 383.223 305.677)" fill="#D85A42" fill-opacity="0.35"/>
</g>
<mask id="mask44_1422_5293" style="mask-type:luminance" maskUnits="userSpaceOnUse" x="378" y="358" width="16" height="14">
<path d="M378.824 360.779L379.194 360.652L384.504 358.838L384.82 358.729L385.26 359.269L392.633 368.323L393.149 368.954L392.781 369.083L387.489 370.934L387.174 371.045L386.733 370.503L379.338 361.41L378.824 360.779Z" fill="white"/>
</mask>
<g mask="url(#mask44_1422_5293)">
<rect width="14.2721" height="15.2919" transform="matrix(0.130018 0.992229 -0.997558 0.0741907 392.444 357.057)" fill="#D85A42" fill-opacity="0.35"/>
</g>
<mask id="mask45_1422_5293" style="mask-type:luminance" maskUnits="userSpaceOnUse" x="388" y="412" width="15" height="14">
<path d="M388.288 415.076L388.645 414.942L388.646 414.942L394.065 412.896L394.378 412.778L394.819 413.323L402.405 422.696L402.907 423.315L402.552 423.451L397.152 425.534L396.839 425.656L396.398 425.109L388.788 415.694L388.288 415.076Z" fill="white"/>
</mask>
<g mask="url(#mask45_1422_5293)">
<rect width="14.8377" height="15.9509" transform="matrix(0.130035 0.992227 -0.997559 0.0741753 402.627 411.196)" fill="#D85A42" fill-opacity="0.35"/>
</g>
<mask id="mask46_1422_5293" style="mask-type:luminance" maskUnits="userSpaceOnUse" x="398" y="469" width="16" height="14">
<path d="M398.191 471.883L398.535 471.741L398.536 471.741L404.066 469.446L404.378 469.316L404.819 469.866L412.629 479.575L413.117 480.182L412.774 480.326L407.264 482.662L406.952 482.794L406.51 482.245L398.676 472.489L398.191 471.883Z" fill="white"/>
</mask>
<g mask="url(#mask46_1422_5293)">
<rect width="15.2891" height="15.2686" transform="matrix(0.129759 0.992256 -0.997536 0.0743774 412.428 468.079)" fill="#D85A42" fill-opacity="0.35"/>
</g>
<mask id="mask47_1422_5293" style="mask-type:luminance" maskUnits="userSpaceOnUse" x="408" y="528" width="16" height="15">
<path d="M408.56 531.38L408.894 531.229L414.539 528.661L414.849 528.52L415.29 529.074L423.334 539.141L423.808 539.734L423.478 539.887L417.854 542.498L417.545 542.643L417.102 542.087L409.034 531.973L408.56 531.38Z" fill="white"/>
</mask>
<g mask="url(#mask47_1422_5293)">
<rect width="15.8546" height="15.9276" transform="matrix(0.129785 0.992253 -0.997538 0.0743618 422.981 527.058)" fill="#D85A42" fill-opacity="0.35"/>
</g>
<mask id="mask48_1422_5293" style="mask-type:luminance" maskUnits="userSpaceOnUse" x="308" y="271" width="15" height="13">
<path d="M308.11 273.623L308.508 273.513L314.291 271.912L321.895 281.245L322.416 281.886L322.024 281.997L316.578 283.544L316.257 283.634L315.834 283.115L315.834 283.114L308.632 274.263L308.11 273.623Z" fill="white"/>
</mask>
<g mask="url(#mask48_1422_5293)">
<rect width="13.7066" height="14.6328" transform="matrix(0.130006 0.99223 -0.997556 0.0742019 321.659 270.387)" fill="#D85A42" fill-opacity="0.35"/>
</g>
<mask id="mask49_1422_5293" style="mask-type:luminance" maskUnits="userSpaceOnUse" x="315" y="323" width="16" height="13">
<path d="M315.875 325.282L316.26 325.163L321.839 323.442L322.16 323.344L322.583 323.867L329.968 332.986L330.476 333.615L330.097 333.734L324.533 335.492L324.532 335.492L324.215 335.593L323.79 335.069L316.382 325.91L316.382 325.909L315.875 325.282Z" fill="white"/>
</mask>
<g mask="url(#mask49_1422_5293)">
<rect width="14.2731" height="15.9644" transform="matrix(0.130159 0.992216 -0.997574 0.0740435 330.219 321.928)" fill="#D85A42" fill-opacity="0.35"/>
</g>
<mask id="mask50_1422_5293" style="mask-type:luminance" maskUnits="userSpaceOnUse" x="323" y="377" width="16" height="13">
<path d="M323.997 379.298L324.368 379.171L330.07 377.222L330.071 377.222L330.389 377.113L330.813 377.64L338.41 387.083L338.411 387.083L338.906 387.698L338.538 387.827L332.855 389.816L332.537 389.927L332.112 389.398L324.491 379.914L323.997 379.298Z" fill="white"/>
</mask>
<g mask="url(#mask50_1422_5293)">
<rect width="14.8368" height="15.8173" transform="matrix(0.130006 0.99223 -0.997556 0.0742019 338.323 375.652)" fill="#D85A42" fill-opacity="0.35"/>
</g>
<mask id="mask51_1422_5293" style="mask-type:luminance" maskUnits="userSpaceOnUse" x="332" y="433" width="16" height="14">
<path d="M332.494 435.837L332.854 435.701L338.681 433.502L338.997 433.383L339.422 433.915L347.243 443.699L347.244 443.699L347.725 444.301L347.369 444.439L341.561 446.68L341.246 446.801L340.822 446.269L340.82 446.268L332.974 436.438L332.494 435.837Z" fill="white"/>
</mask>
<g mask="url(#mask51_1422_5293)">
<rect width="15.2896" height="15.9404" transform="matrix(0.129937 0.992238 -0.99755 0.0742584 346.855 432.061)" fill="#D85A42" fill-opacity="0.35"/>
</g>
<mask id="mask52_1422_5293" style="mask-type:luminance" maskUnits="userSpaceOnUse" x="341" y="492" width="16" height="15">
<path d="M341.401 495.079L341.747 494.935L347.703 492.464L348.017 492.333L348.441 492.869L356.497 503.015L356.965 503.605L356.621 503.75L350.687 506.266L350.374 506.399L349.948 505.862L341.868 495.668L341.401 495.079Z" fill="white"/>
</mask>
<g mask="url(#mask52_1422_5293)">
<rect width="15.8546" height="15.9276" transform="matrix(0.129785 0.992253 -0.997538 0.0743618 356.197 491.126)" fill="#D85A42" fill-opacity="0.35"/>
</g>
<mask id="mask53_1422_5293" style="mask-type:luminance" maskUnits="userSpaceOnUse" x="350" y="554" width="17" height="15">
<path d="M350.74 557.223L351.075 557.07L357.164 554.302L357.476 554.16L357.902 554.702L366.201 565.228L366.657 565.806L366.327 565.96L360.26 568.776L359.948 568.921L359.522 568.379L351.195 557.8L350.74 557.223Z" fill="white"/>
</mask>
<g mask="url(#mask53_1422_5293)">
<rect width="16.42" height="16.5867" transform="matrix(0.129809 0.992251 -0.99754 0.0743472 365.817 552.887)" fill="#D85A42" fill-opacity="0.35"/>
</g>
<mask id="mask54_1422_5293" style="mask-type:luminance" maskUnits="userSpaceOnUse" x="245" y="236" width="15" height="12">
<path d="M245.291 237.754L245.702 237.652L251.759 236.158L259.356 245.537L259.873 246.175L259.464 246.278L253.75 247.727L253.425 247.809L253.018 247.305L245.806 238.39L245.291 237.754Z" fill="white"/>
</mask>
<g mask="url(#mask54_1422_5293)">
<rect width="13.7077" height="15.305" transform="matrix(0.130163 0.992215 -0.997575 0.0740416 259.371 234.697)" fill="#D85A42" fill-opacity="0.35"/>
</g>
<mask id="mask55_1422_5293" style="mask-type:luminance" maskUnits="userSpaceOnUse" x="251" y="287" width="16" height="13">
<path d="M251.715 289.102L252.115 288.991L257.976 287.369L258.299 287.28L258.707 287.788L266.1 296.971L266.101 296.971L266.604 297.596L266.209 297.709L260.364 299.368L260.042 299.459L259.633 298.952L252.218 289.726L251.715 289.102Z" fill="white"/>
</mask>
<g mask="url(#mask55_1422_5293)">
<rect width="14.2721" height="15.2919" transform="matrix(0.130028 0.992228 -0.997559 0.0741827 265.993 285.813)" fill="#D85A42" fill-opacity="0.35"/>
</g>
<mask id="mask56_1422_5293" style="mask-type:luminance" maskUnits="userSpaceOnUse" x="258" y="340" width="16" height="14">
<path d="M258.436 342.815L258.823 342.696L264.819 340.848L265.141 340.748L265.549 341.258L265.55 341.259L273.156 350.77L273.646 351.382L273.263 351.503L267.286 353.392L266.964 353.494L266.556 352.982L258.925 343.427L258.436 342.815Z" fill="white"/>
</mask>
<g mask="url(#mask56_1422_5293)">
<rect width="14.8375" height="15.8166" transform="matrix(0.130001 0.992231 -0.997556 0.0742066 272.7 339.071)" fill="#D85A42" fill-opacity="0.35"/>
</g>
<mask id="mask57_1422_5293" style="mask-type:luminance" maskUnits="userSpaceOnUse" x="265" y="396" width="17" height="15">
<path d="M265.475 399.063L265.847 398.935L271.983 396.839L272.303 396.729L272.711 397.243L280.541 407.1L281.017 407.701L280.649 407.83L280.647 407.83L274.532 409.97L274.212 410.082L273.804 409.566L265.95 399.663L265.475 399.063Z" fill="white"/>
</mask>
<g mask="url(#mask57_1422_5293)">
<rect width="15.4029" height="16.6104" transform="matrix(0.13004 0.992227 -0.99756 0.0741702 280.493 394.967)" fill="#D85A42" fill-opacity="0.35"/>
</g>
<mask id="mask58_1422_5293" style="mask-type:luminance" maskUnits="userSpaceOnUse" x="272" y="455" width="17" height="15">
<path d="M272.852 458.028L273.214 457.892L279.493 455.523L279.81 455.402L280.22 455.921L280.22 455.922L288.283 466.144L288.283 466.145L288.746 466.732L288.389 466.87L282.13 469.284L281.813 469.406L281.403 468.886L273.315 458.615L273.314 458.615L272.852 458.028Z" fill="white"/>
</mask>
<g mask="url(#mask58_1422_5293)">
<rect width="15.4031" height="16.4756" transform="matrix(0.13003 0.992229 -0.997559 0.0741806 287.827 454.177)" fill="#D85A42" fill-opacity="0.35"/>
</g>
<mask id="mask59_1422_5293" style="mask-type:luminance" maskUnits="userSpaceOnUse" x="280" y="516" width="17" height="16">
<path d="M280.597 519.911L280.945 519.767L287.373 517.101L287.689 516.97L288.099 517.493L296.406 528.104L296.857 528.679L296.511 528.824L290.107 531.54L289.791 531.673L289.381 531.148L281.047 520.485L280.597 519.911Z" fill="white"/>
</mask>
<g mask="url(#mask59_1422_5293)">
<rect width="16.3065" height="17.2625" transform="matrix(0.129932 0.992235 -0.99755 0.0742677 296.175 515.575)" fill="#D85A42" fill-opacity="0.35"/>
</g>
<mask id="mask60_1422_5293" style="mask-type:luminance" maskUnits="userSpaceOnUse" x="181" y="199" width="16" height="13">
<path d="M181.278 201.203L181.705 201.11L188.042 199.727L195.632 209.151L196.143 209.785L195.72 209.88L189.725 211.227L189.398 211.3L189.007 210.813L181.787 201.837L181.278 201.203Z" fill="white"/>
</mask>
<g mask="url(#mask60_1422_5293)">
<rect width="13.1445" height="15.9923" transform="matrix(0.130344 0.992198 -0.997609 0.0737246 195.833 198.533)" fill="#D85A42" fill-opacity="0.35"/>
</g>
<mask id="mask61_1422_5293" style="mask-type:luminance" maskUnits="userSpaceOnUse" x="186" y="250" width="16" height="13">
<path d="M186.309 252.218L186.723 252.117L192.877 250.598L193.202 250.518L193.594 251.008L200.996 260.258L201.493 260.879L201.084 260.984L194.946 262.54L194.621 262.621L194.229 262.131L186.804 252.839L186.309 252.218Z" fill="white"/>
</mask>
<g mask="url(#mask61_1422_5293)">
<rect width="13.7087" height="15.9781" transform="matrix(0.130262 0.992206 -0.997591 0.0738938 201.049 249.183)" fill="#D85A42" fill-opacity="0.35"/>
</g>
<mask id="mask62_1422_5293" style="mask-type:luminance" maskUnits="userSpaceOnUse" x="191" y="303" width="17" height="14">
<path d="M191.575 305.608L191.975 305.498L198.277 303.753L198.279 303.753L198.603 303.663L198.995 304.158L206.609 313.738L207.093 314.347L206.695 314.46L200.411 316.244L200.087 316.336L199.695 315.84L192.058 306.217L191.575 305.608Z" fill="white"/>
</mask>
<g mask="url(#mask62_1422_5293)">
<rect width="14.7247" height="15.9537" transform="matrix(0.130056 0.992225 -0.997562 0.074155 206.487 302.079)" fill="#D85A42" fill-opacity="0.35"/>
</g>
<mask id="mask63_1422_5293" style="mask-type:luminance" maskUnits="userSpaceOnUse" x="197" y="359" width="16" height="14">
<path d="M197.098 361.542L197.485 361.421L203.941 359.431L204.265 359.331L204.657 359.829L212.493 369.759L212.964 370.355L212.58 370.478L206.143 372.511L205.82 372.612L205.428 372.113L197.568 362.138L197.568 362.137L197.098 361.542Z" fill="white"/>
</mask>
<g mask="url(#mask63_1422_5293)">
<rect width="14.7257" height="16.6262" transform="matrix(0.130184 0.992213 -0.997578 0.0740105 212.281 358.12)" fill="#D85A42" fill-opacity="0.35"/>
</g>
<mask id="mask64_1422_5293" style="mask-type:luminance" maskUnits="userSpaceOnUse" x="202" y="417" width="18" height="15">
<path d="M202.884 420.205L203.258 420.076L209.873 417.814L210.195 417.705L210.589 418.208L218.658 428.507L219.115 429.092L218.744 429.221L212.149 431.528L211.827 431.641L211.434 431.137L203.34 420.789L203.34 420.787L202.884 420.205Z" fill="white"/>
</mask>
<g mask="url(#mask64_1422_5293)">
<rect width="15.8551" height="16.5995" transform="matrix(0.129941 0.992237 -0.99755 0.0742566 218.252 416.294)" fill="#D85A42" fill-opacity="0.35"/>
</g>
<mask id="mask65_1422_5293" style="mask-type:luminance" maskUnits="userSpaceOnUse" x="208" y="478" width="18" height="16">
<path d="M208.961 481.804L209.324 481.667L216.104 479.109L216.105 479.109L216.424 478.989L216.818 479.495L225.132 490.188L225.575 490.76L225.217 490.899L218.459 493.505L218.139 493.628L217.745 493.12L209.405 482.375L208.961 481.804Z" fill="white"/>
</mask>
<g mask="url(#mask65_1422_5293)">
<rect width="16.4212" height="17.7965" transform="matrix(0.130074 0.992224 -0.997564 0.0741389 225.119 477.687)" fill="#D85A42" fill-opacity="0.35"/>
</g>
<mask id="mask66_1422_5293" style="mask-type:luminance" maskUnits="userSpaceOnUse" x="215" y="543" width="18" height="16">
<path d="M215.345 546.564L215.695 546.418L222.645 543.535L222.964 543.403L223.359 543.914L231.929 555.025L232.359 555.584L232.013 555.731L225.086 558.667L224.768 558.802L224.373 558.29L215.774 547.121L215.345 546.564Z" fill="white"/>
</mask>
<g mask="url(#mask66_1422_5293)">
<rect width="17.4363" height="17.7748" transform="matrix(0.129786 0.99225 -0.997537 0.0743774 231.727 541.927)" fill="#D85A42" fill-opacity="0.35"/>
</g>
<mask id="mask67_1422_5293" style="mask-type:luminance" maskUnits="userSpaceOnUse" x="116" y="162" width="16" height="13">
<path d="M116.042 163.952L116.483 163.867L123.112 162.6L130.692 172.069L131.197 172.7L130.76 172.786L124.475 174.026L124.146 174.091L123.768 173.619L116.545 164.582L116.042 163.952Z" fill="white"/>
</mask>
<g mask="url(#mask67_1422_5293)">
<rect width="13.1442" height="15.8576" transform="matrix(0.13033 0.992199 -0.997605 0.073759 130.686 161.352)" fill="#D85A42" fill-opacity="0.35"/>
</g>
<mask id="mask68_1422_5293" style="mask-type:luminance" maskUnits="userSpaceOnUse" x="119" y="213" width="17" height="13">
<path d="M119.622 214.612L120.051 214.519L126.508 213.109L126.837 213.037L127.214 213.512L134.619 222.826L134.621 222.826L135.112 223.444L134.687 223.54L128.246 224.987L127.918 225.061L127.54 224.585L120.114 215.229L119.622 214.612Z" fill="white"/>
</mask>
<g mask="url(#mask68_1422_5293)">
<rect width="13.71" height="16.6514" transform="matrix(0.130341 0.992198 -0.997608 0.0737317 134.636 211.64)" fill="#D85A42" fill-opacity="0.35"/>
</g>
<mask id="mask69_1422_5293" style="mask-type:luminance" maskUnits="userSpaceOnUse" x="123" y="265" width="17" height="14">
<path d="M123.377 267.653L123.794 267.551L130.414 265.917L130.741 265.837L131.118 266.315L138.737 275.963L139.214 276.568L138.802 276.673L132.2 278.347L131.873 278.429L131.496 277.951L123.855 268.258L123.377 267.653Z" fill="white"/>
</mask>
<g mask="url(#mask69_1422_5293)">
<rect width="14.2729" height="16.5038" transform="matrix(0.130195 0.99221 -0.997583 0.0739683 138.742 264.52)" fill="#D85A42" fill-opacity="0.35"/>
</g>
<mask id="mask70_1422_5293" style="mask-type:luminance" maskUnits="userSpaceOnUse" x="127" y="321" width="17" height="14">
<path d="M127.303 323.249L127.707 323.137L134.495 321.258L134.821 321.169L135.199 321.65L143.038 331.652L143.504 332.246L143.105 332.36L136.335 334.281L136.008 334.373L135.631 333.891L127.767 323.842L127.303 323.249Z" fill="white"/>
</mask>
<g mask="url(#mask70_1422_5293)">
<rect width="15.2913" height="17.2854" transform="matrix(0.1302 0.992212 -0.997579 0.0739956 143.167 319.638)" fill="#D85A42" fill-opacity="0.35"/>
</g>
<mask id="mask71_1422_5293" style="mask-type:luminance" maskUnits="userSpaceOnUse" x="131" y="379" width="18" height="15">
<path d="M131.436 381.585L131.826 381.465L138.79 379.317L139.116 379.216L139.493 379.702L147.565 390.08L148.017 390.661L147.631 390.783L140.686 392.977L140.361 393.079L139.984 392.593L131.886 382.165L131.436 381.585Z" fill="white"/>
</mask>
<g mask="url(#mask71_1422_5293)">
<rect width="15.291" height="17.1508" transform="matrix(0.130178 0.992214 -0.997576 0.0740232 147.16 377.957)" fill="#D85A42" fill-opacity="0.35"/>
</g>
<mask id="mask72_1422_5293" style="mask-type:luminance" maskUnits="userSpaceOnUse" x="135" y="440" width="18" height="15">
<path d="M135.773 442.873L136.15 442.744L143.296 440.301L143.62 440.19L143.998 440.679L152.314 451.455L152.753 452.024L152.379 452.155L145.255 454.648L144.931 454.761L144.551 454.269L136.211 443.441L135.773 442.873Z" fill="white"/>
</mask>
<g mask="url(#mask72_1422_5293)">
<rect width="16.4212" height="17.9312" transform="matrix(0.130101 0.992222 -0.997566 0.0741121 152.166 438.465)" fill="#D85A42" fill-opacity="0.35"/>
</g>
<mask id="mask73_1422_5293" style="mask-type:luminance" maskUnits="userSpaceOnUse" x="140" y="504" width="18" height="16">
<path d="M140.332 507.339L140.696 507.202L148.033 504.434L148.356 504.313L148.735 504.806L148.735 504.808L157.307 516.004L157.733 516.561L157.372 516.701L150.057 519.521L149.734 519.646L149.356 519.151L140.757 507.895L140.332 507.339Z" fill="white"/>
</mask>
<g mask="url(#mask73_1422_5293)">
<rect width="16.9855" height="17.7838" transform="matrix(0.129953 0.992236 -0.997551 0.0742461 156.756 502.737)" fill="#D85A42" fill-opacity="0.35"/>
</g>
<mask id="mask74_1422_5293" style="mask-type:luminance" maskUnits="userSpaceOnUse" x="145" y="571" width="18" height="17">
<path d="M145.13 575.241L145.481 575.095L153.016 571.97L153.337 571.836L153.716 572.334L153.716 572.335L162.556 583.985L162.97 584.529L162.621 584.676L155.111 587.859L154.789 587.995L154.41 587.496L145.541 575.784L145.13 575.241Z" fill="white"/>
</mask>
<g mask="url(#mask74_1422_5293)">
<rect width="18.0006" height="19.1081" transform="matrix(0.129852 0.992243 -0.99754 0.0743351 162.468 570.208)" fill="#D85A42" fill-opacity="0.35"/>
</g>
<mask id="mask75_1422_5293" style="mask-type:luminance" maskUnits="userSpaceOnUse" x="49" y="124" width="16" height="13">
<path d="M49.5375 125.979L49.9951 125.903L56.9264 124.757L64.4949 134.272L64.9931 134.899L64.5397 134.977L57.9535 136.104L57.6236 136.161L57.2611 135.705L57.2611 135.704L50.0342 126.605L49.5375 125.979Z" fill="white"/>
</mask>
<g mask="url(#mask75_1422_5293)">
<rect width="13.1445" height="15.9923" transform="matrix(0.130344 0.992198 -0.997609 0.0737246 64.3525 123.238)" fill="#D85A42" fill-opacity="0.35"/>
</g>
<mask id="mask76_1422_5293" style="mask-type:luminance" maskUnits="userSpaceOnUse" x="51" y="174" width="17" height="13">
<path d="M51.6168 176.26L52.0599 176.176L58.8323 174.882L59.1625 174.818L59.5253 175.277L66.9324 184.655L66.9326 184.656L67.4184 185.27L66.9769 185.357L60.2224 186.689L60.2211 186.689L59.8924 186.754L59.5296 186.295L52.1014 176.875L52.1013 176.874L51.6168 176.26Z" fill="white"/>
</mask>
<g mask="url(#mask76_1422_5293)">
<rect width="13.5972" height="16.6543" transform="matrix(0.130354 0.992197 -0.997612 0.073697 66.9658 173.622)" fill="#D85A42" fill-opacity="0.35"/>
</g>
<mask id="mask77_1422_5293" style="mask-type:luminance" maskUnits="userSpaceOnUse" x="53" y="227" width="17" height="13">
<path d="M53.7863 228.929L54.2174 228.835L61.1665 227.319L61.497 227.247L61.8587 227.709L69.4785 237.426L69.9507 238.028L69.5238 238.124L69.5225 238.124L62.5904 239.681L62.2615 239.755L61.8982 239.292L54.2572 229.531L53.7863 228.929Z" fill="white"/>
</mask>
<g mask="url(#mask77_1422_5293)">
<rect width="14.2753" height="17.1759" transform="matrix(0.130325 0.9922 -0.997604 0.0737698 69.6445 226.038)" fill="#D85A42" fill-opacity="0.35"/>
</g>
<mask id="mask78_1422_5293" style="mask-type:luminance" maskUnits="userSpaceOnUse" x="56" y="282" width="17" height="14">
<path d="M56.0695 284.159L56.4886 284.056L63.6234 282.297L63.9527 282.216L64.3148 282.682L72.1555 292.755L72.6141 293.346L72.1992 293.451L65.083 295.255L64.7541 295.339L64.3919 294.872L56.528 284.749L56.0695 284.159Z" fill="white"/>
</mask>
<g mask="url(#mask78_1422_5293)">
<rect width="14.8395" height="17.1618" transform="matrix(0.130245 0.992207 -0.997587 0.0739231 72.0225 280.739)" fill="#D85A42" fill-opacity="0.35"/>
</g>
<mask id="mask79_1422_5293" style="mask-type:luminance" maskUnits="userSpaceOnUse" x="58" y="339" width="18" height="15">
<path d="M58.4661 342.144L58.8706 342.032L66.1989 340.003L66.5271 339.913L66.8895 340.382L74.962 350.836L75.4083 351.414L75.0054 351.529L67.6971 353.602L67.6973 353.603L67.3694 353.696L67.0069 353.225L58.9109 342.721L58.9094 342.72L58.4661 342.144Z" fill="white"/>
</mask>
<g mask="url(#mask79_1422_5293)">
<rect width="15.2922" height="17.8238" transform="matrix(0.130274 0.992205 -0.997592 0.0738833 74.748 338.696)" fill="#D85A42" fill-opacity="0.35"/>
</g>
<mask id="mask80_1422_5293" style="mask-type:luminance" maskUnits="userSpaceOnUse" x="60" y="400" width="19" height="16">
<path d="M60.9828 403.092L61.3754 402.971L68.9045 400.648L69.2313 400.548L69.5941 401.022L77.9088 411.88L78.3427 412.445L77.9543 412.567L70.4457 414.939L70.118 415.043L69.7551 414.568L61.4153 403.656L60.9828 403.092Z" fill="white"/>
</mask>
<g mask="url(#mask80_1422_5293)">
<rect width="15.8566" height="17.81" transform="matrix(0.130182 0.992214 -0.997577 0.0740183 77.7314 399.236)" fill="#D85A42" fill-opacity="0.35"/>
</g>
<mask id="mask81_1422_5293" style="mask-type:luminance" maskUnits="userSpaceOnUse" x="63" y="464" width="19" height="16">
<path d="M63.6309 467.237L64.0104 467.107L71.7501 464.461L72.0768 464.35L72.4401 464.828L81.0093 476.115L81.4296 476.668L81.0532 476.8L73.3371 479.499L73.0094 479.614L72.6474 479.134L64.0499 467.79L63.6309 467.237Z" fill="white"/>
</mask>
<g mask="url(#mask81_1422_5293)">
<rect width="16.8733" height="18.4588" transform="matrix(0.130104 0.992221 -0.997567 0.0741083 80.3721 463.195)" fill="#D85A42" fill-opacity="0.35"/>
</g>
<mask id="mask82_1422_5293" style="mask-type:luminance" maskUnits="userSpaceOnUse" x="66" y="531" width="19" height="17">
<path d="M66.4236 534.84L66.7911 534.701L74.7495 531.699L74.7508 531.699L75.0759 531.575L75.4396 532.057L84.277 543.802L84.6837 544.343L84.3217 544.483L76.385 547.544L76.0588 547.67L75.6964 547.186L66.8302 535.38L66.4236 534.84Z" fill="white"/>
</mask>
<g mask="url(#mask82_1422_5293)">
<rect width="17.4387" height="18.9835" transform="matrix(0.130089 0.992223 -0.997565 0.0741246 84.0264 530.249)" fill="#D85A42" fill-opacity="0.35"/>
</g>
<mask id="mask83_1422_5293" style="mask-type:luminance" maskUnits="userSpaceOnUse" x="-17" y="242" width="18" height="14">
<path d="M-16.6603 244.25L-16.2265 244.157L-8.73117 242.521L-8.39932 242.449L-8.05244 242.899L-0.215382 253.045L-0.214051 253.045L0.239045 253.633L-0.190476 253.728L-7.66848 255.408L-7.99993 255.483L-8.34695 255.033L-16.2073 244.837L-16.2087 244.837L-16.6603 244.25Z" fill="white"/>
</mask>
<g mask="url(#mask83_1422_5293)">
<rect width="14.728" height="17.8379" transform="matrix(0.130348 0.992198 -0.997608 0.0737326 -0.454102 240.916)" fill="#D85A42" fill-opacity="0.35"/>
</g>
<mask id="mask84_1422_5293" style="mask-type:luminance" maskUnits="userSpaceOnUse" x="-17" y="299" width="19" height="15">
<path d="M-16.0737 301.852L-15.6519 301.749L-7.94662 299.848L-7.94529 299.848L-7.61462 299.767L-7.26742 300.22L0.800932 310.751L1.24166 311.326L0.82408 311.431L-6.86349 313.38L-7.1939 313.463L-7.54256 313.009L-15.6343 302.427L-15.6345 302.426L-16.0737 301.852Z" fill="white"/>
</mask>
<g mask="url(#mask84_1422_5293)">
<rect width="15.405" height="17.821" transform="matrix(0.130245 0.992207 -0.997588 0.073922 0.317383 298.335)" fill="#D85A42" fill-opacity="0.35"/>
</g>
<mask id="mask85_1422_5293" style="mask-type:luminance" maskUnits="userSpaceOnUse" x="-16" y="360" width="19" height="15">
<path d="M-15.4508 362.432L-15.0423 362.32L-7.11424 360.126L-6.78354 360.034L-6.43591 360.492L1.87425 371.431L2.30128 371.993L1.89703 372.107L-6.01026 374.352L-6.34202 374.446L-6.68965 373.988L-6.68979 373.987L-15.0252 362.993L-15.4508 362.432Z" fill="white"/>
</mask>
<g mask="url(#mask85_1422_5293)">
<rect width="15.8566" height="17.81" transform="matrix(0.130182 0.992214 -0.997577 0.0740183 1.22949 358.572)" fill="#D85A42" fill-opacity="0.35"/>
</g>
<mask id="mask86_1422_5293" style="mask-type:luminance" maskUnits="userSpaceOnUse" x="-15" y="423" width="19" height="16">
<path d="M-14.799 426.227L-14.4039 426.105L-6.24527 423.589L-6.24394 423.589L-5.91474 423.486L-5.56666 423.948L2.99725 435.323L3.41193 435.873L3.02097 435.996L-5.11764 438.568L-5.44807 438.672L-5.79626 438.208L-14.3859 426.775L-14.799 426.227Z" fill="white"/>
</mask>
<g mask="url(#mask86_1422_5293)">
<rect width="16.8743" height="19.1316" transform="matrix(0.130207 0.992211 -0.997581 0.0739852 2.6123 422.055)" fill="#D85A42" fill-opacity="0.35"/>
</g>
<mask id="mask87_1422_5293" style="mask-type:luminance" maskUnits="userSpaceOnUse" x="-15" y="490" width="20" height="17">
<path d="M-14.1201 493.498L-13.7394 493.368L-5.33687 490.495L-5.0063 490.382L-4.65916 490.849L4.17116 502.686L4.5736 503.224L4.19593 503.357L-4.1849 506.289L-4.51388 506.404L-4.86248 505.936L-13.7205 494.034L-14.1201 493.498Z" fill="white"/>
</mask>
<g mask="url(#mask87_1422_5293)">
<rect width="18.0036" height="19.1047" transform="matrix(0.130002 0.992231 -0.997556 0.0742055 3.62793 488.732)" fill="#D85A42" fill-opacity="0.35"/>
</g>
<mask id="mask88_1422_5293" style="mask-type:luminance" maskUnits="userSpaceOnUse" x="-14" y="561" width="20" height="17">
<path d="M-13.3917 564.538L-13.023 564.399L-4.36554 561.132L-4.03643 561.008L-3.68755 561.479L5.42352 573.815L5.81226 574.34L5.4464 574.481L-3.18617 577.811L-3.5163 577.937L-3.86389 577.466L-13.0044 565.062L-13.3917 564.538Z" fill="white"/>
</mask>
<g mask="url(#mask88_1422_5293)">
<rect width="19.1339" height="19.7509" transform="matrix(0.129915 0.99224 -0.997549 0.0742733 5.04883 559.226)" fill="#D85A42" fill-opacity="0.35"/>
</g>
</mask>
<g mask="url(#mask0_1422_5293)">
<rect opacity="0.4" x="0.00195312" y="7.43866e-05" width="468" height="566" fill="url(#paint0_linear_1422_5293)" fill-opacity="0.64"/>
</g>
<defs>
<linearGradient id="paint0_linear_1422_5293" x1="-23.666" y1="157.5" x2="-102.156" y2="156.586" gradientUnits="userSpaceOnUse">
<stop stop-color="white" stop-opacity="0.46"/>
<stop offset="1" stop-color="white" stop-opacity="0"/>
</linearGradient>
</defs>
</svg>
