<svg width="28" height="28" viewBox="0 0 28 28" fill="none" xmlns="http://www.w3.org/2000/svg">
<g clip-path="url(#clip0_1261_11240)">
<path d="M13.9999 0C6.28037 0 0 6.28037 0 13.9999C0 21.7195 6.28037 27.9999 13.9999 27.9999C21.7195 27.9999 27.9999 21.7196 27.9999 13.9999C27.9999 6.28031 21.7195 0 13.9999 0ZM13.9999 26.2499C7.24533 26.2499 1.75 20.7546 1.75 13.9999C1.75 7.24533 7.24533 1.75 13.9999 1.75C20.7546 1.75 26.2499 7.24527 26.2499 13.9999C26.2499 20.7546 20.7546 26.2499 13.9999 26.2499ZM21.7656 13.9999C21.7656 14.4832 21.3738 14.8749 20.8906 14.8749H14.8749V20.8906C14.8749 21.3738 14.4832 21.7656 13.9999 21.7656C13.5167 21.7656 13.1249 21.3738 13.1249 20.8906V14.8749H7.10932C6.6261 14.8749 6.23432 14.4832 6.23432 13.9999C6.23432 13.5167 6.6261 13.1249 7.10932 13.1249H13.1249V7.10932C13.1249 6.62605 13.5167 6.23432 13.9999 6.23432C14.4832 6.23432 14.8749 6.62605 14.8749 7.10932V13.1249H20.8906C21.3738 13.1249 21.7656 13.5167 21.7656 13.9999Z" fill="#061623" fill-opacity="0.6"/>
<circle cx="14" cy="14" r="9" fill="white"/>
<path d="M7 14H21" stroke="#6A737B" stroke-width="1.5" stroke-linecap="round"/>
</g>
<defs>
<clipPath id="clip0_1261_11240">
<rect width="28" height="28" fill="white"/>
</clipPath>
</defs>
</svg>
