<svg width="33" height="32" viewBox="0 0 33 32" fill="none" xmlns="http://www.w3.org/2000/svg">
<g id="mdi:linkedin">
<path id="Vector" d="M25.9998 4C26.7071 4 27.3854 4.28095 27.8855 4.78105C28.3856 5.28115 28.6665 5.95942 28.6665 6.66667V25.3333C28.6665 26.0406 28.3856 26.7189 27.8855 27.219C27.3854 27.719 26.7071 28 25.9998 28H7.33317C6.62593 28 5.94765 27.719 5.44755 27.219C4.94746 26.7189 4.6665 26.0406 4.6665 25.3333V6.66667C4.6665 5.95942 4.94746 5.28115 5.44755 4.78105C5.94765 4.28095 6.62593 4 7.33317 4H25.9998ZM25.3332 24.6667V17.6C25.3332 16.4472 24.8752 15.3416 24.0601 14.5264C23.2449 13.7113 22.1393 13.2533 20.9865 13.2533C19.8532 13.2533 18.5332 13.9467 17.8932 14.9867V13.5067H14.1732V24.6667H17.8932V18.0933C17.8932 17.0667 18.7198 16.2267 19.7465 16.2267C20.2416 16.2267 20.7164 16.4233 21.0664 16.7734C21.4165 17.1235 21.6132 17.5983 21.6132 18.0933V24.6667H25.3332ZM9.83984 11.4133C10.4339 11.4133 11.0037 11.1773 11.4238 10.7573C11.8438 10.3372 12.0798 9.76742 12.0798 9.17333C12.0798 7.93333 11.0798 6.92 9.83984 6.92C9.24222 6.92 8.66907 7.1574 8.24649 7.57999C7.82391 8.00257 7.5865 8.57571 7.5865 9.17333C7.5865 10.4133 8.59984 11.4133 9.83984 11.4133ZM11.6932 24.6667V13.5067H7.99984V24.6667H11.6932Z" fill="#ffffff"/>
</g>
</svg>
