<svg width="347" height="250" viewBox="0 0 347 250" fill="none" xmlns="http://www.w3.org/2000/svg">
<mask id="mask0_1416_541" style="mask-type:alpha" maskUnits="userSpaceOnUse" x="-81" y="0" width="428" height="291">
<path d="M108.635 50.8739L108.635 50.6108L153.989 51.7627L118.246 9.6154L72.6437 7.55868L108.817 50.7015L108.635 50.8739L108.453 51.0463L71.5068 6.98139L118.465 9.1005L155.115 52.3162L108.526 51.134L108.453 51.0463L108.635 50.8739Z" fill="#D85A42" fill-opacity="0.35"/>
<path d="M60.6446 49.6531L60.6448 49.391L108.076 50.5948L71.964 7.52536L24.2892 5.3744L60.8272 49.4817L60.6446 49.6531L60.462 49.8244L23.1623 4.79877L72.1856 7.01038L109.193 51.1487L60.5349 49.9132L60.462 49.8244L60.6446 49.6531Z" fill="#D85A42" fill-opacity="0.35"/>
<path d="M10.439 48.3809L10.4391 48.1178L60.0903 49.3785L23.6146 5.34552L-26.275 3.09537L10.6226 48.2106L10.439 48.3809L10.2553 48.5502L-27.3931 2.5194L23.8372 4.83051L61.1992 49.9316L10.3283 48.641L10.2553 48.5502L10.439 48.3809Z" fill="#D85A42" fill-opacity="0.35"/>
<path d="M-42.1405 47.0477L-42.1402 46.7857L9.89018 48.1054L-26.946 3.06675L-79.2068 0.708848L-41.9547 46.8783L-42.1405 47.0477L-42.3252 47.216L-80.313 0.133436L-26.7215 2.55165L10.9893 48.6589L-42.2521 47.3079L-42.3252 47.216L-42.1405 47.0477Z" fill="#D85A42" fill-opacity="0.35"/>
<path d="M145.892 95.3069L145.887 95.045L190.871 95.2504L154.446 52.2996L109.196 51.151L146.074 95.1345L145.892 95.3069L145.711 95.4792L108.078 50.5972L154.662 51.7796L191.978 95.7805L145.786 95.57L145.711 95.4792L145.892 95.3069Z" fill="#D85A42" fill-opacity="0.35"/>
<path d="M98.2851 95.0902L98.2804 94.8283L145.344 95.0425L108.528 51.1346L61.2018 49.9329L98.4677 94.9189L98.2851 95.0902L98.1016 95.2627L60.0929 49.3798L108.745 50.6145L146.441 95.573L98.1776 95.3534L98.1016 95.2627L98.2851 95.0902Z" fill="#D85A42" fill-opacity="0.35"/>
<path d="M48.455 94.8643L48.4502 94.6013L97.7382 94.8259L60.5357 49.9164L10.9891 48.6589L48.6386 94.6928L48.455 94.8643L48.2703 95.0336L9.89005 48.1054L60.7551 49.3962L98.8271 95.3567L48.3464 95.1253L48.2703 95.0336L48.455 94.8643Z" fill="#D85A42" fill-opacity="0.35"/>
<path d="M-3.7555 94.6238L-3.76023 94.3619L47.9132 94.5969L10.3272 48.6415L-41.5978 47.3229L-3.56977 94.4554L-3.7555 94.6238L-3.94018 94.7931L-42.6869 46.77L10.5485 48.1213L48.9932 95.127L-3.86504 94.886L-3.94018 94.7931L-3.7555 94.6238Z" fill="#D85A42" fill-opacity="0.35"/>
<path d="M183.863 140.594L183.853 140.331L228.444 139.554L191.317 95.7765L146.44 95.5721L184.044 140.422L183.863 140.594L183.68 140.767L145.342 95.0416L191.529 95.2524L229.53 140.061L183.757 140.859L183.68 140.767L183.863 140.594Z" fill="#D85A42" fill-opacity="0.35"/>
<path d="M136.66 141.416L136.651 141.154L183.323 140.34L145.784 95.5691L98.827 95.355L136.843 141.245L136.66 141.416L136.477 141.589L97.7381 94.8241L145.997 95.045L184.401 140.847L136.555 141.682L136.477 141.589L136.66 141.416Z" fill="#D85A42" fill-opacity="0.35"/>
<path d="M87.2363 142.278L87.2266 142.015L136.126 141.162L98.177 95.3516L48.9963 95.1259L87.4199 142.107L87.2363 142.278L87.0526 142.448L47.9163 94.5959L98.3921 94.8263L137.197 141.669L87.1298 142.543L87.0526 142.448L87.2363 142.278Z" fill="#D85A42" fill-opacity="0.35"/>
<path d="M35.426 143.181L35.4163 142.918L86.7056 142.024L48.3476 95.1234L-3.21646 94.8883L35.6108 143.013L35.426 143.181L35.2404 143.35L-4.28762 94.3579L48.5647 94.5991L87.7666 142.532L35.3176 143.446L35.2404 143.35L35.426 143.181Z" fill="#D85A42" fill-opacity="0.35"/>
<path d="M-18.95 144.128L-18.9597 143.867L34.8961 142.928L-3.86547 94.885L-57.9874 94.638L-18.7632 143.962L-18.95 144.128L-19.1358 144.297L-59.0487 94.1082L-3.64635 94.3607L35.9482 143.435L-19.0584 144.394L-19.1358 144.297L-18.95 144.128Z" fill="#D85A42" fill-opacity="0.35"/>
<path d="M222.57 186.76L222.556 186.497L266.731 184.699L228.884 140.072L184.402 140.848L222.753 186.588L222.57 186.76L222.389 186.932L183.324 140.341L229.091 139.543L267.796 185.181L222.468 187.027L222.389 186.932L222.57 186.76Z" fill="#D85A42" fill-opacity="0.35"/>
<path d="M175.801 188.664L175.786 188.401L222.042 186.519L183.758 140.859L137.198 141.67L175.984 188.493L175.801 188.664L175.619 188.836L136.127 141.163L183.968 140.33L223.101 187.001L175.698 188.932L175.619 188.836L175.801 188.664Z" fill="#D85A42" fill-opacity="0.35"/>
<path d="M126.802 190.657L126.787 190.395L175.274 188.421L136.554 141.681L87.7643 142.531L126.986 190.487L126.802 190.657L126.618 190.828L86.7032 142.023L136.765 141.151L176.323 188.905L126.697 190.925L126.618 190.828L126.802 190.657Z" fill="#D85A42" fill-opacity="0.35"/>
<path d="M75.418 192.75L75.4034 192.488L126.282 190.416L87.1289 142.543L35.9509 143.434L75.6037 192.581L75.418 192.75L75.2333 192.919L34.8988 142.928L87.3418 142.013L127.324 190.899L75.3127 193.018L75.2333 192.919L75.418 192.75Z" fill="#D85A42" fill-opacity="0.35"/>
<path d="M21.4669 194.946L21.4513 194.684L74.9031 192.508L35.318 143.445L-18.4246 144.382L21.6527 194.779L21.4669 194.946L21.2801 195.113L-19.4669 143.874L35.5339 142.916L75.9362 192.991L21.3606 195.213L21.2801 195.113L21.4669 194.946Z" fill="#D85A42" fill-opacity="0.35"/>
<path d="M-35.2532 197.256L-35.2689 196.994L20.9527 194.705L-19.0567 144.395L-75.5607 145.38L-35.0663 197.091L-35.2532 197.256L-35.441 197.422L-76.5932 144.872L-18.8388 143.865L21.976 195.19L-35.3615 197.525L-35.441 197.422L-35.2532 197.256Z" fill="#D85A42" fill-opacity="0.35"/>
<path d="M262.038 233.83L262.017 233.568L305.75 230.709L267.162 185.207L223.1 187.001L262.219 233.657L262.038 233.83L261.855 234.003L222.042 186.519L267.365 184.673L306.795 231.168L261.937 234.1L261.855 234.003L262.038 233.83Z" fill="#D85A42" fill-opacity="0.35"/>
<path d="M215.725 236.857L215.704 236.595L261.518 233.599L222.468 187.026L176.326 188.905L215.907 236.686L215.725 236.857L215.542 237.028L175.276 188.421L222.674 186.492L262.556 234.058L215.623 237.127L215.542 237.028L215.725 236.857Z" fill="#D85A42" fill-opacity="0.35"/>
<path d="M167.184 240.032L167.163 239.77L215.209 236.629L175.697 188.932L127.324 190.902L167.369 239.862L167.184 240.032L167 240.203L126.282 190.417L175.903 188.396L216.239 237.089L167.082 240.303L167 240.203L167.184 240.032Z" fill="#D85A42" fill-opacity="0.35"/>
<path d="M116.254 243.364L116.233 243.102L166.673 239.803L126.699 190.928L75.9354 192.994L116.438 243.196L116.254 243.364L116.069 243.533L74.9023 192.511L126.909 190.393L167.696 240.264L116.15 243.634L116.069 243.533L116.254 243.364Z" fill="#D85A42" fill-opacity="0.35"/>
<path d="M62.7476 246.862L62.7271 246.6L115.744 243.133L75.3104 193.02L21.9746 195.191L62.9334 246.695L62.7476 246.862L62.5609 247.03L20.9513 194.706L75.521 192.484L116.759 243.594L62.6435 247.133L62.5609 247.03L62.7476 246.862Z" fill="#D85A42" fill-opacity="0.35"/>
<path d="M6.47376 250.539L6.45322 250.277L62.2473 246.629L21.3594 195.214L-34.7451 197.498L6.66164 250.374L6.47376 250.539L6.28689 250.705L-35.7596 197.013L21.5721 194.679L63.2525 247.091L6.36863 250.811L6.28689 250.705L6.47376 250.539Z" fill="#D85A42" fill-opacity="0.35"/>
<path d="M302.284 281.832L302.257 281.57L345.523 277.607L306.173 231.208L262.556 234.06L302.466 281.659L302.284 281.832L302.102 282.004L261.518 233.601L306.372 230.667L346.549 278.042L302.187 282.105L302.102 282.004L302.284 281.832Z" fill="#D85A42" fill-opacity="0.35"/>
<path d="M256.458 286.029L256.431 285.768L301.776 281.614L261.938 234.1L216.241 237.089L256.64 285.859L256.458 286.029L256.275 286.201L215.21 236.63L262.138 233.561L302.794 282.05L256.36 286.303L256.275 286.201L256.458 286.029Z" fill="#D85A42" fill-opacity="0.35"/>
<path d="M208.404 290.43L208.377 290.168L255.952 285.811L215.624 237.128L167.697 240.262L208.588 290.26L208.404 290.43L208.22 290.601L166.674 239.802L215.826 236.588L256.963 286.247L208.304 290.703L208.22 290.601L208.404 290.43Z" fill="#D85A42" fill-opacity="0.35"/>
<path d="M122.504 14.2468L123.575 9.59258L114.219 4.47796L113.113 9.12091L122.504 14.2468Z" fill="#D85A42" fill-opacity="0.35"/>
<path d="M76.264 12.2659L77.5249 7.51688L67.8974 2.28666L66.6003 7.02345L76.264 12.2659Z" fill="#D85A42" fill-opacity="0.35"/>
<path d="M158.778 57.0191L159.73 52.1697L150.339 47.068L149.352 51.9062L158.778 57.0191Z" fill="#D85A42" fill-opacity="0.35"/>
<path d="M112.903 55.9628L114.043 51.0101L104.378 45.794L103.201 50.7345L112.903 55.9628Z" fill="#D85A42" fill-opacity="0.35"/>
<path d="M64.9547 54.8577L66.2979 49.7981L56.3432 44.4629L54.961 49.5103L64.9547 54.8577Z" fill="#D85A42" fill-opacity="0.35"/>
<path d="M14.792 53.7026L16.3566 48.5311L6.0964 43.0711L4.49077 48.2304L14.792 53.7026Z" fill="#D85A42" fill-opacity="0.35"/>
<path d="M195.727 100.589L196.556 95.5382L187.131 90.4527L186.267 95.4913L195.727 100.589Z" fill="#D85A42" fill-opacity="0.35"/>
<path d="M150.24 100.493L151.253 95.3303L141.552 90.1314L140.501 95.2806L150.24 100.493Z" fill="#D85A42" fill-opacity="0.35"/>
<path d="M102.678 100.397L103.893 95.1171L93.8997 89.7992L92.6449 95.0658L102.678 100.397Z" fill="#D85A42" fill-opacity="0.35"/>
<path d="M52.8954 100.291L54.3298 94.8894L44.0263 89.4468L42.5497 94.8358L52.8954 100.291Z" fill="#D85A42" fill-opacity="0.35"/>
<path d="M233.371 144.976L234.072 139.717L224.612 134.648L223.876 139.896L233.371 144.976Z" fill="#D85A42" fill-opacity="0.35"/>
<path d="M188.294 145.882L189.177 140.503L179.438 135.32L178.518 140.688L188.294 145.882Z" fill="#D85A42" fill-opacity="0.35"/>
<path d="M141.143 146.827L142.224 141.32L132.19 136.019L131.068 141.514L141.143 146.827Z" fill="#D85A42" fill-opacity="0.35"/>
<path d="M91.7634 147.817L93.0614 142.177L82.7146 136.754L81.3745 142.382L91.7634 147.817Z" fill="#D85A42" fill-opacity="0.35"/>
<path d="M40.0039 148.855L41.5385 143.075L30.8602 137.522L29.2806 143.289L40.0039 148.855Z" fill="#D85A42" fill-opacity="0.35"/>
<path d="M271.732 190.209L272.3 184.736L262.806 179.684L262.204 185.147L271.732 190.209Z" fill="#D85A42" fill-opacity="0.35"/>
<path d="M227.09 192.15L227.837 186.545L218.062 181.382L217.278 186.975L227.09 192.15Z" fill="#D85A42" fill-opacity="0.35"/>
<path d="M180.372 194.182L181.315 188.439L171.242 183.159L170.259 188.89L180.372 194.182Z" fill="#D85A42" fill-opacity="0.35"/>
<path d="M131.422 196.31L132.579 190.423L122.19 185.021L120.991 190.896L131.422 196.31Z" fill="#D85A42" fill-opacity="0.35"/>
<path d="M80.0907 198.543L81.4809 192.505L70.7555 186.973L69.3204 193L80.0907 198.543Z" fill="#D85A42" fill-opacity="0.35"/>
<path d="M26.1875 200.888L27.8329 194.689L16.7521 189.023L15.0588 195.208L26.1875 200.888Z" fill="#D85A42" fill-opacity="0.35"/>
<path d="M310.827 236.308L311.256 230.613L301.73 225.581L301.266 231.266L310.827 236.308Z" fill="#D85A42" fill-opacity="0.35"/>
<path d="M266.645 239.325L267.25 233.487L257.439 228.344L256.796 234.171L266.645 239.325Z" fill="#D85A42" fill-opacity="0.35"/>
<path d="M220.389 242.486L221.186 236.5L211.074 231.241L210.236 237.216L220.389 242.486Z" fill="#D85A42" fill-opacity="0.35"/>
<mask id="mask1_1416_541" style="mask-type:luminance" maskUnits="userSpaceOnUse" x="89" y="8" width="63" height="45">
<path d="M151.121 47.3562L122.578 14.2937L122.507 14.5906L121.892 14.2574L150.445 47.3309L150.509 47.026L151.121 47.3562ZM113.59 9.75976L113.063 9.47357L113.124 9.21921L95.7735 8.28089L89.5152 8.45713L113.59 9.75976Z" fill="white"/>
</mask>
<g mask="url(#mask1_1416_541)">
<rect width="60.8501" height="46.0844" transform="matrix(-1.00016 0.0227724 0.0579974 0.998393 149.513 6.67944)" fill="#D85A42" fill-opacity="0.35"/>
</g>
<mask id="mask2_1416_541" style="mask-type:luminance" maskUnits="userSpaceOnUse" x="27" y="10" width="79" height="41">
<path d="M105.145 46.0678L76.3901 12.5487L76.3106 12.8369L75.7085 12.514L94.7387 34.6967L104.473 46.0431L104.546 45.7479L105.145 46.0678Z" fill="white"/>
</mask>
<g mask="url(#mask2_1416_541)">
<rect width="76.4009" height="42.255" transform="matrix(-1.00009 0.024125 0.0578211 0.9984 103.712 8.68701)" fill="#D85A42" fill-opacity="0.35"/>
</g>
<mask id="mask3_1416_541" style="mask-type:luminance" maskUnits="userSpaceOnUse" x="-20" y="11" width="78" height="39">
<path d="M57.088 44.7534L28.766 11.3749L28.1339 11.3932L31.0192 14.7943L56.4199 44.7288L56.5004 44.4429L57.088 44.7534ZM5.94739 42.9024L-19.3027 12.764L-19.3037 12.7641L5.94739 42.9024ZM-3.4388 30.9309L-18.6736 12.7459L-18.6746 12.7459L-3.4388 30.9309Z" fill="white"/>
</mask>
<g mask="url(#mask3_1416_541)">
<rect width="75.9941" height="39.7657" transform="matrix(-1.00008 0.0243941 0.0577827 0.998402 56.1143 10.5305)" fill="#D85A42" fill-opacity="0.35"/>
</g>
<mask id="mask4_1416_541" style="mask-type:luminance" maskUnits="userSpaceOnUse" x="112" y="50" width="76" height="46">
<path d="M186.937 95.58L186.936 95.58L151.205 95.0742L186.937 95.58ZM187.919 90.7286L158.876 57.1724L158.815 57.4794L158.203 57.1504L187.255 90.7176L187.311 90.4047L187.919 90.7286ZM149.853 52.6685L149.342 52.3943L149.396 52.1389L113.346 50.899L113.859 51.1732L113.798 51.4278L149.853 52.6685Z" fill="white"/>
</mask>
<g mask="url(#mask4_1416_541)">
<rect width="74.5567" height="47.8092" transform="matrix(-1.00013 0.0234494 0.0579127 0.998397 186.339 48.4014)" fill="#D85A42" fill-opacity="0.35"/>
</g>
<mask id="mask5_1416_541" style="mask-type:luminance" maskUnits="userSpaceOnUse" x="64" y="49" width="79" height="47">
<path d="M136.526 95.2944L103.832 94.8326L103.832 94.8336L136.526 95.2944ZM140.734 94.8416L140.734 94.8405L103.393 94.314L140.734 94.8416ZM142.332 90.3957L132.111 78.4554L113.017 56.1501L112.946 56.448L112.347 56.1281L141.672 90.3837L141.735 90.0799L142.332 90.3957ZM94.4348 89.5969L64.8445 54.6133L64.8446 54.6143L94.4348 89.5959L94.4348 89.5969ZM103.711 51.5252L103.196 51.2502L103.259 50.9966L65.5982 49.7036L66.1156 49.9775L66.0461 50.2312L103.711 51.5252Z" fill="white"/>
</mask>
<g mask="url(#mask5_1416_541)">
<rect width="77.4193" height="48.8008" transform="matrix(-1.00012 0.0235243 0.0579029 0.998397 140.448 47.2024)" fill="#D85A42" fill-opacity="0.35"/>
</g>
<mask id="mask6_1416_541" style="mask-type:luminance" maskUnits="userSpaceOnUse" x="14" y="48" width="81" height="42">
<path d="M94.6592 89.9392L65.0845 55.0403L65.0061 55.3286L64.4194 55.0184L94.0026 89.9283L94.0757 89.6331L94.6592 89.9392ZM44.5474 89.1188L14.702 53.4486L14.702 53.4496L44.5473 89.1178L44.5474 89.1188ZM55.486 50.2989L54.9677 50.0258L55.0403 49.7725L15.6662 48.4333L16.1874 48.7064L16.1079 48.9599L55.486 50.2989Z" fill="white"/>
</mask>
<g mask="url(#mask6_1416_541)">
<rect width="79.3698" height="44.8076" transform="matrix(-1.0001 0.0240275 0.0578348 0.9984 93.082 46.0071)" fill="#D85A42" fill-opacity="0.35"/>
</g>
<mask id="mask7_1416_541" style="mask-type:luminance" maskUnits="userSpaceOnUse" x="-38" y="47" width="83" height="48">
<path d="M43.2452 94.9015L43.2441 94.9005L3.97015 94.3475L43.2452 94.9015ZM44.794 89.6902L14.9342 53.9414L14.8473 54.2212L14.2728 53.9201L36.6157 80.6698L44.1412 89.68L44.2227 89.3921L44.794 89.6902ZM5.01753 49.055L4.49606 48.7802L4.57747 48.5262L-36.6559 47.1118L-36.1306 47.3854L-36.2199 47.6386L-31.4493 47.8025L5.01753 49.055Z" fill="white"/>
</mask>
<g mask="url(#mask7_1416_541)">
<rect width="81.668" height="51.1236" transform="matrix(-1.00012 0.0235548 0.0578988 0.998397 42.8516 44.5955)" fill="#D85A42" fill-opacity="0.35"/>
</g>
<mask id="mask8_1416_541" style="mask-type:luminance" maskUnits="userSpaceOnUse" x="149" y="95" width="77" height="46">
<path d="M225.401 134.926L195.82 100.752L195.766 101.069L195.158 100.744L224.749 134.929L224.795 134.605L225.401 134.926ZM179.994 135.131L150.119 100.224L179.994 135.13L179.994 135.131ZM179.345 135.133L149.462 100.217L149.461 100.217L179.345 135.133ZM186.753 96.2626L186.26 95.9991L186.304 95.743L168.006 95.4844L150.578 95.238L151.075 95.5013L151.023 95.7576L186.753 96.2626Z" fill="white"/>
</mask>
<g mask="url(#mask8_1416_541)">
<rect width="75.542" height="47.7915" transform="matrix(-1.00012 0.0235083 0.0579049 0.998397 223.903 92.9351)" fill="#D85A42" fill-opacity="0.35"/>
</g>
<mask id="mask9_1416_541" style="mask-type:luminance" maskUnits="userSpaceOnUse" x="103" y="95" width="78" height="47">
<path d="M178.749 140.249L141.744 140.515L141.745 140.515L178.749 140.249ZM180.222 135.585L150.345 100.669L150.282 100.977L149.687 100.662L179.573 135.588L179.629 135.273L180.222 135.585ZM140.992 96.0562L140.495 95.7918L140.548 95.5374L103.204 95.0074L103.704 95.2706L103.644 95.5262L136.34 95.9902L140.992 96.0562Z" fill="white"/>
</mask>
<g mask="url(#mask9_1416_541)">
<rect width="76.0399" height="48.8256" transform="matrix(-1.00013 0.0234436 0.0579134 0.998397 178.458 92.6274)" fill="#D85A42" fill-opacity="0.35"/>
</g>
<mask id="mask10_1416_541" style="mask-type:luminance" maskUnits="userSpaceOnUse" x="52" y="94" width="81" height="48">
<path d="M132.962 136.277L102.797 100.617L102.726 100.915L102.142 100.608L116.666 117.778L132.317 136.28L132.382 135.973L132.962 136.277ZM82.5953 136.506L82.5953 136.505L52.1318 100.033L82.5953 136.506ZM93.1458 95.8787L92.6437 95.6146L92.7063 95.3591L53.6383 94.8084L54.1432 95.0714L54.0728 95.3271L93.1458 95.8787Z" fill="white"/>
</mask>
<g mask="url(#mask10_1416_541)">
<rect width="80.2818" height="49.7926" transform="matrix(-1.00012 0.0235958 0.0578934 0.998397 131.158 92.5581)" fill="#D85A42" fill-opacity="0.35"/>
</g>
<mask id="mask11_1416_541" style="mask-type:luminance" maskUnits="userSpaceOnUse" x="-1" y="94" width="85" height="49">
<path d="M81.6287 141.919L41.0443 142.215L41.0453 142.215L81.6287 141.919ZM83.4808 136.993L53.0279 100.544L52.9486 100.835L52.3783 100.538L82.8387 136.995L82.9117 136.698L83.4808 136.993ZM31.3644 137.233L0.624598 99.9425L31.3634 137.233L31.3644 137.233ZM43.0585 95.6753L42.5536 95.4124L42.626 95.1578L1.70969 94.583L2.21757 94.8458L2.13719 95.1007L3.78719 95.1244L43.0585 95.6753Z" fill="white"/>
</mask>
<g mask="url(#mask11_1416_541)">
<rect width="82.6513" height="50.6891" transform="matrix(-1.00012 0.0236447 0.0578911 0.998397 81.4648 92.0332)" fill="#D85A42" fill-opacity="0.35"/>
</g>
<mask id="mask12_1416_541" style="mask-type:luminance" maskUnits="userSpaceOnUse" x="188" y="140" width="76" height="46">
<path d="M263.586 179.951L233.449 145.136L233.405 145.462L232.8 145.143L262.947 179.968L262.984 179.634L263.586 179.951ZM224.341 140.663L223.863 140.41L223.9 140.152L188.513 140.409L188.994 140.662L188.951 140.919L209.853 140.767L224.341 140.663Z" fill="white"/>
</mask>
<g mask="url(#mask12_1416_541)">
<rect width="74.6532" height="47.3902" transform="matrix(-1.00012 0.0234933 0.0579069 0.998397 261.88 137.839)" fill="#D85A42" fill-opacity="0.35"/>
</g>
<mask id="mask13_1416_541" style="mask-type:luminance" maskUnits="userSpaceOnUse" x="140" y="140" width="79" height="49">
<path d="M181.278 188.128L217.926 187.033L181.278 188.127L181.278 188.128ZM218.838 181.646L204.03 164.346L188.39 146.074L188.336 146.392L187.744 146.08L202.82 163.694L218.201 181.663L218.249 181.338L218.838 181.646ZM178.993 141.48L178.512 141.227L178.557 140.97L141.555 141.238L142.039 141.491L141.986 141.748L178.993 141.48Z" fill="white"/>
</mask>
<g mask="url(#mask13_1416_541)">
<rect width="77.914" height="49.2091" transform="matrix(-1.00012 0.0235157 0.057904 0.998397 216.998 138.714)" fill="#D85A42" fill-opacity="0.35"/>
</g>
<mask id="mask14_1416_541" style="mask-type:luminance" maskUnits="userSpaceOnUse" x="91" y="141" width="82" height="49">
<path d="M172.008 183.411L152.976 160.913L141.25 147.052L141.187 147.361L140.607 147.058L171.375 183.429L171.431 183.112L172.008 183.411ZM131.549 142.331L131.064 142.078L131.118 141.82L92.3868 142.103L92.8743 142.355L92.8129 142.612L131.549 142.331Z" fill="white"/>
</mask>
<g mask="url(#mask14_1416_541)">
<rect width="79.7887" height="49.6971" transform="matrix(-1.00012 0.023577 0.0578959 0.998397 170.139 139.542)" fill="#D85A42" fill-opacity="0.35"/>
</g>
<mask id="mask15_1416_541" style="mask-type:luminance" maskUnits="userSpaceOnUse" x="39" y="142" width="84" height="45">
<path d="M122.935 185.135L119.165 180.632L91.8857 148.045L91.8138 148.344L91.246 148.051L122.304 185.152L122.37 184.845L122.935 185.135ZM50.2471 161.88L39.2674 148.587L39.2674 148.586L50.2471 161.88ZM81.8682 143.208L81.3799 142.956L81.4434 142.699L40.874 143.007L41.3652 143.26L41.2938 143.516L81.8682 143.208Z" fill="white"/>
</mask>
<g mask="url(#mask15_1416_541)">
<rect width="83.1165" height="45.266" transform="matrix(-1.00009 0.0241978 0.057815 0.998401 121.011 140.426)" fill="#D85A42" fill-opacity="0.35"/>
</g>
<mask id="mask16_1416_541" style="mask-type:luminance" maskUnits="userSpaceOnUse" x="-15" y="143" width="87" height="52">
<path d="M27.7626 194.304L69.9958 193.04L27.7626 194.303L27.7626 194.304ZM71.5142 187.214L40.1383 149.147L40.059 149.439L39.5033 149.154L50.4895 162.482L70.8878 187.231L70.9607 186.932L71.5142 187.214ZM29.7767 144.156L29.2842 143.903L29.3566 143.647L17.9133 143.73L-13.2213 143.957L-12.7258 144.209L-12.806 144.466L29.7767 144.156Z" fill="white"/>
</mask>
<g mask="url(#mask16_1416_541)">
<rect width="85.0233" height="52.1068" transform="matrix(-1.00012 0.0236479 0.0578906 0.998397 69.543 141.597)" fill="#D85A42" fill-opacity="0.35"/>
</g>
<mask id="mask17_1416_541" style="mask-type:luminance" maskUnits="userSpaceOnUse" x="-72" y="144" width="90" height="53">
<path d="M17.5004 189.256L8.16698 177.771L-14.1764 150.275L-14.2651 150.558L-14.8084 150.281L-6.98261 159.912L16.8769 189.273L16.9593 188.983L17.5004 189.256ZM-24.8992 145.14L-25.3956 144.887L-25.3134 144.63L-66.6472 144.933L-70.0332 144.958L-69.5337 145.211L-69.6239 145.467L-58.0872 145.383L-24.8992 145.14Z" fill="white"/>
</mask>
<g mask="url(#mask17_1416_541)">
<rect width="88.381" height="53.6114" transform="matrix(-1.00011 0.0236954 0.0578802 0.998398 15.6768 142.196)" fill="#D85A42" fill-opacity="0.35"/>
</g>
<mask id="mask18_1416_541" style="mask-type:luminance" maskUnits="userSpaceOnUse" x="226" y="185" width="77" height="47">
<path d="M257.991 228.115L253.312 222.647L257.991 228.114L257.991 228.115ZM301.884 225.886L301.912 225.542L302.51 225.855L271.802 190.38L271.766 190.717L271.165 190.401L301.884 225.886ZM227.62 186.97L262.653 185.924L262.191 185.681L262.22 185.424L227.191 186.469L227.656 186.712L227.62 186.97Z" fill="white"/>
</mask>
<g mask="url(#mask18_1416_541)">
<rect width="75.5446" height="48.3129" transform="matrix(-1.00013 0.023461 0.0579112 0.998397 300.805 183.794)" fill="#D85A42" fill-opacity="0.35"/>
</g>
<mask id="mask19_1416_541" style="mask-type:luminance" maskUnits="userSpaceOnUse" x="179" y="187" width="80" height="50">
<path d="M257.593 228.667L257.631 228.331L258.217 228.635L253.538 223.167L227.175 192.359L227.13 192.687L226.541 192.38L257.593 228.667ZM181.084 188.873L217.734 187.78L217.269 187.538L217.305 187.28L180.659 188.372L181.127 188.615L181.084 188.873Z" fill="white"/>
</mask>
<g mask="url(#mask19_1416_541)">
<rect width="77.9172" height="49.8349" transform="matrix(-1.00013 0.0234606 0.0579112 0.998397 256.492 186.113)" fill="#D85A42" fill-opacity="0.35"/>
</g>
<mask id="mask20_1416_541" style="mask-type:luminance" maskUnits="userSpaceOnUse" x="130" y="189" width="82" height="51">
<path d="M211.219 231.554L211.267 231.227L211.84 231.522L180.467 194.423L180.413 194.742L179.836 194.443L181.921 196.909L211.219 231.554ZM151.13 220.564L130.664 196.052L130.663 196.052L151.13 220.564ZM132.337 190.865L170.719 189.719L170.25 189.476L170.295 189.218L131.918 190.363L132.389 190.605L132.337 190.865Z" fill="white"/>
</mask>
<g mask="url(#mask20_1416_541)">
<rect width="80.7792" height="50.7223" transform="matrix(-1.00012 0.0235399 0.057905 0.998397 210.286 187.982)" fill="#D85A42" fill-opacity="0.35"/>
</g>
<mask id="mask21_1416_541" style="mask-type:luminance" maskUnits="userSpaceOnUse" x="79" y="191" width="85" height="51">
<path d="M111.38 237.167L79.3405 198.291L79.3395 198.291L111.38 237.167ZM162.619 234.563L162.676 234.245L163.238 234.532L131.536 196.581L131.473 196.891L130.909 196.601L151.372 221.1L162.619 234.563ZM81.2273 192.951L121.464 191.748L120.991 191.506L121.045 191.248L80.8126 192.45L81.2887 192.693L81.2273 192.951Z" fill="white"/>
</mask>
<g mask="url(#mask21_1416_541)">
<rect width="83.5406" height="51.1947" transform="matrix(-1.00012 0.0236482 0.0578906 0.998397 161.616 189.936)" fill="#D85A42" fill-opacity="0.35"/>
</g>
<mask id="mask22_1416_541" style="mask-type:luminance" maskUnits="userSpaceOnUse" x="27" y="193" width="86" height="53">
<path d="M111.633 237.753L111.698 237.444L112.248 237.722L80.2118 198.832L80.14 199.133L79.5884 198.852L111.633 237.753ZM27.5555 195.118L69.7935 193.858L69.3165 193.616L69.3808 193.357L27.4619 194.607L27.1467 194.616L27.6258 194.86L27.5555 195.118Z" fill="white"/>
</mask>
<g mask="url(#mask22_1416_541)">
<rect width="84.0432" height="53.1669" transform="matrix(-1.00012 0.0235071 0.0579092 0.998397 110.194 191.979)" fill="#D85A42" fill-opacity="0.35"/>
</g>
<mask id="mask23_1416_541" style="mask-type:luminance" maskUnits="userSpaceOnUse" x="265" y="231" width="78" height="50">
<path d="M316.077 280.386L341.704 278.356L341.704 278.356L316.077 280.386ZM298.145 276.01L266.488 238.996L298.144 276.01L298.145 276.01ZM341.573 272.71L341.593 272.355L342.187 272.663L310.884 236.473L310.856 236.821L310.259 236.508L341.573 272.71ZM267.032 233.896L301.694 232.033L301.247 231.799L301.268 231.54L285.538 232.386L266.61 233.403L267.06 233.636L267.032 233.896Z" fill="white"/>
</mask>
<g mask="url(#mask23_1416_541)">
<rect width="75.5552" height="50.3998" transform="matrix(-1.00013 0.0232805 0.0579344 0.998396 340.348 230.252)" fill="#D85A42" fill-opacity="0.35"/>
</g>
<mask id="mask24_1416_541" style="mask-type:luminance" maskUnits="userSpaceOnUse" x="220" y="234" width="79" height="52">
<path d="M261.438 284.75L297.316 281.908L297.316 281.907L261.438 284.75ZM251.634 280.095L251.634 280.094L243.016 269.894L251.634 280.095ZM297.762 276.59L297.791 276.242L298.372 276.543L266.715 239.522L266.679 239.86L266.094 239.556L285.906 262.726L297.762 276.59ZM220.951 236.908L254.3 235.117L257.23 234.96L256.779 234.725L256.809 234.466L246.293 235.031L220.533 236.416L220.986 236.649L220.951 236.908Z" fill="white"/>
</mask>
<g mask="url(#mask24_1416_541)">
<rect width="77.4346" height="51.8265" transform="matrix(-1.00014 0.023265 0.0579405 0.998395 296.46 233.071)" fill="#D85A42" fill-opacity="0.35"/>
</g>
<mask id="mask25_1416_541" style="mask-type:luminance" maskUnits="userSpaceOnUse" x="171" y="237" width="82" height="48">
<path d="M251.857 280.519L251.896 280.182L252.465 280.473L220.475 242.693L220.43 243.023L219.857 242.728L243.245 270.348L251.857 280.519ZM172.688 240.07L199.192 238.641L210.683 238.02L210.23 237.788L210.268 237.529L172.276 239.578L172.732 239.811L172.688 240.07Z" fill="white"/>
</mask>
<g mask="url(#mask25_1416_541)">
<rect width="80.764" height="47.6997" transform="matrix(-1.00011 0.0238171 0.0578638 0.998398 250.797 235.935)" fill="#D85A42" fill-opacity="0.35"/>
</g>
<mask id="mask26_1416_541" style="mask-type:luminance" maskUnits="userSpaceOnUse" x="113" y="7" width="11" height="8">
<path d="M122.522 14.2081L122.593 13.912L123.599 9.67112L119.142 7.25966L113.495 7.4201L113.143 8.85339L113.081 9.10712L113.608 9.39242L121.907 13.8759L122.522 14.2081Z" fill="white"/>
</mask>
<g mask="url(#mask26_1416_541)">
<rect width="11.987" height="8.35715" transform="matrix(-1.00014 0.0231652 0.0578306 0.9984 124.395 6.66626)" fill="#D85A42" fill-opacity="0.35"/>
</g>
<mask id="mask27_1416_541" style="mask-type:luminance" maskUnits="userSpaceOnUse" x="70" y="8" width="8" height="5">
<path d="M76.2688 12.2432L76.3483 11.956L77.1892 8.90905L70.385 9.10709L75.6667 11.9217L76.2688 12.2432Z" fill="white"/>
</mask>
<g mask="url(#mask27_1416_541)">
<rect width="8.61697" height="4.45518" transform="matrix(-1.00007 0.0245186 0.0576494 0.998407 78.0732 8.41089)" fill="#D85A42" fill-opacity="0.35"/>
</g>
<mask id="mask28_1416_541" style="mask-type:luminance" maskUnits="userSpaceOnUse" x="149" y="47" width="11" height="10">
<path d="M158.807 56.981L158.868 56.6719L159.763 52.223L150.918 47.4388L150.305 47.1072L150.242 47.4132L149.368 51.5967L149.314 51.8538L149.826 52.1303L158.194 56.6493L158.807 56.981Z" fill="white"/>
</mask>
<g mask="url(#mask28_1416_541)">
<rect width="11.904" height="11.3945" transform="matrix(-1.0002 0.0220563 0.0579586 0.998395 160.109 46.2153)" fill="#D85A42" fill-opacity="0.35"/>
</g>
<mask id="mask29_1416_541" style="mask-type:luminance" maskUnits="userSpaceOnUse" x="103" y="45" width="12" height="11">
<path d="M112.936 55.9193L113.007 55.6194L114.02 51.3196L114.081 51.0634L113.567 50.787L104.95 46.1578L104.349 45.8342L104.276 46.1321L103.229 50.4225L103.166 50.6777L103.682 50.9551L112.335 55.5967L112.936 55.9193Z" fill="white"/>
</mask>
<g mask="url(#mask29_1416_541)">
<rect width="12.4979" height="11.9055" transform="matrix(-1.0002 0.0220704 0.0579571 0.998395 114.714 44.9617)" fill="#D85A42" fill-opacity="0.35"/>
</g>
<mask id="mask30_1416_541" style="mask-type:luminance" maskUnits="userSpaceOnUse" x="54" y="44" width="13" height="11">
<path d="M64.9861 54.8117L65.0645 54.5209L65.0645 54.5199L66.2663 50.1098L66.3359 49.8544L65.8174 49.5783L56.9025 44.8218L56.3134 44.5073L56.2329 44.796L54.9968 49.1968L54.9242 49.4522L55.4437 49.7283L64.398 54.4982L64.9861 54.8117Z" fill="white"/>
</mask>
<g mask="url(#mask30_1416_541)">
<rect width="12.9923" height="12.4192" transform="matrix(-1.0002 0.0220606 0.0579582 0.998395 66.8271 43.2803)" fill="#D85A42" fill-opacity="0.35"/>
</g>
<mask id="mask31_1416_541" style="mask-type:luminance" maskUnits="userSpaceOnUse" x="186" y="90" width="11" height="11">
<path d="M195.753 100.553L195.807 100.234L196.586 95.5937L187.702 90.8179L187.092 90.4912L187.037 90.8064L186.27 95.18L186.225 95.4379L186.72 95.7037L186.721 95.7037L195.144 100.225L195.753 100.553Z" fill="white"/>
</mask>
<g mask="url(#mask31_1416_541)">
<rect width="12.003" height="11.392" transform="matrix(-1.0002 0.0220809 0.057956 0.998395 197.121 89.7065)" fill="#D85A42" fill-opacity="0.35"/>
</g>
<mask id="mask32_1416_541" style="mask-type:luminance" maskUnits="userSpaceOnUse" x="140" y="90" width="12" height="11">
<path d="M150.271 100.452L150.334 100.142L151.237 95.6452L151.289 95.3871L150.792 95.1216L142.117 90.4908L141.519 90.1721L141.455 90.4782L140.517 94.9669L140.517 94.9679L140.463 95.224L140.962 95.4906L149.674 100.135L149.675 100.135L150.271 100.452Z" fill="white"/>
</mask>
<g mask="url(#mask32_1416_541)">
<rect width="12.4998" height="12.4301" transform="matrix(-1.0002 0.0219489 0.05797 0.998394 151.655 88.9795)" fill="#D85A42" fill-opacity="0.35"/>
</g>
<mask id="mask33_1416_541" style="mask-type:luminance" maskUnits="userSpaceOnUse" x="92" y="89" width="12" height="12">
<path d="M102.708 100.349L102.779 100.048L103.868 95.43L103.868 95.429L103.929 95.1718L103.427 94.9064L94.4509 90.1494L94.4508 90.1484L93.8659 89.8388L93.7928 90.1367L92.6676 94.745L92.6051 95.0023L93.1082 95.2686L102.123 100.039L102.708 100.349Z" fill="white"/>
</mask>
<g mask="url(#mask33_1416_541)">
<rect width="12.9917" height="12.3144" transform="matrix(-1.0002 0.0220852 0.0579556 0.998395 104.343 88.8508)" fill="#D85A42" fill-opacity="0.35"/>
</g>
<mask id="mask34_1416_541" style="mask-type:luminance" maskUnits="userSpaceOnUse" x="42" y="89" width="13" height="12">
<path d="M52.9289 100.244L53.0082 99.9514L54.3001 95.2087L54.3705 94.9512L53.8646 94.6861L44.5691 89.7963L44.5691 89.7952L43.9966 89.4947L43.9151 89.7845L42.5851 94.518L42.5126 94.7744L43.0186 95.0395L43.0196 95.0405L52.3575 99.9447L52.9289 100.244Z" fill="white"/>
</mask>
<g mask="url(#mask34_1416_541)">
<rect width="13.3854" height="12.4116" transform="matrix(-1.00019 0.0221513 0.0579485 0.998395 54.6709 88.7053)" fill="#D85A42" fill-opacity="0.35"/>
</g>
<mask id="mask35_1416_541" style="mask-type:luminance" maskUnits="userSpaceOnUse" x="223" y="134" width="12" height="11">
<path d="M233.404 144.939L233.449 144.611L234.107 139.773L225.184 135.007L224.577 134.683L224.53 135.01L223.876 139.58L223.839 139.84L224.318 140.095L232.798 144.617L233.404 144.939Z" fill="white"/>
</mask>
<g mask="url(#mask35_1416_541)">
<rect width="12.0054" height="11.9165" transform="matrix(-1.0002 0.0219537 0.0579694 0.998394 234.557 133.702)" fill="#D85A42" fill-opacity="0.35"/>
</g>
<mask id="mask36_1416_541" style="mask-type:luminance" maskUnits="userSpaceOnUse" x="178" y="135" width="12" height="11">
<path d="M188.328 145.845L188.382 145.524L189.171 140.822L189.215 140.563L188.732 140.307L180 135.677L180 135.676L179.406 135.361L179.35 135.678L178.527 140.372L178.482 140.631L178.964 140.887L187.735 145.53L188.328 145.845Z" fill="white"/>
</mask>
<g mask="url(#mask36_1416_541)">
<rect width="12.4985" height="11.9052" transform="matrix(-1.0002 0.0220704 0.0579571 0.998395 189.664 134.427)" fill="#D85A42" fill-opacity="0.35"/>
</g>
<mask id="mask37_1416_541" style="mask-type:luminance" maskUnits="userSpaceOnUse" x="131" y="136" width="12" height="11">
<path d="M141.171 146.787L141.234 146.475L142.204 141.642L142.257 141.383L141.772 141.127L141.771 141.127L132.734 136.371L132.152 136.064L132.088 136.373L131.08 141.196L131.025 141.455L131.512 141.711L140.59 146.481L141.171 146.787Z" fill="white"/>
</mask>
<g mask="url(#mask37_1416_541)">
<rect width="12.9917" height="12.3144" transform="matrix(-1.0002 0.0220852 0.0579556 0.998395 142.899 135.33)" fill="#D85A42" fill-opacity="0.35"/>
</g>
<mask id="mask38_1416_541" style="mask-type:luminance" maskUnits="userSpaceOnUse" x="81" y="136" width="13" height="12">
<path d="M91.7965 147.771L91.8684 147.469L93.0393 142.5L93.1008 142.241L92.6122 141.986L83.2522 137.098L82.6818 136.8L82.6088 137.099L82.6088 137.1L81.3987 142.059L81.3352 142.318L81.8248 142.573L91.2272 147.474L91.7965 147.771Z" fill="white"/>
</mask>
<g mask="url(#mask38_1416_541)">
<rect width="13.4883" height="12.9323" transform="matrix(-1.0002 0.0220517 0.0579592 0.998395 93.75 135.694)" fill="#D85A42" fill-opacity="0.35"/>
</g>
<mask id="mask39_1416_541" style="mask-type:luminance" maskUnits="userSpaceOnUse" x="29" y="137" width="13" height="12">
<path d="M40.0337 148.805L40.1129 148.512L41.5046 143.401L41.576 143.142L41.0835 142.887L41.0825 142.887L31.3826 137.862L31.3816 137.862L30.8247 137.573L30.7423 137.864L29.3094 142.964L29.237 143.223L29.7305 143.478L39.4768 148.517L39.4769 148.518L40.0337 148.805Z" fill="white"/>
</mask>
<g mask="url(#mask39_1416_541)">
<rect width="13.4877" height="12.8275" transform="matrix(-1.0002 0.0220752 0.0579566 0.998395 41.7793 136.788)" fill="#D85A42" fill-opacity="0.35"/>
</g>
<mask id="mask40_1416_541" style="mask-type:luminance" maskUnits="userSpaceOnUse" x="262" y="179" width="11" height="12">
<path d="M271.766 190.178L271.802 189.838L272.335 184.796L263.373 180.041L262.769 179.721L262.732 180.058L262.195 184.832L262.166 185.092L262.629 185.337L271.163 189.859L271.766 190.178Z" fill="white"/>
</mask>
<g mask="url(#mask40_1416_541)">
<rect width="11.5158" height="12.4521" transform="matrix(-1.00021 0.0217328 0.0579918 0.998393 272.536 178.624)" fill="#D85A42" fill-opacity="0.35"/>
</g>
<mask id="mask41_1416_541" style="mask-type:luminance" maskUnits="userSpaceOnUse" x="217" y="181" width="11" height="12">
<path d="M227.126 192.112L227.17 191.781L227.839 186.865L227.875 186.605L227.409 186.36L218.618 181.73L218.028 181.419L217.98 181.747L217.277 186.655L217.241 186.915L217.707 187.16L226.536 191.802L227.126 192.112Z" fill="white"/>
</mask>
<g mask="url(#mask41_1416_541)">
<rect width="12.0072" height="12.4412" transform="matrix(-1.00021 0.0218394 0.0579812 0.998394 228.192 180.373)" fill="#D85A42" fill-opacity="0.35"/>
</g>
<mask id="mask42_1416_541" style="mask-type:luminance" maskUnits="userSpaceOnUse" x="170" y="183" width="12" height="12">
<path d="M180.407 194.142L180.461 193.82L181.31 188.764L181.31 188.763L181.354 188.503L180.884 188.258L171.785 183.503L171.208 183.201L171.152 183.52L170.267 188.568L170.221 188.828L170.691 189.073L179.83 193.84L180.407 194.142Z" fill="white"/>
</mask>
<g mask="url(#mask42_1416_541)">
<rect width="12.8944" height="12.421" transform="matrix(-1.0002 0.0220381 0.0579606 0.998395 181.883 182.21)" fill="#D85A42" fill-opacity="0.35"/>
</g>
<mask id="mask43_1416_541" style="mask-type:luminance" maskUnits="userSpaceOnUse" x="120" y="185" width="13" height="12">
<path d="M131.459 196.264L131.523 195.952L132.568 190.749L132.621 190.487L132.148 190.243L122.724 185.358L122.157 185.064L122.092 185.375L121.007 190.569L120.954 190.829L121.427 191.073L130.893 195.972L130.894 195.971L131.459 196.264Z" fill="white"/>
</mask>
<g mask="url(#mask43_1416_541)">
<rect width="12.8982" height="12.9445" transform="matrix(-1.0002 0.0219233 0.0579726 0.998394 132.812 184.138)" fill="#D85A42" fill-opacity="0.35"/>
</g>
<mask id="mask44_1416_541" style="mask-type:luminance" maskUnits="userSpaceOnUse" x="69" y="187" width="13" height="12">
<path d="M80.125 198.492L80.1968 198.189L81.4605 192.831L81.5218 192.571L81.0447 192.325L71.2761 187.304L70.7213 187.02L70.6484 187.321L69.3435 192.668L69.2792 192.929L69.7572 193.173L79.5713 198.208L79.5723 198.208L80.125 198.492Z" fill="white"/>
</mask>
<g mask="url(#mask44_1416_541)">
<rect width="13.8823" height="12.9237" transform="matrix(-1.00019 0.0221387 0.0579499 0.998395 81.8809 186.159)" fill="#D85A42" fill-opacity="0.35"/>
</g>
<mask id="mask45_1416_541" style="mask-type:luminance" maskUnits="userSpaceOnUse" x="15" y="189" width="13" height="12">
<path d="M26.2222 200.836L26.3024 200.541L27.8055 195.022L27.8055 195.021L27.8758 194.762L27.3958 194.517L17.2613 189.353L16.719 189.077L16.6366 189.369L15.0903 194.876L15.017 195.137L15.4981 195.382L25.681 200.56L26.2222 200.836Z" fill="white"/>
</mask>
<g mask="url(#mask45_1416_541)">
<rect width="14.3799" height="13.8562" transform="matrix(-1.0002 0.0220373 0.0579606 0.998395 28.0723 187.871)" fill="#D85A42" fill-opacity="0.35"/>
</g>
<mask id="mask46_1416_541" style="mask-type:luminance" maskUnits="userSpaceOnUse" x="301" y="225" width="11" height="12">
<path d="M310.862 236.274L310.89 235.924L311.291 230.67L302.291 225.929L301.692 225.613L301.663 225.96L301.249 230.945L301.228 231.206L301.676 231.442L310.264 235.959L310.862 236.274Z" fill="white"/>
</mask>
<g mask="url(#mask46_1416_541)">
<rect width="11.5152" height="12.3472" transform="matrix(-1.00021 0.0217532 0.0579899 0.998394 311.562 224.658)" fill="#D85A42" fill-opacity="0.35"/>
</g>
<mask id="mask47_1416_541" style="mask-type:luminance" maskUnits="userSpaceOnUse" x="256" y="228" width="12" height="12">
<path d="M266.681 239.291L266.717 238.95L267.26 233.812L267.288 233.55L266.837 233.315L257.99 228.69L257.989 228.689L257.402 228.382L257.364 228.721L256.787 233.85L256.758 234.111L257.21 234.347L266.095 238.984L266.681 239.291Z" fill="white"/>
</mask>
<g mask="url(#mask47_1416_541)">
<rect width="12.0117" height="12.9648" transform="matrix(-1.00021 0.0217369 0.0579916 0.998393 267.664 227.341)" fill="#D85A42" fill-opacity="0.35"/>
</g>
<mask id="mask48_1416_541" style="mask-type:luminance" maskUnits="userSpaceOnUse" x="207" y="243" width="12" height="12">
<path d="M217.608 254.936L217.653 254.604L218.372 249.315L218.408 249.054L217.954 248.819L208.795 244.068L208.221 243.77L208.173 244.1L207.417 249.38L207.38 249.641L207.834 249.876L217.034 254.638L217.608 254.936Z" fill="white"/>
</mask>
<g mask="url(#mask48_1416_541)">
<rect width="12.503" height="12.849" transform="matrix(-1.00021 0.0218604 0.0579792 0.998394 218.693 242.704)" fill="#D85A42" fill-opacity="0.35"/>
</g>
</mask>
<g mask="url(#mask0_1416_541)">
<path d="M416.266 249.085C420.584 250.058 424.87 247.36 425.841 243.058L476.162 19.9169C477.133 15.6149 474.419 11.3381 470.101 10.3643L70.5379 -79.7433C66.2201 -80.7171 61.9333 -78.019 60.9631 -73.717L10.6413 149.424C9.6711 153.726 12.385 158.003 16.7028 158.977L416.266 249.085Z" fill="url(#paint0_linear_1416_541)"/>
</g>
<defs>
<linearGradient id="paint0_linear_1416_541" x1="192.501" y1="225" x2="48.4001" y2="104.815" gradientUnits="userSpaceOnUse">
<stop offset="0.046875" stop-color="#E8D9CB"/>
<stop offset="1" stop-color="#F8EFE6"/>
</linearGradient>
</defs>
</svg>
