<svg width="706" height="528" viewBox="0 0 706 528" fill="none" xmlns="http://www.w3.org/2000/svg">
<mask id="mask0_1322_3897" style="mask-type:alpha" maskUnits="userSpaceOnUse" x="-77" y="46" width="1343" height="776">
<path d="M182.364 114.113L182.042 113.848L228.307 59.9158L141.361 60.8107L93.7424 114.132L182.333 113.718L182.364 114.113L182.395 114.508L91.9113 114.93L140.948 60.0244L230.099 59.1056L182.575 114.508L182.395 114.508L182.364 114.113Z" fill="#D85A42" fill-opacity="0.35"/>
<path d="M133.406 171.179L133.086 170.914L181.469 114.511L93.0295 114.924L43.2456 170.667L133.377 170.784L133.406 171.179L133.436 171.573L41.4264 171.455L92.6183 114.135L183.252 113.712L133.616 171.574L133.436 171.573L133.406 171.179Z" fill="#D85A42" fill-opacity="0.35"/>
<path d="M82.1956 230.883L81.8736 230.617L132.523 171.575L42.5435 171.457L-9.55239 229.791L82.1687 230.488L82.1956 230.883L82.2212 231.277L-11.3633 230.568L42.1332 170.667L134.296 170.786L82.4046 231.28L82.2212 231.277L82.1956 230.883Z" fill="#D85A42" fill-opacity="0.35"/>
<path d="M28.5609 293.41L28.2403 293.145L81.3145 231.272L-10.2522 230.578L-64.8251 291.684L28.5372 293.014L28.5609 293.41L28.5843 293.804L-66.6235 292.447L-10.6607 229.785L83.0791 230.495L28.769 293.808L28.5843 293.804L28.5609 293.41Z" fill="#D85A42" fill-opacity="0.35"/>
<path d="M273.603 113.687L273.278 113.429L318.018 58.9916L229.414 59.9047L183.255 113.714L273.572 113.293L273.603 113.687L273.634 114.082L181.472 114.513L228.991 59.1171L319.762 58.1821L273.82 114.082L273.634 114.082L273.603 113.687Z" fill="#D85A42" fill-opacity="0.35"/>
<path d="M226.255 171.299L225.93 171.041L272.738 114.086L182.576 114.508L134.299 170.786L226.226 170.905L226.255 171.299L226.285 171.696L132.525 171.575L182.154 113.719L274.473 113.288L226.471 171.696L226.285 171.696L226.255 171.299Z" fill="#D85A42" fill-opacity="0.35"/>
<path d="M176.697 231.602L176.371 231.342L225.392 171.695L133.621 171.577L83.0797 230.496L176.669 231.206L176.697 231.602L176.722 231.997L81.315 231.272L133.201 170.785L227.119 170.908L176.909 231.997L176.722 231.997L176.697 231.602Z" fill="#D85A42" fill-opacity="0.35"/>
<path d="M124.767 294.782L124.442 294.523L175.835 231.989L82.4043 231.281L29.4358 293.027L124.744 294.386L124.767 294.782L124.792 295.177L27.6817 293.792L81.9863 230.487L177.552 231.212L124.979 295.179L124.792 295.177L124.767 294.782Z" fill="#D85A42" fill-opacity="0.35"/>
<path d="M366.597 113.254L366.266 113L409.415 58.0491L319.105 58.9798L274.471 113.289L366.566 112.859L366.597 113.254L366.629 113.65L272.736 114.087L318.673 58.1932L411.11 57.2404L366.817 113.649L366.629 113.65L366.597 113.254Z" fill="#D85A42" fill-opacity="0.35"/>
<path d="M320.92 171.422L320.589 171.169L365.752 113.653L273.819 114.082L227.116 170.908L320.891 171.028L320.92 171.422L320.95 171.819L225.389 171.695L273.388 113.294L367.44 112.854L321.141 171.818L320.95 171.819L320.92 171.422Z" fill="#D85A42" fill-opacity="0.35"/>
<path d="M273.093 232.331L272.762 232.078L320.08 171.815L226.468 171.695L177.551 231.21L273.066 231.936L273.093 232.331L273.12 232.726L175.834 231.987L226.037 170.903L321.76 171.026L273.312 232.728L273.12 232.726L273.093 232.331Z" fill="#D85A42" fill-opacity="0.35"/>
<path d="M222.958 296.18L222.627 295.927L272.258 232.72L176.907 231.996L125.622 294.397L222.935 295.786L222.958 296.18L222.982 296.577L123.913 295.163L176.48 231.203L273.929 231.944L223.176 296.58L222.982 296.577L222.958 296.18Z" fill="#D85A42" fill-opacity="0.35"/>
<path d="M170.342 363.187L170.012 362.935L222.126 296.565L124.978 295.179L71.1486 360.675L170.323 362.793L170.342 363.187L170.365 363.583L69.4504 361.43L124.553 294.384L223.788 295.798L170.56 363.587L170.365 363.583L170.342 363.187Z" fill="#D85A42" fill-opacity="0.35"/>
<path d="M461.394 112.812L461.058 112.565L502.546 57.088L410.483 58.0367L367.44 112.854L461.363 112.416L461.394 112.812L461.425 113.207L365.753 113.653L410.04 57.2513L504.19 56.2802L461.62 113.206L461.425 113.207L461.394 112.812Z" fill="#D85A42" fill-opacity="0.35"/>
<path d="M417.469 171.546L417.133 171.299L460.577 113.21L366.818 113.648L321.762 171.027L417.441 171.153L417.469 171.546L417.5 171.942L320.082 171.816L366.378 112.859L462.214 112.411L417.695 171.943L417.5 171.942L417.469 171.546Z" fill="#D85A42" fill-opacity="0.35"/>
<path d="M371.451 233.079L371.115 232.832L416.652 171.94L321.14 171.817L273.927 231.943L371.425 232.683L371.451 233.079L371.478 233.474L272.257 232.72L320.7 171.026L418.283 171.153L371.675 233.475L371.478 233.474L371.451 233.079Z" fill="#D85A42" fill-opacity="0.35"/>
<path d="M323.193 297.612L322.857 297.365L370.641 233.469L273.312 232.729L223.788 295.798L323.169 297.215L323.193 297.612L323.216 298.006L222.127 296.565L272.875 231.936L372.263 232.691L323.416 298.009L323.216 298.006L323.193 297.612Z" fill="#D85A42" fill-opacity="0.35"/>
<path d="M272.522 365.366L272.185 365.12L322.386 297.993L223.174 296.578L171.169 362.808L272.501 364.971L272.522 365.366L272.542 365.762L169.517 363.562L222.74 295.782L323.999 297.226L272.744 365.765L272.542 365.762L272.522 365.366Z" fill="#D85A42" fill-opacity="0.35"/>
<path d="M219.256 436.596L218.919 436.35L271.72 365.744L170.562 363.586L115.885 433.22L219.238 436.202L219.256 436.596L219.273 436.992L114.243 433.962L170.129 362.787L273.326 364.99L219.477 436.998L219.273 436.992L219.256 436.596Z" fill="#D85A42" fill-opacity="0.35"/>
<path d="M558.049 112.36L557.709 112.121L597.46 56.1105L503.595 57.0769L462.213 112.412L558.018 111.965L558.049 112.36L558.081 112.756L460.576 113.211L503.142 56.2916L599.056 55.3034L558.281 112.754L558.081 112.756L558.049 112.36Z" fill="#D85A42" fill-opacity="0.35"/>
<path d="M515.951 171.673L515.61 171.433L557.254 112.757L461.619 113.204L418.283 171.153L515.922 171.278L515.951 171.673L515.98 172.068L416.652 171.94L461.168 112.415L558.842 111.96L516.182 172.069L515.98 172.068L515.951 171.673Z" fill="#D85A42" fill-opacity="0.35"/>
<path d="M471.832 233.841L471.491 233.601L515.163 172.068L417.695 171.942L372.266 232.691L471.806 233.445L471.832 233.841L471.859 234.236L370.642 233.468L417.244 171.151L516.745 171.28L472.062 234.238L471.859 234.236L471.832 233.841Z" fill="#D85A42" fill-opacity="0.35"/>
<path d="M425.539 299.073L425.197 298.833L471.045 234.232L371.678 233.478L324.003 297.23L425.516 298.678L425.539 299.073L425.564 299.468L322.389 297.997L371.231 232.684L472.621 233.455L425.768 299.471L425.564 299.468L425.539 299.073Z" fill="#D85A42" fill-opacity="0.35"/>
<path d="M376.907 367.595L376.566 367.356L424.756 299.454L323.419 298.01L273.327 364.991L376.886 367.201L376.907 367.595L376.927 367.991L271.722 365.745L322.972 297.214L426.324 298.687L377.135 367.995L376.927 367.991L376.907 367.595Z" fill="#D85A42" fill-opacity="0.35"/>
<path d="M325.75 439.669L325.409 439.429L376.124 367.972L272.744 365.766L220.052 436.225L325.734 439.274L325.75 439.669L325.769 440.064L218.455 436.967L272.3 364.968L377.683 367.216L325.978 440.071L325.769 440.064L325.75 439.669Z" fill="#D85A42" fill-opacity="0.35"/>
<path d="M656.615 111.901L656.268 111.669L694.208 55.1127L598.489 56.0989L558.842 111.962L656.585 111.505L656.615 111.901L656.647 112.296L557.254 112.759L598.024 55.3126L695.754 54.3053L656.854 112.295L656.647 112.296L656.615 111.901Z" fill="#D85A42" fill-opacity="0.35"/>
<path d="M616.432 171.804L616.086 171.572L655.848 112.298L558.282 112.753L516.746 171.28L616.404 171.41L616.432 171.804L616.462 172.2L515.164 172.069L557.819 111.966L657.388 111.502L616.671 172.2L616.462 172.2L616.432 171.804Z" fill="#D85A42" fill-opacity="0.35"/>
<path d="M574.293 234.62L573.946 234.388L615.665 172.199L516.183 172.07L472.619 233.453L574.267 234.224L574.293 234.62L574.32 235.015L471.043 234.231L515.721 171.279L617.198 171.411L574.529 235.015L574.32 235.015L574.293 234.62Z" fill="#D85A42" fill-opacity="0.35"/>
<path d="M530.059 300.563L529.712 300.331L573.531 235.011L472.062 234.24L426.323 298.688L530.035 300.168L530.059 300.563L530.083 300.957L424.755 299.455L471.603 233.446L575.058 234.231L530.294 300.962L530.083 300.957L530.059 300.563Z" fill="#D85A42" fill-opacity="0.35"/>
<path d="M483.562 369.869L483.216 369.639L529.296 300.945L425.765 299.468L377.684 367.217L483.543 369.476L483.562 369.869L483.583 370.265L376.125 367.972L425.308 298.672L530.817 300.177L483.798 370.27L483.583 370.265L483.562 369.869Z" fill="#D85A42" fill-opacity="0.35"/>
<path d="M434.632 442.813L434.286 442.581L482.807 370.25L377.133 367.995L326.529 439.298L434.616 442.418L434.632 442.813L434.651 443.207L324.977 440.042L376.677 367.196L484.32 369.493L434.865 443.214L434.651 443.207L434.632 442.813Z" fill="#D85A42" fill-opacity="0.35"/>
<path d="M383.069 519.677L382.721 519.446L433.879 443.184L325.98 440.07L272.649 515.212L383.055 519.281L383.069 519.677L383.083 520.072L271.108 515.944L325.524 439.268L435.385 442.439L383.3 520.08L383.083 520.072L383.069 519.677Z" fill="#D85A42" fill-opacity="0.35"/>
<path d="M757.154 111.433L756.802 111.21L792.848 54.0963L695.221 55.1024L657.387 111.504L757.123 111.038L757.154 111.433L757.185 111.828L655.847 112.3L694.745 54.3172L794.343 53.2902L757.399 111.827L757.185 111.828L757.154 111.433Z" fill="#D85A42" fill-opacity="0.35"/>
<path d="M718.964 171.937L718.613 171.713L756.407 111.829L656.853 112.293L617.197 171.41L718.935 171.542L718.964 171.937L718.993 172.332L615.664 172.198L656.377 111.505L757.897 111.032L719.207 172.332L718.993 172.332L718.964 171.937Z" fill="#D85A42" fill-opacity="0.35"/>
<path d="M678.902 235.415L678.551 235.191L718.224 172.333L616.669 172.202L575.057 234.232L678.878 235.02L678.902 235.415L678.929 235.81L573.531 235.011L616.195 171.411L719.707 171.545L679.145 235.812L678.929 235.81L678.902 235.415Z" fill="#D85A42" fill-opacity="0.35"/>
<path d="M636.826 302.083L636.472 301.859L678.165 235.802L574.53 235.014L530.819 300.176L636.801 301.688L636.826 302.083L636.848 302.478L529.298 300.945L574.059 234.221L679.643 235.023L637.067 302.481L636.848 302.478L636.826 302.083Z" fill="#D85A42" fill-opacity="0.35"/>
<path d="M592.576 372.197L592.223 371.974L636.091 302.469L530.296 300.961L484.323 369.493L592.554 371.802L592.576 372.197L592.597 372.593L482.81 370.25L529.826 300.163L637.562 301.7L592.817 372.596L592.597 372.593L592.576 372.197Z" fill="#D85A42" fill-opacity="0.35"/>
<path d="M545.977 446.025L545.625 445.802L591.841 372.577L483.799 370.271L435.385 442.44L545.961 445.63L545.977 446.025L545.995 446.421L433.88 443.185L483.329 369.472L593.305 371.818L546.218 446.428L545.995 446.421L545.977 446.025Z" fill="#D85A42" fill-opacity="0.35"/>
<path d="M496.845 523.872L496.494 523.648L545.249 446.397L434.865 443.213L383.818 519.311L496.831 523.476L496.845 523.872L496.859 524.267L382.322 520.044L434.4 442.411L546.706 445.651L497.084 524.276L496.859 524.267L496.845 523.872Z" fill="#D85A42" fill-opacity="0.35"/>
<path d="M444.962 606.075L444.611 605.851L496.12 524.24L383.3 520.081L329.399 600.434L444.952 605.679L444.962 606.075L444.973 606.469L327.909 601.155L382.837 519.275L497.57 523.504L445.2 606.48L444.973 606.469L444.962 606.075Z" fill="#D85A42" fill-opacity="0.35"/>
<path d="M785.728 236.225L785.371 236.01L822.903 172.467L719.209 172.333L679.643 235.024L785.702 235.829L785.728 236.225L785.755 236.62L678.164 235.803L718.722 171.542L824.337 171.678L785.978 236.621L785.755 236.62L785.728 236.225Z" fill="#D85A42" fill-opacity="0.35"/>
<path d="M745.91 303.641L745.554 303.427L785.015 236.614L679.146 235.811L637.56 301.701L745.888 303.246L745.91 303.641L745.935 304.037L636.089 302.47L678.661 235.018L786.444 235.835L746.16 304.04L745.935 304.037L745.91 303.641Z" fill="#D85A42" fill-opacity="0.35"/>
<path d="M704.014 374.577L703.656 374.361L745.198 304.026L637.067 302.484L593.305 371.82L703.993 374.182L704.014 374.577L704.034 374.973L591.842 372.579L636.584 301.688L746.622 303.257L704.261 374.977L704.034 374.973L704.014 374.577Z" fill="#D85A42" fill-opacity="0.35"/>
<path d="M659.867 449.312L659.51 449.096L703.301 374.954L592.812 372.596L546.703 445.651L659.85 448.916L659.867 449.312L659.886 449.707L545.247 446.398L592.33 371.797L704.719 374.195L660.114 449.714L659.886 449.707L659.867 449.312Z" fill="#D85A42" fill-opacity="0.35"/>
<path d="M613.296 528.164L612.937 527.95L659.164 449.685L546.217 446.427L497.57 523.505L613.282 527.769L613.296 528.164L613.309 528.559L496.119 524.241L545.737 445.624L660.575 448.938L613.541 528.569L613.309 528.559L613.296 528.164Z" fill="#D85A42" fill-opacity="0.35"/>
<path d="M564.085 611.482L563.726 611.268L612.594 528.533L497.084 524.276L445.684 605.712L564.073 611.089L564.085 611.482L564.094 611.878L444.241 606.436L496.605 523.468L613.998 527.796L564.329 611.887L564.094 611.878L564.085 611.482Z" fill="#D85A42" fill-opacity="0.35"/>
<path d="M817.963 377.004L817.599 376.8L856.703 305.613L746.158 304.037L704.72 374.193L817.942 376.61L817.963 377.004L817.983 377.4L703.303 374.951L745.66 303.24L858.076 304.844L818.219 377.405L817.983 377.4L817.963 377.004Z" fill="#D85A42" fill-opacity="0.35"/>
<path d="M776.4 452.671L776.036 452.466L817.279 377.384L704.26 374.973L660.575 448.935L776.381 452.276L776.4 452.671L776.417 453.067L659.163 449.683L703.764 374.172L818.648 376.624L776.655 453.073L776.417 453.067L776.4 452.671Z" fill="#D85A42" fill-opacity="0.35"/>
<path d="M732.517 532.557L732.153 532.353L775.716 453.047L660.114 449.711L613.996 527.794L732.503 532.162L732.517 532.557L732.531 532.952L612.592 528.531L659.621 448.908L777.08 452.296L732.771 532.96L732.531 532.952L732.517 532.557Z" fill="#D85A42" fill-opacity="0.35"/>
<path d="M686.123 617.022L685.761 616.816L731.842 532.927L613.543 528.567L564.785 611.12L686.113 616.628L686.123 617.022L686.134 617.417L563.387 611.844L613.052 527.76L733.199 532.188L686.376 617.428L686.134 617.417L686.123 617.022Z" fill="#D85A42" fill-opacity="0.35"/>
<path d="M811.184 622.701L810.815 622.507L853.958 537.43L732.773 532.964L686.797 616.66L811.173 622.307L811.184 622.701L811.194 623.097L685.447 617.387L732.265 532.157L855.268 536.69L811.446 623.109L811.194 623.097L811.184 622.701Z" fill="#D85A42" fill-opacity="0.35"/>
<path d="M151.24 60.3135L146.602 54.3166L131.087 60.5216L135.678 66.5487L151.24 60.3135Z" fill="#D85A42" fill-opacity="0.35"/>
<path d="M103.085 114.484L98.5188 108.16L82.5944 114.578L87.1103 120.933L103.085 114.484Z" fill="#D85A42" fill-opacity="0.35"/>
<path d="M52.1719 170.733L47.6053 164.409L31.6808 170.828L36.1967 177.182L52.1719 170.733Z" fill="#D85A42" fill-opacity="0.35"/>
<path d="M-0.0478545 229.932L-4.61446 223.608L-20.5389 230.026L-16.023 236.381L-0.0478545 229.932Z" fill="#D85A42" fill-opacity="0.35"/>
<path d="M239.477 59.4027L234.482 53.3536L218.949 59.6139L223.895 65.6943L239.477 59.4027Z" fill="#D85A42" fill-opacity="0.35"/>
<path d="M192.813 114.064L187.877 107.683L171.933 114.16L176.817 120.575L192.813 114.064Z" fill="#D85A42" fill-opacity="0.35"/>
<path d="M144.041 171.193L139.176 164.457L122.799 171.167L127.611 177.938L144.041 171.193Z" fill="#D85A42" fill-opacity="0.35"/>
<path d="M93.0151 230.965L88.2316 223.846L71.4002 230.801L76.1282 237.957L93.0151 230.965Z" fill="#D85A42" fill-opacity="0.35"/>
<path d="M39.575 293.568L34.8862 286.037L17.5751 293.253L22.2029 300.823L39.575 293.568Z" fill="#D85A42" fill-opacity="0.35"/>
<path d="M329.357 58.479L323.994 52.3755L308.446 58.6941L313.76 64.8267L329.357 58.479Z" fill="#D85A42" fill-opacity="0.35"/>
<path d="M284.252 113.638L278.934 107.198L262.975 113.738L268.24 120.209L284.252 113.638Z" fill="#D85A42" fill-opacity="0.35"/>
<path d="M237.096 171.317L231.834 164.514L215.441 171.288L220.647 178.126L237.096 171.317Z" fill="#D85A42" fill-opacity="0.35"/>
<path d="M187.731 231.685L182.537 224.492L165.684 231.517L170.821 238.748L187.731 231.685Z" fill="#D85A42" fill-opacity="0.35"/>
<path d="M136.006 294.942L130.892 287.33L113.556 294.622L118.61 302.274L136.006 294.942Z" fill="#D85A42" fill-opacity="0.35"/>
<path d="M81.7497 361.298L76.7278 353.233L58.8801 360.809L63.8384 368.917L81.7497 361.298Z" fill="#D85A42" fill-opacity="0.35"/>
<path d="M420.925 57.5333L415.18 51.3769L399.618 57.7537L405.316 63.9424L420.925 57.5333Z" fill="#D85A42" fill-opacity="0.35"/>
<path d="M377.455 113.203L371.743 106.703L355.767 113.304L361.429 119.838L377.455 113.203Z" fill="#D85A42" fill-opacity="0.35"/>
<path d="M331.977 171.436L326.304 164.567L309.892 171.408L315.509 178.315L331.977 171.436Z" fill="#D85A42" fill-opacity="0.35"/>
<path d="M284.353 232.418L278.733 225.151L261.861 232.249L267.425 239.555L284.353 232.418Z" fill="#D85A42" fill-opacity="0.35"/>
<path d="M234.432 296.344L228.875 288.648L211.516 296.017L217.013 303.754L234.432 296.344Z" fill="#D85A42" fill-opacity="0.35"/>
<path d="M182.036 363.435L176.554 355.278L158.681 362.937L164.099 371.139L182.036 363.435Z" fill="#D85A42" fill-opacity="0.35"/>
<path d="M126.982 433.933L121.591 425.277L103.173 433.246L108.496 441.952L126.982 433.933Z" fill="#D85A42" fill-opacity="0.35"/>
<path d="M514.238 56.5714L508.099 50.3601L492.525 56.7949L498.617 63.0385L514.238 56.5714Z" fill="#D85A42" fill-opacity="0.35"/>
<path d="M472.462 112.759L466.339 106.198L450.351 112.862L456.423 119.458L472.462 112.759Z" fill="#D85A42" fill-opacity="0.35"/>
<path d="M428.746 171.561L422.648 164.622L406.222 171.531L412.265 178.506L428.746 171.561Z" fill="#D85A42" fill-opacity="0.35"/>
<path d="M382.943 233.167L376.879 225.823L359.991 232.993L365.998 240.376L382.943 233.167Z" fill="#D85A42" fill-opacity="0.35"/>
<path d="M334.906 297.778L328.889 289.997L311.51 297.446L317.468 305.269L334.906 297.778Z" fill="#D85A42" fill-opacity="0.35"/>
<path d="M284.467 365.623L278.506 357.37L260.611 365.114L266.508 373.411L284.467 365.623Z" fill="#D85A42" fill-opacity="0.35"/>
<path d="M231.438 436.948L225.548 428.183L207.106 436.246L212.927 445.058L231.438 436.948Z" fill="#D85A42" fill-opacity="0.35"/>
<path d="M609.336 55.5923L602.788 49.3254L587.207 55.82L593.707 62.1192L609.336 55.5923Z" fill="#D85A42" fill-opacity="0.35"/>
<path d="M569.334 112.307L562.786 105.682L546.786 112.411L553.283 119.071L569.334 112.307Z" fill="#D85A42" fill-opacity="0.35"/>
<path d="M527.455 171.687L520.915 164.679L504.477 171.658L510.962 178.703L527.455 171.687Z" fill="#D85A42" fill-opacity="0.35"/>
<path d="M483.561 233.933L477.039 226.512L460.136 233.754L466.602 241.217L483.561 233.933Z" fill="#D85A42" fill-opacity="0.35"/>
<path d="M437.497 299.241L431 291.372L413.607 298.901L420.043 306.812L437.497 299.241Z" fill="#D85A42" fill-opacity="0.35"/>
<path d="M389.106 367.856L382.647 359.505L364.733 367.336L371.128 375.734L389.106 367.856Z" fill="#D85A42" fill-opacity="0.35"/>
<path d="M338.204 440.028L331.795 431.154L313.331 439.31L319.672 448.235L338.204 440.028Z" fill="#D85A42" fill-opacity="0.35"/>
<path d="M284.592 516.047L278.249 506.605L259.199 515.111L265.473 524.607L284.592 516.047Z" fill="#D85A42" fill-opacity="0.35"/>
<path d="M706.276 54.5916L699.303 48.2685L683.716 54.8238L690.64 61.1804L706.276 54.5916Z" fill="#D85A42" fill-opacity="0.35"/>
<path d="M668.128 111.845L661.14 105.159L645.134 111.953L652.072 118.675L668.128 111.845Z" fill="#D85A42" fill-opacity="0.35"/>
<path d="M628.17 171.82L621.171 164.741L604.723 171.79L611.668 178.908L628.17 171.82Z" fill="#D85A42" fill-opacity="0.35"/>
<path d="M586.265 234.709L579.262 227.208L562.349 234.528L569.292 242.071L586.265 234.709Z" fill="#D85A42" fill-opacity="0.35"/>
<path d="M542.271 300.734L535.278 292.777L517.87 300.385L524.805 308.388L542.271 300.734Z" fill="#D85A42" fill-opacity="0.35"/>
<path d="M496.031 370.136L489.054 361.685L471.124 369.604L478.039 378.103L496.031 370.136Z" fill="#D85A42" fill-opacity="0.35"/>
<path d="M447.367 443.18L440.416 434.192L421.933 442.446L428.817 451.484L447.367 443.18Z" fill="#D85A42" fill-opacity="0.35"/>
<path d="M396.078 520.157L389.168 510.587L370.098 519.199L376.936 528.823L396.078 520.157Z" fill="#D85A42" fill-opacity="0.35"/>
<path d="M691.13 235.507L683.632 227.925L666.71 235.323L674.151 242.949L691.13 235.507Z" fill="#D85A42" fill-opacity="0.35"/>
<path d="M649.307 302.264L641.794 294.215L624.377 301.908L631.829 310.002L649.307 302.264Z" fill="#D85A42" fill-opacity="0.35"/>
<path d="M605.32 372.468L597.801 363.913L579.86 371.924L587.316 380.528L605.32 372.468Z" fill="#D85A42" fill-opacity="0.35"/>
<path d="M559.003 446.401L551.489 437.298L532.991 445.65L540.439 454.805L559.003 446.401Z" fill="#D85A42" fill-opacity="0.35"/>
<path d="M510.156 524.362L502.655 514.664L483.568 523.382L490.996 533.137L510.156 524.362Z" fill="#D85A42" fill-opacity="0.35"/>
<path d="M717.046 374.851L708.965 366.191L691.017 374.296L699.033 383.006L717.046 374.851Z" fill="#D85A42" fill-opacity="0.35"/>
<path d="M673.19 449.696L665.087 440.476L646.581 448.928L654.617 458.203L673.19 449.696Z" fill="#D85A42" fill-opacity="0.35"/>
<path d="M626.923 528.666L618.806 518.834L599.706 527.661L607.75 537.55L626.923 528.666Z" fill="#D85A42" fill-opacity="0.35"/>
<mask id="mask1_1322_3897" style="mask-type:luminance" maskUnits="userSpaceOnUse" x="691" y="174" width="436" height="446">
<path d="M1123.52 228.581L1126.25 222.987L1057.85 174.013L1055.17 174.102L1040.32 181.159L1025.7 208.74L1013.56 231.657L1021.46 238.348L1097.28 236.289L1108.2 235.993L1123.52 228.581ZM811.879 610.685L817.048 600.926L846.78 544.802L838.591 535.909L745.957 535.718L728.377 544.436L707.048 581.822L691.237 609.538L698.911 618.897L793.679 619.901L811.879 610.685Z" fill="white"/>
</mask>
<g mask="url(#mask1_1322_3897)">
<rect width="574.83" height="123.284" transform="matrix(-0.607422 0.791084 0.811074 0.58098 1028.66 152.03)" fill="#D85A42" fill-opacity="0.35"/>
</g>
<mask id="mask2_1322_3897" style="mask-type:luminance" maskUnits="userSpaceOnUse" x="111" y="58" width="114" height="57">
<path d="M220.227 58.2253L151.417 60.5462L151.71 60.9273L150.69 61.3531L219.523 59.0302L219.214 58.6502L220.227 58.2253ZM136.934 67.0949L136.059 67.4593L135.81 67.1318L117.403 87.5084L111.393 95.3676L136.934 67.0949Z" fill="white"/>
</mask>
<g mask="url(#mask2_1322_3897)">
<rect width="96.4766" height="72.8394" transform="matrix(-0.611736 0.78806 0.809886 0.582008 168.939 19.91)" fill="#D85A42" fill-opacity="0.35"/>
</g>
<mask id="mask3_1322_3897" style="mask-type:luminance" maskUnits="userSpaceOnUse" x="53" y="112" width="124" height="61">
<path d="M173.21 112.785L103.636 114.888L103.91 115.27L102.916 115.689L148.96 114.296L172.511 113.584L172.223 113.202L173.21 112.785Z" fill="white"/>
</mask>
<g mask="url(#mask3_1322_3897)">
<rect width="120.924" height="66.8057" transform="matrix(-0.611205 0.788445 0.810293 0.581604 126.114 77.5698)" fill="#D85A42" fill-opacity="0.35"/>
</g>
<mask id="mask4_1322_3897" style="mask-type:luminance" maskUnits="userSpaceOnUse" x="9" y="169" width="120" height="63">
<path d="M124.072 169.891L55.1 171.598L54.4941 172.39L61.5214 172.217L123.377 170.685L123.108 170.304L124.072 169.891ZM70.9696 230.701L9.01409 231.847L9.01312 231.848L70.9696 230.701ZM46.9995 230.368L9.61722 231.058L9.61625 231.06L46.9995 230.368Z" fill="white"/>
</mask>
<g mask="url(#mask4_1322_3897)">
<rect width="120.246" height="62.876" transform="matrix(-0.611067 0.788543 0.810357 0.581543 81.2876 137.246)" fill="#D85A42" fill-opacity="0.35"/>
</g>
<mask id="mask5_1322_3897" style="mask-type:luminance" maskUnits="userSpaceOnUse" x="186" y="57" width="129" height="58">
<path d="M314.704 63.2269L314.703 63.2281L278.551 106.551L314.704 63.2269ZM309.749 57.225L239.844 59.6591L240.158 60.0382L239.147 60.4631L309.076 58.0283L308.748 57.651L309.749 57.225ZM225.363 66.2722L224.52 66.6272L224.261 66.3089L186.895 109.296L187.74 108.938L187.991 109.264L225.363 66.2722Z" fill="white"/>
</mask>
<g mask="url(#mask5_1322_3897)">
<rect width="118.098" height="75.5731" transform="matrix(-0.611511 0.788226 0.810109 0.581782 256.47 17.2677)" fill="#D85A42" fill-opacity="0.35"/>
</g>
<mask id="mask6_1322_3897" style="mask-type:luminance" maskUnits="userSpaceOnUse" x="138" y="112" width="131" height="61">
<path d="M264.479 124.209L231.402 163.843L231.403 163.844L264.479 124.209ZM268.109 118.601L268.108 118.6L230.331 163.869L268.109 118.601ZM264.264 112.244L239.502 112.971L193.245 114.329L193.538 114.71L192.551 115.129L263.592 113.042L263.284 112.664L264.264 112.244ZM215.656 170.19L143.461 171.882L143.462 171.883L215.655 170.189L215.656 170.19ZM178.336 121.167L177.488 121.526L177.24 121.199L138.208 166.103L139.057 165.739L139.298 166.075L178.336 121.167Z" fill="white"/>
</mask>
<g mask="url(#mask6_1322_3897)">
<rect width="122.621" height="77.1417" transform="matrix(-0.611481 0.788248 0.810131 0.58176 209.627 71.8035)" fill="#D85A42" fill-opacity="0.35"/>
</g>
<mask id="mask7_1322_3897" style="mask-type:luminance" maskUnits="userSpaceOnUse" x="87" y="169" width="130" height="63">
<path d="M216.547 169.657L144.472 171.403L144.746 171.784L143.784 172.197L215.881 170.451L215.593 170.07L216.547 169.657ZM165.722 230.253L92.4336 231.568L92.4348 231.569L165.72 230.252L165.722 230.253ZM129.131 178.479L128.282 178.844L128.044 178.505L87.26 225.43L88.1121 225.061L88.343 225.409L129.131 178.479Z" fill="white"/>
</mask>
<g mask="url(#mask7_1322_3897)">
<rect width="125.637" height="70.8391" transform="matrix(-0.611253 0.78841 0.810268 0.581627 161.301 128.139)" fill="#D85A42" fill-opacity="0.35"/>
</g>
<mask id="mask8_1322_3897" style="mask-type:luminance" maskUnits="userSpaceOnUse" x="33" y="229" width="139" height="66">
<path d="M171.772 237.036L171.77 237.036L132.038 284.649L171.772 237.036ZM166.942 229.984L93.5436 231.25L93.7994 231.634L92.86 232.04L147.781 231.093L166.28 230.774L166.009 230.39L166.942 229.984ZM77.7084 238.579L76.8539 238.947L76.6243 238.596L33.8908 287.759L34.7478 287.386L34.9685 287.746L39.9129 282.058L77.7084 238.579Z" fill="white"/>
</mask>
<g mask="url(#mask8_1322_3897)">
<rect width="129.346" height="80.814" transform="matrix(-0.611468 0.788257 0.81014 0.581751 109.92 187.736)" fill="#D85A42" fill-opacity="0.35"/>
</g>
<mask id="mask9_1322_3897" style="mask-type:luminance" maskUnits="userSpaceOnUse" x="277" y="56" width="130" height="60">
<path d="M400.924 56.2909L329.728 58.773L330.061 59.1528L329.06 59.5766L400.279 57.0937L399.93 56.7159L400.924 56.2909ZM356.02 112.179L283.634 114.297L356.019 112.179L356.02 112.179ZM355.377 112.978L282.972 115.097L282.971 115.098L355.377 112.978ZM315.222 65.4533L314.41 65.7976L314.141 65.4895L295.628 87.6745L277.996 108.804L278.811 108.456L279.073 108.772L315.222 65.4533Z" fill="white"/>
</mask>
<g mask="url(#mask9_1322_3897)">
<rect width="119.65" height="75.546" transform="matrix(-0.611487 0.788243 0.810127 0.581765 348.137 16.5707)" fill="#D85A42" fill-opacity="0.35"/>
</g>
<mask id="mask10_1322_3897" style="mask-type:luminance" maskUnits="userSpaceOnUse" x="230" y="111" width="133" height="61">
<path d="M361.288 118.241L324.812 163.891L324.813 163.89L361.288 118.241ZM357.05 111.823L284.652 113.936L284.967 114.317L283.99 114.735L356.409 112.622L356.079 112.241L357.05 111.823ZM269.712 120.845L268.894 121.193L268.636 120.876L230.85 166.153L231.669 165.8L231.922 166.128L265.005 126.485L269.712 120.845Z" fill="white"/>
</mask>
<g mask="url(#mask10_1322_3897)">
<rect width="120.448" height="77.1797" transform="matrix(-0.611513 0.788224 0.810108 0.581784 302.818 71.468)" fill="#D85A42" fill-opacity="0.35"/>
</g>
<mask id="mask11_1322_3897" style="mask-type:luminance" maskUnits="userSpaceOnUse" x="181" y="169" width="136" height="65">
<path d="M311.167 169.907L237.573 171.636L237.868 172.018L236.912 172.431L272.346 171.598L310.529 170.701L310.218 170.318L311.167 169.907ZM261.361 231.896L261.359 231.895L186.476 233.186L261.361 231.896ZM222.184 178.785L221.362 179.14L221.112 178.81L181.587 226.173L182.411 225.814L182.654 226.153L222.184 178.785Z" fill="white"/>
</mask>
<g mask="url(#mask11_1322_3897)">
<rect width="127.144" height="78.7109" transform="matrix(-0.611451 0.788269 0.810152 0.58174 255.966 128.857)" fill="#D85A42" fill-opacity="0.35"/>
</g>
<mask id="mask12_1322_3897" style="mask-type:luminance" maskUnits="userSpaceOnUse" x="129" y="230" width="139" height="67">
<path d="M267.292 237.855L227.297 287.908L227.298 287.907L267.292 237.855ZM263.112 230.714L188.269 232.014L188.545 232.399L187.615 232.804L262.476 231.503L262.185 231.12L263.112 230.714ZM211.58 294.851L135.423 295.67L211.58 294.852L211.58 294.851ZM172.402 239.423L171.579 239.782L171.34 239.442L129.949 289.04L130.776 288.677L131.007 289.028L132.677 287.028L172.402 239.423Z" fill="white"/>
</mask>
<g mask="url(#mask12_1322_3897)">
<rect width="130.888" height="80.1289" transform="matrix(-0.611429 0.788285 0.810166 0.581726 206.182 188.692)" fill="#D85A42" fill-opacity="0.35"/>
</g>
<mask id="mask13_1322_3897" style="mask-type:luminance" maskUnits="userSpaceOnUse" x="370" y="55" width="129" height="59">
<path d="M493.807 55.3337L421.275 57.8643L421.629 58.2414L420.637 58.6662L493.192 56.1348L492.821 55.7588L493.807 55.3337ZM406.748 64.6111L405.964 64.9472L405.685 64.6472L370.807 108.298L371.596 107.958L371.867 108.266L392.468 82.4817L406.748 64.6111Z" fill="white"/>
</mask>
<g mask="url(#mask13_1322_3897)">
<rect width="118.244" height="74.9115" transform="matrix(-0.611493 0.788238 0.810122 0.581769 440.666 15.743)" fill="#D85A42" fill-opacity="0.35"/>
</g>
<mask id="mask14_1322_3897" style="mask-type:luminance" maskUnits="userSpaceOnUse" x="325" y="111" width="133" height="62">
<path d="M422.207 163.855L457.313 117.83L422.206 163.854L422.207 163.855ZM451.634 111.385L415.759 112.437L377.867 113.548L378.202 113.928L377.232 114.346L413.757 113.275L451.022 112.182L450.672 111.802L451.634 111.385ZM362.906 120.528L362.119 120.867L361.849 120.558L325.38 166.198L326.17 165.856L326.433 166.175L362.906 120.528Z" fill="white"/>
</mask>
<g mask="url(#mask14_1322_3897)">
<rect width="123.406" height="77.787" transform="matrix(-0.611484 0.788245 0.810129 0.581763 397.36 71.1487)" fill="#D85A42" fill-opacity="0.35"/>
</g>
<mask id="mask15_1322_3897" style="mask-type:luminance" maskUnits="userSpaceOnUse" x="277" y="170" width="136" height="64">
<path d="M407.481 170.033L361.051 171.125L332.444 171.797L332.759 172.179L331.812 172.591L406.874 170.827L406.543 170.445L407.481 170.033ZM317.026 179.024L316.234 179.369L315.973 179.047L277.803 226.82L278.596 226.471L278.849 226.801L317.026 179.024Z" fill="white"/>
</mask>
<g mask="url(#mask15_1322_3897)">
<rect width="126.366" height="78.5595" transform="matrix(-0.611459 0.788264 0.810147 0.581745 352.031 128.908)" fill="#D85A42" fill-opacity="0.35"/>
</g>
<mask id="mask16_1322_3897" style="mask-type:luminance" maskUnits="userSpaceOnUse" x="227" y="231" width="135" height="67">
<path d="M361.059 231.338L351.805 231.506L284.838 232.722L285.133 233.106L284.21 233.512L360.453 232.127L360.142 231.743L361.059 231.338ZM260.359 297.41L233.189 297.725L233.188 297.724L260.359 297.41ZM268.964 240.215L268.172 240.565L267.921 240.233L227.963 290.242L228.76 289.89L229.003 290.23L268.964 240.215Z" fill="white"/>
</mask>
<g mask="url(#mask16_1322_3897)">
<rect width="131.543" height="71.5679" transform="matrix(-0.611168 0.788471 0.810311 0.581586 304.516 189.475)" fill="#D85A42" fill-opacity="0.35"/>
</g>
<mask id="mask17_1322_3897" style="mask-type:luminance" maskUnits="userSpaceOnUse" x="175" y="295" width="144" height="70">
<path d="M277.923 356.562L318.376 303.529L277.922 356.561L277.923 356.562ZM312.763 295.906L235.024 296.738L235.302 297.124L234.401 297.523L261.62 297.231L312.161 296.69L311.868 296.306L312.763 295.906ZM218.619 304.509L217.82 304.862L217.578 304.52L206.3 318.633L175.616 357.033L176.418 356.675L176.653 357.028L218.619 304.509Z" fill="white"/>
</mask>
<g mask="url(#mask17_1322_3897)">
<rect width="134.644" height="82.37" transform="matrix(-0.611428 0.788286 0.810167 0.581725 255.076 253.183)" fill="#D85A42" fill-opacity="0.35"/>
</g>
<mask id="mask18_1322_3897" style="mask-type:luminance" maskUnits="userSpaceOnUse" x="120" y="363" width="147" height="72">
<path d="M261.851 363.554L238.528 363.642L182.695 363.85L182.953 364.239L182.074 364.631L201.63 364.558L261.251 364.335L260.979 363.947L261.851 363.554ZM165.755 371.921L164.952 372.279L164.72 371.924L123.988 422.902L120.651 427.078L121.457 426.715L121.68 427.079L133.05 412.851L165.755 371.921Z" fill="white"/>
</mask>
<g mask="url(#mask18_1322_3897)">
<rect width="139.954" height="84.7496" transform="matrix(-0.611408 0.7883 0.81018 0.581712 202.547 319.221)" fill="#D85A42" fill-opacity="0.35"/>
</g>
<mask id="mask19_1322_3897" style="mask-type:luminance" maskUnits="userSpaceOnUse" x="465" y="54" width="129" height="61">
<path d="M546.99 111.2L535.652 111.531L546.989 111.199L546.99 111.2ZM587.915 55.1674L587.523 54.7919L588.5 54.368L514.592 56.946L514.968 57.3235L513.984 57.7484L587.915 55.1674ZM466.485 107.757L500.046 63.76L499.289 64.0869L499.004 63.7955L465.447 107.788L466.205 107.458L466.485 107.757Z" fill="white"/>
</mask>
<g mask="url(#mask19_1322_3897)">
<rect width="119.661" height="76.3696" transform="matrix(-0.611506 0.788229 0.810113 0.581778 535.424 14.8251)" fill="#D85A42" fill-opacity="0.35"/>
</g>
<mask id="mask20_1322_3897" style="mask-type:luminance" maskUnits="userSpaceOnUse" x="421" y="110" width="131" height="64">
<path d="M547.524 111.762L547.151 111.383L548.105 110.966L536.766 111.297L472.885 113.163L473.242 113.542L472.282 113.961L547.524 111.762ZM422.787 166.246L457.9 120.214L457.14 120.545L456.861 120.245L421.752 166.272L422.515 165.937L422.787 166.246Z" fill="white"/>
</mask>
<g mask="url(#mask20_1322_3897)">
<rect width="123.419" height="78.7753" transform="matrix(-0.611507 0.788229 0.810113 0.581779 494.445 70.9958)" fill="#D85A42" fill-opacity="0.35"/>
</g>
<mask id="mask21_1322_3897" style="mask-type:luminance" maskUnits="userSpaceOnUse" x="375" y="170" width="131" height="65">
<path d="M505.201 170.989L504.848 170.607L505.779 170.196L429.224 171.985L429.56 172.366L428.622 172.777L433.709 172.658L505.201 170.989ZM432.007 233.814L381.687 234.674L381.686 234.675L432.007 233.814ZM377.01 227.492L413.779 179.287L413.016 179.622L412.746 179.311L375.98 227.51L376.745 227.171L377.01 227.492Z" fill="white"/>
</mask>
<g mask="url(#mask21_1322_3897)">
<rect width="127.94" height="80.1794" transform="matrix(-0.611474 0.788253 0.810136 0.581755 451.043 129.012)" fill="#D85A42" fill-opacity="0.35"/>
</g>
<mask id="mask22_1322_3897" style="mask-type:luminance" maskUnits="userSpaceOnUse" x="327" y="232" width="140" height="68">
<path d="M413.053 298.442L333.664 299.287L333.663 299.289L413.053 298.442ZM460.822 233.038L460.49 232.653L461.4 232.248L383.479 233.595L383.794 233.979L382.879 234.384L433.179 233.516L460.822 233.038ZM329.012 291.694L367.554 241.168L366.788 241.507L366.526 241.186L327.986 291.707L328.757 291.363L329.012 291.694Z" fill="white"/>
</mask>
<g mask="url(#mask22_1322_3897)">
<rect width="132.296" height="80.9282" transform="matrix(-0.611428 0.788286 0.810167 0.581725 405.306 190.106)" fill="#D85A42" fill-opacity="0.35"/>
</g>
<mask id="mask23_1322_3897" style="mask-type:luminance" maskUnits="userSpaceOnUse" x="277" y="297" width="144" height="71">
<path d="M414.305 298.178L413.992 297.792L414.879 297.394L335.477 298.225L335.774 298.611L334.882 299.009L414.305 298.178ZM278.57 359.131L319.035 306.083L318.265 306.428L318.012 306.094L277.853 358.741L277.551 359.136L278.325 358.789L278.57 359.131Z" fill="white"/>
</mask>
<g mask="url(#mask23_1322_3897)">
<rect width="133.115" height="84.0432" transform="matrix(-0.611487 0.788243 0.810127 0.581765 356.957 254.636)" fill="#D85A42" fill-opacity="0.35"/>
</g>
<mask id="mask24_1322_3897" style="mask-type:luminance" maskUnits="userSpaceOnUse" x="224" y="365" width="149" height="73">
<path d="M330.181 430.298L371.051 373.985L330.18 430.299L330.181 430.298ZM365.44 366.585L365.146 366.196L366.011 365.804L335.242 365.914L285.136 366.097L285.414 366.485L284.543 366.877L296.957 366.832L365.44 366.585ZM225.642 429.999L247.048 401.938L268.16 374.261L267.385 374.61L267.141 374.264L224.629 429.995L225.406 429.643L225.642 429.999Z" fill="white"/>
</mask>
<g mask="url(#mask24_1322_3897)">
<rect width="140.762" height="87.0407" transform="matrix(-0.611448 0.788271 0.810154 0.581738 306.946 321.563)" fill="#D85A42" fill-opacity="0.35"/>
</g>
<mask id="mask25_1322_3897" style="mask-type:luminance" maskUnits="userSpaceOnUse" x="561" y="53" width="131" height="61">
<path d="M668.52 93.0642L691.526 59.6179L691.525 59.6184L668.52 93.0642ZM645.336 110.735L568.603 112.959L645.335 110.736L645.336 110.735ZM684.493 54.1944L684.079 53.8185L685.046 53.3949L609.672 56.0006L610.07 56.3781L609.094 56.8017L684.493 54.1944ZM562.909 107.248L595.104 62.8833L594.373 63.2001L594.079 62.9174L579.468 83.0512L561.886 107.278L562.619 106.957L562.909 107.248Z" fill="white"/>
</mask>
<g mask="url(#mask25_1322_3897)">
<rect width="119.705" height="79.6656" transform="matrix(-0.611576 0.788179 0.810058 0.581833 631.411 13.6643)" fill="#D85A42" fill-opacity="0.35"/>
</g>
<mask id="mask26_1322_3897" style="mask-type:luminance" maskUnits="userSpaceOnUse" x="519" y="110" width="134" height="63">
<path d="M619.767 163.949L651.976 117.122L651.975 117.121L619.767 163.949ZM604.325 171.372L604.324 171.371L583.284 171.856L604.325 171.372ZM645.918 111.314L645.522 110.935L646.467 110.519L569.725 112.738L570.103 113.117L569.149 113.533L617.178 112.145L645.918 111.314ZM521.014 166.298L551.993 123.612L554.714 119.862L553.98 120.183L553.693 119.891L543.925 133.35L519.998 166.323L520.733 165.998L521.014 166.298Z" fill="white"/>
</mask>
<g mask="url(#mask26_1322_3897)">
<rect width="122.685" height="81.9205" transform="matrix(-0.611581 0.788175 0.810054 0.581837 591.464 69.8246)" fill="#D85A42" fill-opacity="0.35"/>
</g>
<mask id="mask27_1322_3897" style="mask-type:luminance" maskUnits="userSpaceOnUse" x="476" y="170" width="130" height="66">
<path d="M605.327 170.991L604.953 170.611L605.875 170.2L527.875 172.064L528.234 172.445L527.304 172.856L584.328 171.493L605.327 170.991ZM477.153 228.045L501.758 194.145L512.425 179.447L511.691 179.772L511.412 179.47L476.141 228.064L476.879 227.736L477.153 228.045Z" fill="white"/>
</mask>
<g mask="url(#mask27_1322_3897)">
<rect width="127.874" height="75.4068" transform="matrix(-0.611353 0.788339 0.810214 0.58168 549.801 128.18)" fill="#D85A42" fill-opacity="0.35"/>
</g>
<mask id="mask28_1322_3897" style="mask-type:luminance" maskUnits="userSpaceOnUse" x="430" y="233" width="141" height="68">
<path d="M563.122 233.834L562.767 233.45L563.667 233.044L484.083 234.393L484.421 234.778L483.514 235.183L536.829 234.279L563.122 233.834ZM431.097 293.073L468.126 242.05L467.388 242.38L467.115 242.067L442.553 275.912L430.09 293.083L430.831 292.75L431.097 293.073Z" fill="white"/>
</mask>
<g mask="url(#mask28_1322_3897)">
<rect width="132.516" height="85.7014" transform="matrix(-0.611529 0.788213 0.810096 0.581796 506.505 190.089)" fill="#D85A42" fill-opacity="0.35"/>
</g>
<mask id="mask29_1322_3897" style="mask-type:luminance" maskUnits="userSpaceOnUse" x="381" y="298" width="144" height="72">
<path d="M487.518 360.819L524.742 306.704L524.743 306.703L487.518 360.819ZM518.64 299.676L518.304 299.289L519.182 298.89L440.509 299.702L438.078 299.728L438.397 300.114L437.512 300.512L441.239 300.474L518.64 299.676ZM382.72 361.261L388.035 353.936L421.606 307.677L420.865 308.011L420.6 307.687L381.718 361.264L382.463 360.927L382.72 361.261Z" fill="white"/>
</mask>
<g mask="url(#mask29_1322_3897)">
<rect width="135.496" height="87.9562" transform="matrix(-0.611536 0.788208 0.810091 0.5818 460.518 255.402)" fill="#D85A42" fill-opacity="0.35"/>
</g>
<mask id="mask30_1322_3897" style="mask-type:luminance" maskUnits="userSpaceOnUse" x="330" y="368" width="143" height="66">
<path d="M471.881 368.864L471.565 368.476L472.422 368.085L391.46 368.346L389.727 368.352L390.027 368.74L389.163 369.133L467.288 368.88L471.881 368.864ZM331.819 432.961L372.712 376.614L371.964 376.953L371.709 376.616L330.822 432.958L331.57 432.615L331.819 432.961Z" fill="white"/>
</mask>
<g mask="url(#mask30_1322_3897)">
<rect width="137.7" height="90.2247" transform="matrix(-0.611551 0.788197 0.810079 0.581813 411.67 323.392)" fill="#D85A42" fill-opacity="0.35"/>
</g>
<mask id="mask31_1322_3897" style="mask-type:luminance" maskUnits="userSpaceOnUse" x="277" y="440" width="153" height="79">
<path d="M388.498 509.668L429.75 449.697L388.496 509.667L388.498 509.668ZM422.692 441.675L422.396 441.283L423.23 440.897L338.937 440.56L339.216 440.95L338.376 441.336L422.692 441.675ZM278.31 508.465L312.079 461.935L321.352 449.158L320.603 449.502L320.357 449.153L315.574 455.744L277.32 508.453L278.072 508.106L278.31 508.465Z" fill="white"/>
</mask>
<g mask="url(#mask31_1322_3897)">
<rect width="146.746" height="93.3612" transform="matrix(-0.611501 0.788233 0.810117 0.581774 361.341 394.68)" fill="#D85A42" fill-opacity="0.35"/>
</g>
<mask id="mask32_1322_3897" style="mask-type:luminance" maskUnits="userSpaceOnUse" x="660" y="52" width="130" height="62">
<path d="M782.922 53.1745L782.484 52.7993L783.443 52.3767L706.587 55.0226L707.008 55.399L706.042 55.8228L782.922 53.1745ZM689.751 112.613L666.797 113.274L666.797 113.275L689.751 112.613ZM661.238 106.704L668.994 95.4271L692.003 61.9746L691.299 62.2823L690.997 62.009L660.234 106.733L660.941 106.422L661.238 106.704Z" fill="white"/>
</mask>
<g mask="url(#mask32_1322_3897)">
<rect width="120.501" height="81.1355" transform="matrix(-0.611594 0.788165 0.810043 0.581849 728.891 11.8784)" fill="#D85A42" fill-opacity="0.35"/>
</g>
<mask id="mask33_1322_3897" style="mask-type:luminance" maskUnits="userSpaceOnUse" x="620" y="110" width="134" height="63">
<path d="M723.084 163.955L753.752 116.702L753.752 116.703L723.084 163.955ZM746.282 110.854L745.864 110.476L746.801 110.058L668.491 112.303L668.891 112.681L667.946 113.098L690.909 112.441L746.282 110.854ZM621.239 166.352L653.459 119.501L652.752 119.813L652.457 119.53L620.238 166.375L620.947 166.059L621.239 166.352Z" fill="white"/>
</mask>
<g mask="url(#mask33_1322_3897)">
<rect width="121.95" height="85.0688" transform="matrix(-0.611644 0.788128 0.809995 0.581896 690.609 68.3066)" fill="#D85A42" fill-opacity="0.35"/>
</g>
<mask id="mask34_1322_3897" style="mask-type:luminance" maskUnits="userSpaceOnUse" x="578" y="170" width="131" height="67">
<path d="M666.652 233.872L585.487 235.281L666.651 233.871L666.652 233.872ZM707.682 171.14L707.286 170.76L708.198 170.348L628.566 172.229L628.946 172.609L628.025 173.021L641.741 172.698L707.682 171.14ZM579.348 228.742L613.094 179.691L612.384 180.007L612.096 179.714L578.355 228.76L579.065 228.441L579.348 228.742Z" fill="white"/>
</mask>
<g mask="url(#mask34_1322_3897)">
<rect width="128.54" height="78.6871" transform="matrix(-0.611429 0.788285 0.810166 0.581726 651.215 127.573)" fill="#D85A42" fill-opacity="0.35"/>
</g>
<mask id="mask35_1322_3897" style="mask-type:luminance" maskUnits="userSpaceOnUse" x="534" y="233" width="142" height="70">
<path d="M641.316 293.316L675.079 241.296L641.315 293.315L641.316 293.316ZM623.881 301.416L540.977 302.25L540.975 302.251L623.881 301.416ZM667.543 234.639L667.165 234.256L668.058 233.85L586.773 235.207L587.134 235.592L586.234 235.997L667.543 234.639ZM535.351 294.475L537.471 291.395L570.79 242.95L570.078 243.271L569.797 242.965L534.361 294.486L535.074 294.163L535.351 294.475Z" fill="white"/>
</mask>
<g mask="url(#mask35_1322_3897)">
<rect width="132.569" height="89.6578" transform="matrix(-0.6116 0.78816 0.810037 0.581855 609.354 190.344)" fill="#D85A42" fill-opacity="0.35"/>
</g>
<mask id="mask36_1322_3897" style="mask-type:luminance" maskUnits="userSpaceOnUse" x="488" y="300" width="138" height="72">
<path d="M625.184 301.19L624.825 300.804L625.697 300.405L542.81 301.238L543.149 301.624L542.275 302.023L625.184 301.19ZM489.07 363.421L496.77 352.225L526.309 309.279L525.594 309.603L525.319 309.289L488.085 363.426L488.802 363.097L489.07 363.421Z" fill="white"/>
</mask>
<g mask="url(#mask36_1322_3897)">
<rect width="134.764" height="91.2673" transform="matrix(-0.611603 0.788159 0.810035 0.581856 565.532 255.521)" fill="#D85A42" fill-opacity="0.35"/>
</g>
<mask id="mask37_1322_3897" style="mask-type:luminance" maskUnits="userSpaceOnUse" x="439" y="370" width="150" height="75">
<path d="M550.893 436.365L588.259 378.799L588.258 378.8L550.892 436.364L550.893 436.365ZM580.684 371.193L580.347 370.805L581.194 370.412L578.211 370.422L496.665 370.676L496.986 371.066L496.131 371.457L577.76 371.203L580.684 371.193ZM440.448 435.991L469.747 393.392L479.621 379.037L478.903 379.367L478.636 379.039L439.467 435.988L440.188 435.654L440.448 435.991Z" fill="white"/>
</mask>
<g mask="url(#mask37_1322_3897)">
<rect width="141.48" height="94.279" transform="matrix(-0.611578 0.788177 0.810056 0.581835 519.773 324.818)" fill="#D85A42" fill-opacity="0.35"/>
</g>
<mask id="mask38_1322_3897" style="mask-type:luminance" maskUnits="userSpaceOnUse" x="388" y="443" width="147" height="80">
<path d="M533.81 444.892L533.492 444.501L534.318 444.116L448.048 443.734L448.349 444.126L447.516 444.512L533.81 444.892ZM389.149 512.445L430.421 452.438L429.701 452.774L429.442 452.433L388.174 512.433L388.899 512.095L389.149 512.445Z" fill="white"/>
</mask>
<g mask="url(#mask38_1322_3897)">
<rect width="143.839" height="96.5452" transform="matrix(-0.611589 0.788169 0.810047 0.581844 471.357 397.528)" fill="#D85A42" fill-opacity="0.35"/>
</g>
<mask id="mask39_1322_3897" style="mask-type:luminance" maskUnits="userSpaceOnUse" x="334" y="520" width="151" height="76">
<path d="M484.374 522.58L484.077 522.186L484.882 521.807L476.555 521.704L396.827 520.726L397.11 521.12L396.299 521.499L484.374 522.58ZM335.055 593.096L378.592 529.798L377.868 530.139L377.619 529.786L334.085 593.075L334.814 592.732L335.055 593.096Z" fill="white"/>
</mask>
<g mask="url(#mask39_1322_3897)">
<rect width="149.147" height="98.758" transform="matrix(-0.611568 0.788184 0.810065 0.581826 420.302 473.84)" fill="#D85A42" fill-opacity="0.35"/>
</g>
<mask id="mask40_1322_3897" style="mask-type:luminance" maskUnits="userSpaceOnUse" x="682" y="170" width="131" height="67">
<path d="M772.733 235.445L689.788 236.863L689.786 236.862L772.733 235.445ZM812.157 171.288L811.737 170.908L812.643 170.498L731.328 172.395L731.73 172.776L730.818 173.187L745.499 172.843L812.157 171.288ZM683.691 229.451L715.836 179.937L715.154 180.244L714.857 179.96L682.715 229.469L683.398 229.159L683.691 229.451Z" fill="white"/>
</mask>
<g mask="url(#mask40_1322_3897)">
<rect width="128.736" height="81.6482" transform="matrix(-0.611495 0.788237 0.810121 0.58177 754.666 127.305)" fill="#D85A42" fill-opacity="0.35"/>
</g>
<mask id="mask41_1322_3897" style="mask-type:luminance" maskUnits="userSpaceOnUse" x="640" y="234" width="143" height="70">
<path d="M750.15 294.744L782.171 242.197L750.149 294.743L750.15 294.744ZM732.713 302.935L647.977 303.77L647.976 303.771L732.713 302.935ZM774.166 235.456L773.765 235.071L774.648 234.668L691.611 236.035L691.995 236.418L691.104 236.824L774.166 235.456ZM641.834 295.902L675.607 243.864L674.922 244.176L674.632 243.879L640.862 295.913L641.548 295.599L641.834 295.902Z" fill="white"/>
</mask>
<g mask="url(#mask41_1322_3897)">
<rect width="133.386" height="92.7778" transform="matrix(-0.61164 0.788131 0.809999 0.581892 715.524 190.352)" fill="#D85A42" fill-opacity="0.35"/>
</g>
<mask id="mask42_1322_3897" style="mask-type:luminance" maskUnits="userSpaceOnUse" x="596" y="301" width="146" height="73">
<path d="M711.233 359.107L741.175 309.974L741.174 309.973L711.233 359.107ZM690.95 372.971L604.5 373.218L690.948 372.97L690.95 372.971ZM734.079 302.758L733.7 302.372L734.561 301.974L649.857 302.812L650.222 303.199L649.353 303.597L734.079 302.758ZM597.831 365.651L633.336 310.947L632.647 311.262L632.364 310.956L619.573 330.663L596.862 365.655L597.552 365.336L597.831 365.651Z" fill="white"/>
</mask>
<g mask="url(#mask42_1322_3897)">
<rect width="137.142" height="95.0184" transform="matrix(-0.611635 0.788135 0.810004 0.581887 673.736 257.028)" fill="#D85A42" fill-opacity="0.35"/>
</g>
<mask id="mask43_1322_3897" style="mask-type:luminance" maskUnits="userSpaceOnUse" x="550" y="372" width="150" height="77">
<path d="M645.963 448.359L645.962 448.358L557.681 447.956L645.963 448.359ZM691.905 373.572L691.544 373.183L692.382 372.791L605.943 373.043L606.287 373.433L605.441 373.825L691.905 373.572ZM551.5 439.088L588.874 381.506L588.183 381.826L587.906 381.507L550.537 439.084L551.231 438.76L551.5 439.088Z" fill="white"/>
</mask>
<g mask="url(#mask43_1322_3897)">
<rect width="142.306" height="98.0581" transform="matrix(-0.611628 0.788141 0.810012 0.58188 629.636 326.583)" fill="#D85A42" fill-opacity="0.35"/>
</g>
<mask id="mask44_1322_3897" style="mask-type:luminance" maskUnits="userSpaceOnUse" x="501" y="446" width="147" height="81">
<path d="M617.215 517.805L642.609 476.139L617.215 517.806L617.215 517.805ZM647.457 448.166L647.119 447.775L647.935 447.389L618.958 447.258L559.689 446.993L560.012 447.384L559.188 447.769L647.457 448.166ZM502.647 516.499L508.082 508.122L542.04 455.805L541.345 456.131L541.076 455.801L509.36 504.665L501.687 516.488L502.384 516.158L502.647 516.499Z" fill="white"/>
</mask>
<g mask="url(#mask44_1322_3897)">
<rect width="147.45" height="99.6133" transform="matrix(-0.611599 0.788162 0.810038 0.581853 583.96 399.587)" fill="#D85A42" fill-opacity="0.35"/>
</g>
<mask id="mask45_1322_3897" style="mask-type:luminance" maskUnits="userSpaceOnUse" x="450" y="524" width="151" height="85">
<path d="M600.206 526.596L599.887 526.202L600.679 525.823L510.846 524.846L511.147 525.237L510.348 525.617L600.206 526.596ZM451.107 597.973L492.63 534.036L491.933 534.366L491.675 534.026L477.018 556.595L450.155 597.956L450.854 597.622L451.107 597.973Z" fill="white"/>
</mask>
<g mask="url(#mask45_1322_3897)">
<rect width="153.284" height="83.7121" transform="matrix(-0.611177 0.788465 0.810307 0.581591 534.622 477.21)" fill="#D85A42" fill-opacity="0.35"/>
</g>
<mask id="mask46_1322_3897" style="mask-type:luminance" maskUnits="userSpaceOnUse" x="708" y="303" width="145" height="73">
<path d="M845.269 304.3L844.868 303.914L845.718 303.515L759.17 304.372L759.554 304.758L758.695 305.156L845.269 304.3ZM761.922 375.403L716.149 375.535L716.151 375.536L761.922 375.403ZM708.955 367.869L720.261 349.315L742.635 312.6L741.973 312.907L741.68 312.61L711.738 361.743L708.002 367.873L708.666 367.562L708.955 367.869Z" fill="white"/>
</mask>
<g mask="url(#mask46_1322_3897)">
</g>
<mask id="mask47_1322_3897" style="mask-type:luminance" maskUnits="userSpaceOnUse" x="664" y="375" width="150" height="77">
<path d="M805.614 375.993L805.232 375.604L806.062 375.212L763.436 375.327L717.651 375.454L718.014 375.842L717.177 376.234L805.614 375.993ZM665.078 442.245L700.56 384.018L699.893 384.329L699.608 384.021L664.129 442.242L664.797 441.928L665.078 442.245Z" fill="white"/>
</mask>
<g mask="url(#mask47_1322_3897)">
<rect width="143.124" height="101.344" transform="matrix(-0.611664 0.788114 0.809975 0.581917 741.988 327.509)" fill="#D85A42" fill-opacity="0.35"/>
</g>
<mask id="mask48_1322_3897" style="mask-type:luminance" maskUnits="userSpaceOnUse" x="617" y="450" width="155" height="81">
<path d="M745.769 505.006L771.452 459.866L771.451 459.865L745.769 505.006ZM718.327 530.571L626.04 529.418L718.326 530.57L718.327 530.571ZM763.706 451.495L763.344 451.104L764.152 450.718L673.867 450.309L674.212 450.701L673.397 451.087L763.706 451.495ZM618.783 520.628L656.2 459.233L655.532 459.549L655.253 459.227L643.235 478.948L617.84 520.616L618.51 520.297L618.783 520.628Z" fill="white"/>
</mask>
<g mask="url(#mask48_1322_3897)">
<rect width="148.257" height="101.908" transform="matrix(-0.611624 0.788143 0.810015 0.581876 698.329 402)" fill="#D85A42" fill-opacity="0.35"/>
</g>
<mask id="mask49_1322_3897" style="mask-type:luminance" maskUnits="userSpaceOnUse" x="568" y="529" width="160" height="87">
<path d="M690.002 605.904L727.353 540.243L690 605.903L690.002 605.904ZM719.555 531.263L719.212 530.869L719.999 530.488L627.689 529.326L628.014 529.721L627.22 530.101L638.504 530.242L719.555 531.263ZM569.868 603.502L609.396 538.635L608.725 538.957L608.454 538.623L568.929 603.483L569.602 603.158L569.868 603.502Z" fill="white"/>
</mask>
<g mask="url(#mask49_1322_3897)">
</g>
<mask id="mask50_1322_3897" style="mask-type:luminance" maskUnits="userSpaceOnUse" x="690" y="533" width="161" height="89">
<path d="M796.219 620.511L699.458 618.458L699.459 618.459L796.218 620.512L796.219 620.511ZM841.355 535.736L840.99 535.342L841.767 534.962L757.871 533.893L747.216 533.758L747.564 534.152L746.779 534.532L841.355 535.736ZM691.543 608.874L707.449 580.91L728.905 543.191L728.261 543.503L727.977 543.178L690.62 608.855L691.266 608.538L691.543 608.874Z" fill="white"/>
</mask>
<g mask="url(#mask50_1322_3897)">
</g>
<mask id="mask51_1322_3897" style="mask-type:luminance" maskUnits="userSpaceOnUse" x="133" y="54" width="19" height="13">
<path d="M151.233 60.1317L150.941 59.7515L146.754 54.3222L139.374 57.4014L133.955 64.4852L135.358 66.3358L135.607 66.6625L136.48 66.2981L150.215 60.5575L151.233 60.1317Z" fill="white"/>
</mask>
<g mask="url(#mask51_1322_3897)">
<rect width="18.9903" height="13.2134" transform="matrix(-0.611641 0.788132 0.809999 0.581893 143.88 50.3723)" fill="#D85A42" fill-opacity="0.35"/>
</g>
<mask id="mask52_1322_3897" style="mask-type:luminance" maskUnits="userSpaceOnUse" x="93" y="109" width="11" height="10">
<path d="M103.075 114.396L102.803 114.015L99.9076 109.973L93.3898 118.495L102.083 114.815L103.075 114.396Z" fill="white"/>
</mask>
<g mask="url(#mask52_1322_3897)">
<rect width="13.6293" height="7.04821" transform="matrix(-0.611037 0.788565 0.81037 0.581531 100.186 108.398)" fill="#D85A42" fill-opacity="0.35"/>
</g>
<mask id="mask53_1322_3897" style="mask-type:luminance" maskUnits="userSpaceOnUse" x="218" y="53" width="22" height="13">
<path d="M239.477 59.1779L239.161 58.7959L234.611 53.2856L219.963 59.4192L218.948 59.8443L219.259 60.2259L223.504 65.4479L223.765 65.7687L224.612 65.4136L238.462 59.603L239.477 59.1779Z" fill="white"/>
</mask>
<g mask="url(#mask53_1322_3897)">
<rect width="18.892" height="18.0147" transform="matrix(-0.611829 0.787978 0.809545 0.582368 227.621 46.8979)" fill="#D85A42" fill-opacity="0.35"/>
</g>
<mask id="mask54_1322_3897" style="mask-type:luminance" maskUnits="userSpaceOnUse" x="171" y="107" width="22" height="14">
<path d="M192.811 113.826L192.515 113.442L188.265 107.935L188.013 107.606L187.164 107.964L172.931 113.971L171.938 114.388L172.229 114.773L176.433 120.313L176.683 120.643L177.535 120.284L191.819 114.245L192.811 113.826Z" fill="white"/>
</mask>
<g mask="url(#mask54_1322_3897)">
<rect width="19.834" height="18.8226" transform="matrix(-0.611829 0.787978 0.809552 0.58236 181.191 100.778)" fill="#D85A42" fill-opacity="0.35"/>
</g>
<mask id="mask55_1322_3897" style="mask-type:luminance" maskUnits="userSpaceOnUse" x="122" y="164" width="23" height="15">
<path d="M144.034 170.952L143.757 170.568L143.755 170.567L139.559 164.719L139.316 164.38L138.463 164.744L123.778 170.99L122.808 171.403L123.081 171.788L127.231 177.669L127.471 178.011L128.326 177.646L143.066 171.365L144.034 170.952Z" fill="white"/>
</mask>
<g mask="url(#mask55_1322_3897)">
<rect width="20.6205" height="19.634" transform="matrix(-0.611829 0.787978 0.809547 0.582365 131.775 157.253)" fill="#D85A42" fill-opacity="0.35"/>
</g>
<mask id="mask56_1322_3897" style="mask-type:luminance" maskUnits="userSpaceOnUse" x="71" y="223" width="23" height="16">
<path d="M93.0031 230.721L92.7453 230.335L92.744 230.335L88.611 224.122L88.3777 223.771L87.5207 224.14L72.3608 230.641L71.4137 231.047L71.6682 231.434L75.7515 237.682L75.9829 238.035L76.8413 237.667L92.0596 231.128L93.0031 230.721Z" fill="white"/>
</mask>
<g mask="url(#mask56_1322_3897)">
<rect width="21.2333" height="18.7914" transform="matrix(-0.611828 0.787985 0.809657 0.582248 80.7861 217.175)" fill="#D85A42" fill-opacity="0.35"/>
</g>
<mask id="mask57_1322_3897" style="mask-type:luminance" maskUnits="userSpaceOnUse" x="17" y="285" width="23" height="16">
<path d="M39.5525 293.314L39.3126 292.924L35.2551 286.318L35.0328 285.956L34.1722 286.33L18.5112 293.102L17.5887 293.501L17.8227 293.891L21.8272 300.533L22.0467 300.899L22.9096 300.525L38.6299 293.712L39.5525 293.314Z" fill="white"/>
</mask>
<g mask="url(#mask57_1322_3897)">
<rect width="22.0199" height="19.6028" transform="matrix(-0.611829 0.787984 0.809648 0.582257 27.5259 279.052)" fill="#D85A42" fill-opacity="0.35"/>
</g>
<mask id="mask58_1322_3897" style="mask-type:luminance" maskUnits="userSpaceOnUse" x="308" y="52" width="22" height="13">
<path d="M329.362 58.2504L329.025 57.8673L324.127 52.3095L309.45 58.5009L308.443 58.9271L308.774 59.3076L313.358 64.5872L313.629 64.8979L314.445 64.5535L314.446 64.5523L328.355 58.6744L329.362 58.2504Z" fill="white"/>
</mask>
<g mask="url(#mask58_1322_3897)">
<rect width="19.0475" height="18.0111" transform="matrix(-0.61183 0.787978 0.809558 0.582354 317.469 45.814)" fill="#D85A42" fill-opacity="0.35"/>
</g>
<mask id="mask59_1322_3897" style="mask-type:luminance" maskUnits="userSpaceOnUse" x="262" y="107" width="23" height="14">
<path d="M284.254 113.401L283.937 113.017L279.338 107.448L279.073 107.128L278.254 107.476L263.962 113.554L262.977 113.974L263.288 114.356L267.842 119.959L267.844 119.96L268.104 120.28L268.925 119.931L283.271 113.821L283.272 113.82L284.254 113.401Z" fill="white"/>
</mask>
<g mask="url(#mask59_1322_3897)">
<rect width="19.8429" height="19.6519" transform="matrix(-0.611819 0.787982 0.809488 0.58243 271.613 100.316)" fill="#D85A42" fill-opacity="0.35"/>
</g>
<mask id="mask60_1322_3897" style="mask-type:luminance" maskUnits="userSpaceOnUse" x="215" y="164" width="23" height="15">
<path d="M237.088 171.069L236.79 170.684L232.228 164.768L232.227 164.767L231.973 164.437L231.15 164.79L216.403 171.113L216.402 171.112L215.441 171.525L215.733 171.91L220.247 177.861L220.5 178.193L221.326 177.838L236.127 171.481L237.088 171.069Z" fill="white"/>
</mask>
<g mask="url(#mask60_1322_3897)">
<rect width="20.6187" height="19.4682" transform="matrix(-0.61183 0.787978 0.80956 0.582352 224.667 157.656)" fill="#D85A42" fill-opacity="0.35"/>
</g>
<mask id="mask61_1322_3897" style="mask-type:luminance" maskUnits="userSpaceOnUse" x="165" y="224" width="23" height="15">
<path d="M187.725 231.435L187.446 231.047L182.933 224.759L182.689 224.417L181.861 224.777L166.635 231.359L166.634 231.358L165.697 231.764L165.97 232.151L170.434 238.477L170.675 238.82L171.503 238.461L171.505 238.461L186.791 231.841L187.725 231.435Z" fill="white"/>
</mask>
<g mask="url(#mask61_1322_3897)">
<rect width="21.2425" height="19.62" transform="matrix(-0.611832 0.787979 0.809593 0.582316 175.362 217.853)" fill="#D85A42" fill-opacity="0.35"/>
</g>
<mask id="mask62_1322_3897" style="mask-type:luminance" maskUnits="userSpaceOnUse" x="113" y="287" width="23" height="16">
<path d="M135.991 294.688L135.733 294.298L131.28 287.609L131.047 287.256L130.216 287.619L114.485 294.478L113.571 294.876L113.825 295.266L118.223 301.994L118.455 302.35L119.287 301.987L135.079 295.086L135.991 294.688Z" fill="white"/>
</mask>
<g mask="url(#mask62_1322_3897)">
<rect width="22.0199" height="19.6028" transform="matrix(-0.611829 0.787984 0.809648 0.582257 123.301 280.616)" fill="#D85A42" fill-opacity="0.35"/>
</g>
<mask id="mask63_1322_3897" style="mask-type:luminance" maskUnits="userSpaceOnUse" x="58" y="353" width="24" height="16">
<path d="M81.7292 361.036L81.489 360.643L77.1122 353.521L76.8882 353.156L76.0522 353.524L59.7936 360.676L58.9002 361.069L59.1355 361.46L63.4547 368.625L63.6768 368.993L64.5127 368.625L80.8381 361.428L81.7292 361.036Z" fill="white"/>
</mask>
<g mask="url(#mask63_1322_3897)">
<rect width="22.8064" height="20.4141" transform="matrix(-0.61183 0.787983 0.80964 0.582266 69.0293 346.339)" fill="#D85A42" fill-opacity="0.35"/>
</g>
<mask id="mask64_1322_3897" style="mask-type:luminance" maskUnits="userSpaceOnUse" x="399" y="51" width="22" height="14">
<path d="M420.932 57.2982L420.575 56.9176L415.314 51.3103L400.61 57.5616L399.61 57.9869L399.963 58.3681L404.899 63.7051L405.18 64.0079L405.968 63.6716L419.935 57.7232L420.932 57.2982Z" fill="white"/>
</mask>
<g mask="url(#mask64_1322_3897)">
<rect width="19.0564" height="18.8404" transform="matrix(-0.611819 0.787982 0.80949 0.582427 408.348 44.7311)" fill="#D85A42" fill-opacity="0.35"/>
</g>
<mask id="mask65_1322_3897" style="mask-type:luminance" maskUnits="userSpaceOnUse" x="355" y="106" width="23" height="14">
<path d="M377.46 112.965L377.122 112.581L372.157 106.948L371.884 106.637L371.091 106.978L356.743 113.127L356.741 113.126L355.765 113.545L356.097 113.928L361.018 119.595L361.29 119.907L362.082 119.568L376.485 113.382L377.46 112.965Z" fill="white"/>
</mask>
<g mask="url(#mask65_1322_3897)">
<rect width="19.834" height="18.8226" transform="matrix(-0.611829 0.787978 0.809552 0.58236 364.84 99.9958)" fill="#D85A42" fill-opacity="0.35"/>
</g>
<mask id="mask66_1322_3897" style="mask-type:luminance" maskUnits="userSpaceOnUse" x="309" y="164" width="23" height="15">
<path d="M331.978 171.194L331.66 170.809L326.716 164.824L326.451 164.502L325.657 164.845L325.656 164.846L310.849 171.245L309.895 171.657L310.209 172.043L315.103 178.063L315.365 178.387L316.162 178.042L331.025 171.607L331.978 171.194Z" fill="white"/>
</mask>
<g mask="url(#mask66_1322_3897)">
<rect width="20.6187" height="19.4682" transform="matrix(-0.61183 0.787978 0.80956 0.582352 319.7 157.712)" fill="#D85A42" fill-opacity="0.35"/>
</g>
<mask id="mask67_1322_3897" style="mask-type:luminance" maskUnits="userSpaceOnUse" x="261" y="225" width="24" height="15">
<path d="M284.347 232.167L284.05 231.779L279.14 225.415L278.884 225.082L278.087 225.431L262.798 232.095L261.867 232.501L262.16 232.887L262.161 232.888L267.019 239.291L267.273 239.626L268.071 239.276L283.418 232.573L284.347 232.167Z" fill="white"/>
</mask>
<g mask="url(#mask67_1322_3897)">
<rect width="21.4071" height="20.4455" transform="matrix(-0.611828 0.787978 0.809543 0.58237 271.536 217.791)" fill="#D85A42" fill-opacity="0.35"/>
</g>
<mask id="mask68_1322_3897" style="mask-type:luminance" maskUnits="userSpaceOnUse" x="211" y="288" width="24" height="16">
<path d="M234.422 296.087L234.142 295.698L229.278 288.922L229.033 288.578L228.231 288.931L228.23 288.932L212.436 295.877L212.435 295.878L211.528 296.277L211.801 296.666L216.612 303.483L216.856 303.828L217.659 303.474L233.515 296.485L233.517 296.486L234.422 296.087Z" fill="white"/>
</mask>
<g mask="url(#mask68_1322_3897)">
<rect width="21.4053" height="20.2796" transform="matrix(-0.61183 0.787978 0.809555 0.582357 221.477 282.023)" fill="#D85A42" fill-opacity="0.35"/>
</g>
<mask id="mask69_1322_3897" style="mask-type:luminance" maskUnits="userSpaceOnUse" x="158" y="355" width="25" height="17">
<path d="M182.02 363.167L181.761 362.776L176.955 355.557L176.719 355.202L175.913 355.56L159.584 362.807L158.699 363.199L158.955 363.59L163.701 370.852L163.935 371.209L164.741 370.851L181.137 363.559L182.02 363.167Z" fill="white"/>
</mask>
<g mask="url(#mask69_1322_3897)">
<rect width="22.6601" height="21.2463" transform="matrix(-0.611831 0.787978 0.809571 0.58234 168.788 348.149)" fill="#D85A42" fill-opacity="0.35"/>
</g>
<mask id="mask70_1322_3897" style="mask-type:luminance" maskUnits="userSpaceOnUse" x="103" y="425" width="24" height="18">
<path d="M126.959 433.659L126.716 433.267L121.986 425.568L121.987 425.567L121.761 425.2L120.952 425.563L104.058 433.132L104.057 433.131L103.195 433.517L103.433 433.91L108.099 441.655L108.323 442.026L109.133 441.662L126.098 434.046L126.959 433.659Z" fill="white"/>
</mask>
<g mask="url(#mask70_1322_3897)">
<rect width="24.2223" height="21.8746" transform="matrix(-0.611831 0.787981 0.809627 0.58228 113.651 417.832)" fill="#D85A42" fill-opacity="0.35"/>
</g>
<mask id="mask71_1322_3897" style="mask-type:luminance" maskUnits="userSpaceOnUse" x="492" y="50" width="23" height="14">
<path d="M514.252 56.3379L513.873 55.9566L508.239 50.3011L493.509 56.6112L492.517 57.0366L492.891 57.4163L498.195 62.8123L498.483 63.1066L499.243 62.7794L513.263 56.7631L514.252 56.3379Z" fill="white"/>
</mask>
<g mask="url(#mask71_1322_3897)">
<rect width="18.287" height="19.689" transform="matrix(-0.611772 0.788007 0.809359 0.582571 500.903 43.9202)" fill="#D85A42" fill-opacity="0.35"/>
</g>
<mask id="mask72_1322_3897" style="mask-type:luminance" maskUnits="userSpaceOnUse" x="450" y="106" width="23" height="14">
<path d="M472.472 112.514L472.112 112.131L466.766 106.433L466.483 106.131L465.721 106.461L451.314 112.685L450.346 113.103L450.699 113.487L456.001 119.218L456.282 119.521L457.046 119.19L471.506 112.932L472.472 112.514Z" fill="white"/>
</mask>
<g mask="url(#mask72_1322_3897)">
<rect width="19.065" height="19.6702" transform="matrix(-0.6118 0.787991 0.809425 0.582498 459.189 99.5524)" fill="#D85A42" fill-opacity="0.35"/>
</g>
<mask id="mask73_1322_3897" style="mask-type:luminance" maskUnits="userSpaceOnUse" x="406" y="164" width="23" height="15">
<path d="M428.751 171.311L428.412 170.926L423.074 164.868L423.073 164.867L422.798 164.556L422.032 164.89L407.166 171.368L406.222 171.78L406.557 172.165L411.847 178.258L412.12 178.572L412.887 178.236L427.808 171.722L428.751 171.311Z" fill="white"/>
</mask>
<g mask="url(#mask73_1322_3897)">
<rect width="20.465" height="19.6376" transform="matrix(-0.611827 0.787978 0.809536 0.582378 415.639 157.662)" fill="#D85A42" fill-opacity="0.35"/>
</g>
<mask id="mask74_1322_3897" style="mask-type:luminance" maskUnits="userSpaceOnUse" x="359" y="225" width="24" height="16">
<path d="M382.939 232.911L382.621 232.523L377.3 226.079L377.032 225.755L376.263 226.094L360.914 232.842L359.992 233.248L360.306 233.636L365.577 240.119L365.842 240.443L366.612 240.103L382.018 233.317L382.019 233.316L382.939 232.911Z" fill="white"/>
</mask>
<g mask="url(#mask74_1322_3897)">
<rect width="20.4738" height="20.467" transform="matrix(-0.611815 0.787984 0.809473 0.582446 369.47 219.216)" fill="#D85A42" fill-opacity="0.35"/>
</g>
<mask id="mask75_1322_3897" style="mask-type:luminance" maskUnits="userSpaceOnUse" x="311" y="289" width="24" height="17">
<path d="M334.896 297.513L334.597 297.125L329.304 290.261L329.047 289.927L328.272 290.27L312.415 297.305L311.515 297.706L311.81 298.094L317.05 304.998L317.304 305.336L318.078 304.99L333.998 297.913L333.999 297.912L334.896 297.513Z" fill="white"/>
</mask>
<g mask="url(#mask75_1322_3897)">
<rect width="22.0291" height="20.4314" transform="matrix(-0.611832 0.787979 0.809587 0.582323 321.574 283.126)" fill="#D85A42" fill-opacity="0.35"/>
</g>
<mask id="mask76_1322_3897" style="mask-type:luminance" maskUnits="userSpaceOnUse" x="260" y="357" width="25" height="17">
<path d="M284.457 365.353L284.177 364.962L278.925 357.645L278.924 357.644L278.677 357.301L277.899 357.648L261.504 364.99L260.627 365.383L260.902 365.774L266.097 373.133L266.343 373.482L267.121 373.133L283.582 365.745L284.457 365.353Z" fill="white"/>
</mask>
<g mask="url(#mask76_1322_3897)">
<rect width="22.8228" height="21.9061" transform="matrix(-0.611827 0.787978 0.809535 0.582378 270.459 350.215)" fill="#D85A42" fill-opacity="0.35"/>
</g>
<mask id="mask77_1322_3897" style="mask-type:luminance" maskUnits="userSpaceOnUse" x="207" y="428" width="25" height="18">
<path d="M231.424 436.672L231.162 436.278L225.966 428.472L225.728 428.113L224.947 428.466L207.983 436.137L207.13 436.524L207.386 436.917L212.52 444.77L212.756 445.13L213.538 444.777L230.573 437.057L231.424 436.672Z" fill="white"/>
</mask>
<g mask="url(#mask77_1322_3897)">
<rect width="24.2223" height="21.8746" transform="matrix(-0.611831 0.787981 0.809627 0.58228 217.565 420.785)" fill="#D85A42" fill-opacity="0.35"/>
</g>
<mask id="mask78_1322_3897" style="mask-type:luminance" maskUnits="userSpaceOnUse" x="587" y="49" width="23" height="14">
<path d="M609.35 55.35L608.95 54.9689L602.926 49.2637L588.174 55.6356L587.191 56.0599L587.586 56.4394L593.27 61.894L593.567 62.1793L594.302 61.8622L608.369 55.774L609.35 55.35Z" fill="white"/>
</mask>
<g mask="url(#mask78_1322_3897)">
<rect width="18.2853" height="19.5229" transform="matrix(-0.611778 0.788004 0.809372 0.582556 595.854 42.9581)" fill="#D85A42" fill-opacity="0.35"/>
</g>
<mask id="mask79_1322_3897" style="mask-type:luminance" maskUnits="userSpaceOnUse" x="546" y="105" width="24" height="15">
<path d="M569.348 112.061L568.967 111.678L563.225 105.915L562.933 105.621L562.196 105.943L547.739 112.241L547.738 112.24L546.778 112.658L547.155 113.041L552.852 118.839L553.141 119.134L553.88 118.812L568.389 112.477L569.348 112.061Z" fill="white"/>
</mask>
<g mask="url(#mask79_1322_3897)">
<rect width="19.0735" height="20.5004" transform="matrix(-0.611773 0.788007 0.809362 0.582568 555.724 98.9935)" fill="#D85A42" fill-opacity="0.35"/>
</g>
<mask id="mask80_1322_3897" style="mask-type:luminance" maskUnits="userSpaceOnUse" x="504" y="164" width="24" height="15">
<path d="M527.462 171.432L527.099 171.047L521.348 164.917L521.065 164.614L520.326 164.94L505.405 171.497L504.47 171.908L504.825 172.294L510.528 178.459L510.81 178.764L511.549 178.439L526.526 171.843L527.462 171.432Z" fill="white"/>
</mask>
<g mask="url(#mask80_1322_3897)">
<rect width="19.8498" height="20.3157" transform="matrix(-0.611804 0.787989 0.809437 0.582485 513.595 157.956)" fill="#D85A42" fill-opacity="0.35"/>
</g>
<mask id="mask81_1322_3897" style="mask-type:luminance" maskUnits="userSpaceOnUse" x="460" y="226" width="24" height="16">
<path d="M483.566 233.673L483.225 233.285L477.475 226.76L477.199 226.448L476.456 226.776L461.051 233.609L460.136 234.014L460.472 234.402L466.172 240.966L466.447 241.282L467.19 240.951L482.654 234.079L483.566 233.673Z" fill="white"/>
</mask>
<g mask="url(#mask81_1322_3897)">
<rect width="21.2604" height="21.2785" transform="matrix(-0.611815 0.787984 0.809471 0.582447 469.506 219.313)" fill="#D85A42" fill-opacity="0.35"/>
</g>
<mask id="mask82_1322_3897" style="mask-type:luminance" maskUnits="userSpaceOnUse" x="413" y="291" width="25" height="16">
<path d="M437.495 298.972L437.173 298.583L431.433 291.63L431.165 291.304L430.42 291.638L414.502 298.766L413.611 299.165L413.927 299.554L419.613 306.548L419.88 306.875L420.625 306.541L436.606 299.371L437.495 298.972Z" fill="white"/>
</mask>
<g mask="url(#mask82_1322_3897)">
<rect width="21.2586" height="21.1126" transform="matrix(-0.611818 0.787982 0.809483 0.582435 423.601 284.688)" fill="#D85A42" fill-opacity="0.35"/>
</g>
<mask id="mask83_1322_3897" style="mask-type:luminance" maskUnits="userSpaceOnUse" x="364" y="359" width="26" height="17">
<path d="M389.101 367.582L388.8 367.192L383.081 359.776L382.822 359.439L382.075 359.777L365.616 367.217L364.746 367.61L365.043 368.002L370.703 375.462L370.96 375.801L371.711 375.462L388.234 367.975L389.101 367.582Z" fill="white"/>
</mask>
<g mask="url(#mask83_1322_3897)">
<rect width="22.8246" height="22.0719" transform="matrix(-0.611826 0.787979 0.809524 0.582391 375.064 351.96)" fill="#D85A42" fill-opacity="0.35"/>
</g>
<mask id="mask84_1322_3897" style="mask-type:luminance" maskUnits="userSpaceOnUse" x="313" y="431" width="26" height="18">
<path d="M338.188 439.742L337.907 439.349L332.223 431.432L331.973 431.084L331.222 431.427L331.221 431.428L314.191 439.202L313.345 439.588L313.622 439.982L319.244 447.948L319.492 448.299L320.244 447.955L337.344 440.128L338.188 439.742Z" fill="white"/>
</mask>
<g mask="url(#mask84_1322_3897)">
<rect width="23.6003" height="21.8885" transform="matrix(-0.611832 0.787979 0.809587 0.582323 324.265 423.875)" fill="#D85A42" fill-opacity="0.35"/>
</g>
<mask id="mask85_1322_3897" style="mask-type:luminance" maskUnits="userSpaceOnUse" x="259" y="506" width="26" height="19">
<path d="M284.572 515.76L284.31 515.365L278.676 506.902L278.437 506.54L277.682 506.888L277.681 506.889L260.046 515.025L259.222 515.404L259.481 515.798L265.046 524.313L265.286 524.678L266.042 524.329L283.751 516.139L284.572 515.76Z" fill="white"/>
</mask>
<g mask="url(#mask85_1322_3897)">
<rect width="25.0179" height="23.5148" transform="matrix(-0.611831 0.787978 0.809567 0.582344 269.998 498.796)" fill="#D85A42" fill-opacity="0.35"/>
</g>
<mask id="mask86_1322_3897" style="mask-type:luminance" maskUnits="userSpaceOnUse" x="683" y="48" width="24" height="14">
<path d="M706.293 54.3456L705.869 53.9654L699.442 48.2094L684.668 54.6433L683.695 55.0675L684.114 55.4472L690.193 60.9621L690.498 61.238L691.205 60.9299L691.206 60.9294L705.323 54.7699L706.293 54.3456Z" fill="white"/>
</mask>
<g mask="url(#mask86_1322_3897)">
<rect width="18.287" height="19.689" transform="matrix(-0.611772 0.788007 0.809359 0.582571 692.721 41.6816)" fill="#D85A42" fill-opacity="0.35"/>
</g>
<mask id="mask87_1322_3897" style="mask-type:luminance" maskUnits="userSpaceOnUse" x="645" y="105" width="24" height="14">
<path d="M668.145 111.593L667.742 111.212L661.588 105.384L661.288 105.099L660.578 105.41L646.072 111.785L646.071 111.786L645.121 112.203L645.52 112.585L651.628 118.448L651.629 118.449L651.927 118.734L652.637 118.422L667.195 112.012L667.196 112.011L668.145 111.593Z" fill="white"/>
</mask>
<g mask="url(#mask87_1322_3897)">
<rect width="18.9179" height="20.5042" transform="matrix(-0.611766 0.78801 0.809349 0.582582 653.935 98.7035)" fill="#D85A42" fill-opacity="0.35"/>
</g>
<mask id="mask88_1322_3897" style="mask-type:luminance" maskUnits="userSpaceOnUse" x="604" y="164" width="25" height="15">
<path d="M628.183 171.563L627.799 171.179L621.62 164.976L621.326 164.682L620.615 164.998L605.643 171.637L604.715 172.048L605.092 172.432L605.094 172.433L611.225 178.673L611.516 178.969L612.23 178.653L627.256 171.976L628.183 171.563Z" fill="white"/>
</mask>
<g mask="url(#mask88_1322_3897)">
<rect width="19.8583" height="21.1458" transform="matrix(-0.61178 0.788003 0.809376 0.582552 613.623 158.054)" fill="#D85A42" fill-opacity="0.35"/>
</g>
<mask id="mask89_1322_3897" style="mask-type:luminance" maskUnits="userSpaceOnUse" x="562" y="227" width="25" height="16">
<path d="M586.271 234.442L585.906 234.054L579.708 227.448L579.421 227.144L578.707 227.464L563.248 234.381L562.343 234.788L562.701 235.175L568.848 241.821L569.132 242.129L569.847 241.808L585.366 234.847L586.271 234.442Z" fill="white"/>
</mask>
<g mask="url(#mask89_1322_3897)">
<rect width="20.6363" height="21.1272" transform="matrix(-0.611804 0.787989 0.809437 0.582485 571.985 220.249)" fill="#D85A42" fill-opacity="0.35"/>
</g>
<mask id="mask90_1322_3897" style="mask-type:luminance" maskUnits="userSpaceOnUse" x="517" y="292" width="26" height="17">
<path d="M542.276 300.465L541.934 300.076L535.726 293.031L535.448 292.717L534.731 293.041L518.756 300.259L517.873 300.658L518.212 301.049L524.366 308.134L524.365 308.135L524.641 308.452L525.359 308.127L541.395 300.864L541.397 300.864L542.276 300.465Z" fill="white"/>
</mask>
<g mask="url(#mask90_1322_3897)">
<rect width="21.2673" height="21.9424" transform="matrix(-0.6118 0.787991 0.809425 0.582498 527.674 286.035)" fill="#D85A42" fill-opacity="0.35"/>
</g>
<mask id="mask91_1322_3897" style="mask-type:luminance" maskUnits="userSpaceOnUse" x="471" y="361" width="26" height="18">
<path d="M496.023 369.856L495.699 369.463L489.493 361.946L489.224 361.621L488.503 361.949L471.985 369.489L471.124 369.88L471.442 370.271L477.591 377.834L477.859 378.164L478.581 377.834L495.164 370.247L496.023 369.856Z" fill="white"/>
</mask>
<g mask="url(#mask91_1322_3897)">
<rect width="22.0451" height="21.924" transform="matrix(-0.611817 0.787983 0.809481 0.582437 481.225 354.652)" fill="#D85A42" fill-opacity="0.35"/>
</g>
<mask id="mask92_1322_3897" style="mask-type:luminance" maskUnits="userSpaceOnUse" x="421" y="434" width="27" height="18">
<path d="M447.358 442.889L447.054 442.495L440.861 434.464L440.6 434.125L439.875 434.459L422.783 442.341L421.945 442.728L422.244 443.122L428.374 451.201L428.635 451.544L429.358 451.208L446.522 443.275L447.358 442.889Z" fill="white"/>
</mask>
<g mask="url(#mask92_1322_3897)">
<rect width="23.4538" height="22.7211" transform="matrix(-0.611825 0.787979 0.809521 0.582394 432.696 427.473)" fill="#D85A42" fill-opacity="0.35"/>
</g>
<mask id="mask93_1322_3897" style="mask-type:luminance" maskUnits="userSpaceOnUse" x="370" y="510" width="27" height="19">
<path d="M396.059 519.863L395.775 519.466L389.609 510.878L389.608 510.877L389.357 510.525L388.629 510.863L370.927 519.115L370.113 519.495L370.391 519.889L376.491 528.533L376.742 528.889L377.469 528.548L395.245 520.242L396.059 519.863Z" fill="white"/>
</mask>
<g mask="url(#mask93_1322_3897)">
<rect width="24.2386" height="23.3667" transform="matrix(-0.611826 0.787979 0.809529 0.582386 380.891 503.253)" fill="#D85A42" fill-opacity="0.35"/>
</g>
<mask id="mask94_1322_3897" style="mask-type:luminance" maskUnits="userSpaceOnUse" x="666" y="227" width="26" height="17">
<path d="M691.142 235.237L690.756 234.85L684.091 228.16L683.795 227.865L683.108 228.176L667.6 235.182L667.599 235.181L666.701 235.588L667.081 235.974L673.697 242.705L673.989 243.004L674.677 242.692L690.246 235.642L690.247 235.643L691.142 235.237Z" fill="white"/>
</mask>
<g mask="url(#mask94_1322_3897)">
<rect width="20.4892" height="21.9611" transform="matrix(-0.611775 0.788005 0.809366 0.582563 676.521 220.983)" fill="#D85A42" fill-opacity="0.35"/>
</g>
<mask id="mask95_1322_3897" style="mask-type:luminance" maskUnits="userSpaceOnUse" x="624" y="294" width="26" height="17">
<path d="M649.308 301.982L648.941 301.593L642.247 294.457L642.246 294.456L641.958 294.151L641.269 294.465L625.242 301.779L624.366 302.178L624.728 302.567L631.368 309.748L631.654 310.056L632.346 309.741L648.434 302.383L648.435 302.381L649.308 301.982Z" fill="white"/>
</mask>
<g mask="url(#mask95_1322_3897)">
<rect width="21.4229" height="21.9387" transform="matrix(-0.611804 0.787989 0.809436 0.582486 634.639 287.408)" fill="#D85A42" fill-opacity="0.35"/>
</g>
<mask id="mask96_1322_3897" style="mask-type:luminance" maskUnits="userSpaceOnUse" x="579" y="363" width="27" height="18">
<path d="M605.319 372.182L604.972 371.79L598.257 364.169L597.977 363.852L597.283 364.171L580.711 371.811L579.859 372.204L580.199 372.596L586.856 380.264L587.136 380.585L587.829 380.265L587.83 380.264L604.469 372.575L605.319 372.182Z" fill="white"/>
</mask>
<g mask="url(#mask96_1322_3897)">
<rect width="22.0451" height="21.924" transform="matrix(-0.611817 0.787983 0.809481 0.582437 590.588 357.021)" fill="#D85A42" fill-opacity="0.35"/>
</g>
<mask id="mask97_1322_3897" style="mask-type:luminance" maskUnits="userSpaceOnUse" x="532" y="437" width="27" height="18">
<path d="M558.993 446.112L558.667 445.717L551.942 437.571L551.941 437.571L551.67 437.241L550.973 437.565L533.822 445.557L532.993 445.942L533.313 446.336L539.977 454.535L540.248 454.867L540.946 454.541L558.166 446.497L558.993 446.112Z" fill="white"/>
</mask>
<g mask="url(#mask97_1322_3897)">
<rect width="23.4626" height="23.5506" transform="matrix(-0.611813 0.787985 0.809467 0.582452 543.721 430.111)" fill="#D85A42" fill-opacity="0.35"/>
</g>
<mask id="mask98_1322_3897" style="mask-type:luminance" maskUnits="userSpaceOnUse" x="483" y="514" width="28" height="20">
<path d="M510.148 524.063L509.843 523.668L503.119 514.949L502.855 514.606L502.156 514.936L484.393 523.303L483.585 523.683L483.884 524.079L490.543 532.854L490.804 533.199L491.506 532.868L509.343 524.443L510.148 524.063Z" fill="white"/>
</mask>
<g mask="url(#mask98_1322_3897)">
<rect width="25.0179" height="23.5148" transform="matrix(-0.611831 0.787978 0.809567 0.582344 494.945 507.157)" fill="#D85A42" fill-opacity="0.35"/>
</g>
<mask id="mask99_1322_3897" style="mask-type:luminance" maskUnits="userSpaceOnUse" x="691" y="366" width="27" height="18">
<path d="M717.052 374.565L716.686 374.174L716.685 374.173L709.438 366.448L709.147 366.138L708.48 366.45L691.857 374.194L691.855 374.193L691.014 374.586L691.376 374.978L698.566 382.753L698.853 383.064L699.522 382.752L716.211 374.958L717.052 374.565Z" fill="white"/>
</mask>
<g mask="url(#mask99_1322_3897)">
<rect width="22.6847" height="23.569" transform="matrix(-0.611796 0.787994 0.809414 0.58251 701.324 358.668)" fill="#D85A42" fill-opacity="0.35"/>
</g>
<mask id="mask100_1322_3897" style="mask-type:luminance" maskUnits="userSpaceOnUse" x="646" y="440" width="28" height="19">
<path d="M673.186 449.398L672.84 449.003L665.557 440.738L665.274 440.419L664.603 440.733L647.4 448.836L646.579 449.222L646.92 449.616L646.922 449.617L654.143 457.933L654.425 458.257L655.095 457.94L672.368 449.784L673.186 449.398Z" fill="white"/>
</mask>
<g mask="url(#mask100_1322_3897)">
<rect width="23.6182" height="23.547" transform="matrix(-0.611816 0.787983 0.809477 0.582441 657.692 432.996)" fill="#D85A42" fill-opacity="0.35"/>
</g>
<mask id="mask101_1322_3897" style="mask-type:luminance" maskUnits="userSpaceOnUse" x="599" y="518" width="28" height="20">
<path d="M626.92 528.359L626.592 527.961L619.284 519.109L619.009 518.777L618.337 519.096L618.336 519.097L600.516 527.585L599.718 527.964L600.041 528.362L607.282 537.269L607.555 537.605L608.229 537.283L626.123 528.739L626.92 528.359Z" fill="white"/>
</mask>
<g mask="url(#mask101_1322_3897)">
<rect width="24.2491" height="24.3621" transform="matrix(-0.611813 0.787985 0.809466 0.582454 610.695 511.541)" fill="#D85A42" fill-opacity="0.35"/>
</g>
</mask>
<g mask="url(#mask0_1322_3897)">
<path d="M595.253 66.9998H95.2534V478H595.253V66.9998Z" fill="url(#paint0_linear_1322_3897)" fill-opacity="0.63"/>
</g>
<defs>
<linearGradient id="paint0_linear_1322_3897" x1="401.469" y1="250.855" x2="409.639" y2="535.499" gradientUnits="userSpaceOnUse">
<stop offset="0.165666" stop-color="#EAD8C7"/>
<stop offset="1" stop-color="#EAD8C7" stop-opacity="0"/>
</linearGradient>
</defs>
</svg>
