<svg width="527" height="424" viewBox="0 0 527 424" fill="none" xmlns="http://www.w3.org/2000/svg">
<mask id="mask0_1422_6538" style="mask-type:alpha" maskUnits="userSpaceOnUse" x="-146" y="-8" width="1343" height="776">
<path d="M113.113 60.113L112.791 59.8473L159.056 5.9154L72.11 6.81037L24.4914 60.1312L113.082 59.7173L113.113 60.113L113.144 60.5075L22.6603 60.9298L71.6969 6.02404L160.848 5.10522L113.324 60.5074L113.144 60.5075L113.113 60.113Z" fill="#D85A42" fill-opacity="0.35"/>
<path d="M64.1549 117.178L63.8343 116.914L112.217 60.511L23.778 60.9233L-26.0059 116.667L64.1258 116.784L64.1549 117.178L64.1841 117.573L-27.8251 117.455L23.3668 60.1345L114.001 59.7119L64.3648 117.574L64.1841 117.573L64.1549 117.178Z" fill="#D85A42" fill-opacity="0.35"/>
<path d="M12.9442 176.883L12.6222 176.617L63.2711 117.574L-26.7079 117.457L-78.8039 175.791L12.9173 176.488L12.9442 176.883L12.9698 177.277L-80.6147 176.568L-27.1183 116.667L65.0449 116.785L13.1532 177.28L12.9698 177.277L12.9442 176.883Z" fill="#D85A42" fill-opacity="0.35"/>
<path d="M-40.6901 239.41L-41.0107 239.145L12.0635 177.272L-79.5032 176.578L-134.076 237.683L-40.7138 239.013L-40.6901 239.41L-40.6667 239.804L-135.874 238.447L-79.9117 175.785L13.8281 176.495L-40.482 239.808L-40.6667 239.804L-40.6901 239.41Z" fill="#D85A42" fill-opacity="0.35"/>
<path d="M204.351 59.6871L204.026 59.4286L248.766 4.99136L160.162 5.90448L114.003 59.7138L204.32 59.2926L204.351 59.6871L204.383 60.0816L112.22 60.5129L159.739 5.11688L250.51 4.18188L204.568 60.082L204.383 60.0816L204.351 59.6871Z" fill="#D85A42" fill-opacity="0.35"/>
<path d="M157.004 117.299L156.678 117.041L203.487 60.0857L113.324 60.5072L65.0473 116.785L156.974 116.904L157.004 117.299L157.033 117.696L63.2735 117.574L112.903 59.7184L205.222 59.2874L157.219 117.695L157.033 117.696L157.004 117.299Z" fill="#D85A42" fill-opacity="0.35"/>
<path d="M107.446 177.602L107.119 177.342L156.14 117.695L64.3696 117.576L13.8282 176.495L107.418 177.206L107.446 177.602L107.47 177.997L12.0636 177.272L63.9498 116.785L157.867 116.908L107.658 177.997L107.47 177.997L107.446 177.602Z" fill="#D85A42" fill-opacity="0.35"/>
<path d="M55.5159 240.782L55.1906 240.523L106.584 177.989L13.1533 177.28L-39.8152 239.027L55.4935 240.386L55.5159 240.782L55.5405 241.177L-41.5692 239.792L12.7353 176.487L108.301 177.212L55.7285 241.179L55.5405 241.177L55.5159 240.782Z" fill="#D85A42" fill-opacity="0.35"/>
<path d="M297.345 59.2534L297.014 59.0001L340.164 4.04877L249.853 4.97945L205.219 59.2885L297.314 58.8589L297.345 59.2534L297.377 59.6501L203.484 60.0868L249.421 4.19288L341.858 3.23999L297.565 59.649L297.377 59.6501L297.345 59.2534Z" fill="#D85A42" fill-opacity="0.35"/>
<path d="M251.669 117.422L251.338 117.169L296.501 59.6524L204.567 60.0816L157.864 116.907L251.64 117.027L251.669 117.422L251.699 117.819L156.137 117.695L204.136 59.2938L298.188 58.8535L251.889 117.818L251.699 117.819L251.669 117.422Z" fill="#D85A42" fill-opacity="0.35"/>
<path d="M203.841 178.331L203.51 178.077L250.829 117.815L157.216 117.694L108.3 177.21L203.814 177.936L203.841 178.331L203.868 178.726L106.583 177.987L156.786 116.903L252.509 117.026L204.061 178.727L203.868 178.726L203.841 178.331Z" fill="#D85A42" fill-opacity="0.35"/>
<path d="M153.707 242.179L153.376 241.926L203.007 178.72L107.656 177.995L56.3706 240.397L153.684 241.785L153.707 242.179L153.731 242.576L54.6619 241.163L107.229 177.203L204.678 177.943L153.925 242.579L153.731 242.576L153.707 242.179Z" fill="#D85A42" fill-opacity="0.35"/>
<path d="M101.091 309.187L100.761 308.935L152.875 242.565L55.7267 241.179L1.89713 306.675L101.072 308.792L101.091 309.187L101.113 309.582L0.198979 307.43L55.3015 240.383L154.536 241.798L101.308 309.586L101.113 309.582L101.091 309.187Z" fill="#D85A42" fill-opacity="0.35"/>
<path d="M392.142 58.8118L391.807 58.5647L433.295 3.08761L341.232 4.03634L298.189 58.8537L392.112 58.416L392.142 58.8118L392.174 59.2063L296.501 59.6526L340.789 3.25097L434.939 2.27979L392.368 59.2057L392.174 59.2063L392.142 58.8118Z" fill="#D85A42" fill-opacity="0.35"/>
<path d="M348.217 117.546L347.881 117.299L391.325 59.2098L297.566 59.6478L252.51 117.027L348.189 117.152L348.217 117.546L348.248 117.942L250.83 117.816L297.126 58.8588L392.962 58.4106L348.444 117.942L348.248 117.942L348.217 117.546Z" fill="#D85A42" fill-opacity="0.35"/>
<path d="M302.199 179.078L301.863 178.831L347.4 117.939L251.888 117.816L204.676 177.943L302.173 178.682L302.199 179.078L302.226 179.473L203.005 178.719L251.448 117.026L349.031 117.152L302.423 179.475L302.226 179.473L302.199 179.078Z" fill="#D85A42" fill-opacity="0.35"/>
<path d="M253.941 243.612L253.605 243.364L301.389 179.469L204.06 178.729L154.536 241.798L253.917 243.215L253.941 243.612L253.964 244.006L152.875 242.565L203.623 177.936L303.011 178.69L254.164 244.009L253.964 244.006L253.941 243.612Z" fill="#D85A42" fill-opacity="0.35"/>
<path d="M203.27 311.365L202.933 311.119L253.134 243.993L153.923 242.578L101.918 308.808L203.249 310.971L203.27 311.365L203.29 311.761L100.266 309.562L153.488 241.781L254.748 243.225L203.492 311.764L203.29 311.761L203.27 311.365Z" fill="#D85A42" fill-opacity="0.35"/>
<path d="M150.004 382.595L149.667 382.349L202.469 311.744L101.311 309.586L46.634 379.219L149.987 382.202L150.004 382.595L150.022 382.991L44.9913 379.961L100.878 308.787L204.075 310.99L150.226 382.998L150.022 382.991L150.004 382.595Z" fill="#D85A42" fill-opacity="0.35"/>
<path d="M488.798 58.3594L488.458 58.1207L528.209 2.11025L434.344 3.07669L392.962 58.4119L488.766 57.9649L488.798 58.3594L488.83 58.7562L391.324 59.2111L433.89 2.29132L529.805 1.30313L489.029 58.7538L488.83 58.7562L488.798 58.3594Z" fill="#D85A42" fill-opacity="0.35"/>
<path d="M446.7 117.673L446.359 117.433L488.003 58.7572L392.368 59.2041L349.032 117.152L446.671 117.278L446.7 117.673L446.729 118.068L347.401 117.939L391.917 58.415L489.591 57.96L446.931 118.068L446.729 118.068L446.7 117.673Z" fill="#D85A42" fill-opacity="0.35"/>
<path d="M402.581 179.841L402.24 179.601L445.912 118.068L348.444 117.942L303.015 178.691L402.555 179.445L402.581 179.841L402.608 180.236L301.391 179.468L347.993 117.151L447.494 117.28L402.811 180.238L402.608 180.236L402.581 179.841Z" fill="#D85A42" fill-opacity="0.35"/>
<path d="M356.287 245.072L355.946 244.833L401.794 180.232L302.427 179.478L254.751 243.23L356.264 244.678L356.287 245.072L356.312 245.468L253.137 243.997L301.98 178.684L403.37 179.454L356.516 245.471L356.312 245.468L356.287 245.072Z" fill="#D85A42" fill-opacity="0.35"/>
<path d="M307.655 313.595L307.314 313.356L355.504 245.454L254.167 244.01L204.075 310.991L307.634 313.201L307.655 313.595L307.675 313.991L202.47 311.745L253.72 243.214L357.072 244.687L307.883 313.995L307.675 313.991L307.655 313.595Z" fill="#D85A42" fill-opacity="0.35"/>
<path d="M256.498 385.669L256.157 385.429L306.872 313.972L203.492 311.765L150.8 382.224L256.482 385.274L256.498 385.669L256.517 386.063L149.203 382.967L203.048 310.968L308.431 313.216L256.727 386.07L256.517 386.063L256.498 385.669Z" fill="#D85A42" fill-opacity="0.35"/>
<path d="M587.363 57.9008L587.016 57.6685L624.956 1.11231L529.237 2.09858L489.59 57.9618L587.333 57.5051L587.363 57.9008L587.395 58.2953L488.002 58.759L528.772 1.3122L626.502 0.304914L587.602 58.2945L587.395 58.2953L587.363 57.9008Z" fill="#D85A42" fill-opacity="0.35"/>
<path d="M547.18 117.803L546.835 117.572L586.596 58.298L489.031 58.7526L447.494 117.28L547.152 117.41L547.18 117.803L547.211 118.199L445.912 118.068L488.568 57.966L588.136 57.5014L547.419 118.199L547.211 118.199L547.18 117.803Z" fill="#D85A42" fill-opacity="0.35"/>
<path d="M505.042 180.62L504.695 180.387L546.414 118.198L446.931 118.07L403.368 179.452L505.016 180.223L505.042 180.62L505.069 181.015L401.792 180.23L446.47 117.278L547.947 117.41L505.277 181.015L505.069 181.015L505.042 180.62Z" fill="#D85A42" fill-opacity="0.35"/>
<path d="M460.807 246.563L460.46 246.331L504.279 181.01L402.811 180.239L357.071 244.688L460.783 246.168L460.807 246.563L460.831 246.957L355.503 245.454L402.351 179.446L505.806 180.231L461.042 246.961L460.831 246.957L460.807 246.563Z" fill="#D85A42" fill-opacity="0.35"/>
<path d="M414.311 315.869L413.964 315.639L460.045 246.945L356.514 245.468L308.432 313.216L414.291 315.476L414.311 315.869L414.331 316.265L306.873 313.972L356.056 244.672L461.566 246.176L414.546 316.27L414.331 316.265L414.311 315.869Z" fill="#D85A42" fill-opacity="0.35"/>
<path d="M365.381 388.812L365.035 388.581L413.556 316.25L307.882 313.994L257.277 385.298L365.364 388.417L365.381 388.812L365.399 389.207L255.725 386.041L307.426 313.195L415.068 315.492L365.614 389.213L365.399 389.207L365.381 388.812Z" fill="#D85A42" fill-opacity="0.35"/>
<path d="M313.817 465.676L313.469 465.445L364.627 389.184L256.728 386.07L203.397 461.212L313.803 465.281L313.817 465.676L313.831 466.072L201.856 461.944L256.273 385.268L366.133 388.438L314.048 466.08L313.831 466.072L313.817 465.676Z" fill="#D85A42" fill-opacity="0.35"/>
<path d="M609.651 181.415L609.3 181.191L648.973 118.333L547.418 118.202L505.806 180.232L609.627 181.02L609.651 181.415L609.678 181.81L504.28 181.011L546.944 117.411L650.456 117.545L609.894 181.812L609.678 181.81L609.651 181.415Z" fill="#D85A42" fill-opacity="0.35"/>
<path d="M567.575 248.083L567.221 247.859L608.914 181.801L505.279 181.014L461.568 246.176L567.55 247.687L567.575 248.083L567.597 248.478L460.047 246.944L504.808 180.221L610.392 181.023L567.816 248.48L567.597 248.478L567.575 248.083Z" fill="#D85A42" fill-opacity="0.35"/>
<path d="M523.325 318.197L522.972 317.973L566.839 248.468L461.044 246.961L415.071 315.492L523.303 317.802L523.325 318.197L523.345 318.593L413.559 316.25L460.575 246.163L568.31 247.7L523.566 318.596L523.345 318.593L523.325 318.197Z" fill="#D85A42" fill-opacity="0.35"/>
<path d="M476.726 392.025L476.373 391.802L522.589 318.577L414.547 316.271L366.133 388.44L476.709 391.63L476.726 392.025L476.743 392.421L364.628 389.185L414.077 315.471L524.053 317.818L476.966 392.427L476.743 392.421L476.726 392.025Z" fill="#D85A42" fill-opacity="0.35"/>
<path d="M427.593 469.871L427.242 469.648L475.998 392.397L365.614 389.213L314.566 465.311L427.579 469.476L427.593 469.871L427.608 470.267L313.07 466.044L365.148 388.411L477.454 391.65L427.833 470.275L427.608 470.267L427.593 469.871Z" fill="#D85A42" fill-opacity="0.35"/>
<path d="M375.711 552.074L375.36 551.851L426.868 470.24L314.049 466.081L260.147 546.434L375.701 551.679L375.711 552.074L375.721 552.469L258.658 547.155L313.586 465.275L428.319 469.504L375.949 552.479L375.721 552.469L375.711 552.074Z" fill="#D85A42" fill-opacity="0.35"/>
<path d="M634.763 320.577L634.405 320.361L675.947 250.026L567.816 248.483L524.054 317.819L634.742 320.182L634.763 320.577L634.783 320.972L522.591 318.578L567.333 247.688L677.371 249.257L635.01 320.977L634.783 320.972L634.763 320.577Z" fill="#D85A42" fill-opacity="0.35"/>
<path d="M590.616 395.311L590.258 395.096L634.049 320.954L523.561 318.596L477.452 391.651L590.598 394.915L590.616 395.311L590.635 395.706L475.995 392.398L523.078 317.797L635.468 320.194L590.863 395.713L590.635 395.706L590.616 395.311Z" fill="#D85A42" fill-opacity="0.35"/>
<path d="M544.044 474.164L543.685 473.95L589.912 395.685L476.965 392.427L428.318 469.505L544.03 473.769L544.044 474.164L544.057 474.558L426.867 470.241L476.485 391.624L591.323 394.937L544.289 474.568L544.057 474.558L544.044 474.164Z" fill="#D85A42" fill-opacity="0.35"/>
<path d="M494.833 557.481L494.474 557.267L543.342 474.533L427.832 470.275L376.433 551.712L494.821 557.088L494.833 557.481L494.843 557.877L374.989 552.436L427.353 469.468L544.746 473.795L495.077 557.887L494.843 557.877L494.833 557.481Z" fill="#D85A42" fill-opacity="0.35"/>
<path d="M616.871 563.022L616.509 562.816L662.59 478.927L544.291 474.567L495.533 557.119L616.861 562.627L616.871 563.022L616.882 563.416L494.135 557.844L543.8 473.759L663.947 478.187L617.124 563.427L616.882 563.416L616.871 563.022Z" fill="#D85A42" fill-opacity="0.35"/>
<path d="M81.9884 6.31292L77.3501 0.315949L61.8357 6.52095L66.4264 12.548L81.9884 6.31292Z" fill="#D85A42" fill-opacity="0.35"/>
<path d="M33.8335 60.4832L29.2669 54.1599L13.3425 60.5781L17.8583 66.9329L33.8335 60.4832Z" fill="#D85A42" fill-opacity="0.35"/>
<path d="M170.226 5.40235L165.231 -0.646766L149.698 5.61357L154.644 11.694L170.226 5.40235Z" fill="#D85A42" fill-opacity="0.35"/>
<path d="M123.562 60.0635L118.626 53.6827L102.682 60.1596L107.566 66.5745L123.562 60.0635Z" fill="#D85A42" fill-opacity="0.35"/>
<path d="M74.7899 117.193L69.9243 110.457L53.5479 117.166L58.3598 123.938L74.7899 117.193Z" fill="#D85A42" fill-opacity="0.35"/>
<path d="M23.7636 176.964L18.9802 169.846L2.1487 176.801L6.87673 183.957L23.7636 176.964Z" fill="#D85A42" fill-opacity="0.35"/>
<path d="M260.105 4.47877L254.742 -1.62474L239.194 4.69383L244.508 10.8264L260.105 4.47877Z" fill="#D85A42" fill-opacity="0.35"/>
<path d="M215 59.6372L209.683 53.1978L193.723 59.7377L198.988 66.2089L215 59.6372Z" fill="#D85A42" fill-opacity="0.35"/>
<path d="M167.845 117.317L162.583 110.514L146.19 117.288L151.396 124.126L167.845 117.317Z" fill="#D85A42" fill-opacity="0.35"/>
<path d="M118.479 177.685L113.285 170.492L96.4318 177.517L101.569 184.748L118.479 177.685Z" fill="#D85A42" fill-opacity="0.35"/>
<path d="M66.7547 240.942L61.6411 233.33L44.3047 240.621L49.3589 248.274L66.7547 240.942Z" fill="#D85A42" fill-opacity="0.35"/>
<path d="M12.4982 307.298L7.47632 299.232L-10.3713 306.808L-5.41304 314.916L12.4982 307.298Z" fill="#D85A42" fill-opacity="0.35"/>
<path d="M351.674 3.53292L345.929 -2.6235L330.367 3.75333L336.065 9.94201L351.674 3.53292Z" fill="#D85A42" fill-opacity="0.35"/>
<path d="M308.204 59.2031L302.492 52.7031L286.516 59.3037L292.178 65.8375L308.204 59.2031Z" fill="#D85A42" fill-opacity="0.35"/>
<path d="M262.726 117.436L257.053 110.567L240.641 117.407L246.258 124.314L262.726 117.436Z" fill="#D85A42" fill-opacity="0.35"/>
<path d="M215.102 178.418L209.481 171.151L192.61 178.249L198.174 185.555L215.102 178.418Z" fill="#D85A42" fill-opacity="0.35"/>
<path d="M165.181 242.343L159.623 234.648L142.264 242.016L147.762 249.754L165.181 242.343Z" fill="#D85A42" fill-opacity="0.35"/>
<path d="M112.785 309.435L107.302 301.278L89.4296 308.937L94.8475 317.138L112.785 309.435Z" fill="#D85A42" fill-opacity="0.35"/>
<path d="M57.7314 379.933L52.3401 371.276L33.9218 379.246L39.2449 387.952L57.7314 379.933Z" fill="#D85A42" fill-opacity="0.35"/>
<path d="M444.986 2.57113L438.847 -3.64015L423.273 2.79467L429.365 9.03826L444.986 2.57113Z" fill="#D85A42" fill-opacity="0.35"/>
<path d="M403.21 58.7589L397.088 52.1978L381.099 58.8621L387.171 65.4581L403.21 58.7589Z" fill="#D85A42" fill-opacity="0.35"/>
<path d="M359.495 117.561L353.397 110.622L336.971 117.53L343.014 124.506L359.495 117.561Z" fill="#D85A42" fill-opacity="0.35"/>
<path d="M313.692 179.167L307.629 171.823L290.74 178.992L296.747 186.375L313.692 179.167Z" fill="#D85A42" fill-opacity="0.35"/>
<path d="M265.655 243.778L259.638 235.997L242.259 243.445L248.217 251.269L265.655 243.778Z" fill="#D85A42" fill-opacity="0.35"/>
<path d="M215.215 311.623L209.254 303.37L191.359 311.114L197.256 319.411L215.215 311.623Z" fill="#D85A42" fill-opacity="0.35"/>
<path d="M162.186 382.948L156.297 374.183L137.854 382.246L143.675 391.058L162.186 382.948Z" fill="#D85A42" fill-opacity="0.35"/>
<path d="M540.084 1.59195L533.536 -4.67495L517.955 1.81959L524.455 8.11879L540.084 1.59195Z" fill="#D85A42" fill-opacity="0.35"/>
<path d="M500.083 58.3067L493.535 51.6817L477.536 58.4106L484.032 65.0707L500.083 58.3067Z" fill="#D85A42" fill-opacity="0.35"/>
<path d="M458.204 117.687L451.663 110.679L435.225 117.657L441.71 124.703L458.204 117.687Z" fill="#D85A42" fill-opacity="0.35"/>
<path d="M414.31 179.933L407.788 172.511L390.884 179.754L397.35 187.217L414.31 179.933Z" fill="#D85A42" fill-opacity="0.35"/>
<path d="M368.245 245.241L361.748 237.371L344.355 244.9L350.791 252.812L368.245 245.241Z" fill="#D85A42" fill-opacity="0.35"/>
<path d="M319.854 313.856L313.396 305.505L295.482 313.336L301.876 321.733L319.854 313.856Z" fill="#D85A42" fill-opacity="0.35"/>
<path d="M268.952 386.027L262.544 377.154L244.079 385.31L250.421 394.235L268.952 386.027Z" fill="#D85A42" fill-opacity="0.35"/>
<path d="M517.013 180.709L510.011 173.208L493.098 180.527L500.041 188.071L517.013 180.709Z" fill="#D85A42" fill-opacity="0.35"/>
<path d="M473.02 246.734L466.026 238.776L448.619 246.385L455.554 254.388L473.02 246.734Z" fill="#D85A42" fill-opacity="0.35"/>
<path d="M426.78 316.136L419.802 307.685L401.872 315.604L408.787 324.103L426.78 316.136Z" fill="#D85A42" fill-opacity="0.35"/>
<path d="M378.116 389.179L371.164 380.192L352.682 388.445L359.565 397.484L378.116 389.179Z" fill="#D85A42" fill-opacity="0.35"/>
<path d="M536.068 318.468L528.549 309.913L510.609 317.924L518.064 326.527L536.068 318.468Z" fill="#D85A42" fill-opacity="0.35"/>
<path d="M489.751 392.401L482.237 383.298L463.739 391.649L471.187 400.805L489.751 392.401Z" fill="#D85A42" fill-opacity="0.35"/>
<mask id="mask1_1422_6538" style="mask-type:luminance" maskUnits="userSpaceOnUse" x="42" y="3" width="114" height="58">
<path d="M150.901 3.85209L81.8764 6.66976L82.1744 7.04881L81.1565 7.482L150.205 4.66217L149.89 4.28436L150.901 3.85209ZM67.4227 13.3233L66.5495 13.6941L66.295 13.3684L48.0752 33.879L42.1411 41.782L67.4227 13.3233Z" fill="white"/>
</mask>
<g mask="url(#mask1_1422_6538)">
<rect width="96.3298" height="73.0397" transform="matrix(-0.605048 0.793684 0.817714 0.574579 98.9531 -34.0908)" fill="#D85A42" fill-opacity="0.35"/>
</g>
<mask id="mask2_1422_6538" style="mask-type:luminance" maskUnits="userSpaceOnUse" x="-16" y="58" width="124" height="62">
<path d="M103.876 58.4014L33.9411 61.0089L34.2208 61.3887L33.2269 61.8142L79.5099 60.0879L103.184 59.2048L102.889 58.8259L103.876 58.4014Z" fill="white"/>
</mask>
<g mask="url(#mask2_1422_6538)">
<rect width="120.731" height="67.0469" transform="matrix(-0.605709 0.793316 0.819038 0.573014 56.0762 23.5696)" fill="#D85A42" fill-opacity="0.35"/>
</g>
<mask id="mask3_1422_6538" style="mask-type:luminance" maskUnits="userSpaceOnUse" x="-61" y="115" width="121" height="64">
<path d="M54.7288 115.534L-14.629 117.742L-15.2287 118.537L-8.16204 118.313L54.0402 116.332L53.7644 115.953L54.7288 115.534ZM2.06995 176.656L-60.2374 178.253L-60.2384 178.254L2.06995 176.656ZM-22.0459 176.499L-59.6405 177.461L-59.6415 177.462L-22.0459 176.499Z" fill="white"/>
</mask>
<g mask="url(#mask3_1422_6538)">
<rect width="120.053" height="63.1127" transform="matrix(-0.605773 0.793286 0.819258 0.572754 11.2822 83.2454)" fill="#D85A42" fill-opacity="0.35"/>
</g>
<mask id="mask4_1422_6538" style="mask-type:luminance" maskUnits="userSpaceOnUse" x="117" y="2" width="129" height="60">
<path d="M245.466 8.7775L245.465 8.77874L209.682 52.3392L245.466 8.7775ZM240.414 2.81487L170.213 5.75432L170.533 6.13094L169.523 6.56298L239.747 3.6226L239.413 3.24786L240.414 2.81487ZM155.747 12.4688L154.905 12.8297L154.641 12.5134L117.634 55.7473L118.479 55.3839L118.735 55.708L155.747 12.4688Z" fill="white"/>
</mask>
<g mask="url(#mask4_1422_6538)">
<rect width="117.913" height="75.815" transform="matrix(-0.605461 0.793446 0.81843 0.573734 186.391 -36.7324)" fill="#D85A42" fill-opacity="0.35"/>
</g>
<mask id="mask5_1422_6538" style="mask-type:luminance" maskUnits="userSpaceOnUse" x="68" y="57" width="131" height="63">
<path d="M195.289 69.7761L162.546 109.626L162.548 109.627L195.289 69.7761ZM198.868 64.1454L198.867 64.1444L161.471 109.659L198.868 64.1454ZM194.925 57.8205L170.053 58.7268L123.591 60.4191L123.891 60.7984L122.904 61.2239L194.26 58.6233L193.946 58.2472L194.925 57.8205ZM146.803 116.083L74.2833 118.297L74.2847 118.298L146.802 116.082L146.803 116.083ZM108.696 67.3615L107.849 67.7265L107.596 67.4009L68.9335 112.56L69.7825 112.19L70.0288 112.524L108.696 67.3615Z" fill="white"/>
</mask>
<g mask="url(#mask5_1422_6538)">
<rect width="122.428" height="77.3924" transform="matrix(-0.605496 0.793428 0.818502 0.573649 139.521 17.8022)" fill="#D85A42" fill-opacity="0.35"/>
</g>
<mask id="mask6_1422_6538" style="mask-type:luminance" maskUnits="userSpaceOnUse" x="17" y="115" width="131" height="63">
<path d="M147.297 115.21L74.849 117.478L75.1298 117.857L74.1671 118.276L146.637 116.008L146.342 115.629L147.297 115.21ZM96.9469 176.115L23.2747 177.962L23.276 177.963L96.9456 176.114L96.9469 176.115ZM59.5126 124.658L58.6632 125.029L58.4202 124.692L17.9966 171.867L18.8488 171.493L19.0853 171.839L59.5126 124.658Z" fill="white"/>
</mask>
<g mask="url(#mask6_1422_6538)">
<rect width="125.436" height="71.0908" transform="matrix(-0.605681 0.793329 0.818955 0.573112 91.2285 74.1377)" fill="#D85A42" fill-opacity="0.35"/>
</g>
<mask id="mask7_1422_6538" style="mask-type:luminance" maskUnits="userSpaceOnUse" x="-36" y="175" width="139" height="66">
<path d="M102.541 182.553L102.539 182.554L63.2061 230.424L102.541 182.553ZM97.5994 175.541L23.8626 177.339L24.1243 177.72L23.1855 178.133L78.3601 176.788L96.9445 176.336L96.6674 175.953L97.5994 175.541ZM8.04187 184.778L7.18772 185.151L6.95272 184.802L-35.377 234.244L-34.5204 233.864L-34.2942 234.222L-29.3965 228.502L8.04187 184.778Z" fill="white"/>
</mask>
<g mask="url(#mask7_1422_6538)">
<rect width="129.142" height="81.0781" transform="matrix(-0.605509 0.79342 0.818531 0.573615 39.7744 133.736)" fill="#D85A42" fill-opacity="0.35"/>
</g>
<mask id="mask8_1422_6538" style="mask-type:luminance" maskUnits="userSpaceOnUse" x="208" y="1" width="129" height="61">
<path d="M331.585 1.88064L260.084 4.87753L260.424 5.25472L259.423 5.6855L330.948 2.68765L330.592 2.31266L331.585 1.88064ZM287.163 58.062L214.462 60.7034L287.162 58.0611L287.163 58.062ZM286.527 58.8643L213.807 61.5073L213.806 61.5086L286.527 58.8643ZM245.593 11.6591L244.781 12.0091L244.508 11.7032L226.183 34.0093L208.729 55.2539L209.544 54.9001L209.811 55.2148L245.593 11.6591Z" fill="white"/>
</mask>
<g mask="url(#mask8_1422_6538)">
<rect width="119.462" height="75.7907" transform="matrix(-0.605488 0.793431 0.818486 0.573667 278.054 -37.4292)" fill="#D85A42" fill-opacity="0.35"/>
</g>
<mask id="mask9_1422_6538" style="mask-type:luminance" maskUnits="userSpaceOnUse" x="161" y="57" width="133" height="62">
<path d="M292.042 63.7894L255.963 109.679L255.964 109.678L292.042 63.7894ZM287.705 57.405L214.998 60.0416L215.318 60.4205L214.342 60.8456L287.07 58.2083L286.734 57.8304L287.705 57.405ZM200.073 67.0551L199.256 67.4091L198.993 67.0937L161.594 112.621L162.412 112.262L162.67 112.587L195.415 72.7262L200.073 67.0551Z" fill="white"/>
</mask>
<g mask="url(#mask9_1422_6538)">
<rect width="120.259" height="77.4265" transform="matrix(-0.605458 0.793448 0.818424 0.573741 232.724 17.4678)" fill="#D85A42" fill-opacity="0.35"/>
</g>
<mask id="mask10_1422_6538" style="mask-type:luminance" maskUnits="userSpaceOnUse" x="112" y="115" width="136" height="65">
<path d="M241.823 115.475L167.895 117.737L168.196 118.117L167.241 118.536L202.836 117.446L241.192 116.273L240.874 115.893L241.823 115.475ZM192.546 177.785L192.544 177.784L117.316 179.618L192.546 177.785ZM152.52 124.993L151.699 125.353L151.443 125.026L112.316 172.645L113.139 172.28L113.387 172.617L152.52 124.993Z" fill="white"/>
</mask>
<g mask="url(#mask10_1422_6538)">
<rect width="126.943" height="78.9701" transform="matrix(-0.605527 0.79341 0.81857 0.573569 185.84 74.856)" fill="#D85A42" fill-opacity="0.35"/>
</g>
<mask id="mask11_1422_6538" style="mask-type:luminance" maskUnits="userSpaceOnUse" x="60" y="176" width="139" height="67">
<path d="M198.063 183.374L158.492 233.681L158.493 233.68L198.063 183.374ZM193.774 176.268L118.576 178.111L118.859 178.493L117.929 178.905L193.145 177.061L192.848 176.681L193.774 176.268ZM142.784 240.733L66.2585 242.104L142.783 240.734L142.784 240.733ZM102.723 185.63L101.9 185.994L101.655 185.656L60.6758 235.519L61.5017 235.151L61.7389 235.499L63.3921 233.489L102.723 185.63Z" fill="white"/>
</mask>
<g mask="url(#mask11_1422_6538)">
<rect width="130.682" height="80.3953" transform="matrix(-0.605548 0.793399 0.818616 0.573514 136.035 134.691)" fill="#D85A42" fill-opacity="0.35"/>
</g>
<mask id="mask12_1422_6538" style="mask-type:luminance" maskUnits="userSpaceOnUse" x="301" y="0" width="129" height="61">
<path d="M424.473 0.924426L351.629 3.97947L351.989 4.35382L350.998 4.78554L423.865 1.72953L423.487 1.35645L424.473 0.924426ZM337.117 10.8276L336.333 11.1692L336.05 10.8714L301.549 54.7492L302.337 54.4036L302.613 54.7092L322.991 28.7911L337.117 10.8276Z" fill="white"/>
</mask>
<g mask="url(#mask12_1422_6538)">
<rect width="118.058" height="75.1534" transform="matrix(-0.605481 0.793435 0.818472 0.573684 370.591 -38.2573)" fill="#D85A42" fill-opacity="0.35"/>
</g>
<mask id="mask13_1422_6538" style="mask-type:luminance" maskUnits="userSpaceOnUse" x="256" y="56" width="133" height="64">
<path d="M353.373 109.617L388.075 63.3655L353.371 109.616L353.373 109.617ZM382.288 56.9658L346.256 58.2773L308.197 59.6624L308.538 60.0404L307.569 60.4646L344.255 59.1298L381.683 57.7671L381.327 57.39L382.288 56.9658ZM293.251 66.7468L292.464 67.0911L292.189 66.7843L256.112 112.661L256.903 112.313L257.17 112.63L293.251 66.7468Z" fill="white"/>
</mask>
<g mask="url(#mask13_1422_6538)">
<rect width="123.212" height="78.0394" transform="matrix(-0.605492 0.79343 0.818493 0.573659 327.252 17.1484)" fill="#D85A42" fill-opacity="0.35"/>
</g>
<mask id="mask14_1422_6538" style="mask-type:luminance" maskUnits="userSpaceOnUse" x="208" y="115" width="135" height="65">
<path d="M338.141 115.603L291.5 117.031L262.762 117.91L263.084 118.289L262.137 118.708L337.541 116.4L337.203 116.021L338.141 115.603ZM247.36 125.244L246.568 125.594L246.302 125.275L208.54 173.293L209.332 172.939L209.591 173.267L247.36 125.244Z" fill="white"/>
</mask>
<g mask="url(#mask14_1422_6538)">
<rect width="126.166" height="78.8173" transform="matrix(-0.605519 0.793415 0.818552 0.57359 281.908 74.9084)" fill="#D85A42" fill-opacity="0.35"/>
</g>
<mask id="mask15_1422_6538" style="mask-type:luminance" maskUnits="userSpaceOnUse" x="158" y="176" width="134" height="69">
<path d="M291.803 176.878L282.499 177.114L215.169 178.817L215.47 179.198L214.547 179.61L291.204 177.671L290.887 177.29L291.803 176.878ZM191.356 243.613L164.036 244.125L164.035 244.124L191.356 243.613ZM199.298 186.417L198.506 186.772L198.249 186.443L158.688 236.688L159.485 236.33L159.733 236.669L199.298 186.417Z" fill="white"/>
</mask>
<g mask="url(#mask15_1422_6538)">
<rect width="131.332" height="71.8293" transform="matrix(-0.605728 0.793306 0.8191 0.572941 234.417 135.474)" fill="#D85A42" fill-opacity="0.35"/>
</g>
<mask id="mask16_1422_6538" style="mask-type:luminance" maskUnits="userSpaceOnUse" x="106" y="241" width="144" height="71">
<path d="M209.152 302.32L249.145 249.03L209.15 302.319L209.152 302.32ZM243.409 241.453L165.299 242.849L165.583 243.232L164.682 243.638L192.032 243.149L242.814 242.242L242.514 241.859L243.409 241.453ZM148.91 250.733L148.111 251.093L147.864 250.752L136.706 264.938L106.349 303.533L107.15 303.17L107.39 303.521L148.91 250.733Z" fill="white"/>
</mask>
<g mask="url(#mask16_1422_6538)">
<rect width="134.431" height="82.6441" transform="matrix(-0.605549 0.793399 0.818619 0.57351 184.904 199.183)" fill="#D85A42" fill-opacity="0.35"/>
</g>
<mask id="mask17_1422_6538" style="mask-type:luminance" maskUnits="userSpaceOnUse" x="51" y="309" width="147" height="73">
<path d="M192.493 309.089L169.055 309.345L112.947 309.959L113.211 310.346L112.333 310.744L131.985 310.529L191.9 309.873L191.621 309.488L192.493 309.089ZM96.0231 318.147L95.2209 318.511L94.9829 318.158L54.6815 369.394L51.3802 373.591L52.1853 373.223L52.4144 373.585L63.6635 359.285L96.0231 318.147Z" fill="white"/>
</mask>
<g mask="url(#mask17_1422_6538)">
<rect width="139.733" height="85.0339" transform="matrix(-0.605567 0.793389 0.818662 0.57346 132.345 265.221)" fill="#D85A42" fill-opacity="0.35"/>
</g>
<mask id="mask18_1422_6538" style="mask-type:luminance" maskUnits="userSpaceOnUse" x="396" y="-1" width="129" height="62">
<path d="M478.156 57.0587L466.768 57.472L478.154 57.0577L478.156 57.0587ZM518.578 0.76302L518.18 0.390618L519.156 -0.040149L444.93 3.07225L445.313 3.44686L444.33 3.87859L518.578 0.76302ZM397.227 54.2018L430.4 9.98766L429.644 10.3199L429.354 10.0308L396.184 54.2399L396.942 53.9052L397.227 54.2018Z" fill="white"/>
</mask>
<g mask="url(#mask18_1422_6538)">
<rect width="119.473" height="76.6147" transform="matrix(-0.605466 0.793443 0.818441 0.573721 465.337 -39.175)" fill="#D85A42" fill-opacity="0.35"/>
</g>
<mask id="mask19_1422_6538" style="mask-type:luminance" maskUnits="userSpaceOnUse" x="352" y="56" width="131" height="64">
<path d="M478.169 57.3501L477.79 56.9738L478.743 56.5496L467.355 56.963L403.201 59.2912L403.564 59.6676L402.604 60.0927L478.169 57.3501ZM353.528 112.708L388.233 66.447L387.474 66.7829L387.19 66.485L352.489 112.741L353.251 112.401L353.528 112.708Z" fill="white"/>
</mask>
<g mask="url(#mask19_1422_6538)">
<rect width="123.225" height="79.0281" transform="matrix(-0.605466 0.793444 0.818441 0.573721 424.333 16.9951)" fill="#D85A42" fill-opacity="0.35"/>
</g>
<mask id="mask20_1422_6538" style="mask-type:luminance" maskUnits="userSpaceOnUse" x="306" y="115" width="131" height="67">
<path d="M435.836 116.566L435.477 116.187L436.407 115.769L359.514 118.112L359.856 118.491L358.918 118.909L364.029 118.753L435.836 116.566ZM363.077 179.885L312.531 181.109L312.53 181.11L363.077 179.885ZM307.742 173.966L344.087 125.522L343.324 125.863L343.049 125.554L306.708 173.991L307.472 173.647L307.742 173.966Z" fill="white"/>
</mask>
<g mask="url(#mask20_1422_6538)">
<rect width="127.738" height="80.4408" transform="matrix(-0.605503 0.793423 0.818518 0.57363 380.901 75.011)" fill="#D85A42" fill-opacity="0.35"/>
</g>
<mask id="mask21_1422_6538" style="mask-type:luminance" maskUnits="userSpaceOnUse" x="258" y="177" width="140" height="69">
<path d="M344.281 244.307L264.515 245.728L264.514 245.729L344.281 244.307ZM391.471 178.6L391.133 178.218L392.042 177.807L313.757 179.718L314.08 180.1L313.165 180.511L363.699 179.278L391.471 178.6ZM259.747 238.174L297.849 187.401L297.084 187.746L296.816 187.427L258.716 238.193L259.486 237.845L259.747 238.174Z" fill="white"/>
</mask>
<g mask="url(#mask21_1422_6538)">
<rect width="132.087" height="81.1974" transform="matrix(-0.605549 0.793398 0.818619 0.57351 335.149 136.105)" fill="#D85A42" fill-opacity="0.35"/>
</g>
<mask id="mask22_1422_6538" style="mask-type:luminance" maskUnits="userSpaceOnUse" x="208" y="242" width="144" height="72">
<path d="M344.939 243.734L344.62 243.351L345.506 242.946L265.742 244.352L266.045 244.736L265.153 245.14L344.939 243.734ZM209.324 305.636L249.32 252.325L248.551 252.676L248.293 252.343L208.599 305.251L208.3 305.649L209.073 305.296L209.324 305.636Z" fill="white"/>
</mask>
<g mask="url(#mask22_1422_6538)">
<rect width="132.905" height="84.3154" transform="matrix(-0.605488 0.793431 0.818487 0.573667 286.779 200.635)" fill="#D85A42" fill-opacity="0.35"/>
</g>
<mask id="mask23_1422_6538" style="mask-type:luminance" maskUnits="userSpaceOnUse" x="155" y="311" width="148" height="74">
<path d="M261.428 376.053L301.797 319.481L261.427 376.054L261.428 376.053ZM296.067 312.125L295.766 311.74L296.631 311.341L265.714 311.675L215.367 312.221L215.651 312.607L214.781 313.005L227.255 312.869L296.067 312.125ZM156.378 376.512L177.539 348.314L198.41 320.503L197.636 320.857L197.387 320.513L155.36 376.516L156.137 376.158L156.378 376.512Z" fill="white"/>
</mask>
<g mask="url(#mask23_1422_6538)">
<rect width="140.54" height="87.3277" transform="matrix(-0.605529 0.793409 0.818574 0.573563 236.727 267.562)" fill="#D85A42" fill-opacity="0.35"/>
</g>
<mask id="mask24_1422_6538" style="mask-type:luminance" maskUnits="userSpaceOnUse" x="492" y="-2" width="131" height="63">
<path d="M599.564 38.7581L622.257 5.15979L622.257 5.16029L599.564 38.7581ZM576.496 56.5887L499.451 59.3683L576.495 56.59L576.496 56.5887ZM615.127 -0.210434L614.705 -0.583091L615.672 -1.01356L539.996 2.13696L540.4 2.51134L539.425 2.94184L615.127 -0.210434ZM493.661 53.7002L525.449 9.12214L524.718 9.44406L524.419 9.16365L509.993 29.3945L492.634 53.738L493.365 53.4114L493.661 53.7002Z" fill="white"/>
</mask>
<g mask="url(#mask24_1422_6538)">
<rect width="119.518" height="79.9121" transform="matrix(-0.605376 0.793494 0.818262 0.573931 561.305 -40.3357)" fill="#D85A42" fill-opacity="0.35"/>
</g>
<mask id="mask25_1422_6538" style="mask-type:luminance" maskUnits="userSpaceOnUse" x="450" y="56" width="134" height="63">
<path d="M550.932 109.704L582.701 62.6632L582.7 62.6622L550.932 109.704ZM535.515 117.236L535.513 117.235L514.387 117.872L535.515 117.236ZM576.545 56.9012L576.142 56.5255L577.086 56.1025L500.036 58.8766L500.42 59.2526L499.467 59.6756L547.689 57.9405L576.545 56.9012ZM451.776 112.767L482.361 69.8742L485.048 66.1058L484.314 66.4328L484.022 66.1423L474.379 79.6667L450.755 112.8L451.49 112.469L451.776 112.767Z" fill="white"/>
</mask>
<g mask="url(#mask25_1422_6538)">
<rect width="122.494" height="82.1732" transform="matrix(-0.605368 0.793498 0.818248 0.573948 521.334 15.8242)" fill="#D85A42" fill-opacity="0.35"/>
</g>
<mask id="mask26_1422_6538" style="mask-type:luminance" maskUnits="userSpaceOnUse" x="406" y="115" width="131" height="67">
<path d="M536.036 116.549L535.655 116.173L536.577 115.755L458.194 118.185L458.559 118.562L457.63 118.98L514.934 117.204L536.036 116.549ZM407.903 174.486L432.216 140.437L442.756 125.673L442.022 126.004L441.738 125.704L406.887 174.513L407.625 174.179L407.903 174.486Z" fill="white"/>
</mask>
<g mask="url(#mask26_1422_6538)">
<rect width="127.671" height="75.6653" transform="matrix(-0.605613 0.793364 0.818772 0.57333 479.688 74.179)" fill="#D85A42" fill-opacity="0.35"/>
</g>
<mask id="mask27_1422_6538" style="mask-type:luminance" maskUnits="userSpaceOnUse" x="360" y="178" width="141" height="70">
<path d="M493.74 179.397L493.378 179.016L494.278 178.604L414.348 180.529L414.692 180.911L413.786 181.322L467.333 180.033L493.74 179.397ZM361.848 239.563L398.414 188.297L397.676 188.633L397.397 188.321L373.144 222.328L360.837 239.581L361.578 239.242L361.848 239.563Z" fill="white"/>
</mask>
<g mask="url(#mask27_1422_6538)">
<rect width="132.309" height="85.9733" transform="matrix(-0.605439 0.793459 0.818385 0.573787 436.32 136.088)" fill="#D85A42" fill-opacity="0.35"/>
</g>
<mask id="mask28_1422_6538" style="mask-type:luminance" maskUnits="userSpaceOnUse" x="312" y="244" width="144" height="72">
<path d="M418.747 306.566L455.469 252.208L455.47 252.207L418.747 306.566ZM449.252 245.228L448.909 244.843L449.787 244.438L370.765 245.82L368.324 245.864L368.649 246.247L367.765 246.652L371.508 246.586L449.252 245.228ZM313.477 307.767L318.726 300.408L351.876 253.928L351.135 254.267L350.865 253.945L312.471 307.778L313.215 307.435L313.477 307.767Z" fill="white"/>
</mask>
<g mask="url(#mask28_1422_6538)">
<rect width="135.284" height="88.2343" transform="matrix(-0.605431 0.793463 0.818369 0.573806 390.311 201.402)" fill="#D85A42" fill-opacity="0.35"/>
</g>
<mask id="mask29_1422_6538" style="mask-type:luminance" maskUnits="userSpaceOnUse" x="261" y="313" width="143" height="67">
<path d="M402.488 314.407L402.166 314.021L403.022 313.624L321.699 314.471L319.959 314.49L320.264 314.876L319.402 315.274L397.874 314.456L402.488 314.407ZM262.591 379.488L302.969 322.871L302.222 323.216L301.962 322.881L261.59 379.492L262.337 379.144L262.591 379.488Z" fill="white"/>
</mask>
<g mask="url(#mask29_1422_6538)">
<rect width="137.484" height="90.5078" transform="matrix(-0.605411 0.793475 0.818329 0.573853 341.442 269.392)" fill="#D85A42" fill-opacity="0.35"/>
</g>
<mask id="mask30_1422_6538" style="mask-type:luminance" maskUnits="userSpaceOnUse" x="208" y="386" width="153" height="79">
<path d="M319.779 455.4L360.482 395.165L319.778 455.399L319.779 455.4ZM353.291 387.199L352.988 386.81L353.822 386.418L269.127 386.693L269.412 387.081L268.572 387.472L353.291 387.199ZM209.056 454.997L242.407 408.25L251.566 395.413L250.817 395.762L250.566 395.415L245.843 402.037L208.062 454.993L208.813 454.64L209.056 454.997Z" fill="white"/>
</mask>
<g mask="url(#mask30_1422_6538)">
<rect width="146.516" height="93.6617" transform="matrix(-0.605473 0.79344 0.818454 0.573705 291.065 340.68)" fill="#D85A42" fill-opacity="0.35"/>
</g>
<mask id="mask31_1422_6538" style="mask-type:luminance" maskUnits="userSpaceOnUse" x="509" y="115" width="130" height="68">
<path d="M597.92 179.682L516.371 181.679L597.919 179.681L597.92 179.682ZM638.374 116.697L637.972 116.32L638.884 115.902L558.881 118.359L559.267 118.736L558.347 119.155L572.127 118.732L638.374 116.697ZM510.121 175.189L543.424 125.928L542.716 126.249L542.423 125.958L509.123 175.215L509.833 174.89L510.121 175.189Z" fill="white"/>
</mask>
<g mask="url(#mask31_1422_6538)">
<rect width="128.337" height="78.9487" transform="matrix(-0.605548 0.793399 0.818616 0.573513 581.085 73.5723)" fill="#D85A42" fill-opacity="0.35"/>
</g>
<mask id="mask32_1422_6538" style="mask-type:luminance" maskUnits="userSpaceOnUse" x="465" y="179" width="141" height="70">
<path d="M572.527 239.046L605.791 186.8L572.526 239.045L572.527 239.046ZM555.118 247.268L471.867 248.703L471.865 248.703L555.118 247.268ZM598.139 180.2L597.756 179.82L598.647 179.408L517.029 181.353L517.397 181.735L516.498 182.146L598.139 180.2ZM466.12 240.971L468.211 237.876L501.073 189.209L500.362 189.534L500.076 189.231L465.126 240.989L465.839 240.661L466.12 240.971Z" fill="white"/>
</mask>
<g mask="url(#mask32_1422_6538)">
<rect width="132.362" height="89.9313" transform="matrix(-0.605339 0.793515 0.818194 0.574013 539.146 136.343)" fill="#D85A42" fill-opacity="0.35"/>
</g>
<mask id="mask33_1422_6538" style="mask-type:luminance" maskUnits="userSpaceOnUse" x="418" y="245" width="139" height="73">
<path d="M555.783 246.741L555.419 246.357L556.289 245.953L473.057 247.385L473.403 247.769L472.53 248.173L555.783 246.741ZM419.859 309.935L427.453 298.687L456.586 255.542L455.872 255.872L455.592 255.56L418.869 309.947L419.586 309.614L419.859 309.935Z" fill="white"/>
</mask>
<g mask="url(#mask33_1422_6538)">
<rect width="134.554" height="91.5453" transform="matrix(-0.605335 0.793517 0.818188 0.57402 495.31 201.52)" fill="#D85A42" fill-opacity="0.35"/>
</g>
<mask id="mask34_1422_6538" style="mask-type:luminance" maskUnits="userSpaceOnUse" x="370" y="315" width="149" height="76">
<path d="M482.155 382.091L518.97 324.277L518.969 324.278L482.153 382.09L482.155 382.091ZM511.268 316.729L510.924 316.343L511.771 315.945L508.774 315.976L426.876 316.821L427.203 317.208L426.349 317.605L508.331 316.76L511.268 316.729ZM371.222 382.516L400.121 339.722L409.86 325.301L409.143 325.636L408.871 325.311L370.237 382.52L370.957 382.182L371.222 382.516Z" fill="white"/>
</mask>
<g mask="url(#mask34_1422_6538)">
<rect width="141.259" height="94.5704" transform="matrix(-0.605373 0.793496 0.818257 0.573938 449.511 270.817)" fill="#D85A42" fill-opacity="0.35"/>
</g>
<mask id="mask35_1422_6538" style="mask-type:luminance" maskUnits="userSpaceOnUse" x="318" y="389" width="147" height="79">
<path d="M464.387 390.419L464.063 390.03L464.888 389.639L378.242 389.882L378.549 390.271L377.718 390.663L464.387 390.419ZM319.941 458.994L360.647 398.71L359.928 399.051L359.664 398.712L318.962 458.989L319.686 458.645L319.941 458.994Z" fill="white"/>
</mask>
<g mask="url(#mask35_1422_6538)">
<rect width="143.615" height="96.8416" transform="matrix(-0.605357 0.793505 0.818226 0.573974 401.073 343.528)" fill="#D85A42" fill-opacity="0.35"/>
</g>
<mask id="mask36_1422_6538" style="mask-type:luminance" maskUnits="userSpaceOnUse" x="264" y="466" width="152" height="76">
<path d="M414.952 468.091L414.649 467.699L415.452 467.315L407.088 467.272L326.997 466.871L327.286 467.263L326.476 467.648L414.952 468.091ZM265.85 539.658L308.794 476.072L308.071 476.418L307.816 476.066L264.876 539.645L265.603 539.296L265.85 539.658Z" fill="white"/>
</mask>
<g mask="url(#mask36_1422_6538)">
</g>
<mask id="mask37_1422_6538" style="mask-type:luminance" maskUnits="userSpaceOnUse" x="527" y="247" width="145" height="74">
<path d="M642.406 304.804L671.863 255.467L671.862 255.467L642.406 304.804ZM622.211 318.811L535.407 319.683L622.21 318.81L622.211 318.811ZM664.648 248.304L664.263 247.921L665.122 247.517L580.08 248.967L580.45 249.351L579.583 249.756L664.648 248.304ZM528.617 312.166L563.591 257.22L562.904 257.54L562.615 257.236L550.016 277.03L527.644 312.177L528.334 311.853L528.617 312.166Z" fill="white"/>
</mask>
<g mask="url(#mask37_1422_6538)">
</g>
<mask id="mask38_1422_6538" style="mask-type:luminance" maskUnits="userSpaceOnUse" x="481" y="318" width="150" height="77">
<path d="M577.259 394.202L577.258 394.201L488.603 394.438L577.259 394.202ZM622.466 319.105L622.099 318.719L622.936 318.32L536.139 319.198L536.489 319.585L535.645 319.983L622.466 319.105ZM482.287 385.617L519.103 327.782L518.414 328.106L518.131 327.79L481.32 385.62L482.013 385.291L482.287 385.617Z" fill="white"/>
</mask>
<g mask="url(#mask38_1422_6538)">
<rect width="142.085" height="98.3521" transform="matrix(-0.605294 0.793541 0.818113 0.574108 559.35 272.582)" fill="#D85A42" fill-opacity="0.35"/>
</g>
<mask id="mask39_1422_6538" style="mask-type:luminance" maskUnits="userSpaceOnUse" x="432" y="392" width="147" height="81">
<path d="M548.51 463.52L573.495 421.684L548.51 463.521L548.51 463.52ZM578.017 393.684L577.672 393.296L578.488 392.904L549.386 392.984L489.862 393.147L490.192 393.536L489.37 393.927L578.017 393.684ZM433.44 463.043L438.795 454.629L472.248 402.084L471.554 402.414L471.28 402.087L440.035 451.165L432.477 463.04L433.172 462.704L433.44 463.043Z" fill="white"/>
</mask>
<g mask="url(#mask39_1422_6538)">
<rect width="147.221" height="99.9175" transform="matrix(-0.605341 0.793514 0.818198 0.574007 513.646 345.587)" fill="#D85A42" fill-opacity="0.35"/>
</g>
<mask id="mask40_1422_6538" style="mask-type:luminance" maskUnits="userSpaceOnUse" x="64" y="0" width="18" height="13">
<path d="M81.9915 6.07148L81.6941 5.69347L77.4213 0.296466L70.047 3.42775L64.6933 10.5479L66.1249 12.3876L66.379 12.7124L67.2515 12.3418L80.9745 6.50438L81.9915 6.07148Z" fill="white"/>
</mask>
<g mask="url(#mask40_1422_6538)">
<rect width="18.9604" height="13.253" transform="matrix(-0.60527 0.793555 0.818072 0.574157 74.4854 -3.62939)" fill="#D85A42" fill-opacity="0.35"/>
</g>
<mask id="mask41_1422_6538" style="mask-type:luminance" maskUnits="userSpaceOnUse" x="24" y="55" width="10" height="10">
<path d="M33.8339 60.3659L33.5548 59.9871L30.5904 55.9725L24.138 64.5281L32.841 60.7912L33.8339 60.3659Z" fill="white"/>
</mask>
<g mask="url(#mask41_1422_6538)">
<rect width="13.6046" height="7.07634" transform="matrix(-0.605784 0.793283 0.819302 0.572702 30.8486 54.3982)" fill="#D85A42" fill-opacity="0.35"/>
</g>
<mask id="mask42_1422_6538" style="mask-type:luminance" maskUnits="userSpaceOnUse" x="149" y="-1" width="22" height="13">
<path d="M170.238 5.10221L169.917 4.72206L165.29 -0.760715L150.687 5.48325L149.675 5.91601L149.991 6.29583L154.31 11.4922L154.575 11.8114L155.42 11.45L169.226 5.53492L170.238 5.10221Z" fill="white"/>
</mask>
<g mask="url(#mask42_1422_6538)">
<rect width="18.8634" height="18.0541" transform="matrix(-0.60423 0.794178 0.816666 0.575816 158.206 -7.10352)" fill="#D85A42" fill-opacity="0.35"/>
</g>
<mask id="mask43_1422_6538" style="mask-type:luminance" maskUnits="userSpaceOnUse" x="102" y="53" width="22" height="14">
<path d="M123.574 59.7507L123.273 59.3679L118.946 53.8864L118.689 53.5595L117.843 53.9234L103.653 60.0372L102.663 60.4623L102.96 60.8457L107.241 66.3603L107.495 66.6888L108.345 66.3233L122.585 60.1768L123.574 59.7507Z" fill="white"/>
</mask>
<g mask="url(#mask43_1422_6538)">
<rect width="19.804" height="18.864" transform="matrix(-0.604249 0.794166 0.816687 0.575791 111.769 46.7761)" fill="#D85A42" fill-opacity="0.35"/>
</g>
<mask id="mask44_1422_6538" style="mask-type:luminance" maskUnits="userSpaceOnUse" x="53" y="110" width="22" height="15">
<path d="M74.7994 116.875L74.5166 116.492L74.5153 116.491L70.237 110.669L69.9893 110.332L69.1385 110.702L54.4972 117.057L53.5295 117.477L53.8077 117.861L58.0407 123.716L58.2856 124.057L59.1374 123.685L73.834 117.295L74.7994 116.875Z" fill="white"/>
</mask>
<g mask="url(#mask44_1422_6538)">
<rect width="20.5894" height="19.6771" transform="matrix(-0.604236 0.794174 0.816672 0.575808 62.3457 103.252)" fill="#D85A42" fill-opacity="0.35"/>
</g>
<mask id="mask45_1422_6538" style="mask-type:luminance" maskUnits="userSpaceOnUse" x="2" y="169" width="22" height="16">
<path d="M23.7762 176.642L23.513 176.258L23.5117 176.257L19.2914 170.071L19.0532 169.721L18.1986 170.096L3.08178 176.709L2.13742 177.122L2.39738 177.508L6.56828 183.73L6.80461 184.082L7.66052 183.708L22.8355 177.056L23.7762 176.642Z" fill="white"/>
</mask>
<g mask="url(#mask45_1422_6538)">
<rect width="21.2005" height="18.8362" transform="matrix(-0.604521 0.794001 0.817004 0.575417 11.3604 163.175)" fill="#D85A42" fill-opacity="0.35"/>
</g>
<mask id="mask46_1422_6538" style="mask-type:luminance" maskUnits="userSpaceOnUse" x="239" y="-2" width="22" height="13">
<path d="M260.121 4.17457L259.779 3.7935L254.803 -1.73497L240.174 4.56769L239.171 5.00147L239.507 5.37997L244.165 10.6322L244.44 10.9413L245.254 10.5907L245.255 10.5895L259.118 4.60613L260.121 4.17457Z" fill="white"/>
</mask>
<g mask="url(#mask46_1422_6538)">
<rect width="19.0186" height="18.0509" transform="matrix(-0.604264 0.794157 0.816704 0.575771 248.057 -8.18628)" fill="#D85A42" fill-opacity="0.35"/>
</g>
<mask id="mask47_1422_6538" style="mask-type:luminance" maskUnits="userSpaceOnUse" x="193" y="53" width="23" height="14">
<path d="M215.016 59.3229L214.694 58.9405L210.017 53.3989L209.748 53.0812L208.931 53.4355L194.685 59.6209L193.703 60.0484L194.019 60.4282L198.653 66.0039L198.654 66.0049L198.918 66.3232L199.737 65.9686L214.037 59.75L214.037 59.7487L215.016 59.3229Z" fill="white"/>
</mask>
<g mask="url(#mask47_1422_6538)">
<rect width="19.8133" height="19.693" transform="matrix(-0.604072 0.794275 0.816493 0.57602 202.187 46.3149)" fill="#D85A42" fill-opacity="0.35"/>
</g>
<mask id="mask48_1422_6538" style="mask-type:luminance" maskUnits="userSpaceOnUse" x="146" y="110" width="22" height="15">
<path d="M167.857 116.99L167.555 116.607L162.909 110.718L162.908 110.717L162.649 110.39L161.829 110.749L147.128 117.182L147.127 117.181L146.17 117.6L146.467 117.984L151.065 123.908L151.322 124.238L152.145 123.877L166.9 117.41L167.857 116.99Z" fill="white"/>
</mask>
<g mask="url(#mask48_1422_6538)">
<rect width="20.5875" height="19.5113" transform="matrix(-0.60427 0.794154 0.81671 0.575763 155.242 103.655)" fill="#D85A42" fill-opacity="0.35"/>
</g>
<mask id="mask49_1422_6538" style="mask-type:luminance" maskUnits="userSpaceOnUse" x="96" y="170" width="23" height="15">
<path d="M118.497 177.355L118.213 176.969L113.611 170.708L113.362 170.368L112.537 170.734L97.357 177.429L97.3557 177.428L96.4216 177.841L96.7003 178.227L101.253 184.525L101.499 184.867L102.324 184.502L102.326 184.501L117.565 177.768L118.497 177.355Z" fill="white"/>
</mask>
<g mask="url(#mask49_1422_6538)">
<rect width="21.2101" height="19.6645" transform="matrix(-0.604358 0.7941 0.816811 0.575645 105.933 163.853)" fill="#D85A42" fill-opacity="0.35"/>
</g>
<mask id="mask50_1422_6538" style="mask-type:luminance" maskUnits="userSpaceOnUse" x="44" y="233" width="23" height="16">
<path d="M66.7666 240.605L66.5026 240.217L61.9561 233.555L61.7175 233.204L60.8898 233.573L45.205 240.548L44.293 240.954L44.5533 241.342L49.0454 248.043L49.2822 248.397L50.1121 248.028L65.8569 241.01L66.7666 240.605Z" fill="white"/>
</mask>
<g mask="url(#mask50_1422_6538)">
<rect width="21.9859" height="19.6492" transform="matrix(-0.604499 0.794014 0.816978 0.575448 53.8682 226.615)" fill="#D85A42" fill-opacity="0.35"/>
</g>
<mask id="mask51_1422_6538" style="mask-type:luminance" maskUnits="userSpaceOnUse" x="-11" y="299" width="24" height="17">
<path d="M12.5068 306.953L12.2611 306.562L7.78444 299.467L7.55528 299.103L6.72167 299.477L-9.49076 306.75L-10.3816 307.149L-10.1409 307.538L-5.72144 314.677L-5.49416 315.043L-4.66059 314.669L11.6182 307.352L12.5068 306.953Z" fill="white"/>
</mask>
<g mask="url(#mask51_1422_6538)">
<rect width="22.7713" height="20.4622" transform="matrix(-0.604478 0.794026 0.816953 0.575477 -0.410156 292.338)" fill="#D85A42" fill-opacity="0.35"/>
</g>
<mask id="mask52_1422_6538" style="mask-type:luminance" maskUnits="userSpaceOnUse" x="330" y="-3" width="22" height="14">
<path d="M351.695 3.22078L351.333 2.84228L345.994 -2.73371L331.342 3.62971L330.346 4.06264L330.704 4.44176L335.714 9.74944L335.999 10.0506L336.785 9.70828L350.701 3.65342L351.695 3.22078Z" fill="white"/>
</mask>
<g mask="url(#mask52_1422_6538)">
<rect width="19.0279" height="18.8799" transform="matrix(-0.60408 0.794271 0.816501 0.576011 338.93 -9.26953)" fill="#D85A42" fill-opacity="0.35"/>
</g>
<mask id="mask53_1422_6538" style="mask-type:luminance" maskUnits="userSpaceOnUse" x="286" y="52" width="23" height="14">
<path d="M308.221 58.886L307.878 58.504L302.835 52.9009L302.557 52.592L301.767 52.9383L287.468 59.1962L287.466 59.1953L286.493 59.6216L286.831 60.0033L291.83 65.6406L292.107 65.9507L292.896 65.6056L307.249 59.3111L308.221 58.886Z" fill="white"/>
</mask>
<g mask="url(#mask53_1422_6538)">
<rect width="19.804" height="18.864" transform="matrix(-0.604249 0.794166 0.816687 0.575791 295.417 45.9946)" fill="#D85A42" fill-opacity="0.35"/>
</g>
<mask id="mask54_1422_6538" style="mask-type:luminance" maskUnits="userSpaceOnUse" x="240" y="110" width="23" height="15">
<path d="M262.746 117.114L262.422 116.731L257.395 110.775L257.126 110.455L256.333 110.804L256.333 110.805L241.575 117.316L240.625 117.734L240.944 118.118L245.922 124.11L246.189 124.432L246.983 124.081L261.797 117.534L262.746 117.114Z" fill="white"/>
</mask>
<g mask="url(#mask54_1422_6538)">
<rect width="20.5875" height="19.5113" transform="matrix(-0.60427 0.794154 0.81671 0.575763 250.274 103.712)" fill="#D85A42" fill-opacity="0.35"/>
</g>
<mask id="mask55_1422_6538" style="mask-type:luminance" maskUnits="userSpaceOnUse" x="192" y="171" width="24" height="15">
<path d="M215.117 178.086L214.814 177.7L209.815 171.364L209.554 171.033L208.76 171.388L193.521 178.167L192.593 178.58L192.891 178.964L192.892 178.965L197.84 185.339L198.099 185.672L198.894 185.317L214.191 178.499L215.117 178.086Z" fill="white"/>
</mask>
<g mask="url(#mask55_1422_6538)">
<rect width="21.3747" height="20.4901" transform="matrix(-0.604224 0.794182 0.816658 0.575825 202.104 163.791)" fill="#D85A42" fill-opacity="0.35"/>
</g>
<mask id="mask56_1422_6538" style="mask-type:luminance" maskUnits="userSpaceOnUse" x="142" y="234" width="24" height="16">
<path d="M165.191 242.004L164.905 241.617L159.947 234.87L159.697 234.528L158.897 234.887L158.896 234.888L143.152 241.95L143.151 241.952L142.247 242.357L142.526 242.745L147.432 249.532L147.68 249.876L148.481 249.516L164.287 242.409L164.289 242.41L165.191 242.004Z" fill="white"/>
</mask>
<g mask="url(#mask56_1422_6538)">
<rect width="21.3729" height="20.3244" transform="matrix(-0.604256 0.794162 0.816695 0.575781 152.045 228.023)" fill="#D85A42" fill-opacity="0.35"/>
</g>
<mask id="mask57_1422_6538" style="mask-type:luminance" maskUnits="userSpaceOnUse" x="89" y="301" width="24" height="17">
<path d="M112.798 309.082L112.532 308.692L107.625 301.503L107.384 301.15L106.581 301.513L90.3021 308.881L89.4192 309.28L89.6809 309.669L94.5283 316.902L94.7677 317.258L95.5717 316.894L111.917 309.481L112.798 309.082Z" fill="white"/>
</mask>
<g mask="url(#mask57_1422_6538)">
<rect width="22.6257" height="21.2937" transform="matrix(-0.604298 0.794136 0.816742 0.575726 99.3457 294.148)" fill="#D85A42" fill-opacity="0.35"/>
</g>
<mask id="mask58_1422_6538" style="mask-type:luminance" maskUnits="userSpaceOnUse" x="33" y="371" width="25" height="18">
<path d="M57.7389 379.572L57.4908 379.181L52.6525 371.512L52.6534 371.511L52.423 371.146L51.6162 371.515L34.7719 379.208L34.7705 379.207L33.9111 379.6L34.1546 379.991L38.9292 387.707L39.1582 388.077L39.9659 387.707L56.8807 379.966L57.7389 379.572Z" fill="white"/>
</mask>
<g mask="url(#mask58_1422_6538)">
<rect width="24.185" height="21.9256" transform="matrix(-0.604445 0.794047 0.816913 0.575525 44.1992 363.831)" fill="#D85A42" fill-opacity="0.35"/>
</g>
<mask id="mask59_1422_6538" style="mask-type:luminance" maskUnits="userSpaceOnUse" x="423" y="-4" width="23" height="14">
<path d="M445.014 2.25917L444.629 1.88011L438.916 -3.74205L424.241 2.68099L423.253 3.11405L423.633 3.49156L429.011 8.85625L429.303 9.1488L430.061 8.81578L444.028 2.69195L445.014 2.25917Z" fill="white"/>
</mask>
<g mask="url(#mask59_1422_6538)">
<rect width="18.2606" height="19.7261" transform="matrix(-0.603701 0.794505 0.81611 0.576471 431.484 -10.0798)" fill="#D85A42" fill-opacity="0.35"/>
</g>
<mask id="mask60_1422_6538" style="mask-type:luminance" maskUnits="userSpaceOnUse" x="381" y="52" width="23" height="14">
<path d="M403.235 58.4333L402.87 58.0528L397.444 52.3866L397.158 52.0867L396.398 52.4222L382.043 58.7565L381.08 59.1817L381.438 59.563L386.819 65.2634L387.105 65.5646L387.865 65.2278L402.272 58.8594L403.235 58.4333Z" fill="white"/>
</mask>
<g mask="url(#mask60_1422_6538)">
<rect width="19.037" height="19.7094" transform="matrix(-0.603894 0.794385 0.816306 0.576241 389.771 45.552)" fill="#D85A42" fill-opacity="0.35"/>
</g>
<mask id="mask61_1422_6538" style="mask-type:luminance" maskUnits="userSpaceOnUse" x="336" y="110" width="24" height="15">
<path d="M359.517 117.229L359.173 116.846L353.75 110.82L353.749 110.819L353.47 110.509L352.707 110.85L337.893 117.44L336.953 117.858L337.293 118.242L342.668 124.304L342.945 124.616L343.71 124.274L358.577 117.648L359.517 117.229Z" fill="white"/>
</mask>
<g mask="url(#mask61_1422_6538)">
<rect width="20.4342" height="19.6802" transform="matrix(-0.604204 0.794194 0.816637 0.57585 346.214 103.661)" fill="#D85A42" fill-opacity="0.35"/>
</g>
<mask id="mask62_1422_6538" style="mask-type:luminance" maskUnits="userSpaceOnUse" x="290" y="171" width="24" height="16">
<path d="M313.704 178.827L313.38 178.441L307.968 172.029L307.697 171.707L306.93 172.051L291.635 178.915L290.715 179.327L291.035 179.713L296.397 186.165L296.666 186.487L297.433 186.142L312.786 179.24L312.787 179.238L313.704 178.827Z" fill="white"/>
</mask>
<g mask="url(#mask62_1422_6538)">
<rect width="20.4434" height="20.5094" transform="matrix(-0.604032 0.7943 0.81645 0.576071 300.037 165.214)" fill="#D85A42" fill-opacity="0.35"/>
</g>
<mask id="mask63_1422_6538" style="mask-type:luminance" maskUnits="userSpaceOnUse" x="242" y="235" width="24" height="17">
<path d="M265.668 243.429L265.363 243.042L259.974 236.209L259.712 235.877L258.94 236.227L243.136 243.38L242.239 243.787L242.54 244.174L247.876 251.047L248.135 251.383L248.907 251.031L264.773 243.835L264.774 243.834L265.668 243.429Z" fill="white"/>
</mask>
<g mask="url(#mask63_1422_6538)">
<rect width="21.9955" height="20.4776" transform="matrix(-0.604341 0.79411 0.816792 0.575668 252.139 229.125)" fill="#D85A42" fill-opacity="0.35"/>
</g>
<mask id="mask64_1422_6538" style="mask-type:luminance" maskUnits="userSpaceOnUse" x="191" y="303" width="25" height="17">
<path d="M215.233 311.267L214.947 310.877L209.592 303.592L209.591 303.591L209.339 303.249L208.564 303.602L192.222 311.067L191.349 311.467L191.629 311.856L196.927 319.183L197.177 319.53L197.953 319.176L214.36 311.666L215.233 311.267Z" fill="white"/>
</mask>
<g mask="url(#mask64_1422_6538)">
<rect width="22.7884" height="21.9536" transform="matrix(-0.604203 0.794194 0.816636 0.575852 201.014 296.215)" fill="#D85A42" fill-opacity="0.35"/>
</g>
<mask id="mask65_1422_6538" style="mask-type:luminance" maskUnits="userSpaceOnUse" x="137" y="374" width="26" height="18">
<path d="M162.203 382.584L161.936 382.191L156.63 374.417L156.387 374.06L155.609 374.418L138.698 382.215L137.848 382.609L138.11 383L143.354 390.822L143.595 391.181L144.374 390.822L161.355 382.975L162.203 382.584Z" fill="white"/>
</mask>
<g mask="url(#mask65_1422_6538)">
<rect width="24.185" height="21.9256" transform="matrix(-0.604445 0.794047 0.816913 0.575525 148.113 366.784)" fill="#D85A42" fill-opacity="0.35"/>
</g>
<mask id="mask66_1422_6538" style="mask-type:luminance" maskUnits="userSpaceOnUse" x="517" y="-5" width="24" height="14">
<path d="M540.109 1.26945L539.703 0.890746L533.601 -4.77906L518.907 1.70662L517.928 2.13857L518.329 2.51569L524.088 7.93696L524.389 8.2206L525.121 7.89784L539.132 1.7011L540.109 1.26945Z" fill="white"/>
</mask>
<g mask="url(#mask66_1422_6538)">
<rect width="18.2588" height="19.5601" transform="matrix(-0.603739 0.794481 0.816149 0.576426 526.44 -11.0422)" fill="#D85A42" fill-opacity="0.35"/>
</g>
<mask id="mask67_1422_6538" style="mask-type:luminance" maskUnits="userSpaceOnUse" x="477" y="51" width="24" height="15">
<path d="M500.11 57.979L499.723 57.599L493.902 51.8691L493.606 51.5772L492.872 51.9046L478.471 58.3143L478.469 58.3134L477.514 58.7387L477.895 59.1194L483.673 64.8833L483.966 65.1769L484.702 64.8491L499.155 58.403L500.11 57.979Z" fill="white"/>
</mask>
<g mask="url(#mask67_1422_6538)">
<rect width="19.0459" height="20.5392" transform="matrix(-0.603709 0.7945 0.816118 0.576462 486.304 44.9932)" fill="#D85A42" fill-opacity="0.35"/>
</g>
<mask id="mask68_1422_6538" style="mask-type:luminance" maskUnits="userSpaceOnUse" x="435" y="110" width="24" height="15">
<path d="M458.221 117.348L457.853 116.966L452.017 110.87L451.729 110.569L450.993 110.9L436.129 117.57L435.197 117.989L435.558 118.372L441.347 124.504L441.633 124.808L442.369 124.477L457.289 117.767L458.221 117.348Z" fill="white"/>
</mask>
<g mask="url(#mask68_1422_6538)">
<rect width="19.8206" height="20.3565" transform="matrix(-0.60393 0.794363 0.816343 0.576197 444.166 103.956)" fill="#D85A42" fill-opacity="0.35"/>
</g>
<mask id="mask69_1422_6538" style="mask-type:luminance" maskUnits="userSpaceOnUse" x="390" y="172" width="25" height="16">
<path d="M414.334 179.588L413.988 179.201L408.146 172.711L407.866 172.4L407.126 172.734L391.778 179.683L390.867 180.095L391.207 180.481L396.999 187.011L397.279 187.326L398.019 186.989L413.425 180L414.334 179.588Z" fill="white"/>
</mask>
<g mask="url(#mask69_1422_6538)">
<rect width="21.2288" height="21.3224" transform="matrix(-0.604027 0.794303 0.816445 0.576077 400.072 165.312)" fill="#D85A42" fill-opacity="0.35"/>
</g>
<mask id="mask70_1422_6538" style="mask-type:luminance" maskUnits="userSpaceOnUse" x="344" y="237" width="25" height="16">
<path d="M368.266 244.886L367.939 244.498L362.101 237.58L361.829 237.256L361.086 237.595L345.226 244.843L344.338 245.248L344.659 245.635L350.443 252.596L350.714 252.921L351.457 252.582L367.38 245.291L368.266 244.886Z" fill="white"/>
</mask>
<g mask="url(#mask70_1422_6538)">
<rect width="21.2269" height="21.1566" transform="matrix(-0.604061 0.794282 0.81648 0.576035 354.167 230.688)" fill="#D85A42" fill-opacity="0.35"/>
</g>
<mask id="mask71_1422_6538" style="mask-type:luminance" maskUnits="userSpaceOnUse" x="295" y="305" width="25" height="17">
<path d="M319.875 313.494L319.567 313.105L313.745 305.724L313.482 305.389L312.736 305.732L296.335 313.296L295.469 313.695L295.771 314.085L301.535 321.511L301.797 321.849L302.546 321.504L319.01 313.893L319.875 313.494Z" fill="white"/>
</mask>
<g mask="url(#mask71_1422_6538)">
<rect width="22.7903" height="22.1194" transform="matrix(-0.604173 0.794213 0.816602 0.575892 305.618 297.96)" fill="#D85A42" fill-opacity="0.35"/>
</g>
<mask id="mask72_1422_6538" style="mask-type:luminance" maskUnits="userSpaceOnUse" x="244" y="377" width="25" height="18">
<path d="M268.966 385.651L268.68 385.26L262.885 377.377L262.629 377.03L261.881 377.379L261.88 377.38L244.908 385.281L244.065 385.674L244.347 386.066L250.081 393.998L250.333 394.348L251.083 393.998L268.125 386.044L268.966 385.651Z" fill="white"/>
</mask>
<g mask="url(#mask72_1422_6538)">
<rect width="23.5644" height="21.9379" transform="matrix(-0.604341 0.79411 0.816792 0.575667 254.812 369.874)" fill="#D85A42" fill-opacity="0.35"/>
</g>
<mask id="mask73_1422_6538" style="mask-type:luminance" maskUnits="userSpaceOnUse" x="493" y="173" width="25" height="16">
<path d="M517.037 180.355L516.667 179.969L510.377 173.4L510.086 173.097L509.375 173.423L493.976 180.458L493.074 180.872L493.438 181.257L499.678 187.867L499.965 188.173L500.678 187.847L516.136 180.767L517.037 180.355Z" fill="white"/>
</mask>
<g mask="url(#mask73_1422_6538)">
<rect width="20.6059" height="21.1696" transform="matrix(-0.603928 0.794364 0.816341 0.576199 502.555 166.249)" fill="#D85A42" fill-opacity="0.35"/>
</g>
<mask id="mask74_1422_6538" style="mask-type:luminance" maskUnits="userSpaceOnUse" x="448" y="238" width="26" height="17">
<path d="M473.045 246.377L472.697 245.99L466.392 238.982L466.109 238.669L465.395 238.998L449.481 246.338L448.601 246.743L448.946 247.132L455.198 254.181L455.197 254.182L455.478 254.498L456.193 254.167L472.168 246.782L472.17 246.782L473.045 246.377Z" fill="white"/>
</mask>
<g mask="url(#mask74_1422_6538)">
<rect width="21.236" height="21.986" transform="matrix(-0.603894 0.794385 0.816306 0.576241 458.236 232.034)" fill="#D85A42" fill-opacity="0.35"/>
</g>
<mask id="mask75_1422_6538" style="mask-type:luminance" maskUnits="userSpaceOnUse" x="401" y="307" width="26" height="18">
<path d="M426.796 315.766L426.467 315.375L420.156 307.895L419.882 307.571L419.164 307.905L402.707 315.569L401.85 315.967L402.173 316.356L408.427 323.883L408.7 324.211L409.419 323.876L425.94 316.164L426.796 315.766Z" fill="white"/>
</mask>
<g mask="url(#mask75_1422_6538)">
<rect width="22.0123" height="21.9697" transform="matrix(-0.604055 0.794286 0.816474 0.576043 411.779 300.652)" fill="#D85A42" fill-opacity="0.35"/>
</g>
<mask id="mask76_1422_6538" style="mask-type:luminance" maskUnits="userSpaceOnUse" x="352" y="380" width="27" height="18">
<path d="M378.129 388.797L377.82 388.405L371.515 380.411L371.248 380.074L370.527 380.413L353.497 388.424L352.662 388.817L352.966 389.209L359.209 397.251L359.474 397.593L360.195 397.252L377.296 389.19L378.129 388.797Z" fill="white"/>
</mask>
<g mask="url(#mask76_1422_6538)">
<rect width="23.4185" height="22.7699" transform="matrix(-0.604165 0.794218 0.816594 0.575902 363.245 373.473)" fill="#D85A42" fill-opacity="0.35"/>
</g>
<mask id="mask77_1422_6538" style="mask-type:luminance" maskUnits="userSpaceOnUse" x="510" y="309" width="27" height="18">
<path d="M536.089 318.09L535.738 317.7L528.916 310.118L528.632 309.803L527.941 310.127L511.434 317.894L510.586 318.293L510.932 318.683L517.695 326.312L517.979 326.631L518.67 326.306L518.671 326.305L535.243 318.489L536.089 318.09Z" fill="white"/>
</mask>
<g mask="url(#mask77_1422_6538)">
<rect width="22.0123" height="21.9697" transform="matrix(-0.604055 0.794286 0.816474 0.576043 521.146 303.02)" fill="#D85A42" fill-opacity="0.35"/>
</g>
<mask id="mask78_1422_6538" style="mask-type:luminance" maskUnits="userSpaceOnUse" x="463" y="383" width="27" height="18">
<path d="M489.767 392.018L489.435 391.625L482.597 383.519L482.595 383.518L482.32 383.19L481.626 383.52L464.541 391.641L463.715 392.033L464.04 392.425L470.819 400.584L471.094 400.915L471.79 400.584L488.943 392.409L489.767 392.018Z" fill="white"/>
</mask>
<g mask="url(#mask78_1422_6538)">
<rect width="23.4278" height="23.5991" transform="matrix(-0.604015 0.794311 0.816432 0.576093 474.267 376.111)" fill="#D85A42" fill-opacity="0.35"/>
</g>
</mask>
<g mask="url(#mask0_1422_6538)">
<path opacity="0.2" d="M526.002 13.0005H26.0019V424.001H526.002V13.0005Z" fill="url(#paint0_linear_1422_6538)" fill-opacity="0.63"/>
</g>
<defs>
<linearGradient id="paint0_linear_1422_6538" x1="332.218" y1="196.856" x2="340.387" y2="481.5" gradientUnits="userSpaceOnUse">
<stop offset="0.165666" stop-color="white"/>
<stop offset="1" stop-color="white" stop-opacity="0"/>
</linearGradient>
</defs>
</svg>
