<svg width="64" height="64" viewBox="0 0 64 64" fill="none" xmlns="http://www.w3.org/2000/svg">
<path d="M15.4641 52.6129C15.7885 51.4605 15.7547 49.2335 15.3487 47.8324C15.2731 47.8045 15.1974 47.7766 15.1218 47.7488C14.5068 48.31 14.1446 48.9747 13.856 49.6793C12.8908 52.2009 13.852 52.9035 13.868 54.8937C12.2877 52.8059 10.9383 50.5908 9.81982 48.2861C9.99098 45.6511 11.2309 46.7238 12.0011 43.1473C12.1424 42.4209 12.2539 41.6805 12.1822 40.8148C12.1146 40.771 12.0469 40.7272 11.9812 40.6854C11.2787 41.0576 10.797 41.579 10.3731 42.1542C8.89436 44.2798 9.7422 45.0142 9.22673 47.0044C8.20972 44.7017 7.4196 42.3154 6.85835 39.8833C7.33004 37.9468 7.79774 38.3091 8.96999 37.1348C9.65861 36.4283 10.4786 34.7048 10.6298 33.2897C10.5721 33.234 10.5164 33.1763 10.4607 33.1185C9.72628 33.2937 9.16702 33.6639 8.65752 34.0938C6.57773 35.9347 7.83357 36.281 6.54787 38.4046C6.08813 35.9964 5.8493 33.5504 5.83338 31.0984C7.02951 28.3022 7.76988 30.2068 9.79196 27.4245C10.1641 26.8831 10.5104 26.3159 10.7433 25.5437C10.7015 25.474 10.6577 25.4064 10.6159 25.3367C9.89346 25.3208 9.30435 25.5377 8.74708 25.8164C6.3787 27.0981 7.57284 27.8245 5.85527 29.4545C5.93886 27.0603 6.23342 24.668 6.74491 22.3076C8.13011 20.1979 7.88332 21.0975 9.87356 20.4487C10.8806 20.1104 12.0628 18.8486 12.5683 17.8733C12.5464 17.7977 12.5206 17.7201 12.4947 17.6425C11.3782 17.3181 9.89545 17.7121 9.11727 18.4784C8.22763 19.376 8.357 19.9074 7.17878 20.5184C7.79973 18.1739 8.63961 15.8712 9.69643 13.6381C9.71633 13.664 9.73822 13.6899 9.75812 13.7177C12.3156 11.0986 12.0429 13.5227 14.7019 11.8927C15.1974 11.5703 15.685 11.206 16.1667 10.595C16.1607 10.5115 16.1527 10.4279 16.1468 10.3443C15.2114 9.7691 13.7784 9.80293 12.9027 10.3701C11.9573 11.003 11.7921 11.6857 10.6199 11.9285C10.6279 11.8768 10.6298 11.827 10.6398 11.7753C12.3534 8.59685 14.5307 5.5896 17.1757 2.85303C14.67 5.27514 12.5365 7.94604 10.7791 10.7941C10.8985 8.88742 10.8826 7.10616 9.51133 5.60751C9.42177 5.64135 9.33221 5.67319 9.24265 5.70703C7.85745 8.14108 7.62857 10.9195 9.38794 13.2361C8.38088 15.1507 7.53503 17.135 6.85039 19.163C6.522 17.2683 5.81348 15.3836 4.30289 14.2213C4.22328 14.271 4.14367 14.3228 4.06406 14.3745C3.3217 17.1588 3.83319 20.1402 5.99857 22.0289C5.48111 24.0411 5.1149 26.089 4.90593 28.1529C4.07799 26.3497 2.95351 24.5964 1.16628 23.6609C1.1006 23.7266 1.03492 23.7943 0.967254 23.86C0.919489 26.8612 2.16936 29.7371 4.70691 31.2617C4.65317 33.2997 4.75069 35.3416 4.99947 37.3757C3.73965 35.7636 2.1594 34.2052 0.151258 33.5604C0.101502 33.64 0.0497559 33.7196 0 33.7992C0.686631 36.8144 2.57138 39.4375 5.51494 40.566C5.91697 42.5503 6.46627 44.5146 7.16286 46.4392C4.66511 44.447 2.79827 43.7404 1.31156 43.5414C1.27972 43.631 1.24788 43.7205 1.21802 43.8101C2.64701 46.688 5.11291 48.9369 8.44457 49.5639C9.2944 51.4168 10.2875 53.2219 11.4279 54.9654C8.32515 53.4826 6.22745 53.1463 4.70094 53.2139C4.69098 53.3095 4.68103 53.407 4.67108 53.5025C6.8484 56.1117 9.87157 57.8432 13.5117 57.8731C14.3974 58.9996 15.3487 60.0922 16.3697 61.147C16.907 60.6097 17.4444 60.0723 17.9818 59.5349C16.8115 58.4045 15.7229 57.2163 14.7198 55.9824C14.4869 54.2489 15.0203 54.1314 15.4641 52.6129Z" fill="#FAB77F"/>
<path d="M56.8371 46.4431C57.5356 44.5186 58.0829 42.5542 58.485 40.5699C61.1121 39.5629 63.2357 37.1567 63.9999 33.8031C63.9502 33.7235 63.9004 33.6439 63.8487 33.5643C61.8385 34.2091 60.2603 35.7715 59.0004 37.3796C59.2492 35.3476 59.3467 33.3036 59.293 31.2656C61.8345 29.7371 63.0804 26.8592 63.0327 23.8639C62.967 23.7982 62.9013 23.7306 62.8336 23.6649C61.0583 24.5943 59.9319 26.3358 59.094 28.1568C58.885 26.093 58.5188 24.045 58.0013 22.0329C59.8025 20.4944 60.8056 17.6365 59.9359 14.3765C59.8562 14.3247 59.7766 14.2749 59.697 14.2232C58.1785 15.3915 57.4739 17.2862 57.1495 19.165C56.4649 17.1349 55.619 15.1526 54.612 13.236C56.3694 10.9095 56.1504 8.15697 54.7553 5.70699C54.6657 5.67315 54.5762 5.64131 54.4866 5.60748C53.1173 7.10612 53.0994 8.88738 53.2188 10.796C51.4614 7.94799 49.3279 5.2771 46.8222 2.85498C49.4672 5.59155 51.6445 8.5988 53.3581 11.7772C53.3681 11.8289 53.3701 11.8767 53.378 11.9305C52.2058 11.6857 52.0406 11.003 51.0932 10.3721C50.2175 9.80488 48.7846 9.77105 47.8492 10.3462C47.8432 10.4298 47.8352 10.5134 47.8293 10.597C48.4761 11.421 49.8135 12.4181 50.8265 12.5036C52.6317 12.633 52.363 11.7991 54.2378 13.7197C54.2577 13.6938 54.2776 13.6659 54.2995 13.6401C55.3563 15.8711 56.1962 18.1758 56.8172 20.5203C54.8329 19.4894 55.8439 18.333 53.3124 17.6524C52.7471 17.519 52.164 17.4514 51.5012 17.6424C51.4754 17.72 51.4495 17.7977 51.4236 17.8753C51.7858 18.5758 52.2137 19.0436 52.6576 19.4754C55.1533 21.7742 55.3523 19.4555 57.249 22.3115C57.7605 24.6719 58.0571 27.0642 58.1387 29.4585C56.2002 27.6175 57.6889 27.1398 55.2469 25.8203C54.6896 25.5417 54.1025 25.3227 53.38 25.3407C53.3382 25.4103 53.2944 25.478 53.2526 25.5476C53.6547 26.8891 54.7394 28.3001 55.5096 28.7798C56.9863 29.6814 57.3107 29.1122 58.1626 31.1024C58.1466 33.5544 57.9078 36.0023 57.4481 38.4085C56.242 36.4183 57.3903 35.9128 55.3384 34.0977C54.8289 33.6658 54.2697 33.2976 53.5353 33.1225C53.4795 33.1802 53.4218 33.2379 53.3661 33.2936C53.4537 34.1236 53.6985 34.7823 53.9691 35.4252C55.43 38.6633 56.4649 37.1228 57.1376 39.8873C56.5763 42.3194 55.7862 44.7056 54.7692 47.0083C54.3314 45.3147 54.7513 45.6828 54.5065 44.1444C54.2896 42.8547 53.2327 41.3342 52.0147 40.6894C51.9471 40.7331 51.8794 40.7769 51.8117 40.8187C51.4296 45.4997 53.991 45.458 54.1741 48.2901C53.0556 50.5947 51.7062 52.8099 50.126 54.8976C50.1419 52.9074 51.1032 52.2068 50.1379 49.6832C49.8493 48.9787 49.4871 48.3139 48.8721 47.7527C48.7965 47.7806 48.7209 47.8084 48.6452 47.8363C48.2392 49.2354 48.2054 51.4625 48.5298 52.6168C48.9756 54.1413 49.507 54.2528 49.2762 55.9823C48.2711 57.2183 47.1844 58.4044 46.0142 59.5349C46.5515 60.0723 47.0889 60.6096 47.6262 61.147C48.6453 60.0922 49.5986 58.9995 50.4822 57.873C52.0486 57.8611 53.3502 57.5825 54.5423 57.0988C56.1843 56.3525 57.8302 55.2937 59.3229 53.5085C59.3129 53.4129 59.303 53.3154 59.293 53.2199C57.7665 53.1542 55.6688 53.4886 52.566 54.9713C53.7064 53.2278 54.6995 51.4227 55.5494 49.5698C58.8989 48.9409 61.3569 46.676 62.7759 43.816C62.7441 43.7264 62.7142 43.6369 62.6824 43.5473C61.2016 43.7444 59.3348 44.4489 56.8371 46.4431Z" fill="#FAB77F"/>
<path d="M32.0011 14.4561L36.8195 29.2833H52.407L39.7949 38.4463L44.6133 53.2716L32.0011 44.1086L19.389 53.2716L24.2074 38.4463L11.5933 29.2833H27.1828L32.0011 14.4561Z" fill="#FAB77F"/>
<path d="M32.001 14.4561V35.6182L36.8193 29.2833L32.001 14.4561Z" fill="#EFA567"/>
<path d="M32.001 35.6182L52.4069 29.2833L39.7947 38.4464L32.001 35.6182Z" fill="#EFA567"/>
<path d="M32.001 35.6183L44.6131 53.2717L32.001 44.1086V35.6183Z" fill="#EFA567"/>
<path d="M32.0013 35.6183L24.2075 38.4464L19.3892 53.2717L32.0013 35.6183Z" fill="#EFA567"/>
<path d="M11.5933 29.2833H27.1828L32.0011 35.6182L11.5933 29.2833Z" fill="#EFA567"/>
</svg>
