<svg width="44" height="44" viewBox="0 0 44 44" fill="none" xmlns="http://www.w3.org/2000/svg">
<circle cx="22" cy="22" r="22" fill="#19e2c6"/>
<path d="M23.5491 21C23.8304 20.6528 23.999 20.21 23.999 19.7275C23.999 19.0457 23.6618 18.4433 23.146 18.078C23.172 17.9594 23.1861 17.8362 23.1861 17.7096C23.1861 16.7654 22.4236 16 21.4829 16C20.8463 16 20.2913 16.3506 19.999 16.8699" stroke="white" stroke-width="0.6" stroke-miterlimit="10" stroke-linecap="round" stroke-linejoin="round"/>
<path d="M13.4493 21C13.1678 20.6528 12.999 20.2099 12.999 19.7274C12.999 19.0456 13.3363 18.4432 13.8523 18.078C13.8263 17.9593 13.8122 17.8361 13.8122 17.7096C13.8122 16.7654 14.5749 16 15.5159 16C16.1517 16 16.7063 16.3496 16.999 16.8676" stroke="white" stroke-width="0.6" stroke-miterlimit="10" stroke-linecap="round" stroke-linejoin="round"/>
<path d="M14.999 23H14.5437C13.6906 23 12.999 22.4482 12.999 21.7676V21.5594C12.999 21.2504 13.313 21 13.7002 21H14.926" stroke="white" stroke-width="0.6" stroke-miterlimit="10" stroke-linecap="round" stroke-linejoin="round"/>
<path d="M22.0587 21H23.293C23.683 21 23.999 21.2505 23.999 21.5594V21.7676C23.999 22.4482 23.3026 23 22.4436 23H21.999" stroke="white" stroke-width="0.6" stroke-miterlimit="10" stroke-linecap="round" stroke-linejoin="round"/>
<path d="M21.999 28L22.7786 28.4386C23.5173 28.8542 23.999 29.8345 23.999 30.9221V32" stroke="white" stroke-width="0.6" stroke-miterlimit="10" stroke-linecap="round" stroke-linejoin="round"/>
<path d="M19.999 26V27" stroke="white" stroke-width="0.6" stroke-miterlimit="10" stroke-linecap="round" stroke-linejoin="round"/>
<path d="M16.999 27V26" stroke="white" stroke-width="0.6" stroke-miterlimit="10" stroke-linecap="round" stroke-linejoin="round"/>
<path d="M12.999 32V30.9221C12.999 29.8345 13.4808 28.8541 14.2194 28.4386L14.999 28" stroke="white" stroke-width="0.6" stroke-miterlimit="10" stroke-linecap="round" stroke-linejoin="round"/>
<path d="M16.4565 27L17.999 28.678L16.7422 30L15.1016 28.0571C14.9107 27.8311 14.9993 27.4426 15.2595 27.3635L16.4565 27Z" stroke="white" stroke-width="0.6" stroke-miterlimit="10" stroke-linecap="round" stroke-linejoin="round"/>
<path d="M20.0557 27L17.999 28.678L19.6748 30L21.8623 28.0571C22.1167 27.8311 21.9987 27.4426 21.6517 27.3635L20.0557 27Z" stroke="white" stroke-width="0.6" stroke-miterlimit="10" stroke-linecap="round" stroke-linejoin="round"/>
<path d="M15.8603 18.0679C16.2003 17.7207 16.6291 17.4382 17.1248 17.25C18.0026 16.9167 18.9953 16.9167 19.8732 17.25C21.1625 17.7396 21.999 18.8664 21.999 20.1134V22.2915C21.999 23.0596 21.7431 23.7917 21.2896 24.4083C20.8361 25.025 20.1844 25.5266 19.3929 25.8341C19.1081 25.9445 18.8036 26 18.4991 26C18.1945 26 17.89 25.9446 17.6052 25.8341C16.0221 25.2193 14.999 23.8282 14.999 22.2915V20.1134C14.999 19.9923 15.0069 19.8723 15.0223 19.7539" stroke="white" stroke-width="0.6" stroke-miterlimit="10" stroke-linecap="round" stroke-linejoin="round"/>
<path d="M34.1334 29.7818V12.3317C34.1334 11.9275 33.7769 11.6001 33.337 11.6001H10.6631C10.2231 11.6001 9.8667 11.9275 9.8667 12.3317V31.6685C9.8667 32.0727 10.2231 32.4001 10.6631 32.4001H33.337C33.7769 32.4001 34.1334 32.0727 34.1334 31.6685V31.2466" stroke="white" stroke-width="0.8" stroke-miterlimit="10" stroke-linecap="round" stroke-linejoin="round"/>
<path d="M26 32L26 12" stroke="white" stroke-width="0.6" stroke-miterlimit="10" stroke-linecap="round" stroke-linejoin="round"/>
<path d="M26.334 18.5464H34.134" stroke="white" stroke-width="0.6" stroke-miterlimit="10" stroke-linecap="round" stroke-linejoin="round"/>
<path d="M26.334 24.8032H34.134" stroke="white" stroke-width="0.6" stroke-miterlimit="10" stroke-linecap="round" stroke-linejoin="round"/>
<path d="M29.7615 29.988L29.693 30.7338L29.0557 30.7982C28.6696 30.8373 28.3367 31.1061 28.194 31.4938L28.0078 31.9999" stroke="white" stroke-width="0.6" stroke-miterlimit="10" stroke-linecap="round" stroke-linejoin="round"/>
<path d="M32.8179 31.9999L32.6317 31.4937C32.489 31.106 32.1561 30.8372 31.77 30.7982L31.1327 30.7337L31.0625 29.969" stroke="white" stroke-width="0.6" stroke-miterlimit="10" stroke-linecap="round" stroke-linejoin="round"/>
<path d="M30.1101 30.171C30.3013 30.2723 30.5251 30.2724 30.7162 30.1713C31.1478 29.943 31.4391 29.491 31.4868 28.9757L31.5165 28.654C31.5815 27.9509 31.0683 27.3405 30.4118 27.3401C29.7554 27.3397 29.2427 27.9495 29.3084 28.6527L29.3385 28.9745C29.3866 29.4898 29.6783 29.9422 30.1101 30.171Z" stroke="white" stroke-width="0.6" stroke-miterlimit="10" stroke-linecap="round" stroke-linejoin="round"/>
<path d="M29.765 16.427L29.693 17.1566L29.0557 17.2165C28.6696 17.2529 28.3367 17.5029 28.194 17.8635L28.0078 18.3342" stroke="white" stroke-width="0.6" stroke-miterlimit="10" stroke-linecap="round" stroke-linejoin="round"/>
<path d="M32.8184 18.3343L32.6322 17.8635C32.4895 17.5029 32.1566 17.2529 31.7705 17.2166L31.1332 17.1566L31.063 16.4453" stroke="white" stroke-width="0.6" stroke-miterlimit="10" stroke-linecap="round" stroke-linejoin="round"/>
<path d="M30.1111 16.6331C30.3023 16.7273 30.5261 16.7274 30.7171 16.6334C31.1487 16.421 31.4401 16.0006 31.4877 15.5213L31.5175 15.2221C31.5825 14.5681 31.0693 14.0004 30.4128 14C29.7564 13.9996 29.2437 14.5669 29.3094 15.2209L29.3394 15.5202C29.3875 15.9995 29.6793 16.4203 30.1111 16.6331Z" stroke="white" stroke-width="0.6" stroke-miterlimit="10" stroke-linecap="round" stroke-linejoin="round"/>
<path d="M29.762 22.4526L29.6926 23.1567L29.0552 23.2167C28.6692 23.253 28.3362 23.503 28.1935 23.8636L28.0073 24.3344" stroke="white" stroke-width="0.6" stroke-miterlimit="10" stroke-linecap="round" stroke-linejoin="round"/>
<path d="M32.8182 24.3344L32.632 23.8636C32.4893 23.503 32.1563 23.253 31.7703 23.2167L31.1329 23.1567L31.0635 22.4526" stroke="white" stroke-width="0.6" stroke-miterlimit="10" stroke-linecap="round" stroke-linejoin="round"/>
<path d="M30.1097 22.6331C30.3008 22.7273 30.5246 22.7274 30.7157 22.6334C31.1473 22.421 31.4387 22.0006 31.4863 21.5213L31.516 21.2221C31.581 20.5681 31.0678 20.0004 30.4113 20C29.7549 19.9996 29.2423 20.5669 29.3079 21.2209L29.338 21.5202C29.3861 21.9996 29.6778 22.4203 30.1097 22.6331Z" stroke="white" stroke-width="0.6" stroke-miterlimit="10" stroke-linecap="round" stroke-linejoin="round"/>
<path d="M17.5 23C17.8099 24.3333 19.1901 24.3333 19.5 23" stroke="white" stroke-width="0.6" stroke-miterlimit="10" stroke-linecap="round" stroke-linejoin="round"/>
</svg>
